<svg xmlns="http://www.w3.org/2000/svg" viewBox="0 0 800 400" width="800" height="400">
  <rect width="800" height="400" fill="#0d1117" rx="8"/>

  <!-- Title -->
  <text x="70" y="30" fill="#c9d1d9" font-family="system-ui, -apple-system, sans-serif" font-size="16" font-weight="bold">Claude's Paper Trading — Equity Curve</text>
  <text x="70" y="48" fill="#58a6ff" font-family="system-ui, sans-serif" font-size="12">
    $8,808.20 (-11.92%) | Win Rate: 59/141 (42%) | Realized: $+214.43
  </text>

  <!-- Grid lines -->
  <line x1="70" y1="320.0" x2="770" y2="320.0" stroke="#21262d" stroke-width="0.5"/><line x1="70" y1="268.0" x2="770" y2="268.0" stroke="#21262d" stroke-width="0.5"/><line x1="70" y1="216.0" x2="770" y2="216.0" stroke="#21262d" stroke-width="0.5"/><line x1="70" y1="164.0" x2="770" y2="164.0" stroke="#21262d" stroke-width="0.5"/><line x1="70" y1="112.0" x2="770" y2="112.0" stroke="#21262d" stroke-width="0.5"/><line x1="70" y1="60.0" x2="770" y2="60.0" stroke="#21262d" stroke-width="0.5"/>

  <!-- Baseline (starting capital) -->
  <line x1="70" y1="187.1" x2="770" y2="187.1" stroke="#c9d1d9" stroke-width="0.5" stroke-dasharray="4,4" opacity="0.5"/>
  <text x="775" y="187.1" fill="#c9d1d9" font-size="9" opacity="0.6" dominant-baseline="middle">$10K</text>

  <!-- Fill under curve -->
  <path d="M 70.0 197.4 L 86.3 180.1 L 102.6 191.9 L 118.8 252.2 L 135.1 258.2 L 151.4 221.0 L 167.7 210.8 L 184.0 197.0 L 200.2 195.2 L 216.5 203.8 L 232.8 194.6 L 249.1 176.7 L 265.3 178.1 L 281.6 205.8 L 297.9 187.1 L 314.2 187.1 L 330.5 187.1 L 346.7 187.1 L 363.0 182.4 L 379.3 167.0 L 395.6 179.2 L 411.9 151.0 L 428.1 144.0 L 444.4 198.7 L 460.7 191.2 L 477.0 191.9 L 493.3 188.9 L 509.5 186.9 L 525.8 162.4 L 542.1 190.6 L 558.4 156.4 L 574.7 148.7 L 590.9 140.0 L 607.2 141.6 L 623.5 118.5 L 639.8 104.5 L 656.0 139.8 L 672.3 134.8 L 688.6 112.4 L 704.9 178.1 L 721.2 231.9 L 737.4 280.5 L 753.7 284.5 L 770.0 283.3 L 770.0 320.0 L 70.0 320.0 Z" fill="#dc2626" opacity="0.1"/>

  <!-- Equity line -->
  <path d="M 70.0 197.4 L 86.3 180.1 L 102.6 191.9 L 118.8 252.2 L 135.1 258.2 L 151.4 221.0 L 167.7 210.8 L 184.0 197.0 L 200.2 195.2 L 216.5 203.8 L 232.8 194.6 L 249.1 176.7 L 265.3 178.1 L 281.6 205.8 L 297.9 187.1 L 314.2 187.1 L 330.5 187.1 L 346.7 187.1 L 363.0 182.4 L 379.3 167.0 L 395.6 179.2 L 411.9 151.0 L 428.1 144.0 L 444.4 198.7 L 460.7 191.2 L 477.0 191.9 L 493.3 188.9 L 509.5 186.9 L 525.8 162.4 L 542.1 190.6 L 558.4 156.4 L 574.7 148.7 L 590.9 140.0 L 607.2 141.6 L 623.5 118.5 L 639.8 104.5 L 656.0 139.8 L 672.3 134.8 L 688.6 112.4 L 704.9 178.1 L 721.2 231.9 L 737.4 280.5 L 753.7 284.5 L 770.0 283.3" fill="none" stroke="#dc2626" stroke-width="2.5" stroke-linecap="round" stroke-linejoin="round"/>

  <!-- Data points -->
  <circle cx="70.0" cy="197.4" r="3" fill="#dc2626"/><circle cx="86.3" cy="180.1" r="3" fill="#dc2626"/><circle cx="102.6" cy="191.9" r="3" fill="#dc2626"/><circle cx="118.8" cy="252.2" r="3" fill="#dc2626"/><circle cx="135.1" cy="258.2" r="3" fill="#dc2626"/><circle cx="151.4" cy="221.0" r="3" fill="#dc2626"/><circle cx="167.7" cy="210.8" r="3" fill="#dc2626"/><circle cx="184.0" cy="197.0" r="3" fill="#dc2626"/><circle cx="200.2" cy="195.2" r="3" fill="#dc2626"/><circle cx="216.5" cy="203.8" r="3" fill="#dc2626"/><circle cx="232.8" cy="194.6" r="3" fill="#dc2626"/><circle cx="249.1" cy="176.7" r="3" fill="#dc2626"/><circle cx="265.3" cy="178.1" r="3" fill="#dc2626"/><circle cx="281.6" cy="205.8" r="3" fill="#dc2626"/><circle cx="297.9" cy="187.1" r="3" fill="#dc2626"/><circle cx="314.2" cy="187.1" r="3" fill="#dc2626"/><circle cx="330.5" cy="187.1" r="3" fill="#dc2626"/><circle cx="346.7" cy="187.1" r="3" fill="#dc2626"/><circle cx="363.0" cy="182.4" r="3" fill="#dc2626"/><circle cx="379.3" cy="167.0" r="3" fill="#dc2626"/><circle cx="395.6" cy="179.2" r="3" fill="#dc2626"/><circle cx="411.9" cy="151.0" r="3" fill="#dc2626"/><circle cx="428.1" cy="144.0" r="3" fill="#dc2626"/><circle cx="444.4" cy="198.7" r="3" fill="#dc2626"/><circle cx="460.7" cy="191.2" r="3" fill="#dc2626"/><circle cx="477.0" cy="191.9" r="3" fill="#dc2626"/><circle cx="493.3" cy="188.9" r="3" fill="#dc2626"/><circle cx="509.5" cy="186.9" r="3" fill="#dc2626"/><circle cx="525.8" cy="162.4" r="3" fill="#dc2626"/><circle cx="542.1" cy="190.6" r="3" fill="#dc2626"/><circle cx="558.4" cy="156.4" r="3" fill="#dc2626"/><circle cx="574.7" cy="148.7" r="3" fill="#dc2626"/><circle cx="590.9" cy="140.0" r="3" fill="#dc2626"/><circle cx="607.2" cy="141.6" r="3" fill="#dc2626"/><circle cx="623.5" cy="118.5" r="3" fill="#dc2626"/><circle cx="639.8" cy="104.5" r="3" fill="#dc2626"/><circle cx="656.0" cy="139.8" r="3" fill="#dc2626"/><circle cx="672.3" cy="134.8" r="3" fill="#dc2626"/><circle cx="688.6" cy="112.4" r="3" fill="#dc2626"/><circle cx="704.9" cy="178.1" r="3" fill="#dc2626"/><circle cx="721.2" cy="231.9" r="3" fill="#dc2626"/><circle cx="737.4" cy="280.5" r="3" fill="#dc2626"/><circle cx="753.7" cy="284.5" r="3" fill="#dc2626"/><circle cx="770.0" cy="283.3" r="3" fill="#dc2626"/>

  <!-- Trade markers -->
  <circle cx="135.1" cy="258.2" r="4" fill="#dc2626" opacity="0.8"/>
<circle cx="151.4" cy="221.0" r="4" fill="#dc2626" opacity="0.8"/>
<circle cx="151.4" cy="221.0" r="4" fill="#dc2626" opacity="0.8"/>
<circle cx="151.4" cy="221.0" r="4" fill="#dc2626" opacity="0.8"/>
<circle cx="184.0" cy="197.0" r="4" fill="#dc2626" opacity="0.8"/>
<circle cx="184.0" cy="197.0" r="4" fill="#16a34a" opacity="0.8"/>
<circle cx="184.0" cy="197.0" r="4" fill="#dc2626" opacity="0.8"/>
<circle cx="184.0" cy="197.0" r="4" fill="#dc2626" opacity="0.8"/>
<circle cx="184.0" cy="197.0" r="4" fill="#16a34a" opacity="0.8"/>
<circle cx="200.2" cy="195.2" r="4" fill="#16a34a" opacity="0.8"/>
<circle cx="200.2" cy="195.2" r="4" fill="#dc2626" opacity="0.8"/>
<circle cx="200.2" cy="195.2" r="4" fill="#dc2626" opacity="0.8"/>
<circle cx="200.2" cy="195.2" r="4" fill="#dc2626" opacity="0.8"/>
<circle cx="216.5" cy="203.8" r="4" fill="#dc2626" opacity="0.8"/>
<circle cx="216.5" cy="203.8" r="4" fill="#16a34a" opacity="0.8"/>
<circle cx="216.5" cy="203.8" r="4" fill="#dc2626" opacity="0.8"/>
<circle cx="216.5" cy="203.8" r="4" fill="#dc2626" opacity="0.8"/>
<circle cx="216.5" cy="203.8" r="4" fill="#dc2626" opacity="0.8"/>
<circle cx="232.8" cy="194.6" r="4" fill="#16a34a" opacity="0.8"/>
<circle cx="232.8" cy="194.6" r="4" fill="#dc2626" opacity="0.8"/>
<circle cx="232.8" cy="194.6" r="4" fill="#16a34a" opacity="0.8"/>
<circle cx="232.8" cy="194.6" r="4" fill="#dc2626" opacity="0.8"/>
<circle cx="232.8" cy="194.6" r="4" fill="#dc2626" opacity="0.8"/>
<circle cx="249.1" cy="176.7" r="4" fill="#16a34a" opacity="0.8"/>
<circle cx="249.1" cy="176.7" r="4" fill="#16a34a" opacity="0.8"/>
<circle cx="249.1" cy="176.7" r="4" fill="#16a34a" opacity="0.8"/>
<circle cx="379.3" cy="167.0" r="4" fill="#dc2626" opacity="0.8"/>
<circle cx="379.3" cy="167.0" r="4" fill="#dc2626" opacity="0.8"/>
<circle cx="379.3" cy="167.0" r="4" fill="#16a34a" opacity="0.8"/>
<circle cx="379.3" cy="167.0" r="4" fill="#16a34a" opacity="0.8"/>
<circle cx="379.3" cy="167.0" r="4" fill="#16a34a" opacity="0.8"/>
<circle cx="395.6" cy="179.2" r="4" fill="#16a34a" opacity="0.8"/>
<circle cx="395.6" cy="179.2" r="4" fill="#16a34a" opacity="0.8"/>
<circle cx="395.6" cy="179.2" r="4" fill="#dc2626" opacity="0.8"/>
<circle cx="395.6" cy="179.2" r="4" fill="#16a34a" opacity="0.8"/>
<circle cx="395.6" cy="179.2" r="4" fill="#dc2626" opacity="0.8"/>
<circle cx="395.6" cy="179.2" r="4" fill="#dc2626" opacity="0.8"/>
<circle cx="395.6" cy="179.2" r="4" fill="#dc2626" opacity="0.8"/>
<circle cx="411.9" cy="151.0" r="4" fill="#dc2626" opacity="0.8"/>
<circle cx="411.9" cy="151.0" r="4" fill="#16a34a" opacity="0.8"/>
<circle cx="411.9" cy="151.0" r="4" fill="#16a34a" opacity="0.8"/>
<circle cx="411.9" cy="151.0" r="4" fill="#dc2626" opacity="0.8"/>
<circle cx="411.9" cy="151.0" r="4" fill="#16a34a" opacity="0.8"/>
<circle cx="411.9" cy="151.0" r="4" fill="#16a34a" opacity="0.8"/>
<circle cx="428.1" cy="144.0" r="4" fill="#dc2626" opacity="0.8"/>
<circle cx="428.1" cy="144.0" r="4" fill="#16a34a" opacity="0.8"/>
<circle cx="428.1" cy="144.0" r="4" fill="#16a34a" opacity="0.8"/>
<circle cx="428.1" cy="144.0" r="4" fill="#16a34a" opacity="0.8"/>
<circle cx="428.1" cy="144.0" r="4" fill="#dc2626" opacity="0.8"/>
<circle cx="428.1" cy="144.0" r="4" fill="#dc2626" opacity="0.8"/>
<circle cx="428.1" cy="144.0" r="4" fill="#16a34a" opacity="0.8"/>
<circle cx="444.4" cy="198.7" r="4" fill="#16a34a" opacity="0.8"/>
<circle cx="444.4" cy="198.7" r="4" fill="#dc2626" opacity="0.8"/>
<circle cx="444.4" cy="198.7" r="4" fill="#dc2626" opacity="0.8"/>
<circle cx="444.4" cy="198.7" r="4" fill="#16a34a" opacity="0.8"/>
<circle cx="444.4" cy="198.7" r="4" fill="#dc2626" opacity="0.8"/>
<circle cx="444.4" cy="198.7" r="4" fill="#dc2626" opacity="0.8"/>
<circle cx="444.4" cy="198.7" r="4" fill="#dc2626" opacity="0.8"/>
<circle cx="444.4" cy="198.7" r="4" fill="#dc2626" opacity="0.8"/>
<circle cx="444.4" cy="198.7" r="4" fill="#dc2626" opacity="0.8"/>
<circle cx="460.7" cy="191.2" r="4" fill="#dc2626" opacity="0.8"/>
<circle cx="460.7" cy="191.2" r="4" fill="#16a34a" opacity="0.8"/>
<circle cx="460.7" cy="191.2" r="4" fill="#dc2626" opacity="0.8"/>
<circle cx="460.7" cy="191.2" r="4" fill="#16a34a" opacity="0.8"/>
<circle cx="460.7" cy="191.2" r="4" fill="#16a34a" opacity="0.8"/>
<circle cx="460.7" cy="191.2" r="4" fill="#16a34a" opacity="0.8"/>
<circle cx="460.7" cy="191.2" r="4" fill="#16a34a" opacity="0.8"/>
<circle cx="460.7" cy="191.2" r="4" fill="#16a34a" opacity="0.8"/>
<circle cx="460.7" cy="191.2" r="4" fill="#dc2626" opacity="0.8"/>
<circle cx="477.0" cy="191.9" r="4" fill="#16a34a" opacity="0.8"/>
<circle cx="477.0" cy="191.9" r="4" fill="#dc2626" opacity="0.8"/>
<circle cx="477.0" cy="191.9" r="4" fill="#dc2626" opacity="0.8"/>
<circle cx="477.0" cy="191.9" r="4" fill="#16a34a" opacity="0.8"/>
<circle cx="477.0" cy="191.9" r="4" fill="#16a34a" opacity="0.8"/>
<circle cx="477.0" cy="191.9" r="4" fill="#16a34a" opacity="0.8"/>
<circle cx="477.0" cy="191.9" r="4" fill="#dc2626" opacity="0.8"/>
<circle cx="493.3" cy="188.9" r="4" fill="#dc2626" opacity="0.8"/>
<circle cx="493.3" cy="188.9" r="4" fill="#dc2626" opacity="0.8"/>
<circle cx="493.3" cy="188.9" r="4" fill="#dc2626" opacity="0.8"/>
<circle cx="493.3" cy="188.9" r="4" fill="#16a34a" opacity="0.8"/>
<circle cx="493.3" cy="188.9" r="4" fill="#16a34a" opacity="0.8"/>
<circle cx="493.3" cy="188.9" r="4" fill="#dc2626" opacity="0.8"/>
<circle cx="509.5" cy="186.9" r="4" fill="#dc2626" opacity="0.8"/>
<circle cx="509.5" cy="186.9" r="4" fill="#dc2626" opacity="0.8"/>
<circle cx="509.5" cy="186.9" r="4" fill="#dc2626" opacity="0.8"/>
<circle cx="509.5" cy="186.9" r="4" fill="#dc2626" opacity="0.8"/>
<circle cx="509.5" cy="186.9" r="4" fill="#16a34a" opacity="0.8"/>
<circle cx="509.5" cy="186.9" r="4" fill="#dc2626" opacity="0.8"/>
<circle cx="509.5" cy="186.9" r="4" fill="#dc2626" opacity="0.8"/>
<circle cx="509.5" cy="186.9" r="4" fill="#dc2626" opacity="0.8"/>
<circle cx="509.5" cy="186.9" r="4" fill="#dc2626" opacity="0.8"/>
<circle cx="525.8" cy="162.4" r="4" fill="#dc2626" opacity="0.8"/>
<circle cx="525.8" cy="162.4" r="4" fill="#16a34a" opacity="0.8"/>
<circle cx="525.8" cy="162.4" r="4" fill="#dc2626" opacity="0.8"/>
<circle cx="525.8" cy="162.4" r="4" fill="#16a34a" opacity="0.8"/>
<circle cx="525.8" cy="162.4" r="4" fill="#dc2626" opacity="0.8"/>
<circle cx="525.8" cy="162.4" r="4" fill="#dc2626" opacity="0.8"/>
<circle cx="542.1" cy="190.6" r="4" fill="#dc2626" opacity="0.8"/>
<circle cx="542.1" cy="190.6" r="4" fill="#16a34a" opacity="0.8"/>
<circle cx="542.1" cy="190.6" r="4" fill="#dc2626" opacity="0.8"/>
<circle cx="542.1" cy="190.6" r="4" fill="#dc2626" opacity="0.8"/>
<circle cx="542.1" cy="190.6" r="4" fill="#dc2626" opacity="0.8"/>
<circle cx="542.1" cy="190.6" r="4" fill="#16a34a" opacity="0.8"/>
<circle cx="542.1" cy="190.6" r="4" fill="#dc2626" opacity="0.8"/>
<circle cx="542.1" cy="190.6" r="4" fill="#dc2626" opacity="0.8"/>
<circle cx="558.4" cy="156.4" r="4" fill="#dc2626" opacity="0.8"/>
<circle cx="558.4" cy="156.4" r="4" fill="#dc2626" opacity="0.8"/>
<circle cx="558.4" cy="156.4" r="4" fill="#16a34a" opacity="0.8"/>
<circle cx="558.4" cy="156.4" r="4" fill="#16a34a" opacity="0.8"/>
<circle cx="558.4" cy="156.4" r="4" fill="#dc2626" opacity="0.8"/>
<circle cx="574.7" cy="148.7" r="4" fill="#16a34a" opacity="0.8"/>
<circle cx="574.7" cy="148.7" r="4" fill="#dc2626" opacity="0.8"/>
<circle cx="574.7" cy="148.7" r="4" fill="#dc2626" opacity="0.8"/>
<circle cx="574.7" cy="148.7" r="4" fill="#dc2626" opacity="0.8"/>
<circle cx="574.7" cy="148.7" r="4" fill="#dc2626" opacity="0.8"/>
<circle cx="574.7" cy="148.7" r="4" fill="#16a34a" opacity="0.8"/>
<circle cx="574.7" cy="148.7" r="4" fill="#dc2626" opacity="0.8"/>
<circle cx="574.7" cy="148.7" r="4" fill="#dc2626" opacity="0.8"/>
<circle cx="590.9" cy="140.0" r="4" fill="#dc2626" opacity="0.8"/>
<circle cx="590.9" cy="140.0" r="4" fill="#dc2626" opacity="0.8"/>
<circle cx="590.9" cy="140.0" r="4" fill="#dc2626" opacity="0.8"/>
<circle cx="590.9" cy="140.0" r="4" fill="#dc2626" opacity="0.8"/>
<circle cx="590.9" cy="140.0" r="4" fill="#dc2626" opacity="0.8"/>
<circle cx="590.9" cy="140.0" r="4" fill="#dc2626" opacity="0.8"/>
<circle cx="590.9" cy="140.0" r="4" fill="#16a34a" opacity="0.8"/>
<circle cx="590.9" cy="140.0" r="4" fill="#16a34a" opacity="0.8"/>
<circle cx="590.9" cy="140.0" r="4" fill="#16a34a" opacity="0.8"/>
<circle cx="607.2" cy="141.6" r="4" fill="#16a34a" opacity="0.8"/>
<circle cx="607.2" cy="141.6" r="4" fill="#dc2626" opacity="0.8"/>
<circle cx="607.2" cy="141.6" r="4" fill="#16a34a" opacity="0.8"/>
<circle cx="607.2" cy="141.6" r="4" fill="#16a34a" opacity="0.8"/>
<circle cx="607.2" cy="141.6" r="4" fill="#16a34a" opacity="0.8"/>
<circle cx="607.2" cy="141.6" r="4" fill="#dc2626" opacity="0.8"/>
<circle cx="607.2" cy="141.6" r="4" fill="#16a34a" opacity="0.8"/>
<circle cx="607.2" cy="141.6" r="4" fill="#dc2626" opacity="0.8"/>
<circle cx="623.5" cy="118.5" r="4" fill="#dc2626" opacity="0.8"/>
<circle cx="623.5" cy="118.5" r="4" fill="#16a34a" opacity="0.8"/>
<circle cx="623.5" cy="118.5" r="4" fill="#16a34a" opacity="0.8"/>
<circle cx="623.5" cy="118.5" r="4" fill="#16a34a" opacity="0.8"/>
<circle cx="623.5" cy="118.5" r="4" fill="#16a34a" opacity="0.8"/>
<circle cx="623.5" cy="118.5" r="4" fill="#16a34a" opacity="0.8"/>


  <!-- Y-axis labels -->
  <text x="62" y="320.0" fill="#c9d1d9" font-size="10" text-anchor="end" dominant-baseline="middle">$8,354</text><text x="62" y="268.0" fill="#c9d1d9" font-size="10" text-anchor="end" dominant-baseline="middle">$8,998</text><text x="62" y="216.0" fill="#c9d1d9" font-size="10" text-anchor="end" dominant-baseline="middle">$9,642</text><text x="62" y="164.0" fill="#c9d1d9" font-size="10" text-anchor="end" dominant-baseline="middle">$10,286</text><text x="62" y="112.0" fill="#c9d1d9" font-size="10" text-anchor="end" dominant-baseline="middle">$10,930</text><text x="62" y="60.0" fill="#c9d1d9" font-size="10" text-anchor="end" dominant-baseline="middle">$11,574</text>

  <!-- X-axis labels -->
  <text x="70.0" y="340" fill="#c9d1d9" font-size="10" text-anchor="middle">2026-05-13</text><text x="428.1" y="340" fill="#c9d1d9" font-size="10" text-anchor="middle">2026-06-12</text><text x="770.0" y="340" fill="#c9d1d9" font-size="10" text-anchor="middle">2026-07-13</text>

  <!-- Legend -->
  <circle cx="650" cy="380" r="4" fill="#16a34a"/>
  <text x="658" y="384" fill="#c9d1d9" font-size="9">Win</text>
  <circle cx="690" cy="380" r="4" fill="#dc2626"/>
  <text x="698" y="384" fill="#c9d1d9" font-size="9">Loss</text>
  <line x1="730" y1="380" x2="745" y2="380" stroke="#c9d1d9" stroke-width="0.5" stroke-dasharray="4,4" opacity="0.5"/>
  <text x="750" y="384" fill="#c9d1d9" font-size="9">$10K baseline</text>
</svg>