<svg xmlns="http://www.w3.org/2000/svg" viewBox="0 0 800 400" width="800" height="400">
  <rect width="800" height="400" fill="#0d1117" rx="8"/>

  <!-- Title -->
  <text x="70" y="30" fill="#c9d1d9" font-family="system-ui, -apple-system, sans-serif" font-size="16" font-weight="bold">Claude's Paper Trading — Equity Curve</text>
  <text x="70" y="48" fill="#58a6ff" font-family="system-ui, sans-serif" font-size="12">
    $9,898.09 (-1.02%) | Win Rate: 36/80 (45%) | Realized: $-722.29
  </text>

  <!-- Grid lines -->
  <line x1="70" y1="320.0" x2="770" y2="320.0" stroke="#21262d" stroke-width="0.5"/><line x1="70" y1="268.0" x2="770" y2="268.0" stroke="#21262d" stroke-width="0.5"/><line x1="70" y1="216.0" x2="770" y2="216.0" stroke="#21262d" stroke-width="0.5"/><line x1="70" y1="164.0" x2="770" y2="164.0" stroke="#21262d" stroke-width="0.5"/><line x1="70" y1="112.0" x2="770" y2="112.0" stroke="#21262d" stroke-width="0.5"/><line x1="70" y1="60.0" x2="770" y2="60.0" stroke="#21262d" stroke-width="0.5"/>

  <!-- Baseline (starting capital) -->
  <line x1="70" y1="175.0" x2="770" y2="175.0" stroke="#c9d1d9" stroke-width="0.5" stroke-dasharray="4,4" opacity="0.5"/>
  <text x="775" y="175.0" fill="#c9d1d9" font-size="9" opacity="0.6" dominant-baseline="middle">$10K</text>

  <!-- Fill under curve -->
  <path d="M 70.0 188.9 L 96.9 165.6 L 123.8 181.4 L 150.8 262.4 L 177.7 270.6 L 204.6 220.5 L 231.5 206.9 L 258.5 188.3 L 285.4 185.9 L 312.3 197.5 L 339.2 185.1 L 366.2 161.1 L 393.1 163.0 L 420.0 200.1 L 446.9 175.0 L 473.8 175.0 L 500.8 175.0 L 527.7 175.0 L 554.6 168.7 L 581.5 148.0 L 608.5 164.4 L 635.4 126.5 L 662.3 117.1 L 689.2 190.6 L 716.2 180.5 L 743.1 181.5 L 770.0 186.1 L 770.0 320.0 L 70.0 320.0 Z" fill="#dc2626" opacity="0.1"/>

  <!-- Equity line -->
  <path d="M 70.0 188.9 L 96.9 165.6 L 123.8 181.4 L 150.8 262.4 L 177.7 270.6 L 204.6 220.5 L 231.5 206.9 L 258.5 188.3 L 285.4 185.9 L 312.3 197.5 L 339.2 185.1 L 366.2 161.1 L 393.1 163.0 L 420.0 200.1 L 446.9 175.0 L 473.8 175.0 L 500.8 175.0 L 527.7 175.0 L 554.6 168.7 L 581.5 148.0 L 608.5 164.4 L 635.4 126.5 L 662.3 117.1 L 689.2 190.6 L 716.2 180.5 L 743.1 181.5 L 770.0 186.1" fill="none" stroke="#dc2626" stroke-width="2.5" stroke-linecap="round" stroke-linejoin="round"/>

  <!-- Data points -->
  <circle cx="70.0" cy="188.9" r="3" fill="#dc2626"/><circle cx="96.9" cy="165.6" r="3" fill="#dc2626"/><circle cx="123.8" cy="181.4" r="3" fill="#dc2626"/><circle cx="150.8" cy="262.4" r="3" fill="#dc2626"/><circle cx="177.7" cy="270.6" r="3" fill="#dc2626"/><circle cx="204.6" cy="220.5" r="3" fill="#dc2626"/><circle cx="231.5" cy="206.9" r="3" fill="#dc2626"/><circle cx="258.5" cy="188.3" r="3" fill="#dc2626"/><circle cx="285.4" cy="185.9" r="3" fill="#dc2626"/><circle cx="312.3" cy="197.5" r="3" fill="#dc2626"/><circle cx="339.2" cy="185.1" r="3" fill="#dc2626"/><circle cx="366.2" cy="161.1" r="3" fill="#dc2626"/><circle cx="393.1" cy="163.0" r="3" fill="#dc2626"/><circle cx="420.0" cy="200.1" r="3" fill="#dc2626"/><circle cx="446.9" cy="175.0" r="3" fill="#dc2626"/><circle cx="473.8" cy="175.0" r="3" fill="#dc2626"/><circle cx="500.8" cy="175.0" r="3" fill="#dc2626"/><circle cx="527.7" cy="175.0" r="3" fill="#dc2626"/><circle cx="554.6" cy="168.7" r="3" fill="#dc2626"/><circle cx="581.5" cy="148.0" r="3" fill="#dc2626"/><circle cx="608.5" cy="164.4" r="3" fill="#dc2626"/><circle cx="635.4" cy="126.5" r="3" fill="#dc2626"/><circle cx="662.3" cy="117.1" r="3" fill="#dc2626"/><circle cx="689.2" cy="190.6" r="3" fill="#dc2626"/><circle cx="716.2" cy="180.5" r="3" fill="#dc2626"/><circle cx="743.1" cy="181.5" r="3" fill="#dc2626"/><circle cx="770.0" cy="186.1" r="3" fill="#dc2626"/>

  <!-- Trade markers -->
  <circle cx="177.7" cy="270.6" r="4" fill="#dc2626" opacity="0.8"/>
<circle cx="204.6" cy="220.5" r="4" fill="#dc2626" opacity="0.8"/>
<circle cx="204.6" cy="220.5" r="4" fill="#dc2626" opacity="0.8"/>
<circle cx="204.6" cy="220.5" r="4" fill="#dc2626" opacity="0.8"/>
<circle cx="258.5" cy="188.3" r="4" fill="#dc2626" opacity="0.8"/>
<circle cx="258.5" cy="188.3" r="4" fill="#16a34a" opacity="0.8"/>
<circle cx="258.5" cy="188.3" r="4" fill="#dc2626" opacity="0.8"/>
<circle cx="258.5" cy="188.3" r="4" fill="#dc2626" opacity="0.8"/>
<circle cx="258.5" cy="188.3" r="4" fill="#16a34a" opacity="0.8"/>
<circle cx="285.4" cy="185.9" r="4" fill="#16a34a" opacity="0.8"/>
<circle cx="285.4" cy="185.9" r="4" fill="#dc2626" opacity="0.8"/>
<circle cx="285.4" cy="185.9" r="4" fill="#dc2626" opacity="0.8"/>
<circle cx="285.4" cy="185.9" r="4" fill="#dc2626" opacity="0.8"/>
<circle cx="312.3" cy="197.5" r="4" fill="#dc2626" opacity="0.8"/>
<circle cx="312.3" cy="197.5" r="4" fill="#16a34a" opacity="0.8"/>
<circle cx="312.3" cy="197.5" r="4" fill="#dc2626" opacity="0.8"/>
<circle cx="312.3" cy="197.5" r="4" fill="#dc2626" opacity="0.8"/>
<circle cx="312.3" cy="197.5" r="4" fill="#dc2626" opacity="0.8"/>
<circle cx="339.2" cy="185.1" r="4" fill="#16a34a" opacity="0.8"/>
<circle cx="339.2" cy="185.1" r="4" fill="#dc2626" opacity="0.8"/>
<circle cx="339.2" cy="185.1" r="4" fill="#16a34a" opacity="0.8"/>
<circle cx="339.2" cy="185.1" r="4" fill="#dc2626" opacity="0.8"/>
<circle cx="339.2" cy="185.1" r="4" fill="#dc2626" opacity="0.8"/>
<circle cx="366.2" cy="161.1" r="4" fill="#16a34a" opacity="0.8"/>
<circle cx="366.2" cy="161.1" r="4" fill="#16a34a" opacity="0.8"/>
<circle cx="366.2" cy="161.1" r="4" fill="#16a34a" opacity="0.8"/>
<circle cx="581.5" cy="148.0" r="4" fill="#dc2626" opacity="0.8"/>
<circle cx="581.5" cy="148.0" r="4" fill="#dc2626" opacity="0.8"/>
<circle cx="581.5" cy="148.0" r="4" fill="#16a34a" opacity="0.8"/>
<circle cx="581.5" cy="148.0" r="4" fill="#16a34a" opacity="0.8"/>
<circle cx="581.5" cy="148.0" r="4" fill="#16a34a" opacity="0.8"/>
<circle cx="608.5" cy="164.4" r="4" fill="#16a34a" opacity="0.8"/>
<circle cx="608.5" cy="164.4" r="4" fill="#16a34a" opacity="0.8"/>
<circle cx="608.5" cy="164.4" r="4" fill="#dc2626" opacity="0.8"/>
<circle cx="608.5" cy="164.4" r="4" fill="#16a34a" opacity="0.8"/>
<circle cx="608.5" cy="164.4" r="4" fill="#dc2626" opacity="0.8"/>
<circle cx="608.5" cy="164.4" r="4" fill="#dc2626" opacity="0.8"/>
<circle cx="608.5" cy="164.4" r="4" fill="#dc2626" opacity="0.8"/>
<circle cx="635.4" cy="126.5" r="4" fill="#dc2626" opacity="0.8"/>
<circle cx="635.4" cy="126.5" r="4" fill="#16a34a" opacity="0.8"/>
<circle cx="635.4" cy="126.5" r="4" fill="#16a34a" opacity="0.8"/>
<circle cx="635.4" cy="126.5" r="4" fill="#dc2626" opacity="0.8"/>
<circle cx="635.4" cy="126.5" r="4" fill="#16a34a" opacity="0.8"/>
<circle cx="635.4" cy="126.5" r="4" fill="#16a34a" opacity="0.8"/>
<circle cx="662.3" cy="117.1" r="4" fill="#dc2626" opacity="0.8"/>
<circle cx="662.3" cy="117.1" r="4" fill="#16a34a" opacity="0.8"/>
<circle cx="662.3" cy="117.1" r="4" fill="#16a34a" opacity="0.8"/>
<circle cx="662.3" cy="117.1" r="4" fill="#16a34a" opacity="0.8"/>
<circle cx="662.3" cy="117.1" r="4" fill="#dc2626" opacity="0.8"/>
<circle cx="662.3" cy="117.1" r="4" fill="#dc2626" opacity="0.8"/>
<circle cx="662.3" cy="117.1" r="4" fill="#16a34a" opacity="0.8"/>
<circle cx="689.2" cy="190.6" r="4" fill="#16a34a" opacity="0.8"/>
<circle cx="689.2" cy="190.6" r="4" fill="#dc2626" opacity="0.8"/>
<circle cx="689.2" cy="190.6" r="4" fill="#dc2626" opacity="0.8"/>
<circle cx="689.2" cy="190.6" r="4" fill="#16a34a" opacity="0.8"/>
<circle cx="689.2" cy="190.6" r="4" fill="#dc2626" opacity="0.8"/>
<circle cx="689.2" cy="190.6" r="4" fill="#dc2626" opacity="0.8"/>
<circle cx="689.2" cy="190.6" r="4" fill="#dc2626" opacity="0.8"/>
<circle cx="689.2" cy="190.6" r="4" fill="#dc2626" opacity="0.8"/>
<circle cx="689.2" cy="190.6" r="4" fill="#dc2626" opacity="0.8"/>
<circle cx="716.2" cy="180.5" r="4" fill="#dc2626" opacity="0.8"/>
<circle cx="716.2" cy="180.5" r="4" fill="#16a34a" opacity="0.8"/>
<circle cx="716.2" cy="180.5" r="4" fill="#dc2626" opacity="0.8"/>
<circle cx="716.2" cy="180.5" r="4" fill="#16a34a" opacity="0.8"/>
<circle cx="716.2" cy="180.5" r="4" fill="#16a34a" opacity="0.8"/>
<circle cx="716.2" cy="180.5" r="4" fill="#16a34a" opacity="0.8"/>
<circle cx="716.2" cy="180.5" r="4" fill="#16a34a" opacity="0.8"/>
<circle cx="716.2" cy="180.5" r="4" fill="#16a34a" opacity="0.8"/>
<circle cx="716.2" cy="180.5" r="4" fill="#dc2626" opacity="0.8"/>
<circle cx="743.1" cy="181.5" r="4" fill="#16a34a" opacity="0.8"/>
<circle cx="743.1" cy="181.5" r="4" fill="#dc2626" opacity="0.8"/>
<circle cx="743.1" cy="181.5" r="4" fill="#dc2626" opacity="0.8"/>
<circle cx="743.1" cy="181.5" r="4" fill="#16a34a" opacity="0.8"/>
<circle cx="743.1" cy="181.5" r="4" fill="#16a34a" opacity="0.8"/>
<circle cx="743.1" cy="181.5" r="4" fill="#16a34a" opacity="0.8"/>
<circle cx="743.1" cy="181.5" r="4" fill="#dc2626" opacity="0.8"/>
<circle cx="770.0" cy="186.1" r="4" fill="#dc2626" opacity="0.8"/>
<circle cx="770.0" cy="186.1" r="4" fill="#dc2626" opacity="0.8"/>
<circle cx="770.0" cy="186.1" r="4" fill="#dc2626" opacity="0.8"/>
<circle cx="770.0" cy="186.1" r="4" fill="#16a34a" opacity="0.8"/>


  <!-- Y-axis labels -->
  <text x="62" y="320.0" fill="#c9d1d9" font-size="10" text-anchor="end" dominant-baseline="middle">$8,663</text><text x="62" y="268.0" fill="#c9d1d9" font-size="10" text-anchor="end" dominant-baseline="middle">$9,143</text><text x="62" y="216.0" fill="#c9d1d9" font-size="10" text-anchor="end" dominant-baseline="middle">$9,622</text><text x="62" y="164.0" fill="#c9d1d9" font-size="10" text-anchor="end" dominant-baseline="middle">$10,102</text><text x="62" y="112.0" fill="#c9d1d9" font-size="10" text-anchor="end" dominant-baseline="middle">$10,581</text><text x="62" y="60.0" fill="#c9d1d9" font-size="10" text-anchor="end" dominant-baseline="middle">$11,061</text>

  <!-- X-axis labels -->
  <text x="70.0" y="340" fill="#c9d1d9" font-size="10" text-anchor="middle">2026-05-13</text><text x="420.0" y="340" fill="#c9d1d9" font-size="10" text-anchor="middle">2026-06-01</text><text x="770.0" y="340" fill="#c9d1d9" font-size="10" text-anchor="middle">2026-06-18</text>

  <!-- Legend -->
  <circle cx="650" cy="380" r="4" fill="#16a34a"/>
  <text x="658" y="384" fill="#c9d1d9" font-size="9">Win</text>
  <circle cx="690" cy="380" r="4" fill="#dc2626"/>
  <text x="698" y="384" fill="#c9d1d9" font-size="9">Loss</text>
  <line x1="730" y1="380" x2="745" y2="380" stroke="#c9d1d9" stroke-width="0.5" stroke-dasharray="4,4" opacity="0.5"/>
  <text x="750" y="384" fill="#c9d1d9" font-size="9">$10K baseline</text>
</svg>