<svg xmlns="http://www.w3.org/2000/svg" viewBox="0 0 800 400" width="800" height="400">
  <rect width="800" height="400" fill="#0d1117" rx="8"/>

  <!-- Title -->
  <text x="70" y="30" fill="#c9d1d9" font-family="system-ui, -apple-system, sans-serif" font-size="16" font-weight="bold">Claude's Paper Trading — Equity Curve</text>
  <text x="70" y="48" fill="#58a6ff" font-family="system-ui, sans-serif" font-size="12">
    $10,002.16 (+0.02%) | Win Rate: 38/87 (44%) | Realized: $-345.92
  </text>

  <!-- Grid lines -->
  <line x1="70" y1="320.0" x2="770" y2="320.0" stroke="#21262d" stroke-width="0.5"/><line x1="70" y1="268.0" x2="770" y2="268.0" stroke="#21262d" stroke-width="0.5"/><line x1="70" y1="216.0" x2="770" y2="216.0" stroke="#21262d" stroke-width="0.5"/><line x1="70" y1="164.0" x2="770" y2="164.0" stroke="#21262d" stroke-width="0.5"/><line x1="70" y1="112.0" x2="770" y2="112.0" stroke="#21262d" stroke-width="0.5"/><line x1="70" y1="60.0" x2="770" y2="60.0" stroke="#21262d" stroke-width="0.5"/>

  <!-- Baseline (starting capital) -->
  <line x1="70" y1="175.0" x2="770" y2="175.0" stroke="#c9d1d9" stroke-width="0.5" stroke-dasharray="4,4" opacity="0.5"/>
  <text x="775" y="175.0" fill="#c9d1d9" font-size="9" opacity="0.6" dominant-baseline="middle">$10K</text>

  <!-- Fill under curve -->
  <path d="M 70.0 188.9 L 95.9 165.6 L 121.9 181.4 L 147.8 262.4 L 173.7 270.6 L 199.6 220.5 L 225.6 206.9 L 251.5 188.3 L 277.4 185.9 L 303.3 197.5 L 329.3 185.1 L 355.2 161.1 L 381.1 163.0 L 407.0 200.1 L 433.0 175.0 L 458.9 175.0 L 484.8 175.0 L 510.7 175.0 L 536.7 168.7 L 562.6 148.0 L 588.5 164.4 L 614.4 126.5 L 640.4 117.1 L 666.3 190.6 L 692.2 180.5 L 718.1 181.5 L 744.1 177.5 L 770.0 174.8 L 770.0 320.0 L 70.0 320.0 Z" fill="#16a34a" opacity="0.1"/>

  <!-- Equity line -->
  <path d="M 70.0 188.9 L 95.9 165.6 L 121.9 181.4 L 147.8 262.4 L 173.7 270.6 L 199.6 220.5 L 225.6 206.9 L 251.5 188.3 L 277.4 185.9 L 303.3 197.5 L 329.3 185.1 L 355.2 161.1 L 381.1 163.0 L 407.0 200.1 L 433.0 175.0 L 458.9 175.0 L 484.8 175.0 L 510.7 175.0 L 536.7 168.7 L 562.6 148.0 L 588.5 164.4 L 614.4 126.5 L 640.4 117.1 L 666.3 190.6 L 692.2 180.5 L 718.1 181.5 L 744.1 177.5 L 770.0 174.8" fill="none" stroke="#16a34a" stroke-width="2.5" stroke-linecap="round" stroke-linejoin="round"/>

  <!-- Data points -->
  <circle cx="70.0" cy="188.9" r="3" fill="#16a34a"/><circle cx="95.9" cy="165.6" r="3" fill="#16a34a"/><circle cx="121.9" cy="181.4" r="3" fill="#16a34a"/><circle cx="147.8" cy="262.4" r="3" fill="#16a34a"/><circle cx="173.7" cy="270.6" r="3" fill="#16a34a"/><circle cx="199.6" cy="220.5" r="3" fill="#16a34a"/><circle cx="225.6" cy="206.9" r="3" fill="#16a34a"/><circle cx="251.5" cy="188.3" r="3" fill="#16a34a"/><circle cx="277.4" cy="185.9" r="3" fill="#16a34a"/><circle cx="303.3" cy="197.5" r="3" fill="#16a34a"/><circle cx="329.3" cy="185.1" r="3" fill="#16a34a"/><circle cx="355.2" cy="161.1" r="3" fill="#16a34a"/><circle cx="381.1" cy="163.0" r="3" fill="#16a34a"/><circle cx="407.0" cy="200.1" r="3" fill="#16a34a"/><circle cx="433.0" cy="175.0" r="3" fill="#16a34a"/><circle cx="458.9" cy="175.0" r="3" fill="#16a34a"/><circle cx="484.8" cy="175.0" r="3" fill="#16a34a"/><circle cx="510.7" cy="175.0" r="3" fill="#16a34a"/><circle cx="536.7" cy="168.7" r="3" fill="#16a34a"/><circle cx="562.6" cy="148.0" r="3" fill="#16a34a"/><circle cx="588.5" cy="164.4" r="3" fill="#16a34a"/><circle cx="614.4" cy="126.5" r="3" fill="#16a34a"/><circle cx="640.4" cy="117.1" r="3" fill="#16a34a"/><circle cx="666.3" cy="190.6" r="3" fill="#16a34a"/><circle cx="692.2" cy="180.5" r="3" fill="#16a34a"/><circle cx="718.1" cy="181.5" r="3" fill="#16a34a"/><circle cx="744.1" cy="177.5" r="3" fill="#16a34a"/><circle cx="770.0" cy="174.8" r="3" fill="#16a34a"/>

  <!-- Trade markers -->
  <circle cx="173.7" cy="270.6" r="4" fill="#dc2626" opacity="0.8"/>
<circle cx="199.6" cy="220.5" r="4" fill="#dc2626" opacity="0.8"/>
<circle cx="199.6" cy="220.5" r="4" fill="#dc2626" opacity="0.8"/>
<circle cx="199.6" cy="220.5" r="4" fill="#dc2626" opacity="0.8"/>
<circle cx="251.5" cy="188.3" r="4" fill="#dc2626" opacity="0.8"/>
<circle cx="251.5" cy="188.3" r="4" fill="#16a34a" opacity="0.8"/>
<circle cx="251.5" cy="188.3" r="4" fill="#dc2626" opacity="0.8"/>
<circle cx="251.5" cy="188.3" r="4" fill="#dc2626" opacity="0.8"/>
<circle cx="251.5" cy="188.3" r="4" fill="#16a34a" opacity="0.8"/>
<circle cx="277.4" cy="185.9" r="4" fill="#16a34a" opacity="0.8"/>
<circle cx="277.4" cy="185.9" r="4" fill="#dc2626" opacity="0.8"/>
<circle cx="277.4" cy="185.9" r="4" fill="#dc2626" opacity="0.8"/>
<circle cx="277.4" cy="185.9" r="4" fill="#dc2626" opacity="0.8"/>
<circle cx="303.3" cy="197.5" r="4" fill="#dc2626" opacity="0.8"/>
<circle cx="303.3" cy="197.5" r="4" fill="#16a34a" opacity="0.8"/>
<circle cx="303.3" cy="197.5" r="4" fill="#dc2626" opacity="0.8"/>
<circle cx="303.3" cy="197.5" r="4" fill="#dc2626" opacity="0.8"/>
<circle cx="303.3" cy="197.5" r="4" fill="#dc2626" opacity="0.8"/>
<circle cx="329.3" cy="185.1" r="4" fill="#16a34a" opacity="0.8"/>
<circle cx="329.3" cy="185.1" r="4" fill="#dc2626" opacity="0.8"/>
<circle cx="329.3" cy="185.1" r="4" fill="#16a34a" opacity="0.8"/>
<circle cx="329.3" cy="185.1" r="4" fill="#dc2626" opacity="0.8"/>
<circle cx="329.3" cy="185.1" r="4" fill="#dc2626" opacity="0.8"/>
<circle cx="355.2" cy="161.1" r="4" fill="#16a34a" opacity="0.8"/>
<circle cx="355.2" cy="161.1" r="4" fill="#16a34a" opacity="0.8"/>
<circle cx="355.2" cy="161.1" r="4" fill="#16a34a" opacity="0.8"/>
<circle cx="562.6" cy="148.0" r="4" fill="#dc2626" opacity="0.8"/>
<circle cx="562.6" cy="148.0" r="4" fill="#dc2626" opacity="0.8"/>
<circle cx="562.6" cy="148.0" r="4" fill="#16a34a" opacity="0.8"/>
<circle cx="562.6" cy="148.0" r="4" fill="#16a34a" opacity="0.8"/>
<circle cx="562.6" cy="148.0" r="4" fill="#16a34a" opacity="0.8"/>
<circle cx="588.5" cy="164.4" r="4" fill="#16a34a" opacity="0.8"/>
<circle cx="588.5" cy="164.4" r="4" fill="#16a34a" opacity="0.8"/>
<circle cx="588.5" cy="164.4" r="4" fill="#dc2626" opacity="0.8"/>
<circle cx="588.5" cy="164.4" r="4" fill="#16a34a" opacity="0.8"/>
<circle cx="588.5" cy="164.4" r="4" fill="#dc2626" opacity="0.8"/>
<circle cx="588.5" cy="164.4" r="4" fill="#dc2626" opacity="0.8"/>
<circle cx="588.5" cy="164.4" r="4" fill="#dc2626" opacity="0.8"/>
<circle cx="614.4" cy="126.5" r="4" fill="#dc2626" opacity="0.8"/>
<circle cx="614.4" cy="126.5" r="4" fill="#16a34a" opacity="0.8"/>
<circle cx="614.4" cy="126.5" r="4" fill="#16a34a" opacity="0.8"/>
<circle cx="614.4" cy="126.5" r="4" fill="#dc2626" opacity="0.8"/>
<circle cx="614.4" cy="126.5" r="4" fill="#16a34a" opacity="0.8"/>
<circle cx="614.4" cy="126.5" r="4" fill="#16a34a" opacity="0.8"/>
<circle cx="640.4" cy="117.1" r="4" fill="#dc2626" opacity="0.8"/>
<circle cx="640.4" cy="117.1" r="4" fill="#16a34a" opacity="0.8"/>
<circle cx="640.4" cy="117.1" r="4" fill="#16a34a" opacity="0.8"/>
<circle cx="640.4" cy="117.1" r="4" fill="#16a34a" opacity="0.8"/>
<circle cx="640.4" cy="117.1" r="4" fill="#dc2626" opacity="0.8"/>
<circle cx="640.4" cy="117.1" r="4" fill="#dc2626" opacity="0.8"/>
<circle cx="640.4" cy="117.1" r="4" fill="#16a34a" opacity="0.8"/>
<circle cx="666.3" cy="190.6" r="4" fill="#16a34a" opacity="0.8"/>
<circle cx="666.3" cy="190.6" r="4" fill="#dc2626" opacity="0.8"/>
<circle cx="666.3" cy="190.6" r="4" fill="#dc2626" opacity="0.8"/>
<circle cx="666.3" cy="190.6" r="4" fill="#16a34a" opacity="0.8"/>
<circle cx="666.3" cy="190.6" r="4" fill="#dc2626" opacity="0.8"/>
<circle cx="666.3" cy="190.6" r="4" fill="#dc2626" opacity="0.8"/>
<circle cx="666.3" cy="190.6" r="4" fill="#dc2626" opacity="0.8"/>
<circle cx="666.3" cy="190.6" r="4" fill="#dc2626" opacity="0.8"/>
<circle cx="666.3" cy="190.6" r="4" fill="#dc2626" opacity="0.8"/>
<circle cx="692.2" cy="180.5" r="4" fill="#dc2626" opacity="0.8"/>
<circle cx="692.2" cy="180.5" r="4" fill="#16a34a" opacity="0.8"/>
<circle cx="692.2" cy="180.5" r="4" fill="#dc2626" opacity="0.8"/>
<circle cx="692.2" cy="180.5" r="4" fill="#16a34a" opacity="0.8"/>
<circle cx="692.2" cy="180.5" r="4" fill="#16a34a" opacity="0.8"/>
<circle cx="692.2" cy="180.5" r="4" fill="#16a34a" opacity="0.8"/>
<circle cx="692.2" cy="180.5" r="4" fill="#16a34a" opacity="0.8"/>
<circle cx="692.2" cy="180.5" r="4" fill="#16a34a" opacity="0.8"/>
<circle cx="692.2" cy="180.5" r="4" fill="#dc2626" opacity="0.8"/>
<circle cx="718.1" cy="181.5" r="4" fill="#16a34a" opacity="0.8"/>
<circle cx="718.1" cy="181.5" r="4" fill="#dc2626" opacity="0.8"/>
<circle cx="718.1" cy="181.5" r="4" fill="#dc2626" opacity="0.8"/>
<circle cx="718.1" cy="181.5" r="4" fill="#16a34a" opacity="0.8"/>
<circle cx="718.1" cy="181.5" r="4" fill="#16a34a" opacity="0.8"/>
<circle cx="718.1" cy="181.5" r="4" fill="#16a34a" opacity="0.8"/>
<circle cx="718.1" cy="181.5" r="4" fill="#dc2626" opacity="0.8"/>
<circle cx="744.1" cy="177.5" r="4" fill="#dc2626" opacity="0.8"/>
<circle cx="744.1" cy="177.5" r="4" fill="#dc2626" opacity="0.8"/>
<circle cx="744.1" cy="177.5" r="4" fill="#dc2626" opacity="0.8"/>
<circle cx="744.1" cy="177.5" r="4" fill="#16a34a" opacity="0.8"/>
<circle cx="744.1" cy="177.5" r="4" fill="#16a34a" opacity="0.8"/>
<circle cx="744.1" cy="177.5" r="4" fill="#dc2626" opacity="0.8"/>
<circle cx="770.0" cy="174.8" r="4" fill="#dc2626" opacity="0.8"/>
<circle cx="770.0" cy="174.8" r="4" fill="#dc2626" opacity="0.8"/>
<circle cx="770.0" cy="174.8" r="4" fill="#dc2626" opacity="0.8"/>
<circle cx="770.0" cy="174.8" r="4" fill="#dc2626" opacity="0.8"/>
<circle cx="770.0" cy="174.8" r="4" fill="#16a34a" opacity="0.8"/>


  <!-- Y-axis labels -->
  <text x="62" y="320.0" fill="#c9d1d9" font-size="10" text-anchor="end" dominant-baseline="middle">$8,663</text><text x="62" y="268.0" fill="#c9d1d9" font-size="10" text-anchor="end" dominant-baseline="middle">$9,143</text><text x="62" y="216.0" fill="#c9d1d9" font-size="10" text-anchor="end" dominant-baseline="middle">$9,622</text><text x="62" y="164.0" fill="#c9d1d9" font-size="10" text-anchor="end" dominant-baseline="middle">$10,102</text><text x="62" y="112.0" fill="#c9d1d9" font-size="10" text-anchor="end" dominant-baseline="middle">$10,581</text><text x="62" y="60.0" fill="#c9d1d9" font-size="10" text-anchor="end" dominant-baseline="middle">$11,061</text>

  <!-- X-axis labels -->
  <text x="70.0" y="340" fill="#c9d1d9" font-size="10" text-anchor="middle">2026-05-13</text><text x="433.0" y="340" fill="#c9d1d9" font-size="10" text-anchor="middle">2026-06-02</text><text x="770.0" y="340" fill="#c9d1d9" font-size="10" text-anchor="middle">2026-06-19</text>

  <!-- Legend -->
  <circle cx="650" cy="380" r="4" fill="#16a34a"/>
  <text x="658" y="384" fill="#c9d1d9" font-size="9">Win</text>
  <circle cx="690" cy="380" r="4" fill="#dc2626"/>
  <text x="698" y="384" fill="#c9d1d9" font-size="9">Loss</text>
  <line x1="730" y1="380" x2="745" y2="380" stroke="#c9d1d9" stroke-width="0.5" stroke-dasharray="4,4" opacity="0.5"/>
  <text x="750" y="384" fill="#c9d1d9" font-size="9">$10K baseline</text>
</svg>