<svg xmlns="http://www.w3.org/2000/svg" viewBox="0 0 800 400" width="800" height="400">
  <rect width="800" height="400" fill="#0d1117" rx="8"/>

  <!-- Title -->
  <text x="70" y="30" fill="#c9d1d9" font-family="system-ui, -apple-system, sans-serif" font-size="16" font-weight="bold">Claude's Paper Trading — Equity Curve</text>
  <text x="70" y="48" fill="#58a6ff" font-family="system-ui, sans-serif" font-size="12">
    $8,432.66 (-15.67%) | Win Rate: 59/141 (42%) | Realized: $+214.43
  </text>

  <!-- Grid lines -->
  <line x1="70" y1="320.0" x2="770" y2="320.0" stroke="#21262d" stroke-width="0.5"/><line x1="70" y1="268.0" x2="770" y2="268.0" stroke="#21262d" stroke-width="0.5"/><line x1="70" y1="216.0" x2="770" y2="216.0" stroke="#21262d" stroke-width="0.5"/><line x1="70" y1="164.0" x2="770" y2="164.0" stroke="#21262d" stroke-width="0.5"/><line x1="70" y1="112.0" x2="770" y2="112.0" stroke="#21262d" stroke-width="0.5"/><line x1="70" y1="60.0" x2="770" y2="60.0" stroke="#21262d" stroke-width="0.5"/>

  <!-- Baseline (starting capital) -->
  <line x1="70" y1="173.4" x2="770" y2="173.4" stroke="#c9d1d9" stroke-width="0.5" stroke-dasharray="4,4" opacity="0.5"/>
  <text x="775" y="173.4" fill="#c9d1d9" font-size="9" opacity="0.6" dominant-baseline="middle">$10K</text>

  <!-- Fill under curve -->
  <path d="M 70.0 182.6 L 84.0 167.1 L 98.0 177.7 L 112.0 231.5 L 126.0 236.9 L 140.0 203.6 L 154.0 194.6 L 168.0 182.2 L 182.0 180.6 L 196.0 188.3 L 210.0 180.1 L 224.0 164.2 L 238.0 165.4 L 252.0 190.1 L 266.0 173.4 L 280.0 173.4 L 294.0 173.4 L 308.0 173.4 L 322.0 169.2 L 336.0 155.4 L 350.0 166.3 L 364.0 141.2 L 378.0 134.9 L 392.0 183.7 L 406.0 177.1 L 420.0 177.7 L 434.0 175.0 L 448.0 173.2 L 462.0 151.4 L 476.0 176.5 L 490.0 146.1 L 504.0 139.2 L 518.0 131.4 L 532.0 132.8 L 546.0 112.2 L 560.0 99.7 L 574.0 131.2 L 588.0 126.8 L 602.0 106.7 L 616.0 165.4 L 630.0 213.4 L 644.0 256.7 L 658.0 260.3 L 672.0 260.3 L 686.0 254.5 L 700.0 274.9 L 714.0 266.0 L 728.0 275.4 L 742.0 281.2 L 756.0 289.8 L 770.0 286.3 L 770.0 320.0 L 70.0 320.0 Z" fill="#dc2626" opacity="0.1"/>

  <!-- Equity line -->
  <path d="M 70.0 182.6 L 84.0 167.1 L 98.0 177.7 L 112.0 231.5 L 126.0 236.9 L 140.0 203.6 L 154.0 194.6 L 168.0 182.2 L 182.0 180.6 L 196.0 188.3 L 210.0 180.1 L 224.0 164.2 L 238.0 165.4 L 252.0 190.1 L 266.0 173.4 L 280.0 173.4 L 294.0 173.4 L 308.0 173.4 L 322.0 169.2 L 336.0 155.4 L 350.0 166.3 L 364.0 141.2 L 378.0 134.9 L 392.0 183.7 L 406.0 177.1 L 420.0 177.7 L 434.0 175.0 L 448.0 173.2 L 462.0 151.4 L 476.0 176.5 L 490.0 146.1 L 504.0 139.2 L 518.0 131.4 L 532.0 132.8 L 546.0 112.2 L 560.0 99.7 L 574.0 131.2 L 588.0 126.8 L 602.0 106.7 L 616.0 165.4 L 630.0 213.4 L 644.0 256.7 L 658.0 260.3 L 672.0 260.3 L 686.0 254.5 L 700.0 274.9 L 714.0 266.0 L 728.0 275.4 L 742.0 281.2 L 756.0 289.8 L 770.0 286.3" fill="none" stroke="#dc2626" stroke-width="2.5" stroke-linecap="round" stroke-linejoin="round"/>

  <!-- Data points -->
  <circle cx="70.0" cy="182.6" r="3" fill="#dc2626"/><circle cx="84.0" cy="167.1" r="3" fill="#dc2626"/><circle cx="98.0" cy="177.7" r="3" fill="#dc2626"/><circle cx="112.0" cy="231.5" r="3" fill="#dc2626"/><circle cx="126.0" cy="236.9" r="3" fill="#dc2626"/><circle cx="140.0" cy="203.6" r="3" fill="#dc2626"/><circle cx="154.0" cy="194.6" r="3" fill="#dc2626"/><circle cx="168.0" cy="182.2" r="3" fill="#dc2626"/><circle cx="182.0" cy="180.6" r="3" fill="#dc2626"/><circle cx="196.0" cy="188.3" r="3" fill="#dc2626"/><circle cx="210.0" cy="180.1" r="3" fill="#dc2626"/><circle cx="224.0" cy="164.2" r="3" fill="#dc2626"/><circle cx="238.0" cy="165.4" r="3" fill="#dc2626"/><circle cx="252.0" cy="190.1" r="3" fill="#dc2626"/><circle cx="266.0" cy="173.4" r="3" fill="#dc2626"/><circle cx="280.0" cy="173.4" r="3" fill="#dc2626"/><circle cx="294.0" cy="173.4" r="3" fill="#dc2626"/><circle cx="308.0" cy="173.4" r="3" fill="#dc2626"/><circle cx="322.0" cy="169.2" r="3" fill="#dc2626"/><circle cx="336.0" cy="155.4" r="3" fill="#dc2626"/><circle cx="350.0" cy="166.3" r="3" fill="#dc2626"/><circle cx="364.0" cy="141.2" r="3" fill="#dc2626"/><circle cx="378.0" cy="134.9" r="3" fill="#dc2626"/><circle cx="392.0" cy="183.7" r="3" fill="#dc2626"/><circle cx="406.0" cy="177.1" r="3" fill="#dc2626"/><circle cx="420.0" cy="177.7" r="3" fill="#dc2626"/><circle cx="434.0" cy="175.0" r="3" fill="#dc2626"/><circle cx="448.0" cy="173.2" r="3" fill="#dc2626"/><circle cx="462.0" cy="151.4" r="3" fill="#dc2626"/><circle cx="476.0" cy="176.5" r="3" fill="#dc2626"/><circle cx="490.0" cy="146.1" r="3" fill="#dc2626"/><circle cx="504.0" cy="139.2" r="3" fill="#dc2626"/><circle cx="518.0" cy="131.4" r="3" fill="#dc2626"/><circle cx="532.0" cy="132.8" r="3" fill="#dc2626"/><circle cx="546.0" cy="112.2" r="3" fill="#dc2626"/><circle cx="560.0" cy="99.7" r="3" fill="#dc2626"/><circle cx="574.0" cy="131.2" r="3" fill="#dc2626"/><circle cx="588.0" cy="126.8" r="3" fill="#dc2626"/><circle cx="602.0" cy="106.7" r="3" fill="#dc2626"/><circle cx="616.0" cy="165.4" r="3" fill="#dc2626"/><circle cx="630.0" cy="213.4" r="3" fill="#dc2626"/><circle cx="644.0" cy="256.7" r="3" fill="#dc2626"/><circle cx="658.0" cy="260.3" r="3" fill="#dc2626"/><circle cx="672.0" cy="260.3" r="3" fill="#dc2626"/><circle cx="686.0" cy="254.5" r="3" fill="#dc2626"/><circle cx="700.0" cy="274.9" r="3" fill="#dc2626"/><circle cx="714.0" cy="266.0" r="3" fill="#dc2626"/><circle cx="728.0" cy="275.4" r="3" fill="#dc2626"/><circle cx="742.0" cy="281.2" r="3" fill="#dc2626"/><circle cx="756.0" cy="289.8" r="3" fill="#dc2626"/><circle cx="770.0" cy="286.3" r="3" fill="#dc2626"/>

  <!-- Trade markers -->
  <circle cx="126.0" cy="236.9" r="4" fill="#dc2626" opacity="0.8"/>
<circle cx="140.0" cy="203.6" r="4" fill="#dc2626" opacity="0.8"/>
<circle cx="140.0" cy="203.6" r="4" fill="#dc2626" opacity="0.8"/>
<circle cx="140.0" cy="203.6" r="4" fill="#dc2626" opacity="0.8"/>
<circle cx="168.0" cy="182.2" r="4" fill="#dc2626" opacity="0.8"/>
<circle cx="168.0" cy="182.2" r="4" fill="#16a34a" opacity="0.8"/>
<circle cx="168.0" cy="182.2" r="4" fill="#dc2626" opacity="0.8"/>
<circle cx="168.0" cy="182.2" r="4" fill="#dc2626" opacity="0.8"/>
<circle cx="168.0" cy="182.2" r="4" fill="#16a34a" opacity="0.8"/>
<circle cx="182.0" cy="180.6" r="4" fill="#16a34a" opacity="0.8"/>
<circle cx="182.0" cy="180.6" r="4" fill="#dc2626" opacity="0.8"/>
<circle cx="182.0" cy="180.6" r="4" fill="#dc2626" opacity="0.8"/>
<circle cx="182.0" cy="180.6" r="4" fill="#dc2626" opacity="0.8"/>
<circle cx="196.0" cy="188.3" r="4" fill="#dc2626" opacity="0.8"/>
<circle cx="196.0" cy="188.3" r="4" fill="#16a34a" opacity="0.8"/>
<circle cx="196.0" cy="188.3" r="4" fill="#dc2626" opacity="0.8"/>
<circle cx="196.0" cy="188.3" r="4" fill="#dc2626" opacity="0.8"/>
<circle cx="196.0" cy="188.3" r="4" fill="#dc2626" opacity="0.8"/>
<circle cx="210.0" cy="180.1" r="4" fill="#16a34a" opacity="0.8"/>
<circle cx="210.0" cy="180.1" r="4" fill="#dc2626" opacity="0.8"/>
<circle cx="210.0" cy="180.1" r="4" fill="#16a34a" opacity="0.8"/>
<circle cx="210.0" cy="180.1" r="4" fill="#dc2626" opacity="0.8"/>
<circle cx="210.0" cy="180.1" r="4" fill="#dc2626" opacity="0.8"/>
<circle cx="224.0" cy="164.2" r="4" fill="#16a34a" opacity="0.8"/>
<circle cx="224.0" cy="164.2" r="4" fill="#16a34a" opacity="0.8"/>
<circle cx="224.0" cy="164.2" r="4" fill="#16a34a" opacity="0.8"/>
<circle cx="336.0" cy="155.4" r="4" fill="#dc2626" opacity="0.8"/>
<circle cx="336.0" cy="155.4" r="4" fill="#dc2626" opacity="0.8"/>
<circle cx="336.0" cy="155.4" r="4" fill="#16a34a" opacity="0.8"/>
<circle cx="336.0" cy="155.4" r="4" fill="#16a34a" opacity="0.8"/>
<circle cx="336.0" cy="155.4" r="4" fill="#16a34a" opacity="0.8"/>
<circle cx="350.0" cy="166.3" r="4" fill="#16a34a" opacity="0.8"/>
<circle cx="350.0" cy="166.3" r="4" fill="#16a34a" opacity="0.8"/>
<circle cx="350.0" cy="166.3" r="4" fill="#dc2626" opacity="0.8"/>
<circle cx="350.0" cy="166.3" r="4" fill="#16a34a" opacity="0.8"/>
<circle cx="350.0" cy="166.3" r="4" fill="#dc2626" opacity="0.8"/>
<circle cx="350.0" cy="166.3" r="4" fill="#dc2626" opacity="0.8"/>
<circle cx="350.0" cy="166.3" r="4" fill="#dc2626" opacity="0.8"/>
<circle cx="364.0" cy="141.2" r="4" fill="#dc2626" opacity="0.8"/>
<circle cx="364.0" cy="141.2" r="4" fill="#16a34a" opacity="0.8"/>
<circle cx="364.0" cy="141.2" r="4" fill="#16a34a" opacity="0.8"/>
<circle cx="364.0" cy="141.2" r="4" fill="#dc2626" opacity="0.8"/>
<circle cx="364.0" cy="141.2" r="4" fill="#16a34a" opacity="0.8"/>
<circle cx="364.0" cy="141.2" r="4" fill="#16a34a" opacity="0.8"/>
<circle cx="378.0" cy="134.9" r="4" fill="#dc2626" opacity="0.8"/>
<circle cx="378.0" cy="134.9" r="4" fill="#16a34a" opacity="0.8"/>
<circle cx="378.0" cy="134.9" r="4" fill="#16a34a" opacity="0.8"/>
<circle cx="378.0" cy="134.9" r="4" fill="#16a34a" opacity="0.8"/>
<circle cx="378.0" cy="134.9" r="4" fill="#dc2626" opacity="0.8"/>
<circle cx="378.0" cy="134.9" r="4" fill="#dc2626" opacity="0.8"/>
<circle cx="378.0" cy="134.9" r="4" fill="#16a34a" opacity="0.8"/>
<circle cx="392.0" cy="183.7" r="4" fill="#16a34a" opacity="0.8"/>
<circle cx="392.0" cy="183.7" r="4" fill="#dc2626" opacity="0.8"/>
<circle cx="392.0" cy="183.7" r="4" fill="#dc2626" opacity="0.8"/>
<circle cx="392.0" cy="183.7" r="4" fill="#16a34a" opacity="0.8"/>
<circle cx="392.0" cy="183.7" r="4" fill="#dc2626" opacity="0.8"/>
<circle cx="392.0" cy="183.7" r="4" fill="#dc2626" opacity="0.8"/>
<circle cx="392.0" cy="183.7" r="4" fill="#dc2626" opacity="0.8"/>
<circle cx="392.0" cy="183.7" r="4" fill="#dc2626" opacity="0.8"/>
<circle cx="392.0" cy="183.7" r="4" fill="#dc2626" opacity="0.8"/>
<circle cx="406.0" cy="177.1" r="4" fill="#dc2626" opacity="0.8"/>
<circle cx="406.0" cy="177.1" r="4" fill="#16a34a" opacity="0.8"/>
<circle cx="406.0" cy="177.1" r="4" fill="#dc2626" opacity="0.8"/>
<circle cx="406.0" cy="177.1" r="4" fill="#16a34a" opacity="0.8"/>
<circle cx="406.0" cy="177.1" r="4" fill="#16a34a" opacity="0.8"/>
<circle cx="406.0" cy="177.1" r="4" fill="#16a34a" opacity="0.8"/>
<circle cx="406.0" cy="177.1" r="4" fill="#16a34a" opacity="0.8"/>
<circle cx="406.0" cy="177.1" r="4" fill="#16a34a" opacity="0.8"/>
<circle cx="406.0" cy="177.1" r="4" fill="#dc2626" opacity="0.8"/>
<circle cx="420.0" cy="177.7" r="4" fill="#16a34a" opacity="0.8"/>
<circle cx="420.0" cy="177.7" r="4" fill="#dc2626" opacity="0.8"/>
<circle cx="420.0" cy="177.7" r="4" fill="#dc2626" opacity="0.8"/>
<circle cx="420.0" cy="177.7" r="4" fill="#16a34a" opacity="0.8"/>
<circle cx="420.0" cy="177.7" r="4" fill="#16a34a" opacity="0.8"/>
<circle cx="420.0" cy="177.7" r="4" fill="#16a34a" opacity="0.8"/>
<circle cx="420.0" cy="177.7" r="4" fill="#dc2626" opacity="0.8"/>
<circle cx="434.0" cy="175.0" r="4" fill="#dc2626" opacity="0.8"/>
<circle cx="434.0" cy="175.0" r="4" fill="#dc2626" opacity="0.8"/>
<circle cx="434.0" cy="175.0" r="4" fill="#dc2626" opacity="0.8"/>
<circle cx="434.0" cy="175.0" r="4" fill="#16a34a" opacity="0.8"/>
<circle cx="434.0" cy="175.0" r="4" fill="#16a34a" opacity="0.8"/>
<circle cx="434.0" cy="175.0" r="4" fill="#dc2626" opacity="0.8"/>
<circle cx="448.0" cy="173.2" r="4" fill="#dc2626" opacity="0.8"/>
<circle cx="448.0" cy="173.2" r="4" fill="#dc2626" opacity="0.8"/>
<circle cx="448.0" cy="173.2" r="4" fill="#dc2626" opacity="0.8"/>
<circle cx="448.0" cy="173.2" r="4" fill="#dc2626" opacity="0.8"/>
<circle cx="448.0" cy="173.2" r="4" fill="#16a34a" opacity="0.8"/>
<circle cx="448.0" cy="173.2" r="4" fill="#dc2626" opacity="0.8"/>
<circle cx="448.0" cy="173.2" r="4" fill="#dc2626" opacity="0.8"/>
<circle cx="448.0" cy="173.2" r="4" fill="#dc2626" opacity="0.8"/>
<circle cx="448.0" cy="173.2" r="4" fill="#dc2626" opacity="0.8"/>
<circle cx="462.0" cy="151.4" r="4" fill="#dc2626" opacity="0.8"/>
<circle cx="462.0" cy="151.4" r="4" fill="#16a34a" opacity="0.8"/>
<circle cx="462.0" cy="151.4" r="4" fill="#dc2626" opacity="0.8"/>
<circle cx="462.0" cy="151.4" r="4" fill="#16a34a" opacity="0.8"/>
<circle cx="462.0" cy="151.4" r="4" fill="#dc2626" opacity="0.8"/>
<circle cx="462.0" cy="151.4" r="4" fill="#dc2626" opacity="0.8"/>
<circle cx="476.0" cy="176.5" r="4" fill="#dc2626" opacity="0.8"/>
<circle cx="476.0" cy="176.5" r="4" fill="#16a34a" opacity="0.8"/>
<circle cx="476.0" cy="176.5" r="4" fill="#dc2626" opacity="0.8"/>
<circle cx="476.0" cy="176.5" r="4" fill="#dc2626" opacity="0.8"/>
<circle cx="476.0" cy="176.5" r="4" fill="#dc2626" opacity="0.8"/>
<circle cx="476.0" cy="176.5" r="4" fill="#16a34a" opacity="0.8"/>
<circle cx="476.0" cy="176.5" r="4" fill="#dc2626" opacity="0.8"/>
<circle cx="476.0" cy="176.5" r="4" fill="#dc2626" opacity="0.8"/>
<circle cx="490.0" cy="146.1" r="4" fill="#dc2626" opacity="0.8"/>
<circle cx="490.0" cy="146.1" r="4" fill="#dc2626" opacity="0.8"/>
<circle cx="490.0" cy="146.1" r="4" fill="#16a34a" opacity="0.8"/>
<circle cx="490.0" cy="146.1" r="4" fill="#16a34a" opacity="0.8"/>
<circle cx="490.0" cy="146.1" r="4" fill="#dc2626" opacity="0.8"/>
<circle cx="504.0" cy="139.2" r="4" fill="#16a34a" opacity="0.8"/>
<circle cx="504.0" cy="139.2" r="4" fill="#dc2626" opacity="0.8"/>
<circle cx="504.0" cy="139.2" r="4" fill="#dc2626" opacity="0.8"/>
<circle cx="504.0" cy="139.2" r="4" fill="#dc2626" opacity="0.8"/>
<circle cx="504.0" cy="139.2" r="4" fill="#dc2626" opacity="0.8"/>
<circle cx="504.0" cy="139.2" r="4" fill="#16a34a" opacity="0.8"/>
<circle cx="504.0" cy="139.2" r="4" fill="#dc2626" opacity="0.8"/>
<circle cx="504.0" cy="139.2" r="4" fill="#dc2626" opacity="0.8"/>
<circle cx="518.0" cy="131.4" r="4" fill="#dc2626" opacity="0.8"/>
<circle cx="518.0" cy="131.4" r="4" fill="#dc2626" opacity="0.8"/>
<circle cx="518.0" cy="131.4" r="4" fill="#dc2626" opacity="0.8"/>
<circle cx="518.0" cy="131.4" r="4" fill="#dc2626" opacity="0.8"/>
<circle cx="518.0" cy="131.4" r="4" fill="#dc2626" opacity="0.8"/>
<circle cx="518.0" cy="131.4" r="4" fill="#dc2626" opacity="0.8"/>
<circle cx="518.0" cy="131.4" r="4" fill="#16a34a" opacity="0.8"/>
<circle cx="518.0" cy="131.4" r="4" fill="#16a34a" opacity="0.8"/>
<circle cx="518.0" cy="131.4" r="4" fill="#16a34a" opacity="0.8"/>
<circle cx="532.0" cy="132.8" r="4" fill="#16a34a" opacity="0.8"/>
<circle cx="532.0" cy="132.8" r="4" fill="#dc2626" opacity="0.8"/>
<circle cx="532.0" cy="132.8" r="4" fill="#16a34a" opacity="0.8"/>
<circle cx="532.0" cy="132.8" r="4" fill="#16a34a" opacity="0.8"/>
<circle cx="532.0" cy="132.8" r="4" fill="#16a34a" opacity="0.8"/>
<circle cx="532.0" cy="132.8" r="4" fill="#dc2626" opacity="0.8"/>
<circle cx="532.0" cy="132.8" r="4" fill="#16a34a" opacity="0.8"/>
<circle cx="532.0" cy="132.8" r="4" fill="#dc2626" opacity="0.8"/>
<circle cx="546.0" cy="112.2" r="4" fill="#dc2626" opacity="0.8"/>
<circle cx="546.0" cy="112.2" r="4" fill="#16a34a" opacity="0.8"/>
<circle cx="546.0" cy="112.2" r="4" fill="#16a34a" opacity="0.8"/>
<circle cx="546.0" cy="112.2" r="4" fill="#16a34a" opacity="0.8"/>
<circle cx="546.0" cy="112.2" r="4" fill="#16a34a" opacity="0.8"/>
<circle cx="546.0" cy="112.2" r="4" fill="#16a34a" opacity="0.8"/>


  <!-- Y-axis labels -->
  <text x="62" y="320.0" fill="#c9d1d9" font-size="10" text-anchor="end" dominant-baseline="middle">$7,966</text><text x="62" y="268.0" fill="#c9d1d9" font-size="10" text-anchor="end" dominant-baseline="middle">$8,687</text><text x="62" y="216.0" fill="#c9d1d9" font-size="10" text-anchor="end" dominant-baseline="middle">$9,409</text><text x="62" y="164.0" fill="#c9d1d9" font-size="10" text-anchor="end" dominant-baseline="middle">$10,131</text><text x="62" y="112.0" fill="#c9d1d9" font-size="10" text-anchor="end" dominant-baseline="middle">$10,852</text><text x="62" y="60.0" fill="#c9d1d9" font-size="10" text-anchor="end" dominant-baseline="middle">$11,574</text>

  <!-- X-axis labels -->
  <text x="70.0" y="340" fill="#c9d1d9" font-size="10" text-anchor="middle">2026-05-13</text><text x="420.0" y="340" fill="#c9d1d9" font-size="10" text-anchor="middle">2026-06-17</text><text x="770.0" y="340" fill="#c9d1d9" font-size="10" text-anchor="middle">2026-07-22</text>

  <!-- Legend -->
  <circle cx="650" cy="380" r="4" fill="#16a34a"/>
  <text x="658" y="384" fill="#c9d1d9" font-size="9">Win</text>
  <circle cx="690" cy="380" r="4" fill="#dc2626"/>
  <text x="698" y="384" fill="#c9d1d9" font-size="9">Loss</text>
  <line x1="730" y1="380" x2="745" y2="380" stroke="#c9d1d9" stroke-width="0.5" stroke-dasharray="4,4" opacity="0.5"/>
  <text x="750" y="384" fill="#c9d1d9" font-size="9">$10K baseline</text>
</svg>