<svg xmlns="http://www.w3.org/2000/svg" viewBox="0 0 800 400" width="800" height="400">
  <rect width="800" height="400" fill="#0d1117" rx="8"/>

  <!-- Title -->
  <text x="70" y="30" fill="#c9d1d9" font-family="system-ui, -apple-system, sans-serif" font-size="16" font-weight="bold">Claude's Paper Trading — Equity Curve</text>
  <text x="70" y="48" fill="#58a6ff" font-family="system-ui, sans-serif" font-size="12">
    $8,976.44 (-10.24%) | Win Rate: 59/141 (42%) | Realized: $+214.43
  </text>

  <!-- Grid lines -->
  <line x1="70" y1="320.0" x2="770" y2="320.0" stroke="#21262d" stroke-width="0.5"/><line x1="70" y1="268.0" x2="770" y2="268.0" stroke="#21262d" stroke-width="0.5"/><line x1="70" y1="216.0" x2="770" y2="216.0" stroke="#21262d" stroke-width="0.5"/><line x1="70" y1="164.0" x2="770" y2="164.0" stroke="#21262d" stroke-width="0.5"/><line x1="70" y1="112.0" x2="770" y2="112.0" stroke="#21262d" stroke-width="0.5"/><line x1="70" y1="60.0" x2="770" y2="60.0" stroke="#21262d" stroke-width="0.5"/>

  <!-- Baseline (starting capital) -->
  <line x1="70" y1="194.3" x2="770" y2="194.3" stroke="#c9d1d9" stroke-width="0.5" stroke-dasharray="4,4" opacity="0.5"/>
  <text x="775" y="194.3" fill="#c9d1d9" font-size="9" opacity="0.6" dominant-baseline="middle">$10K</text>

  <!-- Fill under curve -->
  <path d="M 70.0 205.2 L 87.1 186.9 L 104.1 199.4 L 121.2 263.1 L 138.3 269.5 L 155.4 230.1 L 172.4 219.4 L 189.5 204.8 L 206.6 202.9 L 223.7 212.0 L 240.7 202.2 L 257.8 183.4 L 274.9 184.9 L 292.0 214.1 L 309.0 194.3 L 326.1 194.3 L 343.2 194.3 L 360.2 194.3 L 377.3 189.3 L 394.4 173.0 L 411.5 185.9 L 428.5 156.2 L 445.6 148.8 L 462.7 206.6 L 479.8 198.7 L 496.8 199.4 L 513.9 196.3 L 531.0 194.1 L 548.0 168.2 L 565.1 198.0 L 582.2 161.9 L 599.3 153.8 L 616.3 144.6 L 633.4 146.3 L 650.5 121.9 L 667.6 107.0 L 684.6 144.3 L 701.7 139.1 L 718.8 115.3 L 735.9 184.9 L 752.9 241.7 L 770.0 281.7 L 770.0 320.0 L 70.0 320.0 Z" fill="#dc2626" opacity="0.1"/>

  <!-- Equity line -->
  <path d="M 70.0 205.2 L 87.1 186.9 L 104.1 199.4 L 121.2 263.1 L 138.3 269.5 L 155.4 230.1 L 172.4 219.4 L 189.5 204.8 L 206.6 202.9 L 223.7 212.0 L 240.7 202.2 L 257.8 183.4 L 274.9 184.9 L 292.0 214.1 L 309.0 194.3 L 326.1 194.3 L 343.2 194.3 L 360.2 194.3 L 377.3 189.3 L 394.4 173.0 L 411.5 185.9 L 428.5 156.2 L 445.6 148.8 L 462.7 206.6 L 479.8 198.7 L 496.8 199.4 L 513.9 196.3 L 531.0 194.1 L 548.0 168.2 L 565.1 198.0 L 582.2 161.9 L 599.3 153.8 L 616.3 144.6 L 633.4 146.3 L 650.5 121.9 L 667.6 107.0 L 684.6 144.3 L 701.7 139.1 L 718.8 115.3 L 735.9 184.9 L 752.9 241.7 L 770.0 281.7" fill="none" stroke="#dc2626" stroke-width="2.5" stroke-linecap="round" stroke-linejoin="round"/>

  <!-- Data points -->
  <circle cx="70.0" cy="205.2" r="3" fill="#dc2626"/><circle cx="87.1" cy="186.9" r="3" fill="#dc2626"/><circle cx="104.1" cy="199.4" r="3" fill="#dc2626"/><circle cx="121.2" cy="263.1" r="3" fill="#dc2626"/><circle cx="138.3" cy="269.5" r="3" fill="#dc2626"/><circle cx="155.4" cy="230.1" r="3" fill="#dc2626"/><circle cx="172.4" cy="219.4" r="3" fill="#dc2626"/><circle cx="189.5" cy="204.8" r="3" fill="#dc2626"/><circle cx="206.6" cy="202.9" r="3" fill="#dc2626"/><circle cx="223.7" cy="212.0" r="3" fill="#dc2626"/><circle cx="240.7" cy="202.2" r="3" fill="#dc2626"/><circle cx="257.8" cy="183.4" r="3" fill="#dc2626"/><circle cx="274.9" cy="184.9" r="3" fill="#dc2626"/><circle cx="292.0" cy="214.1" r="3" fill="#dc2626"/><circle cx="309.0" cy="194.3" r="3" fill="#dc2626"/><circle cx="326.1" cy="194.3" r="3" fill="#dc2626"/><circle cx="343.2" cy="194.3" r="3" fill="#dc2626"/><circle cx="360.2" cy="194.3" r="3" fill="#dc2626"/><circle cx="377.3" cy="189.3" r="3" fill="#dc2626"/><circle cx="394.4" cy="173.0" r="3" fill="#dc2626"/><circle cx="411.5" cy="185.9" r="3" fill="#dc2626"/><circle cx="428.5" cy="156.2" r="3" fill="#dc2626"/><circle cx="445.6" cy="148.8" r="3" fill="#dc2626"/><circle cx="462.7" cy="206.6" r="3" fill="#dc2626"/><circle cx="479.8" cy="198.7" r="3" fill="#dc2626"/><circle cx="496.8" cy="199.4" r="3" fill="#dc2626"/><circle cx="513.9" cy="196.3" r="3" fill="#dc2626"/><circle cx="531.0" cy="194.1" r="3" fill="#dc2626"/><circle cx="548.0" cy="168.2" r="3" fill="#dc2626"/><circle cx="565.1" cy="198.0" r="3" fill="#dc2626"/><circle cx="582.2" cy="161.9" r="3" fill="#dc2626"/><circle cx="599.3" cy="153.8" r="3" fill="#dc2626"/><circle cx="616.3" cy="144.6" r="3" fill="#dc2626"/><circle cx="633.4" cy="146.3" r="3" fill="#dc2626"/><circle cx="650.5" cy="121.9" r="3" fill="#dc2626"/><circle cx="667.6" cy="107.0" r="3" fill="#dc2626"/><circle cx="684.6" cy="144.3" r="3" fill="#dc2626"/><circle cx="701.7" cy="139.1" r="3" fill="#dc2626"/><circle cx="718.8" cy="115.3" r="3" fill="#dc2626"/><circle cx="735.9" cy="184.9" r="3" fill="#dc2626"/><circle cx="752.9" cy="241.7" r="3" fill="#dc2626"/><circle cx="770.0" cy="281.7" r="3" fill="#dc2626"/>

  <!-- Trade markers -->
  <circle cx="138.3" cy="269.5" r="4" fill="#dc2626" opacity="0.8"/>
<circle cx="155.4" cy="230.1" r="4" fill="#dc2626" opacity="0.8"/>
<circle cx="155.4" cy="230.1" r="4" fill="#dc2626" opacity="0.8"/>
<circle cx="155.4" cy="230.1" r="4" fill="#dc2626" opacity="0.8"/>
<circle cx="189.5" cy="204.8" r="4" fill="#dc2626" opacity="0.8"/>
<circle cx="189.5" cy="204.8" r="4" fill="#16a34a" opacity="0.8"/>
<circle cx="189.5" cy="204.8" r="4" fill="#dc2626" opacity="0.8"/>
<circle cx="189.5" cy="204.8" r="4" fill="#dc2626" opacity="0.8"/>
<circle cx="189.5" cy="204.8" r="4" fill="#16a34a" opacity="0.8"/>
<circle cx="206.6" cy="202.9" r="4" fill="#16a34a" opacity="0.8"/>
<circle cx="206.6" cy="202.9" r="4" fill="#dc2626" opacity="0.8"/>
<circle cx="206.6" cy="202.9" r="4" fill="#dc2626" opacity="0.8"/>
<circle cx="206.6" cy="202.9" r="4" fill="#dc2626" opacity="0.8"/>
<circle cx="223.7" cy="212.0" r="4" fill="#dc2626" opacity="0.8"/>
<circle cx="223.7" cy="212.0" r="4" fill="#16a34a" opacity="0.8"/>
<circle cx="223.7" cy="212.0" r="4" fill="#dc2626" opacity="0.8"/>
<circle cx="223.7" cy="212.0" r="4" fill="#dc2626" opacity="0.8"/>
<circle cx="223.7" cy="212.0" r="4" fill="#dc2626" opacity="0.8"/>
<circle cx="240.7" cy="202.2" r="4" fill="#16a34a" opacity="0.8"/>
<circle cx="240.7" cy="202.2" r="4" fill="#dc2626" opacity="0.8"/>
<circle cx="240.7" cy="202.2" r="4" fill="#16a34a" opacity="0.8"/>
<circle cx="240.7" cy="202.2" r="4" fill="#dc2626" opacity="0.8"/>
<circle cx="240.7" cy="202.2" r="4" fill="#dc2626" opacity="0.8"/>
<circle cx="257.8" cy="183.4" r="4" fill="#16a34a" opacity="0.8"/>
<circle cx="257.8" cy="183.4" r="4" fill="#16a34a" opacity="0.8"/>
<circle cx="257.8" cy="183.4" r="4" fill="#16a34a" opacity="0.8"/>
<circle cx="394.4" cy="173.0" r="4" fill="#dc2626" opacity="0.8"/>
<circle cx="394.4" cy="173.0" r="4" fill="#dc2626" opacity="0.8"/>
<circle cx="394.4" cy="173.0" r="4" fill="#16a34a" opacity="0.8"/>
<circle cx="394.4" cy="173.0" r="4" fill="#16a34a" opacity="0.8"/>
<circle cx="394.4" cy="173.0" r="4" fill="#16a34a" opacity="0.8"/>
<circle cx="411.5" cy="185.9" r="4" fill="#16a34a" opacity="0.8"/>
<circle cx="411.5" cy="185.9" r="4" fill="#16a34a" opacity="0.8"/>
<circle cx="411.5" cy="185.9" r="4" fill="#dc2626" opacity="0.8"/>
<circle cx="411.5" cy="185.9" r="4" fill="#16a34a" opacity="0.8"/>
<circle cx="411.5" cy="185.9" r="4" fill="#dc2626" opacity="0.8"/>
<circle cx="411.5" cy="185.9" r="4" fill="#dc2626" opacity="0.8"/>
<circle cx="411.5" cy="185.9" r="4" fill="#dc2626" opacity="0.8"/>
<circle cx="428.5" cy="156.2" r="4" fill="#dc2626" opacity="0.8"/>
<circle cx="428.5" cy="156.2" r="4" fill="#16a34a" opacity="0.8"/>
<circle cx="428.5" cy="156.2" r="4" fill="#16a34a" opacity="0.8"/>
<circle cx="428.5" cy="156.2" r="4" fill="#dc2626" opacity="0.8"/>
<circle cx="428.5" cy="156.2" r="4" fill="#16a34a" opacity="0.8"/>
<circle cx="428.5" cy="156.2" r="4" fill="#16a34a" opacity="0.8"/>
<circle cx="445.6" cy="148.8" r="4" fill="#dc2626" opacity="0.8"/>
<circle cx="445.6" cy="148.8" r="4" fill="#16a34a" opacity="0.8"/>
<circle cx="445.6" cy="148.8" r="4" fill="#16a34a" opacity="0.8"/>
<circle cx="445.6" cy="148.8" r="4" fill="#16a34a" opacity="0.8"/>
<circle cx="445.6" cy="148.8" r="4" fill="#dc2626" opacity="0.8"/>
<circle cx="445.6" cy="148.8" r="4" fill="#dc2626" opacity="0.8"/>
<circle cx="445.6" cy="148.8" r="4" fill="#16a34a" opacity="0.8"/>
<circle cx="462.7" cy="206.6" r="4" fill="#16a34a" opacity="0.8"/>
<circle cx="462.7" cy="206.6" r="4" fill="#dc2626" opacity="0.8"/>
<circle cx="462.7" cy="206.6" r="4" fill="#dc2626" opacity="0.8"/>
<circle cx="462.7" cy="206.6" r="4" fill="#16a34a" opacity="0.8"/>
<circle cx="462.7" cy="206.6" r="4" fill="#dc2626" opacity="0.8"/>
<circle cx="462.7" cy="206.6" r="4" fill="#dc2626" opacity="0.8"/>
<circle cx="462.7" cy="206.6" r="4" fill="#dc2626" opacity="0.8"/>
<circle cx="462.7" cy="206.6" r="4" fill="#dc2626" opacity="0.8"/>
<circle cx="462.7" cy="206.6" r="4" fill="#dc2626" opacity="0.8"/>
<circle cx="479.8" cy="198.7" r="4" fill="#dc2626" opacity="0.8"/>
<circle cx="479.8" cy="198.7" r="4" fill="#16a34a" opacity="0.8"/>
<circle cx="479.8" cy="198.7" r="4" fill="#dc2626" opacity="0.8"/>
<circle cx="479.8" cy="198.7" r="4" fill="#16a34a" opacity="0.8"/>
<circle cx="479.8" cy="198.7" r="4" fill="#16a34a" opacity="0.8"/>
<circle cx="479.8" cy="198.7" r="4" fill="#16a34a" opacity="0.8"/>
<circle cx="479.8" cy="198.7" r="4" fill="#16a34a" opacity="0.8"/>
<circle cx="479.8" cy="198.7" r="4" fill="#16a34a" opacity="0.8"/>
<circle cx="479.8" cy="198.7" r="4" fill="#dc2626" opacity="0.8"/>
<circle cx="496.8" cy="199.4" r="4" fill="#16a34a" opacity="0.8"/>
<circle cx="496.8" cy="199.4" r="4" fill="#dc2626" opacity="0.8"/>
<circle cx="496.8" cy="199.4" r="4" fill="#dc2626" opacity="0.8"/>
<circle cx="496.8" cy="199.4" r="4" fill="#16a34a" opacity="0.8"/>
<circle cx="496.8" cy="199.4" r="4" fill="#16a34a" opacity="0.8"/>
<circle cx="496.8" cy="199.4" r="4" fill="#16a34a" opacity="0.8"/>
<circle cx="496.8" cy="199.4" r="4" fill="#dc2626" opacity="0.8"/>
<circle cx="513.9" cy="196.3" r="4" fill="#dc2626" opacity="0.8"/>
<circle cx="513.9" cy="196.3" r="4" fill="#dc2626" opacity="0.8"/>
<circle cx="513.9" cy="196.3" r="4" fill="#dc2626" opacity="0.8"/>
<circle cx="513.9" cy="196.3" r="4" fill="#16a34a" opacity="0.8"/>
<circle cx="513.9" cy="196.3" r="4" fill="#16a34a" opacity="0.8"/>
<circle cx="513.9" cy="196.3" r="4" fill="#dc2626" opacity="0.8"/>
<circle cx="531.0" cy="194.1" r="4" fill="#dc2626" opacity="0.8"/>
<circle cx="531.0" cy="194.1" r="4" fill="#dc2626" opacity="0.8"/>
<circle cx="531.0" cy="194.1" r="4" fill="#dc2626" opacity="0.8"/>
<circle cx="531.0" cy="194.1" r="4" fill="#dc2626" opacity="0.8"/>
<circle cx="531.0" cy="194.1" r="4" fill="#16a34a" opacity="0.8"/>
<circle cx="531.0" cy="194.1" r="4" fill="#dc2626" opacity="0.8"/>
<circle cx="531.0" cy="194.1" r="4" fill="#dc2626" opacity="0.8"/>
<circle cx="531.0" cy="194.1" r="4" fill="#dc2626" opacity="0.8"/>
<circle cx="531.0" cy="194.1" r="4" fill="#dc2626" opacity="0.8"/>
<circle cx="548.0" cy="168.2" r="4" fill="#dc2626" opacity="0.8"/>
<circle cx="548.0" cy="168.2" r="4" fill="#16a34a" opacity="0.8"/>
<circle cx="548.0" cy="168.2" r="4" fill="#dc2626" opacity="0.8"/>
<circle cx="548.0" cy="168.2" r="4" fill="#16a34a" opacity="0.8"/>
<circle cx="548.0" cy="168.2" r="4" fill="#dc2626" opacity="0.8"/>
<circle cx="548.0" cy="168.2" r="4" fill="#dc2626" opacity="0.8"/>
<circle cx="565.1" cy="198.0" r="4" fill="#dc2626" opacity="0.8"/>
<circle cx="565.1" cy="198.0" r="4" fill="#16a34a" opacity="0.8"/>
<circle cx="565.1" cy="198.0" r="4" fill="#dc2626" opacity="0.8"/>
<circle cx="565.1" cy="198.0" r="4" fill="#dc2626" opacity="0.8"/>
<circle cx="565.1" cy="198.0" r="4" fill="#dc2626" opacity="0.8"/>
<circle cx="565.1" cy="198.0" r="4" fill="#16a34a" opacity="0.8"/>
<circle cx="565.1" cy="198.0" r="4" fill="#dc2626" opacity="0.8"/>
<circle cx="565.1" cy="198.0" r="4" fill="#dc2626" opacity="0.8"/>
<circle cx="582.2" cy="161.9" r="4" fill="#dc2626" opacity="0.8"/>
<circle cx="582.2" cy="161.9" r="4" fill="#dc2626" opacity="0.8"/>
<circle cx="582.2" cy="161.9" r="4" fill="#16a34a" opacity="0.8"/>
<circle cx="582.2" cy="161.9" r="4" fill="#16a34a" opacity="0.8"/>
<circle cx="582.2" cy="161.9" r="4" fill="#dc2626" opacity="0.8"/>
<circle cx="599.3" cy="153.8" r="4" fill="#16a34a" opacity="0.8"/>
<circle cx="599.3" cy="153.8" r="4" fill="#dc2626" opacity="0.8"/>
<circle cx="599.3" cy="153.8" r="4" fill="#dc2626" opacity="0.8"/>
<circle cx="599.3" cy="153.8" r="4" fill="#dc2626" opacity="0.8"/>
<circle cx="599.3" cy="153.8" r="4" fill="#dc2626" opacity="0.8"/>
<circle cx="599.3" cy="153.8" r="4" fill="#16a34a" opacity="0.8"/>
<circle cx="599.3" cy="153.8" r="4" fill="#dc2626" opacity="0.8"/>
<circle cx="599.3" cy="153.8" r="4" fill="#dc2626" opacity="0.8"/>
<circle cx="616.3" cy="144.6" r="4" fill="#dc2626" opacity="0.8"/>
<circle cx="616.3" cy="144.6" r="4" fill="#dc2626" opacity="0.8"/>
<circle cx="616.3" cy="144.6" r="4" fill="#dc2626" opacity="0.8"/>
<circle cx="616.3" cy="144.6" r="4" fill="#dc2626" opacity="0.8"/>
<circle cx="616.3" cy="144.6" r="4" fill="#dc2626" opacity="0.8"/>
<circle cx="616.3" cy="144.6" r="4" fill="#dc2626" opacity="0.8"/>
<circle cx="616.3" cy="144.6" r="4" fill="#16a34a" opacity="0.8"/>
<circle cx="616.3" cy="144.6" r="4" fill="#16a34a" opacity="0.8"/>
<circle cx="616.3" cy="144.6" r="4" fill="#16a34a" opacity="0.8"/>
<circle cx="633.4" cy="146.3" r="4" fill="#16a34a" opacity="0.8"/>
<circle cx="633.4" cy="146.3" r="4" fill="#dc2626" opacity="0.8"/>
<circle cx="633.4" cy="146.3" r="4" fill="#16a34a" opacity="0.8"/>
<circle cx="633.4" cy="146.3" r="4" fill="#16a34a" opacity="0.8"/>
<circle cx="633.4" cy="146.3" r="4" fill="#16a34a" opacity="0.8"/>
<circle cx="633.4" cy="146.3" r="4" fill="#dc2626" opacity="0.8"/>
<circle cx="633.4" cy="146.3" r="4" fill="#16a34a" opacity="0.8"/>
<circle cx="633.4" cy="146.3" r="4" fill="#dc2626" opacity="0.8"/>
<circle cx="650.5" cy="121.9" r="4" fill="#dc2626" opacity="0.8"/>
<circle cx="650.5" cy="121.9" r="4" fill="#16a34a" opacity="0.8"/>
<circle cx="650.5" cy="121.9" r="4" fill="#16a34a" opacity="0.8"/>
<circle cx="650.5" cy="121.9" r="4" fill="#16a34a" opacity="0.8"/>
<circle cx="650.5" cy="121.9" r="4" fill="#16a34a" opacity="0.8"/>
<circle cx="650.5" cy="121.9" r="4" fill="#16a34a" opacity="0.8"/>


  <!-- Y-axis labels -->
  <text x="62" y="320.0" fill="#c9d1d9" font-size="10" text-anchor="end" dominant-baseline="middle">$8,528</text><text x="62" y="268.0" fill="#c9d1d9" font-size="10" text-anchor="end" dominant-baseline="middle">$9,137</text><text x="62" y="216.0" fill="#c9d1d9" font-size="10" text-anchor="end" dominant-baseline="middle">$9,746</text><text x="62" y="164.0" fill="#c9d1d9" font-size="10" text-anchor="end" dominant-baseline="middle">$10,355</text><text x="62" y="112.0" fill="#c9d1d9" font-size="10" text-anchor="end" dominant-baseline="middle">$10,965</text><text x="62" y="60.0" fill="#c9d1d9" font-size="10" text-anchor="end" dominant-baseline="middle">$11,574</text>

  <!-- X-axis labels -->
  <text x="70.0" y="340" fill="#c9d1d9" font-size="10" text-anchor="middle">2026-05-13</text><text x="428.5" y="340" fill="#c9d1d9" font-size="10" text-anchor="middle">2026-06-11</text><text x="770.0" y="340" fill="#c9d1d9" font-size="10" text-anchor="middle">2026-07-09</text>

  <!-- Legend -->
  <circle cx="650" cy="380" r="4" fill="#16a34a"/>
  <text x="658" y="384" fill="#c9d1d9" font-size="9">Win</text>
  <circle cx="690" cy="380" r="4" fill="#dc2626"/>
  <text x="698" y="384" fill="#c9d1d9" font-size="9">Loss</text>
  <line x1="730" y1="380" x2="745" y2="380" stroke="#c9d1d9" stroke-width="0.5" stroke-dasharray="4,4" opacity="0.5"/>
  <text x="750" y="384" fill="#c9d1d9" font-size="9">$10K baseline</text>
</svg>