<svg xmlns="http://www.w3.org/2000/svg" viewBox="0 0 800 400" width="800" height="400">
  <rect width="800" height="400" fill="#0d1117" rx="8"/>

  <!-- Title -->
  <text x="70" y="30" fill="#c9d1d9" font-family="system-ui, -apple-system, sans-serif" font-size="16" font-weight="bold">Claude's Paper Trading — Equity Curve</text>
  <text x="70" y="48" fill="#58a6ff" font-family="system-ui, sans-serif" font-size="12">
    $8,847.87 (-11.52%) | Win Rate: 59/141 (42%) | Realized: $+214.43
  </text>

  <!-- Grid lines -->
  <line x1="70" y1="320.0" x2="770" y2="320.0" stroke="#21262d" stroke-width="0.5"/><line x1="70" y1="268.0" x2="770" y2="268.0" stroke="#21262d" stroke-width="0.5"/><line x1="70" y1="216.0" x2="770" y2="216.0" stroke="#21262d" stroke-width="0.5"/><line x1="70" y1="164.0" x2="770" y2="164.0" stroke="#21262d" stroke-width="0.5"/><line x1="70" y1="112.0" x2="770" y2="112.0" stroke="#21262d" stroke-width="0.5"/><line x1="70" y1="60.0" x2="770" y2="60.0" stroke="#21262d" stroke-width="0.5"/>

  <!-- Baseline (starting capital) -->
  <line x1="70" y1="187.1" x2="770" y2="187.1" stroke="#c9d1d9" stroke-width="0.5" stroke-dasharray="4,4" opacity="0.5"/>
  <text x="775" y="187.1" fill="#c9d1d9" font-size="9" opacity="0.6" dominant-baseline="middle">$10K</text>

  <!-- Fill under curve -->
  <path d="M 70.0 197.4 L 85.9 180.1 L 101.8 191.9 L 117.7 252.2 L 133.6 258.2 L 149.5 221.0 L 165.5 210.8 L 181.4 197.0 L 197.3 195.2 L 213.2 203.8 L 229.1 194.6 L 245.0 176.7 L 260.9 178.1 L 276.8 205.8 L 292.7 187.1 L 308.6 187.1 L 324.5 187.1 L 340.5 187.1 L 356.4 182.4 L 372.3 167.0 L 388.2 179.2 L 404.1 151.0 L 420.0 144.0 L 435.9 198.7 L 451.8 191.2 L 467.7 191.9 L 483.6 188.9 L 499.5 186.9 L 515.5 162.4 L 531.4 190.6 L 547.3 156.4 L 563.2 148.7 L 579.1 140.0 L 595.0 141.6 L 610.9 118.5 L 626.8 104.5 L 642.7 139.8 L 658.6 134.8 L 674.5 112.4 L 690.5 178.1 L 706.4 231.9 L 722.3 280.5 L 738.2 284.5 L 754.1 284.4 L 770.0 280.1 L 770.0 320.0 L 70.0 320.0 Z" fill="#dc2626" opacity="0.1"/>

  <!-- Equity line -->
  <path d="M 70.0 197.4 L 85.9 180.1 L 101.8 191.9 L 117.7 252.2 L 133.6 258.2 L 149.5 221.0 L 165.5 210.8 L 181.4 197.0 L 197.3 195.2 L 213.2 203.8 L 229.1 194.6 L 245.0 176.7 L 260.9 178.1 L 276.8 205.8 L 292.7 187.1 L 308.6 187.1 L 324.5 187.1 L 340.5 187.1 L 356.4 182.4 L 372.3 167.0 L 388.2 179.2 L 404.1 151.0 L 420.0 144.0 L 435.9 198.7 L 451.8 191.2 L 467.7 191.9 L 483.6 188.9 L 499.5 186.9 L 515.5 162.4 L 531.4 190.6 L 547.3 156.4 L 563.2 148.7 L 579.1 140.0 L 595.0 141.6 L 610.9 118.5 L 626.8 104.5 L 642.7 139.8 L 658.6 134.8 L 674.5 112.4 L 690.5 178.1 L 706.4 231.9 L 722.3 280.5 L 738.2 284.5 L 754.1 284.4 L 770.0 280.1" fill="none" stroke="#dc2626" stroke-width="2.5" stroke-linecap="round" stroke-linejoin="round"/>

  <!-- Data points -->
  <circle cx="70.0" cy="197.4" r="3" fill="#dc2626"/><circle cx="85.9" cy="180.1" r="3" fill="#dc2626"/><circle cx="101.8" cy="191.9" r="3" fill="#dc2626"/><circle cx="117.7" cy="252.2" r="3" fill="#dc2626"/><circle cx="133.6" cy="258.2" r="3" fill="#dc2626"/><circle cx="149.5" cy="221.0" r="3" fill="#dc2626"/><circle cx="165.5" cy="210.8" r="3" fill="#dc2626"/><circle cx="181.4" cy="197.0" r="3" fill="#dc2626"/><circle cx="197.3" cy="195.2" r="3" fill="#dc2626"/><circle cx="213.2" cy="203.8" r="3" fill="#dc2626"/><circle cx="229.1" cy="194.6" r="3" fill="#dc2626"/><circle cx="245.0" cy="176.7" r="3" fill="#dc2626"/><circle cx="260.9" cy="178.1" r="3" fill="#dc2626"/><circle cx="276.8" cy="205.8" r="3" fill="#dc2626"/><circle cx="292.7" cy="187.1" r="3" fill="#dc2626"/><circle cx="308.6" cy="187.1" r="3" fill="#dc2626"/><circle cx="324.5" cy="187.1" r="3" fill="#dc2626"/><circle cx="340.5" cy="187.1" r="3" fill="#dc2626"/><circle cx="356.4" cy="182.4" r="3" fill="#dc2626"/><circle cx="372.3" cy="167.0" r="3" fill="#dc2626"/><circle cx="388.2" cy="179.2" r="3" fill="#dc2626"/><circle cx="404.1" cy="151.0" r="3" fill="#dc2626"/><circle cx="420.0" cy="144.0" r="3" fill="#dc2626"/><circle cx="435.9" cy="198.7" r="3" fill="#dc2626"/><circle cx="451.8" cy="191.2" r="3" fill="#dc2626"/><circle cx="467.7" cy="191.9" r="3" fill="#dc2626"/><circle cx="483.6" cy="188.9" r="3" fill="#dc2626"/><circle cx="499.5" cy="186.9" r="3" fill="#dc2626"/><circle cx="515.5" cy="162.4" r="3" fill="#dc2626"/><circle cx="531.4" cy="190.6" r="3" fill="#dc2626"/><circle cx="547.3" cy="156.4" r="3" fill="#dc2626"/><circle cx="563.2" cy="148.7" r="3" fill="#dc2626"/><circle cx="579.1" cy="140.0" r="3" fill="#dc2626"/><circle cx="595.0" cy="141.6" r="3" fill="#dc2626"/><circle cx="610.9" cy="118.5" r="3" fill="#dc2626"/><circle cx="626.8" cy="104.5" r="3" fill="#dc2626"/><circle cx="642.7" cy="139.8" r="3" fill="#dc2626"/><circle cx="658.6" cy="134.8" r="3" fill="#dc2626"/><circle cx="674.5" cy="112.4" r="3" fill="#dc2626"/><circle cx="690.5" cy="178.1" r="3" fill="#dc2626"/><circle cx="706.4" cy="231.9" r="3" fill="#dc2626"/><circle cx="722.3" cy="280.5" r="3" fill="#dc2626"/><circle cx="738.2" cy="284.5" r="3" fill="#dc2626"/><circle cx="754.1" cy="284.4" r="3" fill="#dc2626"/><circle cx="770.0" cy="280.1" r="3" fill="#dc2626"/>

  <!-- Trade markers -->
  <circle cx="133.6" cy="258.2" r="4" fill="#dc2626" opacity="0.8"/>
<circle cx="149.5" cy="221.0" r="4" fill="#dc2626" opacity="0.8"/>
<circle cx="149.5" cy="221.0" r="4" fill="#dc2626" opacity="0.8"/>
<circle cx="149.5" cy="221.0" r="4" fill="#dc2626" opacity="0.8"/>
<circle cx="181.4" cy="197.0" r="4" fill="#dc2626" opacity="0.8"/>
<circle cx="181.4" cy="197.0" r="4" fill="#16a34a" opacity="0.8"/>
<circle cx="181.4" cy="197.0" r="4" fill="#dc2626" opacity="0.8"/>
<circle cx="181.4" cy="197.0" r="4" fill="#dc2626" opacity="0.8"/>
<circle cx="181.4" cy="197.0" r="4" fill="#16a34a" opacity="0.8"/>
<circle cx="197.3" cy="195.2" r="4" fill="#16a34a" opacity="0.8"/>
<circle cx="197.3" cy="195.2" r="4" fill="#dc2626" opacity="0.8"/>
<circle cx="197.3" cy="195.2" r="4" fill="#dc2626" opacity="0.8"/>
<circle cx="197.3" cy="195.2" r="4" fill="#dc2626" opacity="0.8"/>
<circle cx="213.2" cy="203.8" r="4" fill="#dc2626" opacity="0.8"/>
<circle cx="213.2" cy="203.8" r="4" fill="#16a34a" opacity="0.8"/>
<circle cx="213.2" cy="203.8" r="4" fill="#dc2626" opacity="0.8"/>
<circle cx="213.2" cy="203.8" r="4" fill="#dc2626" opacity="0.8"/>
<circle cx="213.2" cy="203.8" r="4" fill="#dc2626" opacity="0.8"/>
<circle cx="229.1" cy="194.6" r="4" fill="#16a34a" opacity="0.8"/>
<circle cx="229.1" cy="194.6" r="4" fill="#dc2626" opacity="0.8"/>
<circle cx="229.1" cy="194.6" r="4" fill="#16a34a" opacity="0.8"/>
<circle cx="229.1" cy="194.6" r="4" fill="#dc2626" opacity="0.8"/>
<circle cx="229.1" cy="194.6" r="4" fill="#dc2626" opacity="0.8"/>
<circle cx="245.0" cy="176.7" r="4" fill="#16a34a" opacity="0.8"/>
<circle cx="245.0" cy="176.7" r="4" fill="#16a34a" opacity="0.8"/>
<circle cx="245.0" cy="176.7" r="4" fill="#16a34a" opacity="0.8"/>
<circle cx="372.3" cy="167.0" r="4" fill="#dc2626" opacity="0.8"/>
<circle cx="372.3" cy="167.0" r="4" fill="#dc2626" opacity="0.8"/>
<circle cx="372.3" cy="167.0" r="4" fill="#16a34a" opacity="0.8"/>
<circle cx="372.3" cy="167.0" r="4" fill="#16a34a" opacity="0.8"/>
<circle cx="372.3" cy="167.0" r="4" fill="#16a34a" opacity="0.8"/>
<circle cx="388.2" cy="179.2" r="4" fill="#16a34a" opacity="0.8"/>
<circle cx="388.2" cy="179.2" r="4" fill="#16a34a" opacity="0.8"/>
<circle cx="388.2" cy="179.2" r="4" fill="#dc2626" opacity="0.8"/>
<circle cx="388.2" cy="179.2" r="4" fill="#16a34a" opacity="0.8"/>
<circle cx="388.2" cy="179.2" r="4" fill="#dc2626" opacity="0.8"/>
<circle cx="388.2" cy="179.2" r="4" fill="#dc2626" opacity="0.8"/>
<circle cx="388.2" cy="179.2" r="4" fill="#dc2626" opacity="0.8"/>
<circle cx="404.1" cy="151.0" r="4" fill="#dc2626" opacity="0.8"/>
<circle cx="404.1" cy="151.0" r="4" fill="#16a34a" opacity="0.8"/>
<circle cx="404.1" cy="151.0" r="4" fill="#16a34a" opacity="0.8"/>
<circle cx="404.1" cy="151.0" r="4" fill="#dc2626" opacity="0.8"/>
<circle cx="404.1" cy="151.0" r="4" fill="#16a34a" opacity="0.8"/>
<circle cx="404.1" cy="151.0" r="4" fill="#16a34a" opacity="0.8"/>
<circle cx="420.0" cy="144.0" r="4" fill="#dc2626" opacity="0.8"/>
<circle cx="420.0" cy="144.0" r="4" fill="#16a34a" opacity="0.8"/>
<circle cx="420.0" cy="144.0" r="4" fill="#16a34a" opacity="0.8"/>
<circle cx="420.0" cy="144.0" r="4" fill="#16a34a" opacity="0.8"/>
<circle cx="420.0" cy="144.0" r="4" fill="#dc2626" opacity="0.8"/>
<circle cx="420.0" cy="144.0" r="4" fill="#dc2626" opacity="0.8"/>
<circle cx="420.0" cy="144.0" r="4" fill="#16a34a" opacity="0.8"/>
<circle cx="435.9" cy="198.7" r="4" fill="#16a34a" opacity="0.8"/>
<circle cx="435.9" cy="198.7" r="4" fill="#dc2626" opacity="0.8"/>
<circle cx="435.9" cy="198.7" r="4" fill="#dc2626" opacity="0.8"/>
<circle cx="435.9" cy="198.7" r="4" fill="#16a34a" opacity="0.8"/>
<circle cx="435.9" cy="198.7" r="4" fill="#dc2626" opacity="0.8"/>
<circle cx="435.9" cy="198.7" r="4" fill="#dc2626" opacity="0.8"/>
<circle cx="435.9" cy="198.7" r="4" fill="#dc2626" opacity="0.8"/>
<circle cx="435.9" cy="198.7" r="4" fill="#dc2626" opacity="0.8"/>
<circle cx="435.9" cy="198.7" r="4" fill="#dc2626" opacity="0.8"/>
<circle cx="451.8" cy="191.2" r="4" fill="#dc2626" opacity="0.8"/>
<circle cx="451.8" cy="191.2" r="4" fill="#16a34a" opacity="0.8"/>
<circle cx="451.8" cy="191.2" r="4" fill="#dc2626" opacity="0.8"/>
<circle cx="451.8" cy="191.2" r="4" fill="#16a34a" opacity="0.8"/>
<circle cx="451.8" cy="191.2" r="4" fill="#16a34a" opacity="0.8"/>
<circle cx="451.8" cy="191.2" r="4" fill="#16a34a" opacity="0.8"/>
<circle cx="451.8" cy="191.2" r="4" fill="#16a34a" opacity="0.8"/>
<circle cx="451.8" cy="191.2" r="4" fill="#16a34a" opacity="0.8"/>
<circle cx="451.8" cy="191.2" r="4" fill="#dc2626" opacity="0.8"/>
<circle cx="467.7" cy="191.9" r="4" fill="#16a34a" opacity="0.8"/>
<circle cx="467.7" cy="191.9" r="4" fill="#dc2626" opacity="0.8"/>
<circle cx="467.7" cy="191.9" r="4" fill="#dc2626" opacity="0.8"/>
<circle cx="467.7" cy="191.9" r="4" fill="#16a34a" opacity="0.8"/>
<circle cx="467.7" cy="191.9" r="4" fill="#16a34a" opacity="0.8"/>
<circle cx="467.7" cy="191.9" r="4" fill="#16a34a" opacity="0.8"/>
<circle cx="467.7" cy="191.9" r="4" fill="#dc2626" opacity="0.8"/>
<circle cx="483.6" cy="188.9" r="4" fill="#dc2626" opacity="0.8"/>
<circle cx="483.6" cy="188.9" r="4" fill="#dc2626" opacity="0.8"/>
<circle cx="483.6" cy="188.9" r="4" fill="#dc2626" opacity="0.8"/>
<circle cx="483.6" cy="188.9" r="4" fill="#16a34a" opacity="0.8"/>
<circle cx="483.6" cy="188.9" r="4" fill="#16a34a" opacity="0.8"/>
<circle cx="483.6" cy="188.9" r="4" fill="#dc2626" opacity="0.8"/>
<circle cx="499.5" cy="186.9" r="4" fill="#dc2626" opacity="0.8"/>
<circle cx="499.5" cy="186.9" r="4" fill="#dc2626" opacity="0.8"/>
<circle cx="499.5" cy="186.9" r="4" fill="#dc2626" opacity="0.8"/>
<circle cx="499.5" cy="186.9" r="4" fill="#dc2626" opacity="0.8"/>
<circle cx="499.5" cy="186.9" r="4" fill="#16a34a" opacity="0.8"/>
<circle cx="499.5" cy="186.9" r="4" fill="#dc2626" opacity="0.8"/>
<circle cx="499.5" cy="186.9" r="4" fill="#dc2626" opacity="0.8"/>
<circle cx="499.5" cy="186.9" r="4" fill="#dc2626" opacity="0.8"/>
<circle cx="499.5" cy="186.9" r="4" fill="#dc2626" opacity="0.8"/>
<circle cx="515.5" cy="162.4" r="4" fill="#dc2626" opacity="0.8"/>
<circle cx="515.5" cy="162.4" r="4" fill="#16a34a" opacity="0.8"/>
<circle cx="515.5" cy="162.4" r="4" fill="#dc2626" opacity="0.8"/>
<circle cx="515.5" cy="162.4" r="4" fill="#16a34a" opacity="0.8"/>
<circle cx="515.5" cy="162.4" r="4" fill="#dc2626" opacity="0.8"/>
<circle cx="515.5" cy="162.4" r="4" fill="#dc2626" opacity="0.8"/>
<circle cx="531.4" cy="190.6" r="4" fill="#dc2626" opacity="0.8"/>
<circle cx="531.4" cy="190.6" r="4" fill="#16a34a" opacity="0.8"/>
<circle cx="531.4" cy="190.6" r="4" fill="#dc2626" opacity="0.8"/>
<circle cx="531.4" cy="190.6" r="4" fill="#dc2626" opacity="0.8"/>
<circle cx="531.4" cy="190.6" r="4" fill="#dc2626" opacity="0.8"/>
<circle cx="531.4" cy="190.6" r="4" fill="#16a34a" opacity="0.8"/>
<circle cx="531.4" cy="190.6" r="4" fill="#dc2626" opacity="0.8"/>
<circle cx="531.4" cy="190.6" r="4" fill="#dc2626" opacity="0.8"/>
<circle cx="547.3" cy="156.4" r="4" fill="#dc2626" opacity="0.8"/>
<circle cx="547.3" cy="156.4" r="4" fill="#dc2626" opacity="0.8"/>
<circle cx="547.3" cy="156.4" r="4" fill="#16a34a" opacity="0.8"/>
<circle cx="547.3" cy="156.4" r="4" fill="#16a34a" opacity="0.8"/>
<circle cx="547.3" cy="156.4" r="4" fill="#dc2626" opacity="0.8"/>
<circle cx="563.2" cy="148.7" r="4" fill="#16a34a" opacity="0.8"/>
<circle cx="563.2" cy="148.7" r="4" fill="#dc2626" opacity="0.8"/>
<circle cx="563.2" cy="148.7" r="4" fill="#dc2626" opacity="0.8"/>
<circle cx="563.2" cy="148.7" r="4" fill="#dc2626" opacity="0.8"/>
<circle cx="563.2" cy="148.7" r="4" fill="#dc2626" opacity="0.8"/>
<circle cx="563.2" cy="148.7" r="4" fill="#16a34a" opacity="0.8"/>
<circle cx="563.2" cy="148.7" r="4" fill="#dc2626" opacity="0.8"/>
<circle cx="563.2" cy="148.7" r="4" fill="#dc2626" opacity="0.8"/>
<circle cx="579.1" cy="140.0" r="4" fill="#dc2626" opacity="0.8"/>
<circle cx="579.1" cy="140.0" r="4" fill="#dc2626" opacity="0.8"/>
<circle cx="579.1" cy="140.0" r="4" fill="#dc2626" opacity="0.8"/>
<circle cx="579.1" cy="140.0" r="4" fill="#dc2626" opacity="0.8"/>
<circle cx="579.1" cy="140.0" r="4" fill="#dc2626" opacity="0.8"/>
<circle cx="579.1" cy="140.0" r="4" fill="#dc2626" opacity="0.8"/>
<circle cx="579.1" cy="140.0" r="4" fill="#16a34a" opacity="0.8"/>
<circle cx="579.1" cy="140.0" r="4" fill="#16a34a" opacity="0.8"/>
<circle cx="579.1" cy="140.0" r="4" fill="#16a34a" opacity="0.8"/>
<circle cx="595.0" cy="141.6" r="4" fill="#16a34a" opacity="0.8"/>
<circle cx="595.0" cy="141.6" r="4" fill="#dc2626" opacity="0.8"/>
<circle cx="595.0" cy="141.6" r="4" fill="#16a34a" opacity="0.8"/>
<circle cx="595.0" cy="141.6" r="4" fill="#16a34a" opacity="0.8"/>
<circle cx="595.0" cy="141.6" r="4" fill="#16a34a" opacity="0.8"/>
<circle cx="595.0" cy="141.6" r="4" fill="#dc2626" opacity="0.8"/>
<circle cx="595.0" cy="141.6" r="4" fill="#16a34a" opacity="0.8"/>
<circle cx="595.0" cy="141.6" r="4" fill="#dc2626" opacity="0.8"/>
<circle cx="610.9" cy="118.5" r="4" fill="#dc2626" opacity="0.8"/>
<circle cx="610.9" cy="118.5" r="4" fill="#16a34a" opacity="0.8"/>
<circle cx="610.9" cy="118.5" r="4" fill="#16a34a" opacity="0.8"/>
<circle cx="610.9" cy="118.5" r="4" fill="#16a34a" opacity="0.8"/>
<circle cx="610.9" cy="118.5" r="4" fill="#16a34a" opacity="0.8"/>
<circle cx="610.9" cy="118.5" r="4" fill="#16a34a" opacity="0.8"/>


  <!-- Y-axis labels -->
  <text x="62" y="320.0" fill="#c9d1d9" font-size="10" text-anchor="end" dominant-baseline="middle">$8,354</text><text x="62" y="268.0" fill="#c9d1d9" font-size="10" text-anchor="end" dominant-baseline="middle">$8,998</text><text x="62" y="216.0" fill="#c9d1d9" font-size="10" text-anchor="end" dominant-baseline="middle">$9,642</text><text x="62" y="164.0" fill="#c9d1d9" font-size="10" text-anchor="end" dominant-baseline="middle">$10,286</text><text x="62" y="112.0" fill="#c9d1d9" font-size="10" text-anchor="end" dominant-baseline="middle">$10,930</text><text x="62" y="60.0" fill="#c9d1d9" font-size="10" text-anchor="end" dominant-baseline="middle">$11,574</text>

  <!-- X-axis labels -->
  <text x="70.0" y="340" fill="#c9d1d9" font-size="10" text-anchor="middle">2026-05-13</text><text x="420.0" y="340" fill="#c9d1d9" font-size="10" text-anchor="middle">2026-06-12</text><text x="770.0" y="340" fill="#c9d1d9" font-size="10" text-anchor="middle">2026-07-14</text>

  <!-- Legend -->
  <circle cx="650" cy="380" r="4" fill="#16a34a"/>
  <text x="658" y="384" fill="#c9d1d9" font-size="9">Win</text>
  <circle cx="690" cy="380" r="4" fill="#dc2626"/>
  <text x="698" y="384" fill="#c9d1d9" font-size="9">Loss</text>
  <line x1="730" y1="380" x2="745" y2="380" stroke="#c9d1d9" stroke-width="0.5" stroke-dasharray="4,4" opacity="0.5"/>
  <text x="750" y="384" fill="#c9d1d9" font-size="9">$10K baseline</text>
</svg>