<svg xmlns="http://www.w3.org/2000/svg" viewBox="0 0 800 400" width="800" height="400">
  <rect width="800" height="400" fill="#0d1117" rx="8"/>

  <!-- Title -->
  <text x="70" y="30" fill="#c9d1d9" font-family="system-ui, -apple-system, sans-serif" font-size="16" font-weight="bold">Claude's Paper Trading — Equity Curve</text>
  <text x="70" y="48" fill="#58a6ff" font-family="system-ui, sans-serif" font-size="12">
    $10,581.49 (+5.81%) | Win Rate: 15/35 (43%) | Realized: $+284.52
  </text>

  <!-- Grid lines -->
  <line x1="70" y1="320.0" x2="770" y2="320.0" stroke="#21262d" stroke-width="0.5"/><line x1="70" y1="268.0" x2="770" y2="268.0" stroke="#21262d" stroke-width="0.5"/><line x1="70" y1="216.0" x2="770" y2="216.0" stroke="#21262d" stroke-width="0.5"/><line x1="70" y1="164.0" x2="770" y2="164.0" stroke="#21262d" stroke-width="0.5"/><line x1="70" y1="112.0" x2="770" y2="112.0" stroke="#21262d" stroke-width="0.5"/><line x1="70" y1="60.0" x2="770" y2="60.0" stroke="#21262d" stroke-width="0.5"/>

  <!-- Baseline (starting capital) -->
  <line x1="70" y1="178.0" x2="770" y2="178.0" stroke="#c9d1d9" stroke-width="0.5" stroke-dasharray="4,4" opacity="0.5"/>
  <text x="775" y="178.0" fill="#c9d1d9" font-size="9" opacity="0.6" dominant-baseline="middle">$10K</text>

  <!-- Fill under curve -->
  <path d="M 70.0 191.6 L 105.0 168.8 L 140.0 184.2 L 175.0 263.6 L 210.0 271.6 L 245.0 222.5 L 280.0 209.2 L 315.0 191.0 L 350.0 188.7 L 385.0 200.0 L 420.0 187.8 L 455.0 164.3 L 490.0 166.2 L 525.0 202.6 L 560.0 178.0 L 595.0 178.0 L 630.0 178.0 L 665.0 178.0 L 700.0 171.8 L 735.0 151.5 L 770.0 116.2 L 770.0 320.0 L 70.0 320.0 Z" fill="#16a34a" opacity="0.1"/>

  <!-- Equity line -->
  <path d="M 70.0 191.6 L 105.0 168.8 L 140.0 184.2 L 175.0 263.6 L 210.0 271.6 L 245.0 222.5 L 280.0 209.2 L 315.0 191.0 L 350.0 188.7 L 385.0 200.0 L 420.0 187.8 L 455.0 164.3 L 490.0 166.2 L 525.0 202.6 L 560.0 178.0 L 595.0 178.0 L 630.0 178.0 L 665.0 178.0 L 700.0 171.8 L 735.0 151.5 L 770.0 116.2" fill="none" stroke="#16a34a" stroke-width="2.5" stroke-linecap="round" stroke-linejoin="round"/>

  <!-- Data points -->
  <circle cx="70.0" cy="191.6" r="3" fill="#16a34a"/><circle cx="105.0" cy="168.8" r="3" fill="#16a34a"/><circle cx="140.0" cy="184.2" r="3" fill="#16a34a"/><circle cx="175.0" cy="263.6" r="3" fill="#16a34a"/><circle cx="210.0" cy="271.6" r="3" fill="#16a34a"/><circle cx="245.0" cy="222.5" r="3" fill="#16a34a"/><circle cx="280.0" cy="209.2" r="3" fill="#16a34a"/><circle cx="315.0" cy="191.0" r="3" fill="#16a34a"/><circle cx="350.0" cy="188.7" r="3" fill="#16a34a"/><circle cx="385.0" cy="200.0" r="3" fill="#16a34a"/><circle cx="420.0" cy="187.8" r="3" fill="#16a34a"/><circle cx="455.0" cy="164.3" r="3" fill="#16a34a"/><circle cx="490.0" cy="166.2" r="3" fill="#16a34a"/><circle cx="525.0" cy="202.6" r="3" fill="#16a34a"/><circle cx="560.0" cy="178.0" r="3" fill="#16a34a"/><circle cx="595.0" cy="178.0" r="3" fill="#16a34a"/><circle cx="630.0" cy="178.0" r="3" fill="#16a34a"/><circle cx="665.0" cy="178.0" r="3" fill="#16a34a"/><circle cx="700.0" cy="171.8" r="3" fill="#16a34a"/><circle cx="735.0" cy="151.5" r="3" fill="#16a34a"/><circle cx="770.0" cy="116.2" r="3" fill="#16a34a"/>

  <!-- Trade markers -->
  <circle cx="210.0" cy="271.6" r="4" fill="#dc2626" opacity="0.8"/>
<circle cx="245.0" cy="222.5" r="4" fill="#dc2626" opacity="0.8"/>
<circle cx="245.0" cy="222.5" r="4" fill="#dc2626" opacity="0.8"/>
<circle cx="245.0" cy="222.5" r="4" fill="#dc2626" opacity="0.8"/>
<circle cx="315.0" cy="191.0" r="4" fill="#dc2626" opacity="0.8"/>
<circle cx="315.0" cy="191.0" r="4" fill="#16a34a" opacity="0.8"/>
<circle cx="315.0" cy="191.0" r="4" fill="#dc2626" opacity="0.8"/>
<circle cx="315.0" cy="191.0" r="4" fill="#dc2626" opacity="0.8"/>
<circle cx="315.0" cy="191.0" r="4" fill="#16a34a" opacity="0.8"/>
<circle cx="350.0" cy="188.7" r="4" fill="#16a34a" opacity="0.8"/>
<circle cx="350.0" cy="188.7" r="4" fill="#dc2626" opacity="0.8"/>
<circle cx="350.0" cy="188.7" r="4" fill="#dc2626" opacity="0.8"/>
<circle cx="350.0" cy="188.7" r="4" fill="#dc2626" opacity="0.8"/>
<circle cx="385.0" cy="200.0" r="4" fill="#dc2626" opacity="0.8"/>
<circle cx="385.0" cy="200.0" r="4" fill="#16a34a" opacity="0.8"/>
<circle cx="385.0" cy="200.0" r="4" fill="#dc2626" opacity="0.8"/>
<circle cx="385.0" cy="200.0" r="4" fill="#dc2626" opacity="0.8"/>
<circle cx="385.0" cy="200.0" r="4" fill="#dc2626" opacity="0.8"/>
<circle cx="420.0" cy="187.8" r="4" fill="#16a34a" opacity="0.8"/>
<circle cx="420.0" cy="187.8" r="4" fill="#dc2626" opacity="0.8"/>
<circle cx="420.0" cy="187.8" r="4" fill="#16a34a" opacity="0.8"/>
<circle cx="420.0" cy="187.8" r="4" fill="#dc2626" opacity="0.8"/>
<circle cx="420.0" cy="187.8" r="4" fill="#dc2626" opacity="0.8"/>
<circle cx="455.0" cy="164.3" r="4" fill="#16a34a" opacity="0.8"/>
<circle cx="455.0" cy="164.3" r="4" fill="#16a34a" opacity="0.8"/>
<circle cx="455.0" cy="164.3" r="4" fill="#16a34a" opacity="0.8"/>
<circle cx="735.0" cy="151.5" r="4" fill="#dc2626" opacity="0.8"/>
<circle cx="735.0" cy="151.5" r="4" fill="#dc2626" opacity="0.8"/>
<circle cx="735.0" cy="151.5" r="4" fill="#16a34a" opacity="0.8"/>
<circle cx="735.0" cy="151.5" r="4" fill="#16a34a" opacity="0.8"/>
<circle cx="735.0" cy="151.5" r="4" fill="#16a34a" opacity="0.8"/>
<circle cx="770.0" cy="116.2" r="4" fill="#16a34a" opacity="0.8"/>
<circle cx="770.0" cy="116.2" r="4" fill="#16a34a" opacity="0.8"/>
<circle cx="770.0" cy="116.2" r="4" fill="#dc2626" opacity="0.8"/>
<circle cx="770.0" cy="116.2" r="4" fill="#16a34a" opacity="0.8"/>


  <!-- Y-axis labels -->
  <text x="62" y="320.0" fill="#c9d1d9" font-size="10" text-anchor="end" dominant-baseline="middle">$8,663</text><text x="62" y="268.0" fill="#c9d1d9" font-size="10" text-anchor="end" dominant-baseline="middle">$9,153</text><text x="62" y="216.0" fill="#c9d1d9" font-size="10" text-anchor="end" dominant-baseline="middle">$9,642</text><text x="62" y="164.0" fill="#c9d1d9" font-size="10" text-anchor="end" dominant-baseline="middle">$10,132</text><text x="62" y="112.0" fill="#c9d1d9" font-size="10" text-anchor="end" dominant-baseline="middle">$10,621</text><text x="62" y="60.0" fill="#c9d1d9" font-size="10" text-anchor="end" dominant-baseline="middle">$11,111</text>

  <!-- X-axis labels -->
  <text x="70.0" y="340" fill="#c9d1d9" font-size="10" text-anchor="middle">2026-05-13</text><text x="420.0" y="340" fill="#c9d1d9" font-size="10" text-anchor="middle">2026-05-27</text><text x="770.0" y="340" fill="#c9d1d9" font-size="10" text-anchor="middle">2026-06-10</text>

  <!-- Legend -->
  <circle cx="650" cy="380" r="4" fill="#16a34a"/>
  <text x="658" y="384" fill="#c9d1d9" font-size="9">Win</text>
  <circle cx="690" cy="380" r="4" fill="#dc2626"/>
  <text x="698" y="384" fill="#c9d1d9" font-size="9">Loss</text>
  <line x1="730" y1="380" x2="745" y2="380" stroke="#c9d1d9" stroke-width="0.5" stroke-dasharray="4,4" opacity="0.5"/>
  <text x="750" y="384" fill="#c9d1d9" font-size="9">$10K baseline</text>
</svg>