<svg xmlns="http://www.w3.org/2000/svg" viewBox="0 0 800 400" width="800" height="400">
  <rect width="800" height="400" fill="#0d1117" rx="8"/>

  <!-- Title -->
  <text x="70" y="30" fill="#c9d1d9" font-family="system-ui, -apple-system, sans-serif" font-size="16" font-weight="bold">Claude's Paper Trading — Equity Curve</text>
  <text x="70" y="48" fill="#58a6ff" font-family="system-ui, sans-serif" font-size="12">
    $10,176.88 (+1.77%) | Win Rate: 44/109 (40%) | Realized: $-320.29
  </text>

  <!-- Grid lines -->
  <line x1="70" y1="320.0" x2="770" y2="320.0" stroke="#21262d" stroke-width="0.5"/><line x1="70" y1="268.0" x2="770" y2="268.0" stroke="#21262d" stroke-width="0.5"/><line x1="70" y1="216.0" x2="770" y2="216.0" stroke="#21262d" stroke-width="0.5"/><line x1="70" y1="164.0" x2="770" y2="164.0" stroke="#21262d" stroke-width="0.5"/><line x1="70" y1="112.0" x2="770" y2="112.0" stroke="#21262d" stroke-width="0.5"/><line x1="70" y1="60.0" x2="770" y2="60.0" stroke="#21262d" stroke-width="0.5"/>

  <!-- Baseline (starting capital) -->
  <line x1="70" y1="175.0" x2="770" y2="175.0" stroke="#c9d1d9" stroke-width="0.5" stroke-dasharray="4,4" opacity="0.5"/>
  <text x="775" y="175.0" fill="#c9d1d9" font-size="9" opacity="0.6" dominant-baseline="middle">$10K</text>

  <!-- Fill under curve -->
  <path d="M 70.0 188.9 L 93.3 165.6 L 116.7 181.4 L 140.0 262.4 L 163.3 270.6 L 186.7 220.5 L 210.0 206.9 L 233.3 188.3 L 256.7 185.9 L 280.0 197.5 L 303.3 185.1 L 326.7 161.1 L 350.0 163.0 L 373.3 200.1 L 396.7 175.0 L 420.0 175.0 L 443.3 175.0 L 466.7 175.0 L 490.0 168.7 L 513.3 148.0 L 536.7 164.4 L 560.0 126.5 L 583.3 117.1 L 606.7 190.6 L 630.0 180.5 L 653.3 181.5 L 676.7 177.5 L 700.0 174.8 L 723.3 141.9 L 746.7 179.7 L 770.0 155.8 L 770.0 320.0 L 70.0 320.0 Z" fill="#16a34a" opacity="0.1"/>

  <!-- Equity line -->
  <path d="M 70.0 188.9 L 93.3 165.6 L 116.7 181.4 L 140.0 262.4 L 163.3 270.6 L 186.7 220.5 L 210.0 206.9 L 233.3 188.3 L 256.7 185.9 L 280.0 197.5 L 303.3 185.1 L 326.7 161.1 L 350.0 163.0 L 373.3 200.1 L 396.7 175.0 L 420.0 175.0 L 443.3 175.0 L 466.7 175.0 L 490.0 168.7 L 513.3 148.0 L 536.7 164.4 L 560.0 126.5 L 583.3 117.1 L 606.7 190.6 L 630.0 180.5 L 653.3 181.5 L 676.7 177.5 L 700.0 174.8 L 723.3 141.9 L 746.7 179.7 L 770.0 155.8" fill="none" stroke="#16a34a" stroke-width="2.5" stroke-linecap="round" stroke-linejoin="round"/>

  <!-- Data points -->
  <circle cx="70.0" cy="188.9" r="3" fill="#16a34a"/><circle cx="93.3" cy="165.6" r="3" fill="#16a34a"/><circle cx="116.7" cy="181.4" r="3" fill="#16a34a"/><circle cx="140.0" cy="262.4" r="3" fill="#16a34a"/><circle cx="163.3" cy="270.6" r="3" fill="#16a34a"/><circle cx="186.7" cy="220.5" r="3" fill="#16a34a"/><circle cx="210.0" cy="206.9" r="3" fill="#16a34a"/><circle cx="233.3" cy="188.3" r="3" fill="#16a34a"/><circle cx="256.7" cy="185.9" r="3" fill="#16a34a"/><circle cx="280.0" cy="197.5" r="3" fill="#16a34a"/><circle cx="303.3" cy="185.1" r="3" fill="#16a34a"/><circle cx="326.7" cy="161.1" r="3" fill="#16a34a"/><circle cx="350.0" cy="163.0" r="3" fill="#16a34a"/><circle cx="373.3" cy="200.1" r="3" fill="#16a34a"/><circle cx="396.7" cy="175.0" r="3" fill="#16a34a"/><circle cx="420.0" cy="175.0" r="3" fill="#16a34a"/><circle cx="443.3" cy="175.0" r="3" fill="#16a34a"/><circle cx="466.7" cy="175.0" r="3" fill="#16a34a"/><circle cx="490.0" cy="168.7" r="3" fill="#16a34a"/><circle cx="513.3" cy="148.0" r="3" fill="#16a34a"/><circle cx="536.7" cy="164.4" r="3" fill="#16a34a"/><circle cx="560.0" cy="126.5" r="3" fill="#16a34a"/><circle cx="583.3" cy="117.1" r="3" fill="#16a34a"/><circle cx="606.7" cy="190.6" r="3" fill="#16a34a"/><circle cx="630.0" cy="180.5" r="3" fill="#16a34a"/><circle cx="653.3" cy="181.5" r="3" fill="#16a34a"/><circle cx="676.7" cy="177.5" r="3" fill="#16a34a"/><circle cx="700.0" cy="174.8" r="3" fill="#16a34a"/><circle cx="723.3" cy="141.9" r="3" fill="#16a34a"/><circle cx="746.7" cy="179.7" r="3" fill="#16a34a"/><circle cx="770.0" cy="155.8" r="3" fill="#16a34a"/>

  <!-- Trade markers -->
  <circle cx="163.3" cy="270.6" r="4" fill="#dc2626" opacity="0.8"/>
<circle cx="186.7" cy="220.5" r="4" fill="#dc2626" opacity="0.8"/>
<circle cx="186.7" cy="220.5" r="4" fill="#dc2626" opacity="0.8"/>
<circle cx="186.7" cy="220.5" r="4" fill="#dc2626" opacity="0.8"/>
<circle cx="233.3" cy="188.3" r="4" fill="#dc2626" opacity="0.8"/>
<circle cx="233.3" cy="188.3" r="4" fill="#16a34a" opacity="0.8"/>
<circle cx="233.3" cy="188.3" r="4" fill="#dc2626" opacity="0.8"/>
<circle cx="233.3" cy="188.3" r="4" fill="#dc2626" opacity="0.8"/>
<circle cx="233.3" cy="188.3" r="4" fill="#16a34a" opacity="0.8"/>
<circle cx="256.7" cy="185.9" r="4" fill="#16a34a" opacity="0.8"/>
<circle cx="256.7" cy="185.9" r="4" fill="#dc2626" opacity="0.8"/>
<circle cx="256.7" cy="185.9" r="4" fill="#dc2626" opacity="0.8"/>
<circle cx="256.7" cy="185.9" r="4" fill="#dc2626" opacity="0.8"/>
<circle cx="280.0" cy="197.5" r="4" fill="#dc2626" opacity="0.8"/>
<circle cx="280.0" cy="197.5" r="4" fill="#16a34a" opacity="0.8"/>
<circle cx="280.0" cy="197.5" r="4" fill="#dc2626" opacity="0.8"/>
<circle cx="280.0" cy="197.5" r="4" fill="#dc2626" opacity="0.8"/>
<circle cx="280.0" cy="197.5" r="4" fill="#dc2626" opacity="0.8"/>
<circle cx="303.3" cy="185.1" r="4" fill="#16a34a" opacity="0.8"/>
<circle cx="303.3" cy="185.1" r="4" fill="#dc2626" opacity="0.8"/>
<circle cx="303.3" cy="185.1" r="4" fill="#16a34a" opacity="0.8"/>
<circle cx="303.3" cy="185.1" r="4" fill="#dc2626" opacity="0.8"/>
<circle cx="303.3" cy="185.1" r="4" fill="#dc2626" opacity="0.8"/>
<circle cx="326.7" cy="161.1" r="4" fill="#16a34a" opacity="0.8"/>
<circle cx="326.7" cy="161.1" r="4" fill="#16a34a" opacity="0.8"/>
<circle cx="326.7" cy="161.1" r="4" fill="#16a34a" opacity="0.8"/>
<circle cx="513.3" cy="148.0" r="4" fill="#dc2626" opacity="0.8"/>
<circle cx="513.3" cy="148.0" r="4" fill="#dc2626" opacity="0.8"/>
<circle cx="513.3" cy="148.0" r="4" fill="#16a34a" opacity="0.8"/>
<circle cx="513.3" cy="148.0" r="4" fill="#16a34a" opacity="0.8"/>
<circle cx="513.3" cy="148.0" r="4" fill="#16a34a" opacity="0.8"/>
<circle cx="536.7" cy="164.4" r="4" fill="#16a34a" opacity="0.8"/>
<circle cx="536.7" cy="164.4" r="4" fill="#16a34a" opacity="0.8"/>
<circle cx="536.7" cy="164.4" r="4" fill="#dc2626" opacity="0.8"/>
<circle cx="536.7" cy="164.4" r="4" fill="#16a34a" opacity="0.8"/>
<circle cx="536.7" cy="164.4" r="4" fill="#dc2626" opacity="0.8"/>
<circle cx="536.7" cy="164.4" r="4" fill="#dc2626" opacity="0.8"/>
<circle cx="536.7" cy="164.4" r="4" fill="#dc2626" opacity="0.8"/>
<circle cx="560.0" cy="126.5" r="4" fill="#dc2626" opacity="0.8"/>
<circle cx="560.0" cy="126.5" r="4" fill="#16a34a" opacity="0.8"/>
<circle cx="560.0" cy="126.5" r="4" fill="#16a34a" opacity="0.8"/>
<circle cx="560.0" cy="126.5" r="4" fill="#dc2626" opacity="0.8"/>
<circle cx="560.0" cy="126.5" r="4" fill="#16a34a" opacity="0.8"/>
<circle cx="560.0" cy="126.5" r="4" fill="#16a34a" opacity="0.8"/>
<circle cx="583.3" cy="117.1" r="4" fill="#dc2626" opacity="0.8"/>
<circle cx="583.3" cy="117.1" r="4" fill="#16a34a" opacity="0.8"/>
<circle cx="583.3" cy="117.1" r="4" fill="#16a34a" opacity="0.8"/>
<circle cx="583.3" cy="117.1" r="4" fill="#16a34a" opacity="0.8"/>
<circle cx="583.3" cy="117.1" r="4" fill="#dc2626" opacity="0.8"/>
<circle cx="583.3" cy="117.1" r="4" fill="#dc2626" opacity="0.8"/>
<circle cx="583.3" cy="117.1" r="4" fill="#16a34a" opacity="0.8"/>
<circle cx="606.7" cy="190.6" r="4" fill="#16a34a" opacity="0.8"/>
<circle cx="606.7" cy="190.6" r="4" fill="#dc2626" opacity="0.8"/>
<circle cx="606.7" cy="190.6" r="4" fill="#dc2626" opacity="0.8"/>
<circle cx="606.7" cy="190.6" r="4" fill="#16a34a" opacity="0.8"/>
<circle cx="606.7" cy="190.6" r="4" fill="#dc2626" opacity="0.8"/>
<circle cx="606.7" cy="190.6" r="4" fill="#dc2626" opacity="0.8"/>
<circle cx="606.7" cy="190.6" r="4" fill="#dc2626" opacity="0.8"/>
<circle cx="606.7" cy="190.6" r="4" fill="#dc2626" opacity="0.8"/>
<circle cx="606.7" cy="190.6" r="4" fill="#dc2626" opacity="0.8"/>
<circle cx="630.0" cy="180.5" r="4" fill="#dc2626" opacity="0.8"/>
<circle cx="630.0" cy="180.5" r="4" fill="#16a34a" opacity="0.8"/>
<circle cx="630.0" cy="180.5" r="4" fill="#dc2626" opacity="0.8"/>
<circle cx="630.0" cy="180.5" r="4" fill="#16a34a" opacity="0.8"/>
<circle cx="630.0" cy="180.5" r="4" fill="#16a34a" opacity="0.8"/>
<circle cx="630.0" cy="180.5" r="4" fill="#16a34a" opacity="0.8"/>
<circle cx="630.0" cy="180.5" r="4" fill="#16a34a" opacity="0.8"/>
<circle cx="630.0" cy="180.5" r="4" fill="#16a34a" opacity="0.8"/>
<circle cx="630.0" cy="180.5" r="4" fill="#dc2626" opacity="0.8"/>
<circle cx="653.3" cy="181.5" r="4" fill="#16a34a" opacity="0.8"/>
<circle cx="653.3" cy="181.5" r="4" fill="#dc2626" opacity="0.8"/>
<circle cx="653.3" cy="181.5" r="4" fill="#dc2626" opacity="0.8"/>
<circle cx="653.3" cy="181.5" r="4" fill="#16a34a" opacity="0.8"/>
<circle cx="653.3" cy="181.5" r="4" fill="#16a34a" opacity="0.8"/>
<circle cx="653.3" cy="181.5" r="4" fill="#16a34a" opacity="0.8"/>
<circle cx="653.3" cy="181.5" r="4" fill="#dc2626" opacity="0.8"/>
<circle cx="676.7" cy="177.5" r="4" fill="#dc2626" opacity="0.8"/>
<circle cx="676.7" cy="177.5" r="4" fill="#dc2626" opacity="0.8"/>
<circle cx="676.7" cy="177.5" r="4" fill="#dc2626" opacity="0.8"/>
<circle cx="676.7" cy="177.5" r="4" fill="#16a34a" opacity="0.8"/>
<circle cx="676.7" cy="177.5" r="4" fill="#16a34a" opacity="0.8"/>
<circle cx="676.7" cy="177.5" r="4" fill="#dc2626" opacity="0.8"/>
<circle cx="700.0" cy="174.8" r="4" fill="#dc2626" opacity="0.8"/>
<circle cx="700.0" cy="174.8" r="4" fill="#dc2626" opacity="0.8"/>
<circle cx="700.0" cy="174.8" r="4" fill="#dc2626" opacity="0.8"/>
<circle cx="700.0" cy="174.8" r="4" fill="#dc2626" opacity="0.8"/>
<circle cx="700.0" cy="174.8" r="4" fill="#16a34a" opacity="0.8"/>
<circle cx="700.0" cy="174.8" r="4" fill="#dc2626" opacity="0.8"/>
<circle cx="700.0" cy="174.8" r="4" fill="#dc2626" opacity="0.8"/>
<circle cx="700.0" cy="174.8" r="4" fill="#dc2626" opacity="0.8"/>
<circle cx="700.0" cy="174.8" r="4" fill="#dc2626" opacity="0.8"/>
<circle cx="723.3" cy="141.9" r="4" fill="#dc2626" opacity="0.8"/>
<circle cx="723.3" cy="141.9" r="4" fill="#16a34a" opacity="0.8"/>
<circle cx="723.3" cy="141.9" r="4" fill="#dc2626" opacity="0.8"/>
<circle cx="723.3" cy="141.9" r="4" fill="#16a34a" opacity="0.8"/>
<circle cx="723.3" cy="141.9" r="4" fill="#dc2626" opacity="0.8"/>
<circle cx="723.3" cy="141.9" r="4" fill="#dc2626" opacity="0.8"/>
<circle cx="746.7" cy="179.7" r="4" fill="#dc2626" opacity="0.8"/>
<circle cx="746.7" cy="179.7" r="4" fill="#16a34a" opacity="0.8"/>
<circle cx="746.7" cy="179.7" r="4" fill="#dc2626" opacity="0.8"/>
<circle cx="746.7" cy="179.7" r="4" fill="#dc2626" opacity="0.8"/>
<circle cx="746.7" cy="179.7" r="4" fill="#dc2626" opacity="0.8"/>
<circle cx="746.7" cy="179.7" r="4" fill="#16a34a" opacity="0.8"/>
<circle cx="746.7" cy="179.7" r="4" fill="#dc2626" opacity="0.8"/>
<circle cx="746.7" cy="179.7" r="4" fill="#dc2626" opacity="0.8"/>
<circle cx="770.0" cy="155.8" r="4" fill="#dc2626" opacity="0.8"/>
<circle cx="770.0" cy="155.8" r="4" fill="#dc2626" opacity="0.8"/>
<circle cx="770.0" cy="155.8" r="4" fill="#16a34a" opacity="0.8"/>
<circle cx="770.0" cy="155.8" r="4" fill="#16a34a" opacity="0.8"/>


  <!-- Y-axis labels -->
  <text x="62" y="320.0" fill="#c9d1d9" font-size="10" text-anchor="end" dominant-baseline="middle">$8,663</text><text x="62" y="268.0" fill="#c9d1d9" font-size="10" text-anchor="end" dominant-baseline="middle">$9,143</text><text x="62" y="216.0" fill="#c9d1d9" font-size="10" text-anchor="end" dominant-baseline="middle">$9,622</text><text x="62" y="164.0" fill="#c9d1d9" font-size="10" text-anchor="end" dominant-baseline="middle">$10,102</text><text x="62" y="112.0" fill="#c9d1d9" font-size="10" text-anchor="end" dominant-baseline="middle">$10,581</text><text x="62" y="60.0" fill="#c9d1d9" font-size="10" text-anchor="end" dominant-baseline="middle">$11,061</text>

  <!-- X-axis labels -->
  <text x="70.0" y="340" fill="#c9d1d9" font-size="10" text-anchor="middle">2026-05-13</text><text x="420.0" y="340" fill="#c9d1d9" font-size="10" text-anchor="middle">2026-06-03</text><text x="770.0" y="340" fill="#c9d1d9" font-size="10" text-anchor="middle">2026-06-24</text>

  <!-- Legend -->
  <circle cx="650" cy="380" r="4" fill="#16a34a"/>
  <text x="658" y="384" fill="#c9d1d9" font-size="9">Win</text>
  <circle cx="690" cy="380" r="4" fill="#dc2626"/>
  <text x="698" y="384" fill="#c9d1d9" font-size="9">Loss</text>
  <line x1="730" y1="380" x2="745" y2="380" stroke="#c9d1d9" stroke-width="0.5" stroke-dasharray="4,4" opacity="0.5"/>
  <text x="750" y="384" fill="#c9d1d9" font-size="9">$10K baseline</text>
</svg>