<svg xmlns="http://www.w3.org/2000/svg" viewBox="0 0 800 400" width="800" height="400">
  <rect width="800" height="400" fill="#0d1117" rx="8"/>

  <!-- Title -->
  <text x="70" y="30" fill="#c9d1d9" font-family="system-ui, -apple-system, sans-serif" font-size="16" font-weight="bold">Claude's Paper Trading — Equity Curve</text>
  <text x="70" y="48" fill="#58a6ff" font-family="system-ui, sans-serif" font-size="12">
    $9,020.42 (-9.80%) | Win Rate: 59/141 (42%) | Realized: $+214.43
  </text>

  <!-- Grid lines -->
  <line x1="70" y1="320.0" x2="770" y2="320.0" stroke="#21262d" stroke-width="0.5"/><line x1="70" y1="268.0" x2="770" y2="268.0" stroke="#21262d" stroke-width="0.5"/><line x1="70" y1="216.0" x2="770" y2="216.0" stroke="#21262d" stroke-width="0.5"/><line x1="70" y1="164.0" x2="770" y2="164.0" stroke="#21262d" stroke-width="0.5"/><line x1="70" y1="112.0" x2="770" y2="112.0" stroke="#21262d" stroke-width="0.5"/><line x1="70" y1="60.0" x2="770" y2="60.0" stroke="#21262d" stroke-width="0.5"/>

  <!-- Baseline (starting capital) -->
  <line x1="70" y1="189.0" x2="770" y2="189.0" stroke="#c9d1d9" stroke-width="0.5" stroke-dasharray="4,4" opacity="0.5"/>
  <text x="775" y="189.0" fill="#c9d1d9" font-size="9" opacity="0.6" dominant-baseline="middle">$10K</text>

  <!-- Fill under curve -->
  <path d="M 70.0 199.5 L 86.7 181.9 L 103.3 193.8 L 120.0 255.0 L 136.7 261.2 L 153.3 223.4 L 170.0 213.1 L 186.7 199.0 L 203.3 197.2 L 220.0 206.0 L 236.7 196.6 L 253.3 178.5 L 270.0 179.9 L 286.7 208.0 L 303.3 189.0 L 320.0 189.0 L 336.7 189.0 L 353.3 189.0 L 370.0 184.2 L 386.7 168.6 L 403.3 180.9 L 420.0 152.4 L 436.7 145.2 L 453.3 200.7 L 470.0 193.1 L 486.7 193.9 L 503.3 190.8 L 520.0 188.8 L 536.7 163.9 L 553.3 192.5 L 570.0 157.9 L 586.7 150.1 L 603.3 141.2 L 620.0 142.9 L 636.7 119.4 L 653.3 105.2 L 670.0 141.0 L 686.7 136.0 L 703.3 113.1 L 720.0 179.9 L 736.7 234.5 L 753.3 283.8 L 770.0 269.3 L 770.0 320.0 L 70.0 320.0 Z" fill="#dc2626" opacity="0.1"/>

  <!-- Equity line -->
  <path d="M 70.0 199.5 L 86.7 181.9 L 103.3 193.8 L 120.0 255.0 L 136.7 261.2 L 153.3 223.4 L 170.0 213.1 L 186.7 199.0 L 203.3 197.2 L 220.0 206.0 L 236.7 196.6 L 253.3 178.5 L 270.0 179.9 L 286.7 208.0 L 303.3 189.0 L 320.0 189.0 L 336.7 189.0 L 353.3 189.0 L 370.0 184.2 L 386.7 168.6 L 403.3 180.9 L 420.0 152.4 L 436.7 145.2 L 453.3 200.7 L 470.0 193.1 L 486.7 193.9 L 503.3 190.8 L 520.0 188.8 L 536.7 163.9 L 553.3 192.5 L 570.0 157.9 L 586.7 150.1 L 603.3 141.2 L 620.0 142.9 L 636.7 119.4 L 653.3 105.2 L 670.0 141.0 L 686.7 136.0 L 703.3 113.1 L 720.0 179.9 L 736.7 234.5 L 753.3 283.8 L 770.0 269.3" fill="none" stroke="#dc2626" stroke-width="2.5" stroke-linecap="round" stroke-linejoin="round"/>

  <!-- Data points -->
  <circle cx="70.0" cy="199.5" r="3" fill="#dc2626"/><circle cx="86.7" cy="181.9" r="3" fill="#dc2626"/><circle cx="103.3" cy="193.8" r="3" fill="#dc2626"/><circle cx="120.0" cy="255.0" r="3" fill="#dc2626"/><circle cx="136.7" cy="261.2" r="3" fill="#dc2626"/><circle cx="153.3" cy="223.4" r="3" fill="#dc2626"/><circle cx="170.0" cy="213.1" r="3" fill="#dc2626"/><circle cx="186.7" cy="199.0" r="3" fill="#dc2626"/><circle cx="203.3" cy="197.2" r="3" fill="#dc2626"/><circle cx="220.0" cy="206.0" r="3" fill="#dc2626"/><circle cx="236.7" cy="196.6" r="3" fill="#dc2626"/><circle cx="253.3" cy="178.5" r="3" fill="#dc2626"/><circle cx="270.0" cy="179.9" r="3" fill="#dc2626"/><circle cx="286.7" cy="208.0" r="3" fill="#dc2626"/><circle cx="303.3" cy="189.0" r="3" fill="#dc2626"/><circle cx="320.0" cy="189.0" r="3" fill="#dc2626"/><circle cx="336.7" cy="189.0" r="3" fill="#dc2626"/><circle cx="353.3" cy="189.0" r="3" fill="#dc2626"/><circle cx="370.0" cy="184.2" r="3" fill="#dc2626"/><circle cx="386.7" cy="168.6" r="3" fill="#dc2626"/><circle cx="403.3" cy="180.9" r="3" fill="#dc2626"/><circle cx="420.0" cy="152.4" r="3" fill="#dc2626"/><circle cx="436.7" cy="145.2" r="3" fill="#dc2626"/><circle cx="453.3" cy="200.7" r="3" fill="#dc2626"/><circle cx="470.0" cy="193.1" r="3" fill="#dc2626"/><circle cx="486.7" cy="193.9" r="3" fill="#dc2626"/><circle cx="503.3" cy="190.8" r="3" fill="#dc2626"/><circle cx="520.0" cy="188.8" r="3" fill="#dc2626"/><circle cx="536.7" cy="163.9" r="3" fill="#dc2626"/><circle cx="553.3" cy="192.5" r="3" fill="#dc2626"/><circle cx="570.0" cy="157.9" r="3" fill="#dc2626"/><circle cx="586.7" cy="150.1" r="3" fill="#dc2626"/><circle cx="603.3" cy="141.2" r="3" fill="#dc2626"/><circle cx="620.0" cy="142.9" r="3" fill="#dc2626"/><circle cx="636.7" cy="119.4" r="3" fill="#dc2626"/><circle cx="653.3" cy="105.2" r="3" fill="#dc2626"/><circle cx="670.0" cy="141.0" r="3" fill="#dc2626"/><circle cx="686.7" cy="136.0" r="3" fill="#dc2626"/><circle cx="703.3" cy="113.1" r="3" fill="#dc2626"/><circle cx="720.0" cy="179.9" r="3" fill="#dc2626"/><circle cx="736.7" cy="234.5" r="3" fill="#dc2626"/><circle cx="753.3" cy="283.8" r="3" fill="#dc2626"/><circle cx="770.0" cy="269.3" r="3" fill="#dc2626"/>

  <!-- Trade markers -->
  <circle cx="136.7" cy="261.2" r="4" fill="#dc2626" opacity="0.8"/>
<circle cx="153.3" cy="223.4" r="4" fill="#dc2626" opacity="0.8"/>
<circle cx="153.3" cy="223.4" r="4" fill="#dc2626" opacity="0.8"/>
<circle cx="153.3" cy="223.4" r="4" fill="#dc2626" opacity="0.8"/>
<circle cx="186.7" cy="199.0" r="4" fill="#dc2626" opacity="0.8"/>
<circle cx="186.7" cy="199.0" r="4" fill="#16a34a" opacity="0.8"/>
<circle cx="186.7" cy="199.0" r="4" fill="#dc2626" opacity="0.8"/>
<circle cx="186.7" cy="199.0" r="4" fill="#dc2626" opacity="0.8"/>
<circle cx="186.7" cy="199.0" r="4" fill="#16a34a" opacity="0.8"/>
<circle cx="203.3" cy="197.2" r="4" fill="#16a34a" opacity="0.8"/>
<circle cx="203.3" cy="197.2" r="4" fill="#dc2626" opacity="0.8"/>
<circle cx="203.3" cy="197.2" r="4" fill="#dc2626" opacity="0.8"/>
<circle cx="203.3" cy="197.2" r="4" fill="#dc2626" opacity="0.8"/>
<circle cx="220.0" cy="206.0" r="4" fill="#dc2626" opacity="0.8"/>
<circle cx="220.0" cy="206.0" r="4" fill="#16a34a" opacity="0.8"/>
<circle cx="220.0" cy="206.0" r="4" fill="#dc2626" opacity="0.8"/>
<circle cx="220.0" cy="206.0" r="4" fill="#dc2626" opacity="0.8"/>
<circle cx="220.0" cy="206.0" r="4" fill="#dc2626" opacity="0.8"/>
<circle cx="236.7" cy="196.6" r="4" fill="#16a34a" opacity="0.8"/>
<circle cx="236.7" cy="196.6" r="4" fill="#dc2626" opacity="0.8"/>
<circle cx="236.7" cy="196.6" r="4" fill="#16a34a" opacity="0.8"/>
<circle cx="236.7" cy="196.6" r="4" fill="#dc2626" opacity="0.8"/>
<circle cx="236.7" cy="196.6" r="4" fill="#dc2626" opacity="0.8"/>
<circle cx="253.3" cy="178.5" r="4" fill="#16a34a" opacity="0.8"/>
<circle cx="253.3" cy="178.5" r="4" fill="#16a34a" opacity="0.8"/>
<circle cx="253.3" cy="178.5" r="4" fill="#16a34a" opacity="0.8"/>
<circle cx="386.7" cy="168.6" r="4" fill="#dc2626" opacity="0.8"/>
<circle cx="386.7" cy="168.6" r="4" fill="#dc2626" opacity="0.8"/>
<circle cx="386.7" cy="168.6" r="4" fill="#16a34a" opacity="0.8"/>
<circle cx="386.7" cy="168.6" r="4" fill="#16a34a" opacity="0.8"/>
<circle cx="386.7" cy="168.6" r="4" fill="#16a34a" opacity="0.8"/>
<circle cx="403.3" cy="180.9" r="4" fill="#16a34a" opacity="0.8"/>
<circle cx="403.3" cy="180.9" r="4" fill="#16a34a" opacity="0.8"/>
<circle cx="403.3" cy="180.9" r="4" fill="#dc2626" opacity="0.8"/>
<circle cx="403.3" cy="180.9" r="4" fill="#16a34a" opacity="0.8"/>
<circle cx="403.3" cy="180.9" r="4" fill="#dc2626" opacity="0.8"/>
<circle cx="403.3" cy="180.9" r="4" fill="#dc2626" opacity="0.8"/>
<circle cx="403.3" cy="180.9" r="4" fill="#dc2626" opacity="0.8"/>
<circle cx="420.0" cy="152.4" r="4" fill="#dc2626" opacity="0.8"/>
<circle cx="420.0" cy="152.4" r="4" fill="#16a34a" opacity="0.8"/>
<circle cx="420.0" cy="152.4" r="4" fill="#16a34a" opacity="0.8"/>
<circle cx="420.0" cy="152.4" r="4" fill="#dc2626" opacity="0.8"/>
<circle cx="420.0" cy="152.4" r="4" fill="#16a34a" opacity="0.8"/>
<circle cx="420.0" cy="152.4" r="4" fill="#16a34a" opacity="0.8"/>
<circle cx="436.7" cy="145.2" r="4" fill="#dc2626" opacity="0.8"/>
<circle cx="436.7" cy="145.2" r="4" fill="#16a34a" opacity="0.8"/>
<circle cx="436.7" cy="145.2" r="4" fill="#16a34a" opacity="0.8"/>
<circle cx="436.7" cy="145.2" r="4" fill="#16a34a" opacity="0.8"/>
<circle cx="436.7" cy="145.2" r="4" fill="#dc2626" opacity="0.8"/>
<circle cx="436.7" cy="145.2" r="4" fill="#dc2626" opacity="0.8"/>
<circle cx="436.7" cy="145.2" r="4" fill="#16a34a" opacity="0.8"/>
<circle cx="453.3" cy="200.7" r="4" fill="#16a34a" opacity="0.8"/>
<circle cx="453.3" cy="200.7" r="4" fill="#dc2626" opacity="0.8"/>
<circle cx="453.3" cy="200.7" r="4" fill="#dc2626" opacity="0.8"/>
<circle cx="453.3" cy="200.7" r="4" fill="#16a34a" opacity="0.8"/>
<circle cx="453.3" cy="200.7" r="4" fill="#dc2626" opacity="0.8"/>
<circle cx="453.3" cy="200.7" r="4" fill="#dc2626" opacity="0.8"/>
<circle cx="453.3" cy="200.7" r="4" fill="#dc2626" opacity="0.8"/>
<circle cx="453.3" cy="200.7" r="4" fill="#dc2626" opacity="0.8"/>
<circle cx="453.3" cy="200.7" r="4" fill="#dc2626" opacity="0.8"/>
<circle cx="470.0" cy="193.1" r="4" fill="#dc2626" opacity="0.8"/>
<circle cx="470.0" cy="193.1" r="4" fill="#16a34a" opacity="0.8"/>
<circle cx="470.0" cy="193.1" r="4" fill="#dc2626" opacity="0.8"/>
<circle cx="470.0" cy="193.1" r="4" fill="#16a34a" opacity="0.8"/>
<circle cx="470.0" cy="193.1" r="4" fill="#16a34a" opacity="0.8"/>
<circle cx="470.0" cy="193.1" r="4" fill="#16a34a" opacity="0.8"/>
<circle cx="470.0" cy="193.1" r="4" fill="#16a34a" opacity="0.8"/>
<circle cx="470.0" cy="193.1" r="4" fill="#16a34a" opacity="0.8"/>
<circle cx="470.0" cy="193.1" r="4" fill="#dc2626" opacity="0.8"/>
<circle cx="486.7" cy="193.9" r="4" fill="#16a34a" opacity="0.8"/>
<circle cx="486.7" cy="193.9" r="4" fill="#dc2626" opacity="0.8"/>
<circle cx="486.7" cy="193.9" r="4" fill="#dc2626" opacity="0.8"/>
<circle cx="486.7" cy="193.9" r="4" fill="#16a34a" opacity="0.8"/>
<circle cx="486.7" cy="193.9" r="4" fill="#16a34a" opacity="0.8"/>
<circle cx="486.7" cy="193.9" r="4" fill="#16a34a" opacity="0.8"/>
<circle cx="486.7" cy="193.9" r="4" fill="#dc2626" opacity="0.8"/>
<circle cx="503.3" cy="190.8" r="4" fill="#dc2626" opacity="0.8"/>
<circle cx="503.3" cy="190.8" r="4" fill="#dc2626" opacity="0.8"/>
<circle cx="503.3" cy="190.8" r="4" fill="#dc2626" opacity="0.8"/>
<circle cx="503.3" cy="190.8" r="4" fill="#16a34a" opacity="0.8"/>
<circle cx="503.3" cy="190.8" r="4" fill="#16a34a" opacity="0.8"/>
<circle cx="503.3" cy="190.8" r="4" fill="#dc2626" opacity="0.8"/>
<circle cx="520.0" cy="188.8" r="4" fill="#dc2626" opacity="0.8"/>
<circle cx="520.0" cy="188.8" r="4" fill="#dc2626" opacity="0.8"/>
<circle cx="520.0" cy="188.8" r="4" fill="#dc2626" opacity="0.8"/>
<circle cx="520.0" cy="188.8" r="4" fill="#dc2626" opacity="0.8"/>
<circle cx="520.0" cy="188.8" r="4" fill="#16a34a" opacity="0.8"/>
<circle cx="520.0" cy="188.8" r="4" fill="#dc2626" opacity="0.8"/>
<circle cx="520.0" cy="188.8" r="4" fill="#dc2626" opacity="0.8"/>
<circle cx="520.0" cy="188.8" r="4" fill="#dc2626" opacity="0.8"/>
<circle cx="520.0" cy="188.8" r="4" fill="#dc2626" opacity="0.8"/>
<circle cx="536.7" cy="163.9" r="4" fill="#dc2626" opacity="0.8"/>
<circle cx="536.7" cy="163.9" r="4" fill="#16a34a" opacity="0.8"/>
<circle cx="536.7" cy="163.9" r="4" fill="#dc2626" opacity="0.8"/>
<circle cx="536.7" cy="163.9" r="4" fill="#16a34a" opacity="0.8"/>
<circle cx="536.7" cy="163.9" r="4" fill="#dc2626" opacity="0.8"/>
<circle cx="536.7" cy="163.9" r="4" fill="#dc2626" opacity="0.8"/>
<circle cx="553.3" cy="192.5" r="4" fill="#dc2626" opacity="0.8"/>
<circle cx="553.3" cy="192.5" r="4" fill="#16a34a" opacity="0.8"/>
<circle cx="553.3" cy="192.5" r="4" fill="#dc2626" opacity="0.8"/>
<circle cx="553.3" cy="192.5" r="4" fill="#dc2626" opacity="0.8"/>
<circle cx="553.3" cy="192.5" r="4" fill="#dc2626" opacity="0.8"/>
<circle cx="553.3" cy="192.5" r="4" fill="#16a34a" opacity="0.8"/>
<circle cx="553.3" cy="192.5" r="4" fill="#dc2626" opacity="0.8"/>
<circle cx="553.3" cy="192.5" r="4" fill="#dc2626" opacity="0.8"/>
<circle cx="570.0" cy="157.9" r="4" fill="#dc2626" opacity="0.8"/>
<circle cx="570.0" cy="157.9" r="4" fill="#dc2626" opacity="0.8"/>
<circle cx="570.0" cy="157.9" r="4" fill="#16a34a" opacity="0.8"/>
<circle cx="570.0" cy="157.9" r="4" fill="#16a34a" opacity="0.8"/>
<circle cx="570.0" cy="157.9" r="4" fill="#dc2626" opacity="0.8"/>
<circle cx="586.7" cy="150.1" r="4" fill="#16a34a" opacity="0.8"/>
<circle cx="586.7" cy="150.1" r="4" fill="#dc2626" opacity="0.8"/>
<circle cx="586.7" cy="150.1" r="4" fill="#dc2626" opacity="0.8"/>
<circle cx="586.7" cy="150.1" r="4" fill="#dc2626" opacity="0.8"/>
<circle cx="586.7" cy="150.1" r="4" fill="#dc2626" opacity="0.8"/>
<circle cx="586.7" cy="150.1" r="4" fill="#16a34a" opacity="0.8"/>
<circle cx="586.7" cy="150.1" r="4" fill="#dc2626" opacity="0.8"/>
<circle cx="586.7" cy="150.1" r="4" fill="#dc2626" opacity="0.8"/>
<circle cx="603.3" cy="141.2" r="4" fill="#dc2626" opacity="0.8"/>
<circle cx="603.3" cy="141.2" r="4" fill="#dc2626" opacity="0.8"/>
<circle cx="603.3" cy="141.2" r="4" fill="#dc2626" opacity="0.8"/>
<circle cx="603.3" cy="141.2" r="4" fill="#dc2626" opacity="0.8"/>
<circle cx="603.3" cy="141.2" r="4" fill="#dc2626" opacity="0.8"/>
<circle cx="603.3" cy="141.2" r="4" fill="#dc2626" opacity="0.8"/>
<circle cx="603.3" cy="141.2" r="4" fill="#16a34a" opacity="0.8"/>
<circle cx="603.3" cy="141.2" r="4" fill="#16a34a" opacity="0.8"/>
<circle cx="603.3" cy="141.2" r="4" fill="#16a34a" opacity="0.8"/>
<circle cx="620.0" cy="142.9" r="4" fill="#16a34a" opacity="0.8"/>
<circle cx="620.0" cy="142.9" r="4" fill="#dc2626" opacity="0.8"/>
<circle cx="620.0" cy="142.9" r="4" fill="#16a34a" opacity="0.8"/>
<circle cx="620.0" cy="142.9" r="4" fill="#16a34a" opacity="0.8"/>
<circle cx="620.0" cy="142.9" r="4" fill="#16a34a" opacity="0.8"/>
<circle cx="620.0" cy="142.9" r="4" fill="#dc2626" opacity="0.8"/>
<circle cx="620.0" cy="142.9" r="4" fill="#16a34a" opacity="0.8"/>
<circle cx="620.0" cy="142.9" r="4" fill="#dc2626" opacity="0.8"/>
<circle cx="636.7" cy="119.4" r="4" fill="#dc2626" opacity="0.8"/>
<circle cx="636.7" cy="119.4" r="4" fill="#16a34a" opacity="0.8"/>
<circle cx="636.7" cy="119.4" r="4" fill="#16a34a" opacity="0.8"/>
<circle cx="636.7" cy="119.4" r="4" fill="#16a34a" opacity="0.8"/>
<circle cx="636.7" cy="119.4" r="4" fill="#16a34a" opacity="0.8"/>
<circle cx="636.7" cy="119.4" r="4" fill="#16a34a" opacity="0.8"/>


  <!-- Y-axis labels -->
  <text x="62" y="320.0" fill="#c9d1d9" font-size="10" text-anchor="end" dominant-baseline="middle">$8,402</text><text x="62" y="268.0" fill="#c9d1d9" font-size="10" text-anchor="end" dominant-baseline="middle">$9,036</text><text x="62" y="216.0" fill="#c9d1d9" font-size="10" text-anchor="end" dominant-baseline="middle">$9,670</text><text x="62" y="164.0" fill="#c9d1d9" font-size="10" text-anchor="end" dominant-baseline="middle">$10,305</text><text x="62" y="112.0" fill="#c9d1d9" font-size="10" text-anchor="end" dominant-baseline="middle">$10,939</text><text x="62" y="60.0" fill="#c9d1d9" font-size="10" text-anchor="end" dominant-baseline="middle">$11,574</text>

  <!-- X-axis labels -->
  <text x="70.0" y="340" fill="#c9d1d9" font-size="10" text-anchor="middle">2026-05-13</text><text x="420.0" y="340" fill="#c9d1d9" font-size="10" text-anchor="middle">2026-06-11</text><text x="770.0" y="340" fill="#c9d1d9" font-size="10" text-anchor="middle">2026-07-10</text>

  <!-- Legend -->
  <circle cx="650" cy="380" r="4" fill="#16a34a"/>
  <text x="658" y="384" fill="#c9d1d9" font-size="9">Win</text>
  <circle cx="690" cy="380" r="4" fill="#dc2626"/>
  <text x="698" y="384" fill="#c9d1d9" font-size="9">Loss</text>
  <line x1="730" y1="380" x2="745" y2="380" stroke="#c9d1d9" stroke-width="0.5" stroke-dasharray="4,4" opacity="0.5"/>
  <text x="750" y="384" fill="#c9d1d9" font-size="9">$10K baseline</text>
</svg>