<svg xmlns="http://www.w3.org/2000/svg" viewBox="0 0 800 400" width="800" height="400">
  <rect width="800" height="400" fill="#0d1117" rx="8"/>

  <!-- Title -->
  <text x="70" y="30" fill="#c9d1d9" font-family="system-ui, -apple-system, sans-serif" font-size="16" font-weight="bold">Claude's Paper Trading — Equity Curve</text>
  <text x="70" y="48" fill="#58a6ff" font-family="system-ui, sans-serif" font-size="12">
    $8,944.70 (-10.55%) | Win Rate: 59/141 (42%) | Realized: $+214.43
  </text>

  <!-- Grid lines -->
  <line x1="70" y1="320.0" x2="770" y2="320.0" stroke="#21262d" stroke-width="0.5"/><line x1="70" y1="268.0" x2="770" y2="268.0" stroke="#21262d" stroke-width="0.5"/><line x1="70" y1="216.0" x2="770" y2="216.0" stroke="#21262d" stroke-width="0.5"/><line x1="70" y1="164.0" x2="770" y2="164.0" stroke="#21262d" stroke-width="0.5"/><line x1="70" y1="112.0" x2="770" y2="112.0" stroke="#21262d" stroke-width="0.5"/><line x1="70" y1="60.0" x2="770" y2="60.0" stroke="#21262d" stroke-width="0.5"/>

  <!-- Baseline (starting capital) -->
  <line x1="70" y1="187.1" x2="770" y2="187.1" stroke="#c9d1d9" stroke-width="0.5" stroke-dasharray="4,4" opacity="0.5"/>
  <text x="775" y="187.1" fill="#c9d1d9" font-size="9" opacity="0.6" dominant-baseline="middle">$10K</text>

  <!-- Fill under curve -->
  <path d="M 70.0 197.4 L 85.6 180.1 L 101.1 191.9 L 116.7 252.2 L 132.2 258.2 L 147.8 221.0 L 163.3 210.8 L 178.9 197.0 L 194.4 195.2 L 210.0 203.8 L 225.6 194.6 L 241.1 176.7 L 256.7 178.1 L 272.2 205.8 L 287.8 187.1 L 303.3 187.1 L 318.9 187.1 L 334.4 187.1 L 350.0 182.4 L 365.6 167.0 L 381.1 179.2 L 396.7 151.0 L 412.2 144.0 L 427.8 198.7 L 443.3 191.2 L 458.9 191.9 L 474.4 188.9 L 490.0 186.9 L 505.6 162.4 L 521.1 190.6 L 536.7 156.4 L 552.2 148.7 L 567.8 140.0 L 583.3 141.6 L 598.9 118.5 L 614.4 104.5 L 630.0 139.8 L 645.6 134.8 L 661.1 112.4 L 676.7 178.1 L 692.2 231.9 L 707.8 280.5 L 723.3 284.5 L 738.9 284.4 L 754.4 277.9 L 770.0 272.3 L 770.0 320.0 L 70.0 320.0 Z" fill="#dc2626" opacity="0.1"/>

  <!-- Equity line -->
  <path d="M 70.0 197.4 L 85.6 180.1 L 101.1 191.9 L 116.7 252.2 L 132.2 258.2 L 147.8 221.0 L 163.3 210.8 L 178.9 197.0 L 194.4 195.2 L 210.0 203.8 L 225.6 194.6 L 241.1 176.7 L 256.7 178.1 L 272.2 205.8 L 287.8 187.1 L 303.3 187.1 L 318.9 187.1 L 334.4 187.1 L 350.0 182.4 L 365.6 167.0 L 381.1 179.2 L 396.7 151.0 L 412.2 144.0 L 427.8 198.7 L 443.3 191.2 L 458.9 191.9 L 474.4 188.9 L 490.0 186.9 L 505.6 162.4 L 521.1 190.6 L 536.7 156.4 L 552.2 148.7 L 567.8 140.0 L 583.3 141.6 L 598.9 118.5 L 614.4 104.5 L 630.0 139.8 L 645.6 134.8 L 661.1 112.4 L 676.7 178.1 L 692.2 231.9 L 707.8 280.5 L 723.3 284.5 L 738.9 284.4 L 754.4 277.9 L 770.0 272.3" fill="none" stroke="#dc2626" stroke-width="2.5" stroke-linecap="round" stroke-linejoin="round"/>

  <!-- Data points -->
  <circle cx="70.0" cy="197.4" r="3" fill="#dc2626"/><circle cx="85.6" cy="180.1" r="3" fill="#dc2626"/><circle cx="101.1" cy="191.9" r="3" fill="#dc2626"/><circle cx="116.7" cy="252.2" r="3" fill="#dc2626"/><circle cx="132.2" cy="258.2" r="3" fill="#dc2626"/><circle cx="147.8" cy="221.0" r="3" fill="#dc2626"/><circle cx="163.3" cy="210.8" r="3" fill="#dc2626"/><circle cx="178.9" cy="197.0" r="3" fill="#dc2626"/><circle cx="194.4" cy="195.2" r="3" fill="#dc2626"/><circle cx="210.0" cy="203.8" r="3" fill="#dc2626"/><circle cx="225.6" cy="194.6" r="3" fill="#dc2626"/><circle cx="241.1" cy="176.7" r="3" fill="#dc2626"/><circle cx="256.7" cy="178.1" r="3" fill="#dc2626"/><circle cx="272.2" cy="205.8" r="3" fill="#dc2626"/><circle cx="287.8" cy="187.1" r="3" fill="#dc2626"/><circle cx="303.3" cy="187.1" r="3" fill="#dc2626"/><circle cx="318.9" cy="187.1" r="3" fill="#dc2626"/><circle cx="334.4" cy="187.1" r="3" fill="#dc2626"/><circle cx="350.0" cy="182.4" r="3" fill="#dc2626"/><circle cx="365.6" cy="167.0" r="3" fill="#dc2626"/><circle cx="381.1" cy="179.2" r="3" fill="#dc2626"/><circle cx="396.7" cy="151.0" r="3" fill="#dc2626"/><circle cx="412.2" cy="144.0" r="3" fill="#dc2626"/><circle cx="427.8" cy="198.7" r="3" fill="#dc2626"/><circle cx="443.3" cy="191.2" r="3" fill="#dc2626"/><circle cx="458.9" cy="191.9" r="3" fill="#dc2626"/><circle cx="474.4" cy="188.9" r="3" fill="#dc2626"/><circle cx="490.0" cy="186.9" r="3" fill="#dc2626"/><circle cx="505.6" cy="162.4" r="3" fill="#dc2626"/><circle cx="521.1" cy="190.6" r="3" fill="#dc2626"/><circle cx="536.7" cy="156.4" r="3" fill="#dc2626"/><circle cx="552.2" cy="148.7" r="3" fill="#dc2626"/><circle cx="567.8" cy="140.0" r="3" fill="#dc2626"/><circle cx="583.3" cy="141.6" r="3" fill="#dc2626"/><circle cx="598.9" cy="118.5" r="3" fill="#dc2626"/><circle cx="614.4" cy="104.5" r="3" fill="#dc2626"/><circle cx="630.0" cy="139.8" r="3" fill="#dc2626"/><circle cx="645.6" cy="134.8" r="3" fill="#dc2626"/><circle cx="661.1" cy="112.4" r="3" fill="#dc2626"/><circle cx="676.7" cy="178.1" r="3" fill="#dc2626"/><circle cx="692.2" cy="231.9" r="3" fill="#dc2626"/><circle cx="707.8" cy="280.5" r="3" fill="#dc2626"/><circle cx="723.3" cy="284.5" r="3" fill="#dc2626"/><circle cx="738.9" cy="284.4" r="3" fill="#dc2626"/><circle cx="754.4" cy="277.9" r="3" fill="#dc2626"/><circle cx="770.0" cy="272.3" r="3" fill="#dc2626"/>

  <!-- Trade markers -->
  <circle cx="132.2" cy="258.2" r="4" fill="#dc2626" opacity="0.8"/>
<circle cx="147.8" cy="221.0" r="4" fill="#dc2626" opacity="0.8"/>
<circle cx="147.8" cy="221.0" r="4" fill="#dc2626" opacity="0.8"/>
<circle cx="147.8" cy="221.0" r="4" fill="#dc2626" opacity="0.8"/>
<circle cx="178.9" cy="197.0" r="4" fill="#dc2626" opacity="0.8"/>
<circle cx="178.9" cy="197.0" r="4" fill="#16a34a" opacity="0.8"/>
<circle cx="178.9" cy="197.0" r="4" fill="#dc2626" opacity="0.8"/>
<circle cx="178.9" cy="197.0" r="4" fill="#dc2626" opacity="0.8"/>
<circle cx="178.9" cy="197.0" r="4" fill="#16a34a" opacity="0.8"/>
<circle cx="194.4" cy="195.2" r="4" fill="#16a34a" opacity="0.8"/>
<circle cx="194.4" cy="195.2" r="4" fill="#dc2626" opacity="0.8"/>
<circle cx="194.4" cy="195.2" r="4" fill="#dc2626" opacity="0.8"/>
<circle cx="194.4" cy="195.2" r="4" fill="#dc2626" opacity="0.8"/>
<circle cx="210.0" cy="203.8" r="4" fill="#dc2626" opacity="0.8"/>
<circle cx="210.0" cy="203.8" r="4" fill="#16a34a" opacity="0.8"/>
<circle cx="210.0" cy="203.8" r="4" fill="#dc2626" opacity="0.8"/>
<circle cx="210.0" cy="203.8" r="4" fill="#dc2626" opacity="0.8"/>
<circle cx="210.0" cy="203.8" r="4" fill="#dc2626" opacity="0.8"/>
<circle cx="225.6" cy="194.6" r="4" fill="#16a34a" opacity="0.8"/>
<circle cx="225.6" cy="194.6" r="4" fill="#dc2626" opacity="0.8"/>
<circle cx="225.6" cy="194.6" r="4" fill="#16a34a" opacity="0.8"/>
<circle cx="225.6" cy="194.6" r="4" fill="#dc2626" opacity="0.8"/>
<circle cx="225.6" cy="194.6" r="4" fill="#dc2626" opacity="0.8"/>
<circle cx="241.1" cy="176.7" r="4" fill="#16a34a" opacity="0.8"/>
<circle cx="241.1" cy="176.7" r="4" fill="#16a34a" opacity="0.8"/>
<circle cx="241.1" cy="176.7" r="4" fill="#16a34a" opacity="0.8"/>
<circle cx="365.6" cy="167.0" r="4" fill="#dc2626" opacity="0.8"/>
<circle cx="365.6" cy="167.0" r="4" fill="#dc2626" opacity="0.8"/>
<circle cx="365.6" cy="167.0" r="4" fill="#16a34a" opacity="0.8"/>
<circle cx="365.6" cy="167.0" r="4" fill="#16a34a" opacity="0.8"/>
<circle cx="365.6" cy="167.0" r="4" fill="#16a34a" opacity="0.8"/>
<circle cx="381.1" cy="179.2" r="4" fill="#16a34a" opacity="0.8"/>
<circle cx="381.1" cy="179.2" r="4" fill="#16a34a" opacity="0.8"/>
<circle cx="381.1" cy="179.2" r="4" fill="#dc2626" opacity="0.8"/>
<circle cx="381.1" cy="179.2" r="4" fill="#16a34a" opacity="0.8"/>
<circle cx="381.1" cy="179.2" r="4" fill="#dc2626" opacity="0.8"/>
<circle cx="381.1" cy="179.2" r="4" fill="#dc2626" opacity="0.8"/>
<circle cx="381.1" cy="179.2" r="4" fill="#dc2626" opacity="0.8"/>
<circle cx="396.7" cy="151.0" r="4" fill="#dc2626" opacity="0.8"/>
<circle cx="396.7" cy="151.0" r="4" fill="#16a34a" opacity="0.8"/>
<circle cx="396.7" cy="151.0" r="4" fill="#16a34a" opacity="0.8"/>
<circle cx="396.7" cy="151.0" r="4" fill="#dc2626" opacity="0.8"/>
<circle cx="396.7" cy="151.0" r="4" fill="#16a34a" opacity="0.8"/>
<circle cx="396.7" cy="151.0" r="4" fill="#16a34a" opacity="0.8"/>
<circle cx="412.2" cy="144.0" r="4" fill="#dc2626" opacity="0.8"/>
<circle cx="412.2" cy="144.0" r="4" fill="#16a34a" opacity="0.8"/>
<circle cx="412.2" cy="144.0" r="4" fill="#16a34a" opacity="0.8"/>
<circle cx="412.2" cy="144.0" r="4" fill="#16a34a" opacity="0.8"/>
<circle cx="412.2" cy="144.0" r="4" fill="#dc2626" opacity="0.8"/>
<circle cx="412.2" cy="144.0" r="4" fill="#dc2626" opacity="0.8"/>
<circle cx="412.2" cy="144.0" r="4" fill="#16a34a" opacity="0.8"/>
<circle cx="427.8" cy="198.7" r="4" fill="#16a34a" opacity="0.8"/>
<circle cx="427.8" cy="198.7" r="4" fill="#dc2626" opacity="0.8"/>
<circle cx="427.8" cy="198.7" r="4" fill="#dc2626" opacity="0.8"/>
<circle cx="427.8" cy="198.7" r="4" fill="#16a34a" opacity="0.8"/>
<circle cx="427.8" cy="198.7" r="4" fill="#dc2626" opacity="0.8"/>
<circle cx="427.8" cy="198.7" r="4" fill="#dc2626" opacity="0.8"/>
<circle cx="427.8" cy="198.7" r="4" fill="#dc2626" opacity="0.8"/>
<circle cx="427.8" cy="198.7" r="4" fill="#dc2626" opacity="0.8"/>
<circle cx="427.8" cy="198.7" r="4" fill="#dc2626" opacity="0.8"/>
<circle cx="443.3" cy="191.2" r="4" fill="#dc2626" opacity="0.8"/>
<circle cx="443.3" cy="191.2" r="4" fill="#16a34a" opacity="0.8"/>
<circle cx="443.3" cy="191.2" r="4" fill="#dc2626" opacity="0.8"/>
<circle cx="443.3" cy="191.2" r="4" fill="#16a34a" opacity="0.8"/>
<circle cx="443.3" cy="191.2" r="4" fill="#16a34a" opacity="0.8"/>
<circle cx="443.3" cy="191.2" r="4" fill="#16a34a" opacity="0.8"/>
<circle cx="443.3" cy="191.2" r="4" fill="#16a34a" opacity="0.8"/>
<circle cx="443.3" cy="191.2" r="4" fill="#16a34a" opacity="0.8"/>
<circle cx="443.3" cy="191.2" r="4" fill="#dc2626" opacity="0.8"/>
<circle cx="458.9" cy="191.9" r="4" fill="#16a34a" opacity="0.8"/>
<circle cx="458.9" cy="191.9" r="4" fill="#dc2626" opacity="0.8"/>
<circle cx="458.9" cy="191.9" r="4" fill="#dc2626" opacity="0.8"/>
<circle cx="458.9" cy="191.9" r="4" fill="#16a34a" opacity="0.8"/>
<circle cx="458.9" cy="191.9" r="4" fill="#16a34a" opacity="0.8"/>
<circle cx="458.9" cy="191.9" r="4" fill="#16a34a" opacity="0.8"/>
<circle cx="458.9" cy="191.9" r="4" fill="#dc2626" opacity="0.8"/>
<circle cx="474.4" cy="188.9" r="4" fill="#dc2626" opacity="0.8"/>
<circle cx="474.4" cy="188.9" r="4" fill="#dc2626" opacity="0.8"/>
<circle cx="474.4" cy="188.9" r="4" fill="#dc2626" opacity="0.8"/>
<circle cx="474.4" cy="188.9" r="4" fill="#16a34a" opacity="0.8"/>
<circle cx="474.4" cy="188.9" r="4" fill="#16a34a" opacity="0.8"/>
<circle cx="474.4" cy="188.9" r="4" fill="#dc2626" opacity="0.8"/>
<circle cx="490.0" cy="186.9" r="4" fill="#dc2626" opacity="0.8"/>
<circle cx="490.0" cy="186.9" r="4" fill="#dc2626" opacity="0.8"/>
<circle cx="490.0" cy="186.9" r="4" fill="#dc2626" opacity="0.8"/>
<circle cx="490.0" cy="186.9" r="4" fill="#dc2626" opacity="0.8"/>
<circle cx="490.0" cy="186.9" r="4" fill="#16a34a" opacity="0.8"/>
<circle cx="490.0" cy="186.9" r="4" fill="#dc2626" opacity="0.8"/>
<circle cx="490.0" cy="186.9" r="4" fill="#dc2626" opacity="0.8"/>
<circle cx="490.0" cy="186.9" r="4" fill="#dc2626" opacity="0.8"/>
<circle cx="490.0" cy="186.9" r="4" fill="#dc2626" opacity="0.8"/>
<circle cx="505.6" cy="162.4" r="4" fill="#dc2626" opacity="0.8"/>
<circle cx="505.6" cy="162.4" r="4" fill="#16a34a" opacity="0.8"/>
<circle cx="505.6" cy="162.4" r="4" fill="#dc2626" opacity="0.8"/>
<circle cx="505.6" cy="162.4" r="4" fill="#16a34a" opacity="0.8"/>
<circle cx="505.6" cy="162.4" r="4" fill="#dc2626" opacity="0.8"/>
<circle cx="505.6" cy="162.4" r="4" fill="#dc2626" opacity="0.8"/>
<circle cx="521.1" cy="190.6" r="4" fill="#dc2626" opacity="0.8"/>
<circle cx="521.1" cy="190.6" r="4" fill="#16a34a" opacity="0.8"/>
<circle cx="521.1" cy="190.6" r="4" fill="#dc2626" opacity="0.8"/>
<circle cx="521.1" cy="190.6" r="4" fill="#dc2626" opacity="0.8"/>
<circle cx="521.1" cy="190.6" r="4" fill="#dc2626" opacity="0.8"/>
<circle cx="521.1" cy="190.6" r="4" fill="#16a34a" opacity="0.8"/>
<circle cx="521.1" cy="190.6" r="4" fill="#dc2626" opacity="0.8"/>
<circle cx="521.1" cy="190.6" r="4" fill="#dc2626" opacity="0.8"/>
<circle cx="536.7" cy="156.4" r="4" fill="#dc2626" opacity="0.8"/>
<circle cx="536.7" cy="156.4" r="4" fill="#dc2626" opacity="0.8"/>
<circle cx="536.7" cy="156.4" r="4" fill="#16a34a" opacity="0.8"/>
<circle cx="536.7" cy="156.4" r="4" fill="#16a34a" opacity="0.8"/>
<circle cx="536.7" cy="156.4" r="4" fill="#dc2626" opacity="0.8"/>
<circle cx="552.2" cy="148.7" r="4" fill="#16a34a" opacity="0.8"/>
<circle cx="552.2" cy="148.7" r="4" fill="#dc2626" opacity="0.8"/>
<circle cx="552.2" cy="148.7" r="4" fill="#dc2626" opacity="0.8"/>
<circle cx="552.2" cy="148.7" r="4" fill="#dc2626" opacity="0.8"/>
<circle cx="552.2" cy="148.7" r="4" fill="#dc2626" opacity="0.8"/>
<circle cx="552.2" cy="148.7" r="4" fill="#16a34a" opacity="0.8"/>
<circle cx="552.2" cy="148.7" r="4" fill="#dc2626" opacity="0.8"/>
<circle cx="552.2" cy="148.7" r="4" fill="#dc2626" opacity="0.8"/>
<circle cx="567.8" cy="140.0" r="4" fill="#dc2626" opacity="0.8"/>
<circle cx="567.8" cy="140.0" r="4" fill="#dc2626" opacity="0.8"/>
<circle cx="567.8" cy="140.0" r="4" fill="#dc2626" opacity="0.8"/>
<circle cx="567.8" cy="140.0" r="4" fill="#dc2626" opacity="0.8"/>
<circle cx="567.8" cy="140.0" r="4" fill="#dc2626" opacity="0.8"/>
<circle cx="567.8" cy="140.0" r="4" fill="#dc2626" opacity="0.8"/>
<circle cx="567.8" cy="140.0" r="4" fill="#16a34a" opacity="0.8"/>
<circle cx="567.8" cy="140.0" r="4" fill="#16a34a" opacity="0.8"/>
<circle cx="567.8" cy="140.0" r="4" fill="#16a34a" opacity="0.8"/>
<circle cx="583.3" cy="141.6" r="4" fill="#16a34a" opacity="0.8"/>
<circle cx="583.3" cy="141.6" r="4" fill="#dc2626" opacity="0.8"/>
<circle cx="583.3" cy="141.6" r="4" fill="#16a34a" opacity="0.8"/>
<circle cx="583.3" cy="141.6" r="4" fill="#16a34a" opacity="0.8"/>
<circle cx="583.3" cy="141.6" r="4" fill="#16a34a" opacity="0.8"/>
<circle cx="583.3" cy="141.6" r="4" fill="#dc2626" opacity="0.8"/>
<circle cx="583.3" cy="141.6" r="4" fill="#16a34a" opacity="0.8"/>
<circle cx="583.3" cy="141.6" r="4" fill="#dc2626" opacity="0.8"/>
<circle cx="598.9" cy="118.5" r="4" fill="#dc2626" opacity="0.8"/>
<circle cx="598.9" cy="118.5" r="4" fill="#16a34a" opacity="0.8"/>
<circle cx="598.9" cy="118.5" r="4" fill="#16a34a" opacity="0.8"/>
<circle cx="598.9" cy="118.5" r="4" fill="#16a34a" opacity="0.8"/>
<circle cx="598.9" cy="118.5" r="4" fill="#16a34a" opacity="0.8"/>
<circle cx="598.9" cy="118.5" r="4" fill="#16a34a" opacity="0.8"/>


  <!-- Y-axis labels -->
  <text x="62" y="320.0" fill="#c9d1d9" font-size="10" text-anchor="end" dominant-baseline="middle">$8,354</text><text x="62" y="268.0" fill="#c9d1d9" font-size="10" text-anchor="end" dominant-baseline="middle">$8,998</text><text x="62" y="216.0" fill="#c9d1d9" font-size="10" text-anchor="end" dominant-baseline="middle">$9,642</text><text x="62" y="164.0" fill="#c9d1d9" font-size="10" text-anchor="end" dominant-baseline="middle">$10,286</text><text x="62" y="112.0" fill="#c9d1d9" font-size="10" text-anchor="end" dominant-baseline="middle">$10,930</text><text x="62" y="60.0" fill="#c9d1d9" font-size="10" text-anchor="end" dominant-baseline="middle">$11,574</text>

  <!-- X-axis labels -->
  <text x="70.0" y="340" fill="#c9d1d9" font-size="10" text-anchor="middle">2026-05-13</text><text x="427.8" y="340" fill="#c9d1d9" font-size="10" text-anchor="middle">2026-06-15</text><text x="770.0" y="340" fill="#c9d1d9" font-size="10" text-anchor="middle">2026-07-15</text>

  <!-- Legend -->
  <circle cx="650" cy="380" r="4" fill="#16a34a"/>
  <text x="658" y="384" fill="#c9d1d9" font-size="9">Win</text>
  <circle cx="690" cy="380" r="4" fill="#dc2626"/>
  <text x="698" y="384" fill="#c9d1d9" font-size="9">Loss</text>
  <line x1="730" y1="380" x2="745" y2="380" stroke="#c9d1d9" stroke-width="0.5" stroke-dasharray="4,4" opacity="0.5"/>
  <text x="750" y="384" fill="#c9d1d9" font-size="9">$10K baseline</text>
</svg>