<svg xmlns="http://www.w3.org/2000/svg" viewBox="0 0 800 400" width="800" height="400">
  <rect width="800" height="400" fill="#0d1117" rx="8"/>

  <!-- Title -->
  <text x="70" y="30" fill="#c9d1d9" font-family="system-ui, -apple-system, sans-serif" font-size="16" font-weight="bold">Claude's Paper Trading — Equity Curve</text>
  <text x="70" y="48" fill="#58a6ff" font-family="system-ui, sans-serif" font-size="12">
    $8,493.43 (-15.07%) | Win Rate: 59/141 (42%) | Realized: $+214.43
  </text>

  <!-- Grid lines -->
  <line x1="70" y1="320.0" x2="770" y2="320.0" stroke="#21262d" stroke-width="0.5"/><line x1="70" y1="268.0" x2="770" y2="268.0" stroke="#21262d" stroke-width="0.5"/><line x1="70" y1="216.0" x2="770" y2="216.0" stroke="#21262d" stroke-width="0.5"/><line x1="70" y1="164.0" x2="770" y2="164.0" stroke="#21262d" stroke-width="0.5"/><line x1="70" y1="112.0" x2="770" y2="112.0" stroke="#21262d" stroke-width="0.5"/><line x1="70" y1="60.0" x2="770" y2="60.0" stroke="#21262d" stroke-width="0.5"/>

  <!-- Baseline (starting capital) -->
  <line x1="70" y1="173.4" x2="770" y2="173.4" stroke="#c9d1d9" stroke-width="0.5" stroke-dasharray="4,4" opacity="0.5"/>
  <text x="775" y="173.4" fill="#c9d1d9" font-size="9" opacity="0.6" dominant-baseline="middle">$10K</text>

  <!-- Fill under curve -->
  <path d="M 70.0 182.6 L 83.5 167.1 L 96.9 177.7 L 110.4 231.5 L 123.8 236.9 L 137.3 203.6 L 150.8 194.6 L 164.2 182.2 L 177.7 180.6 L 191.2 188.3 L 204.6 180.1 L 218.1 164.2 L 231.5 165.4 L 245.0 190.1 L 258.5 173.4 L 271.9 173.4 L 285.4 173.4 L 298.8 173.4 L 312.3 169.2 L 325.8 155.4 L 339.2 166.3 L 352.7 141.2 L 366.2 134.9 L 379.6 183.7 L 393.1 177.1 L 406.5 177.7 L 420.0 175.0 L 433.5 173.2 L 446.9 151.4 L 460.4 176.5 L 473.8 146.1 L 487.3 139.2 L 500.8 131.4 L 514.2 132.8 L 527.7 112.2 L 541.2 99.7 L 554.6 131.2 L 568.1 126.8 L 581.5 106.7 L 595.0 165.4 L 608.5 213.4 L 621.9 256.7 L 635.4 260.3 L 648.8 260.3 L 662.3 254.5 L 675.8 274.9 L 689.2 266.0 L 702.7 275.4 L 716.2 281.2 L 729.6 289.8 L 743.1 286.3 L 756.5 287.4 L 770.0 282.0 L 770.0 320.0 L 70.0 320.0 Z" fill="#dc2626" opacity="0.1"/>

  <!-- Equity line -->
  <path d="M 70.0 182.6 L 83.5 167.1 L 96.9 177.7 L 110.4 231.5 L 123.8 236.9 L 137.3 203.6 L 150.8 194.6 L 164.2 182.2 L 177.7 180.6 L 191.2 188.3 L 204.6 180.1 L 218.1 164.2 L 231.5 165.4 L 245.0 190.1 L 258.5 173.4 L 271.9 173.4 L 285.4 173.4 L 298.8 173.4 L 312.3 169.2 L 325.8 155.4 L 339.2 166.3 L 352.7 141.2 L 366.2 134.9 L 379.6 183.7 L 393.1 177.1 L 406.5 177.7 L 420.0 175.0 L 433.5 173.2 L 446.9 151.4 L 460.4 176.5 L 473.8 146.1 L 487.3 139.2 L 500.8 131.4 L 514.2 132.8 L 527.7 112.2 L 541.2 99.7 L 554.6 131.2 L 568.1 126.8 L 581.5 106.7 L 595.0 165.4 L 608.5 213.4 L 621.9 256.7 L 635.4 260.3 L 648.8 260.3 L 662.3 254.5 L 675.8 274.9 L 689.2 266.0 L 702.7 275.4 L 716.2 281.2 L 729.6 289.8 L 743.1 286.3 L 756.5 287.4 L 770.0 282.0" fill="none" stroke="#dc2626" stroke-width="2.5" stroke-linecap="round" stroke-linejoin="round"/>

  <!-- Data points -->
  <circle cx="70.0" cy="182.6" r="3" fill="#dc2626"/><circle cx="83.5" cy="167.1" r="3" fill="#dc2626"/><circle cx="96.9" cy="177.7" r="3" fill="#dc2626"/><circle cx="110.4" cy="231.5" r="3" fill="#dc2626"/><circle cx="123.8" cy="236.9" r="3" fill="#dc2626"/><circle cx="137.3" cy="203.6" r="3" fill="#dc2626"/><circle cx="150.8" cy="194.6" r="3" fill="#dc2626"/><circle cx="164.2" cy="182.2" r="3" fill="#dc2626"/><circle cx="177.7" cy="180.6" r="3" fill="#dc2626"/><circle cx="191.2" cy="188.3" r="3" fill="#dc2626"/><circle cx="204.6" cy="180.1" r="3" fill="#dc2626"/><circle cx="218.1" cy="164.2" r="3" fill="#dc2626"/><circle cx="231.5" cy="165.4" r="3" fill="#dc2626"/><circle cx="245.0" cy="190.1" r="3" fill="#dc2626"/><circle cx="258.5" cy="173.4" r="3" fill="#dc2626"/><circle cx="271.9" cy="173.4" r="3" fill="#dc2626"/><circle cx="285.4" cy="173.4" r="3" fill="#dc2626"/><circle cx="298.8" cy="173.4" r="3" fill="#dc2626"/><circle cx="312.3" cy="169.2" r="3" fill="#dc2626"/><circle cx="325.8" cy="155.4" r="3" fill="#dc2626"/><circle cx="339.2" cy="166.3" r="3" fill="#dc2626"/><circle cx="352.7" cy="141.2" r="3" fill="#dc2626"/><circle cx="366.2" cy="134.9" r="3" fill="#dc2626"/><circle cx="379.6" cy="183.7" r="3" fill="#dc2626"/><circle cx="393.1" cy="177.1" r="3" fill="#dc2626"/><circle cx="406.5" cy="177.7" r="3" fill="#dc2626"/><circle cx="420.0" cy="175.0" r="3" fill="#dc2626"/><circle cx="433.5" cy="173.2" r="3" fill="#dc2626"/><circle cx="446.9" cy="151.4" r="3" fill="#dc2626"/><circle cx="460.4" cy="176.5" r="3" fill="#dc2626"/><circle cx="473.8" cy="146.1" r="3" fill="#dc2626"/><circle cx="487.3" cy="139.2" r="3" fill="#dc2626"/><circle cx="500.8" cy="131.4" r="3" fill="#dc2626"/><circle cx="514.2" cy="132.8" r="3" fill="#dc2626"/><circle cx="527.7" cy="112.2" r="3" fill="#dc2626"/><circle cx="541.2" cy="99.7" r="3" fill="#dc2626"/><circle cx="554.6" cy="131.2" r="3" fill="#dc2626"/><circle cx="568.1" cy="126.8" r="3" fill="#dc2626"/><circle cx="581.5" cy="106.7" r="3" fill="#dc2626"/><circle cx="595.0" cy="165.4" r="3" fill="#dc2626"/><circle cx="608.5" cy="213.4" r="3" fill="#dc2626"/><circle cx="621.9" cy="256.7" r="3" fill="#dc2626"/><circle cx="635.4" cy="260.3" r="3" fill="#dc2626"/><circle cx="648.8" cy="260.3" r="3" fill="#dc2626"/><circle cx="662.3" cy="254.5" r="3" fill="#dc2626"/><circle cx="675.8" cy="274.9" r="3" fill="#dc2626"/><circle cx="689.2" cy="266.0" r="3" fill="#dc2626"/><circle cx="702.7" cy="275.4" r="3" fill="#dc2626"/><circle cx="716.2" cy="281.2" r="3" fill="#dc2626"/><circle cx="729.6" cy="289.8" r="3" fill="#dc2626"/><circle cx="743.1" cy="286.3" r="3" fill="#dc2626"/><circle cx="756.5" cy="287.4" r="3" fill="#dc2626"/><circle cx="770.0" cy="282.0" r="3" fill="#dc2626"/>

  <!-- Trade markers -->
  <circle cx="123.8" cy="236.9" r="4" fill="#dc2626" opacity="0.8"/>
<circle cx="137.3" cy="203.6" r="4" fill="#dc2626" opacity="0.8"/>
<circle cx="137.3" cy="203.6" r="4" fill="#dc2626" opacity="0.8"/>
<circle cx="137.3" cy="203.6" r="4" fill="#dc2626" opacity="0.8"/>
<circle cx="164.2" cy="182.2" r="4" fill="#dc2626" opacity="0.8"/>
<circle cx="164.2" cy="182.2" r="4" fill="#16a34a" opacity="0.8"/>
<circle cx="164.2" cy="182.2" r="4" fill="#dc2626" opacity="0.8"/>
<circle cx="164.2" cy="182.2" r="4" fill="#dc2626" opacity="0.8"/>
<circle cx="164.2" cy="182.2" r="4" fill="#16a34a" opacity="0.8"/>
<circle cx="177.7" cy="180.6" r="4" fill="#16a34a" opacity="0.8"/>
<circle cx="177.7" cy="180.6" r="4" fill="#dc2626" opacity="0.8"/>
<circle cx="177.7" cy="180.6" r="4" fill="#dc2626" opacity="0.8"/>
<circle cx="177.7" cy="180.6" r="4" fill="#dc2626" opacity="0.8"/>
<circle cx="191.2" cy="188.3" r="4" fill="#dc2626" opacity="0.8"/>
<circle cx="191.2" cy="188.3" r="4" fill="#16a34a" opacity="0.8"/>
<circle cx="191.2" cy="188.3" r="4" fill="#dc2626" opacity="0.8"/>
<circle cx="191.2" cy="188.3" r="4" fill="#dc2626" opacity="0.8"/>
<circle cx="191.2" cy="188.3" r="4" fill="#dc2626" opacity="0.8"/>
<circle cx="204.6" cy="180.1" r="4" fill="#16a34a" opacity="0.8"/>
<circle cx="204.6" cy="180.1" r="4" fill="#dc2626" opacity="0.8"/>
<circle cx="204.6" cy="180.1" r="4" fill="#16a34a" opacity="0.8"/>
<circle cx="204.6" cy="180.1" r="4" fill="#dc2626" opacity="0.8"/>
<circle cx="204.6" cy="180.1" r="4" fill="#dc2626" opacity="0.8"/>
<circle cx="218.1" cy="164.2" r="4" fill="#16a34a" opacity="0.8"/>
<circle cx="218.1" cy="164.2" r="4" fill="#16a34a" opacity="0.8"/>
<circle cx="218.1" cy="164.2" r="4" fill="#16a34a" opacity="0.8"/>
<circle cx="325.8" cy="155.4" r="4" fill="#dc2626" opacity="0.8"/>
<circle cx="325.8" cy="155.4" r="4" fill="#dc2626" opacity="0.8"/>
<circle cx="325.8" cy="155.4" r="4" fill="#16a34a" opacity="0.8"/>
<circle cx="325.8" cy="155.4" r="4" fill="#16a34a" opacity="0.8"/>
<circle cx="325.8" cy="155.4" r="4" fill="#16a34a" opacity="0.8"/>
<circle cx="339.2" cy="166.3" r="4" fill="#16a34a" opacity="0.8"/>
<circle cx="339.2" cy="166.3" r="4" fill="#16a34a" opacity="0.8"/>
<circle cx="339.2" cy="166.3" r="4" fill="#dc2626" opacity="0.8"/>
<circle cx="339.2" cy="166.3" r="4" fill="#16a34a" opacity="0.8"/>
<circle cx="339.2" cy="166.3" r="4" fill="#dc2626" opacity="0.8"/>
<circle cx="339.2" cy="166.3" r="4" fill="#dc2626" opacity="0.8"/>
<circle cx="339.2" cy="166.3" r="4" fill="#dc2626" opacity="0.8"/>
<circle cx="352.7" cy="141.2" r="4" fill="#dc2626" opacity="0.8"/>
<circle cx="352.7" cy="141.2" r="4" fill="#16a34a" opacity="0.8"/>
<circle cx="352.7" cy="141.2" r="4" fill="#16a34a" opacity="0.8"/>
<circle cx="352.7" cy="141.2" r="4" fill="#dc2626" opacity="0.8"/>
<circle cx="352.7" cy="141.2" r="4" fill="#16a34a" opacity="0.8"/>
<circle cx="352.7" cy="141.2" r="4" fill="#16a34a" opacity="0.8"/>
<circle cx="366.2" cy="134.9" r="4" fill="#dc2626" opacity="0.8"/>
<circle cx="366.2" cy="134.9" r="4" fill="#16a34a" opacity="0.8"/>
<circle cx="366.2" cy="134.9" r="4" fill="#16a34a" opacity="0.8"/>
<circle cx="366.2" cy="134.9" r="4" fill="#16a34a" opacity="0.8"/>
<circle cx="366.2" cy="134.9" r="4" fill="#dc2626" opacity="0.8"/>
<circle cx="366.2" cy="134.9" r="4" fill="#dc2626" opacity="0.8"/>
<circle cx="366.2" cy="134.9" r="4" fill="#16a34a" opacity="0.8"/>
<circle cx="379.6" cy="183.7" r="4" fill="#16a34a" opacity="0.8"/>
<circle cx="379.6" cy="183.7" r="4" fill="#dc2626" opacity="0.8"/>
<circle cx="379.6" cy="183.7" r="4" fill="#dc2626" opacity="0.8"/>
<circle cx="379.6" cy="183.7" r="4" fill="#16a34a" opacity="0.8"/>
<circle cx="379.6" cy="183.7" r="4" fill="#dc2626" opacity="0.8"/>
<circle cx="379.6" cy="183.7" r="4" fill="#dc2626" opacity="0.8"/>
<circle cx="379.6" cy="183.7" r="4" fill="#dc2626" opacity="0.8"/>
<circle cx="379.6" cy="183.7" r="4" fill="#dc2626" opacity="0.8"/>
<circle cx="379.6" cy="183.7" r="4" fill="#dc2626" opacity="0.8"/>
<circle cx="393.1" cy="177.1" r="4" fill="#dc2626" opacity="0.8"/>
<circle cx="393.1" cy="177.1" r="4" fill="#16a34a" opacity="0.8"/>
<circle cx="393.1" cy="177.1" r="4" fill="#dc2626" opacity="0.8"/>
<circle cx="393.1" cy="177.1" r="4" fill="#16a34a" opacity="0.8"/>
<circle cx="393.1" cy="177.1" r="4" fill="#16a34a" opacity="0.8"/>
<circle cx="393.1" cy="177.1" r="4" fill="#16a34a" opacity="0.8"/>
<circle cx="393.1" cy="177.1" r="4" fill="#16a34a" opacity="0.8"/>
<circle cx="393.1" cy="177.1" r="4" fill="#16a34a" opacity="0.8"/>
<circle cx="393.1" cy="177.1" r="4" fill="#dc2626" opacity="0.8"/>
<circle cx="406.5" cy="177.7" r="4" fill="#16a34a" opacity="0.8"/>
<circle cx="406.5" cy="177.7" r="4" fill="#dc2626" opacity="0.8"/>
<circle cx="406.5" cy="177.7" r="4" fill="#dc2626" opacity="0.8"/>
<circle cx="406.5" cy="177.7" r="4" fill="#16a34a" opacity="0.8"/>
<circle cx="406.5" cy="177.7" r="4" fill="#16a34a" opacity="0.8"/>
<circle cx="406.5" cy="177.7" r="4" fill="#16a34a" opacity="0.8"/>
<circle cx="406.5" cy="177.7" r="4" fill="#dc2626" opacity="0.8"/>
<circle cx="420.0" cy="175.0" r="4" fill="#dc2626" opacity="0.8"/>
<circle cx="420.0" cy="175.0" r="4" fill="#dc2626" opacity="0.8"/>
<circle cx="420.0" cy="175.0" r="4" fill="#dc2626" opacity="0.8"/>
<circle cx="420.0" cy="175.0" r="4" fill="#16a34a" opacity="0.8"/>
<circle cx="420.0" cy="175.0" r="4" fill="#16a34a" opacity="0.8"/>
<circle cx="420.0" cy="175.0" r="4" fill="#dc2626" opacity="0.8"/>
<circle cx="433.5" cy="173.2" r="4" fill="#dc2626" opacity="0.8"/>
<circle cx="433.5" cy="173.2" r="4" fill="#dc2626" opacity="0.8"/>
<circle cx="433.5" cy="173.2" r="4" fill="#dc2626" opacity="0.8"/>
<circle cx="433.5" cy="173.2" r="4" fill="#dc2626" opacity="0.8"/>
<circle cx="433.5" cy="173.2" r="4" fill="#16a34a" opacity="0.8"/>
<circle cx="433.5" cy="173.2" r="4" fill="#dc2626" opacity="0.8"/>
<circle cx="433.5" cy="173.2" r="4" fill="#dc2626" opacity="0.8"/>
<circle cx="433.5" cy="173.2" r="4" fill="#dc2626" opacity="0.8"/>
<circle cx="433.5" cy="173.2" r="4" fill="#dc2626" opacity="0.8"/>
<circle cx="446.9" cy="151.4" r="4" fill="#dc2626" opacity="0.8"/>
<circle cx="446.9" cy="151.4" r="4" fill="#16a34a" opacity="0.8"/>
<circle cx="446.9" cy="151.4" r="4" fill="#dc2626" opacity="0.8"/>
<circle cx="446.9" cy="151.4" r="4" fill="#16a34a" opacity="0.8"/>
<circle cx="446.9" cy="151.4" r="4" fill="#dc2626" opacity="0.8"/>
<circle cx="446.9" cy="151.4" r="4" fill="#dc2626" opacity="0.8"/>
<circle cx="460.4" cy="176.5" r="4" fill="#dc2626" opacity="0.8"/>
<circle cx="460.4" cy="176.5" r="4" fill="#16a34a" opacity="0.8"/>
<circle cx="460.4" cy="176.5" r="4" fill="#dc2626" opacity="0.8"/>
<circle cx="460.4" cy="176.5" r="4" fill="#dc2626" opacity="0.8"/>
<circle cx="460.4" cy="176.5" r="4" fill="#dc2626" opacity="0.8"/>
<circle cx="460.4" cy="176.5" r="4" fill="#16a34a" opacity="0.8"/>
<circle cx="460.4" cy="176.5" r="4" fill="#dc2626" opacity="0.8"/>
<circle cx="460.4" cy="176.5" r="4" fill="#dc2626" opacity="0.8"/>
<circle cx="473.8" cy="146.1" r="4" fill="#dc2626" opacity="0.8"/>
<circle cx="473.8" cy="146.1" r="4" fill="#dc2626" opacity="0.8"/>
<circle cx="473.8" cy="146.1" r="4" fill="#16a34a" opacity="0.8"/>
<circle cx="473.8" cy="146.1" r="4" fill="#16a34a" opacity="0.8"/>
<circle cx="473.8" cy="146.1" r="4" fill="#dc2626" opacity="0.8"/>
<circle cx="487.3" cy="139.2" r="4" fill="#16a34a" opacity="0.8"/>
<circle cx="487.3" cy="139.2" r="4" fill="#dc2626" opacity="0.8"/>
<circle cx="487.3" cy="139.2" r="4" fill="#dc2626" opacity="0.8"/>
<circle cx="487.3" cy="139.2" r="4" fill="#dc2626" opacity="0.8"/>
<circle cx="487.3" cy="139.2" r="4" fill="#dc2626" opacity="0.8"/>
<circle cx="487.3" cy="139.2" r="4" fill="#16a34a" opacity="0.8"/>
<circle cx="487.3" cy="139.2" r="4" fill="#dc2626" opacity="0.8"/>
<circle cx="487.3" cy="139.2" r="4" fill="#dc2626" opacity="0.8"/>
<circle cx="500.8" cy="131.4" r="4" fill="#dc2626" opacity="0.8"/>
<circle cx="500.8" cy="131.4" r="4" fill="#dc2626" opacity="0.8"/>
<circle cx="500.8" cy="131.4" r="4" fill="#dc2626" opacity="0.8"/>
<circle cx="500.8" cy="131.4" r="4" fill="#dc2626" opacity="0.8"/>
<circle cx="500.8" cy="131.4" r="4" fill="#dc2626" opacity="0.8"/>
<circle cx="500.8" cy="131.4" r="4" fill="#dc2626" opacity="0.8"/>
<circle cx="500.8" cy="131.4" r="4" fill="#16a34a" opacity="0.8"/>
<circle cx="500.8" cy="131.4" r="4" fill="#16a34a" opacity="0.8"/>
<circle cx="500.8" cy="131.4" r="4" fill="#16a34a" opacity="0.8"/>
<circle cx="514.2" cy="132.8" r="4" fill="#16a34a" opacity="0.8"/>
<circle cx="514.2" cy="132.8" r="4" fill="#dc2626" opacity="0.8"/>
<circle cx="514.2" cy="132.8" r="4" fill="#16a34a" opacity="0.8"/>
<circle cx="514.2" cy="132.8" r="4" fill="#16a34a" opacity="0.8"/>
<circle cx="514.2" cy="132.8" r="4" fill="#16a34a" opacity="0.8"/>
<circle cx="514.2" cy="132.8" r="4" fill="#dc2626" opacity="0.8"/>
<circle cx="514.2" cy="132.8" r="4" fill="#16a34a" opacity="0.8"/>
<circle cx="514.2" cy="132.8" r="4" fill="#dc2626" opacity="0.8"/>
<circle cx="527.7" cy="112.2" r="4" fill="#dc2626" opacity="0.8"/>
<circle cx="527.7" cy="112.2" r="4" fill="#16a34a" opacity="0.8"/>
<circle cx="527.7" cy="112.2" r="4" fill="#16a34a" opacity="0.8"/>
<circle cx="527.7" cy="112.2" r="4" fill="#16a34a" opacity="0.8"/>
<circle cx="527.7" cy="112.2" r="4" fill="#16a34a" opacity="0.8"/>
<circle cx="527.7" cy="112.2" r="4" fill="#16a34a" opacity="0.8"/>


  <!-- Y-axis labels -->
  <text x="62" y="320.0" fill="#c9d1d9" font-size="10" text-anchor="end" dominant-baseline="middle">$7,966</text><text x="62" y="268.0" fill="#c9d1d9" font-size="10" text-anchor="end" dominant-baseline="middle">$8,687</text><text x="62" y="216.0" fill="#c9d1d9" font-size="10" text-anchor="end" dominant-baseline="middle">$9,409</text><text x="62" y="164.0" fill="#c9d1d9" font-size="10" text-anchor="end" dominant-baseline="middle">$10,131</text><text x="62" y="112.0" fill="#c9d1d9" font-size="10" text-anchor="end" dominant-baseline="middle">$10,852</text><text x="62" y="60.0" fill="#c9d1d9" font-size="10" text-anchor="end" dominant-baseline="middle">$11,574</text>

  <!-- X-axis labels -->
  <text x="70.0" y="340" fill="#c9d1d9" font-size="10" text-anchor="middle">2026-05-13</text><text x="420.0" y="340" fill="#c9d1d9" font-size="10" text-anchor="middle">2026-06-18</text><text x="770.0" y="340" fill="#c9d1d9" font-size="10" text-anchor="middle">2026-07-24</text>

  <!-- Legend -->
  <circle cx="650" cy="380" r="4" fill="#16a34a"/>
  <text x="658" y="384" fill="#c9d1d9" font-size="9">Win</text>
  <circle cx="690" cy="380" r="4" fill="#dc2626"/>
  <text x="698" y="384" fill="#c9d1d9" font-size="9">Loss</text>
  <line x1="730" y1="380" x2="745" y2="380" stroke="#c9d1d9" stroke-width="0.5" stroke-dasharray="4,4" opacity="0.5"/>
  <text x="750" y="384" fill="#c9d1d9" font-size="9">$10K baseline</text>
</svg>