<svg xmlns="http://www.w3.org/2000/svg" viewBox="0 0 800 400" width="800" height="400">
  <rect width="800" height="400" fill="#0d1117" rx="8"/>

  <!-- Title -->
  <text x="70" y="30" fill="#c9d1d9" font-family="system-ui, -apple-system, sans-serif" font-size="16" font-weight="bold">Claude's Paper Trading — Equity Curve</text>
  <text x="70" y="48" fill="#58a6ff" font-family="system-ui, sans-serif" font-size="12">
    $10,249.36 (+2.49%) | Win Rate: 12/31 (39%) | Realized: $+6.71
  </text>

  <!-- Grid lines -->
  <line x1="70" y1="320.0" x2="770" y2="320.0" stroke="#21262d" stroke-width="0.5"/><line x1="70" y1="268.0" x2="770" y2="268.0" stroke="#21262d" stroke-width="0.5"/><line x1="70" y1="216.0" x2="770" y2="216.0" stroke="#21262d" stroke-width="0.5"/><line x1="70" y1="164.0" x2="770" y2="164.0" stroke="#21262d" stroke-width="0.5"/><line x1="70" y1="112.0" x2="770" y2="112.0" stroke="#21262d" stroke-width="0.5"/><line x1="70" y1="60.0" x2="770" y2="60.0" stroke="#21262d" stroke-width="0.5"/>

  <!-- Baseline (starting capital) -->
  <line x1="70" y1="154.4" x2="770" y2="154.4" stroke="#c9d1d9" stroke-width="0.5" stroke-dasharray="4,4" opacity="0.5"/>
  <text x="775" y="154.4" fill="#c9d1d9" font-size="9" opacity="0.6" dominant-baseline="middle">$10K</text>

  <!-- Fill under curve -->
  <path d="M 70.0 170.2 L 106.8 143.6 L 143.7 161.7 L 180.5 254.2 L 217.4 263.5 L 254.2 206.3 L 291.1 190.8 L 327.9 169.5 L 364.7 166.8 L 401.6 180.1 L 438.4 165.9 L 475.3 138.5 L 512.1 140.7 L 548.9 183.1 L 585.8 154.4 L 622.6 154.4 L 659.5 154.4 L 696.3 154.4 L 733.2 147.1 L 770.0 123.5 L 770.0 320.0 L 70.0 320.0 Z" fill="#16a34a" opacity="0.1"/>

  <!-- Equity line -->
  <path d="M 70.0 170.2 L 106.8 143.6 L 143.7 161.7 L 180.5 254.2 L 217.4 263.5 L 254.2 206.3 L 291.1 190.8 L 327.9 169.5 L 364.7 166.8 L 401.6 180.1 L 438.4 165.9 L 475.3 138.5 L 512.1 140.7 L 548.9 183.1 L 585.8 154.4 L 622.6 154.4 L 659.5 154.4 L 696.3 154.4 L 733.2 147.1 L 770.0 123.5" fill="none" stroke="#16a34a" stroke-width="2.5" stroke-linecap="round" stroke-linejoin="round"/>

  <!-- Data points -->
  <circle cx="70.0" cy="170.2" r="3" fill="#16a34a"/><circle cx="106.8" cy="143.6" r="3" fill="#16a34a"/><circle cx="143.7" cy="161.7" r="3" fill="#16a34a"/><circle cx="180.5" cy="254.2" r="3" fill="#16a34a"/><circle cx="217.4" cy="263.5" r="3" fill="#16a34a"/><circle cx="254.2" cy="206.3" r="3" fill="#16a34a"/><circle cx="291.1" cy="190.8" r="3" fill="#16a34a"/><circle cx="327.9" cy="169.5" r="3" fill="#16a34a"/><circle cx="364.7" cy="166.8" r="3" fill="#16a34a"/><circle cx="401.6" cy="180.1" r="3" fill="#16a34a"/><circle cx="438.4" cy="165.9" r="3" fill="#16a34a"/><circle cx="475.3" cy="138.5" r="3" fill="#16a34a"/><circle cx="512.1" cy="140.7" r="3" fill="#16a34a"/><circle cx="548.9" cy="183.1" r="3" fill="#16a34a"/><circle cx="585.8" cy="154.4" r="3" fill="#16a34a"/><circle cx="622.6" cy="154.4" r="3" fill="#16a34a"/><circle cx="659.5" cy="154.4" r="3" fill="#16a34a"/><circle cx="696.3" cy="154.4" r="3" fill="#16a34a"/><circle cx="733.2" cy="147.1" r="3" fill="#16a34a"/><circle cx="770.0" cy="123.5" r="3" fill="#16a34a"/>

  <!-- Trade markers -->
  <circle cx="217.4" cy="263.5" r="4" fill="#dc2626" opacity="0.8"/>
<circle cx="254.2" cy="206.3" r="4" fill="#dc2626" opacity="0.8"/>
<circle cx="254.2" cy="206.3" r="4" fill="#dc2626" opacity="0.8"/>
<circle cx="254.2" cy="206.3" r="4" fill="#dc2626" opacity="0.8"/>
<circle cx="327.9" cy="169.5" r="4" fill="#dc2626" opacity="0.8"/>
<circle cx="327.9" cy="169.5" r="4" fill="#16a34a" opacity="0.8"/>
<circle cx="327.9" cy="169.5" r="4" fill="#dc2626" opacity="0.8"/>
<circle cx="327.9" cy="169.5" r="4" fill="#dc2626" opacity="0.8"/>
<circle cx="327.9" cy="169.5" r="4" fill="#16a34a" opacity="0.8"/>
<circle cx="364.7" cy="166.8" r="4" fill="#16a34a" opacity="0.8"/>
<circle cx="364.7" cy="166.8" r="4" fill="#dc2626" opacity="0.8"/>
<circle cx="364.7" cy="166.8" r="4" fill="#dc2626" opacity="0.8"/>
<circle cx="364.7" cy="166.8" r="4" fill="#dc2626" opacity="0.8"/>
<circle cx="401.6" cy="180.1" r="4" fill="#dc2626" opacity="0.8"/>
<circle cx="401.6" cy="180.1" r="4" fill="#16a34a" opacity="0.8"/>
<circle cx="401.6" cy="180.1" r="4" fill="#dc2626" opacity="0.8"/>
<circle cx="401.6" cy="180.1" r="4" fill="#dc2626" opacity="0.8"/>
<circle cx="401.6" cy="180.1" r="4" fill="#dc2626" opacity="0.8"/>
<circle cx="438.4" cy="165.9" r="4" fill="#16a34a" opacity="0.8"/>
<circle cx="438.4" cy="165.9" r="4" fill="#dc2626" opacity="0.8"/>
<circle cx="438.4" cy="165.9" r="4" fill="#16a34a" opacity="0.8"/>
<circle cx="438.4" cy="165.9" r="4" fill="#dc2626" opacity="0.8"/>
<circle cx="438.4" cy="165.9" r="4" fill="#dc2626" opacity="0.8"/>
<circle cx="475.3" cy="138.5" r="4" fill="#16a34a" opacity="0.8"/>
<circle cx="475.3" cy="138.5" r="4" fill="#16a34a" opacity="0.8"/>
<circle cx="475.3" cy="138.5" r="4" fill="#16a34a" opacity="0.8"/>
<circle cx="770.0" cy="123.5" r="4" fill="#dc2626" opacity="0.8"/>
<circle cx="770.0" cy="123.5" r="4" fill="#dc2626" opacity="0.8"/>
<circle cx="770.0" cy="123.5" r="4" fill="#16a34a" opacity="0.8"/>
<circle cx="770.0" cy="123.5" r="4" fill="#16a34a" opacity="0.8"/>
<circle cx="770.0" cy="123.5" r="4" fill="#16a34a" opacity="0.8"/>


  <!-- Y-axis labels -->
  <text x="62" y="320.0" fill="#c9d1d9" font-size="10" text-anchor="end" dominant-baseline="middle">$8,663</text><text x="62" y="268.0" fill="#c9d1d9" font-size="10" text-anchor="end" dominant-baseline="middle">$9,083</text><text x="62" y="216.0" fill="#c9d1d9" font-size="10" text-anchor="end" dominant-baseline="middle">$9,503</text><text x="62" y="164.0" fill="#c9d1d9" font-size="10" text-anchor="end" dominant-baseline="middle">$9,922</text><text x="62" y="112.0" fill="#c9d1d9" font-size="10" text-anchor="end" dominant-baseline="middle">$10,342</text><text x="62" y="60.0" fill="#c9d1d9" font-size="10" text-anchor="end" dominant-baseline="middle">$10,762</text>

  <!-- X-axis labels -->
  <text x="70.0" y="340" fill="#c9d1d9" font-size="10" text-anchor="middle">2026-05-13</text><text x="438.4" y="340" fill="#c9d1d9" font-size="10" text-anchor="middle">2026-05-27</text><text x="770.0" y="340" fill="#c9d1d9" font-size="10" text-anchor="middle">2026-06-09</text>

  <!-- Legend -->
  <circle cx="650" cy="380" r="4" fill="#16a34a"/>
  <text x="658" y="384" fill="#c9d1d9" font-size="9">Win</text>
  <circle cx="690" cy="380" r="4" fill="#dc2626"/>
  <text x="698" y="384" fill="#c9d1d9" font-size="9">Loss</text>
  <line x1="730" y1="380" x2="745" y2="380" stroke="#c9d1d9" stroke-width="0.5" stroke-dasharray="4,4" opacity="0.5"/>
  <text x="750" y="384" fill="#c9d1d9" font-size="9">$10K baseline</text>
</svg>