<svg xmlns="http://www.w3.org/2000/svg" viewBox="0 0 800 400" width="800" height="400">
  <rect width="800" height="400" fill="#0d1117" rx="8"/>

  <!-- Title -->
  <text x="70" y="30" fill="#c9d1d9" font-family="system-ui, -apple-system, sans-serif" font-size="16" font-weight="bold">Claude's Paper Trading — Equity Curve</text>
  <text x="70" y="48" fill="#58a6ff" font-family="system-ui, sans-serif" font-size="12">
    $8,503.49 (-14.97%) | Win Rate: 59/141 (42%) | Realized: $+214.43
  </text>

  <!-- Grid lines -->
  <line x1="70" y1="320.0" x2="770" y2="320.0" stroke="#21262d" stroke-width="0.5"/><line x1="70" y1="268.0" x2="770" y2="268.0" stroke="#21262d" stroke-width="0.5"/><line x1="70" y1="216.0" x2="770" y2="216.0" stroke="#21262d" stroke-width="0.5"/><line x1="70" y1="164.0" x2="770" y2="164.0" stroke="#21262d" stroke-width="0.5"/><line x1="70" y1="112.0" x2="770" y2="112.0" stroke="#21262d" stroke-width="0.5"/><line x1="70" y1="60.0" x2="770" y2="60.0" stroke="#21262d" stroke-width="0.5"/>

  <!-- Baseline (starting capital) -->
  <line x1="70" y1="177.1" x2="770" y2="177.1" stroke="#c9d1d9" stroke-width="0.5" stroke-dasharray="4,4" opacity="0.5"/>
  <text x="775" y="177.1" fill="#c9d1d9" font-size="9" opacity="0.6" dominant-baseline="middle">$10K</text>

  <!-- Fill under curve -->
  <path d="M 70.0 186.6 L 84.6 170.6 L 99.2 181.5 L 113.8 237.0 L 128.3 242.6 L 142.9 208.3 L 157.5 198.9 L 172.1 186.2 L 186.7 184.5 L 201.2 192.5 L 215.8 184.0 L 230.4 167.5 L 245.0 168.8 L 259.6 194.3 L 274.2 177.1 L 288.8 177.1 L 303.3 177.1 L 317.9 177.1 L 332.5 172.7 L 347.1 158.5 L 361.7 169.8 L 376.2 143.8 L 390.8 137.4 L 405.4 187.7 L 420.0 180.8 L 434.6 181.5 L 449.2 178.7 L 463.8 176.9 L 478.3 154.3 L 492.9 180.3 L 507.5 148.8 L 522.1 141.7 L 536.7 133.7 L 551.2 135.2 L 565.8 113.9 L 580.4 101.0 L 595.0 133.5 L 609.6 128.9 L 624.2 108.2 L 638.8 168.8 L 653.3 218.4 L 667.9 263.1 L 682.5 266.8 L 697.1 266.7 L 711.7 260.8 L 726.2 281.9 L 740.8 272.7 L 755.4 282.4 L 770.0 288.4 L 770.0 320.0 L 70.0 320.0 Z" fill="#dc2626" opacity="0.1"/>

  <!-- Equity line -->
  <path d="M 70.0 186.6 L 84.6 170.6 L 99.2 181.5 L 113.8 237.0 L 128.3 242.6 L 142.9 208.3 L 157.5 198.9 L 172.1 186.2 L 186.7 184.5 L 201.2 192.5 L 215.8 184.0 L 230.4 167.5 L 245.0 168.8 L 259.6 194.3 L 274.2 177.1 L 288.8 177.1 L 303.3 177.1 L 317.9 177.1 L 332.5 172.7 L 347.1 158.5 L 361.7 169.8 L 376.2 143.8 L 390.8 137.4 L 405.4 187.7 L 420.0 180.8 L 434.6 181.5 L 449.2 178.7 L 463.8 176.9 L 478.3 154.3 L 492.9 180.3 L 507.5 148.8 L 522.1 141.7 L 536.7 133.7 L 551.2 135.2 L 565.8 113.9 L 580.4 101.0 L 595.0 133.5 L 609.6 128.9 L 624.2 108.2 L 638.8 168.8 L 653.3 218.4 L 667.9 263.1 L 682.5 266.8 L 697.1 266.7 L 711.7 260.8 L 726.2 281.9 L 740.8 272.7 L 755.4 282.4 L 770.0 288.4" fill="none" stroke="#dc2626" stroke-width="2.5" stroke-linecap="round" stroke-linejoin="round"/>

  <!-- Data points -->
  <circle cx="70.0" cy="186.6" r="3" fill="#dc2626"/><circle cx="84.6" cy="170.6" r="3" fill="#dc2626"/><circle cx="99.2" cy="181.5" r="3" fill="#dc2626"/><circle cx="113.8" cy="237.0" r="3" fill="#dc2626"/><circle cx="128.3" cy="242.6" r="3" fill="#dc2626"/><circle cx="142.9" cy="208.3" r="3" fill="#dc2626"/><circle cx="157.5" cy="198.9" r="3" fill="#dc2626"/><circle cx="172.1" cy="186.2" r="3" fill="#dc2626"/><circle cx="186.7" cy="184.5" r="3" fill="#dc2626"/><circle cx="201.2" cy="192.5" r="3" fill="#dc2626"/><circle cx="215.8" cy="184.0" r="3" fill="#dc2626"/><circle cx="230.4" cy="167.5" r="3" fill="#dc2626"/><circle cx="245.0" cy="168.8" r="3" fill="#dc2626"/><circle cx="259.6" cy="194.3" r="3" fill="#dc2626"/><circle cx="274.2" cy="177.1" r="3" fill="#dc2626"/><circle cx="288.8" cy="177.1" r="3" fill="#dc2626"/><circle cx="303.3" cy="177.1" r="3" fill="#dc2626"/><circle cx="317.9" cy="177.1" r="3" fill="#dc2626"/><circle cx="332.5" cy="172.7" r="3" fill="#dc2626"/><circle cx="347.1" cy="158.5" r="3" fill="#dc2626"/><circle cx="361.7" cy="169.8" r="3" fill="#dc2626"/><circle cx="376.2" cy="143.8" r="3" fill="#dc2626"/><circle cx="390.8" cy="137.4" r="3" fill="#dc2626"/><circle cx="405.4" cy="187.7" r="3" fill="#dc2626"/><circle cx="420.0" cy="180.8" r="3" fill="#dc2626"/><circle cx="434.6" cy="181.5" r="3" fill="#dc2626"/><circle cx="449.2" cy="178.7" r="3" fill="#dc2626"/><circle cx="463.8" cy="176.9" r="3" fill="#dc2626"/><circle cx="478.3" cy="154.3" r="3" fill="#dc2626"/><circle cx="492.9" cy="180.3" r="3" fill="#dc2626"/><circle cx="507.5" cy="148.8" r="3" fill="#dc2626"/><circle cx="522.1" cy="141.7" r="3" fill="#dc2626"/><circle cx="536.7" cy="133.7" r="3" fill="#dc2626"/><circle cx="551.2" cy="135.2" r="3" fill="#dc2626"/><circle cx="565.8" cy="113.9" r="3" fill="#dc2626"/><circle cx="580.4" cy="101.0" r="3" fill="#dc2626"/><circle cx="595.0" cy="133.5" r="3" fill="#dc2626"/><circle cx="609.6" cy="128.9" r="3" fill="#dc2626"/><circle cx="624.2" cy="108.2" r="3" fill="#dc2626"/><circle cx="638.8" cy="168.8" r="3" fill="#dc2626"/><circle cx="653.3" cy="218.4" r="3" fill="#dc2626"/><circle cx="667.9" cy="263.1" r="3" fill="#dc2626"/><circle cx="682.5" cy="266.8" r="3" fill="#dc2626"/><circle cx="697.1" cy="266.7" r="3" fill="#dc2626"/><circle cx="711.7" cy="260.8" r="3" fill="#dc2626"/><circle cx="726.2" cy="281.9" r="3" fill="#dc2626"/><circle cx="740.8" cy="272.7" r="3" fill="#dc2626"/><circle cx="755.4" cy="282.4" r="3" fill="#dc2626"/><circle cx="770.0" cy="288.4" r="3" fill="#dc2626"/>

  <!-- Trade markers -->
  <circle cx="128.3" cy="242.6" r="4" fill="#dc2626" opacity="0.8"/>
<circle cx="142.9" cy="208.3" r="4" fill="#dc2626" opacity="0.8"/>
<circle cx="142.9" cy="208.3" r="4" fill="#dc2626" opacity="0.8"/>
<circle cx="142.9" cy="208.3" r="4" fill="#dc2626" opacity="0.8"/>
<circle cx="172.1" cy="186.2" r="4" fill="#dc2626" opacity="0.8"/>
<circle cx="172.1" cy="186.2" r="4" fill="#16a34a" opacity="0.8"/>
<circle cx="172.1" cy="186.2" r="4" fill="#dc2626" opacity="0.8"/>
<circle cx="172.1" cy="186.2" r="4" fill="#dc2626" opacity="0.8"/>
<circle cx="172.1" cy="186.2" r="4" fill="#16a34a" opacity="0.8"/>
<circle cx="186.7" cy="184.5" r="4" fill="#16a34a" opacity="0.8"/>
<circle cx="186.7" cy="184.5" r="4" fill="#dc2626" opacity="0.8"/>
<circle cx="186.7" cy="184.5" r="4" fill="#dc2626" opacity="0.8"/>
<circle cx="186.7" cy="184.5" r="4" fill="#dc2626" opacity="0.8"/>
<circle cx="201.2" cy="192.5" r="4" fill="#dc2626" opacity="0.8"/>
<circle cx="201.2" cy="192.5" r="4" fill="#16a34a" opacity="0.8"/>
<circle cx="201.2" cy="192.5" r="4" fill="#dc2626" opacity="0.8"/>
<circle cx="201.2" cy="192.5" r="4" fill="#dc2626" opacity="0.8"/>
<circle cx="201.2" cy="192.5" r="4" fill="#dc2626" opacity="0.8"/>
<circle cx="215.8" cy="184.0" r="4" fill="#16a34a" opacity="0.8"/>
<circle cx="215.8" cy="184.0" r="4" fill="#dc2626" opacity="0.8"/>
<circle cx="215.8" cy="184.0" r="4" fill="#16a34a" opacity="0.8"/>
<circle cx="215.8" cy="184.0" r="4" fill="#dc2626" opacity="0.8"/>
<circle cx="215.8" cy="184.0" r="4" fill="#dc2626" opacity="0.8"/>
<circle cx="230.4" cy="167.5" r="4" fill="#16a34a" opacity="0.8"/>
<circle cx="230.4" cy="167.5" r="4" fill="#16a34a" opacity="0.8"/>
<circle cx="230.4" cy="167.5" r="4" fill="#16a34a" opacity="0.8"/>
<circle cx="347.1" cy="158.5" r="4" fill="#dc2626" opacity="0.8"/>
<circle cx="347.1" cy="158.5" r="4" fill="#dc2626" opacity="0.8"/>
<circle cx="347.1" cy="158.5" r="4" fill="#16a34a" opacity="0.8"/>
<circle cx="347.1" cy="158.5" r="4" fill="#16a34a" opacity="0.8"/>
<circle cx="347.1" cy="158.5" r="4" fill="#16a34a" opacity="0.8"/>
<circle cx="361.7" cy="169.8" r="4" fill="#16a34a" opacity="0.8"/>
<circle cx="361.7" cy="169.8" r="4" fill="#16a34a" opacity="0.8"/>
<circle cx="361.7" cy="169.8" r="4" fill="#dc2626" opacity="0.8"/>
<circle cx="361.7" cy="169.8" r="4" fill="#16a34a" opacity="0.8"/>
<circle cx="361.7" cy="169.8" r="4" fill="#dc2626" opacity="0.8"/>
<circle cx="361.7" cy="169.8" r="4" fill="#dc2626" opacity="0.8"/>
<circle cx="361.7" cy="169.8" r="4" fill="#dc2626" opacity="0.8"/>
<circle cx="376.2" cy="143.8" r="4" fill="#dc2626" opacity="0.8"/>
<circle cx="376.2" cy="143.8" r="4" fill="#16a34a" opacity="0.8"/>
<circle cx="376.2" cy="143.8" r="4" fill="#16a34a" opacity="0.8"/>
<circle cx="376.2" cy="143.8" r="4" fill="#dc2626" opacity="0.8"/>
<circle cx="376.2" cy="143.8" r="4" fill="#16a34a" opacity="0.8"/>
<circle cx="376.2" cy="143.8" r="4" fill="#16a34a" opacity="0.8"/>
<circle cx="390.8" cy="137.4" r="4" fill="#dc2626" opacity="0.8"/>
<circle cx="390.8" cy="137.4" r="4" fill="#16a34a" opacity="0.8"/>
<circle cx="390.8" cy="137.4" r="4" fill="#16a34a" opacity="0.8"/>
<circle cx="390.8" cy="137.4" r="4" fill="#16a34a" opacity="0.8"/>
<circle cx="390.8" cy="137.4" r="4" fill="#dc2626" opacity="0.8"/>
<circle cx="390.8" cy="137.4" r="4" fill="#dc2626" opacity="0.8"/>
<circle cx="390.8" cy="137.4" r="4" fill="#16a34a" opacity="0.8"/>
<circle cx="405.4" cy="187.7" r="4" fill="#16a34a" opacity="0.8"/>
<circle cx="405.4" cy="187.7" r="4" fill="#dc2626" opacity="0.8"/>
<circle cx="405.4" cy="187.7" r="4" fill="#dc2626" opacity="0.8"/>
<circle cx="405.4" cy="187.7" r="4" fill="#16a34a" opacity="0.8"/>
<circle cx="405.4" cy="187.7" r="4" fill="#dc2626" opacity="0.8"/>
<circle cx="405.4" cy="187.7" r="4" fill="#dc2626" opacity="0.8"/>
<circle cx="405.4" cy="187.7" r="4" fill="#dc2626" opacity="0.8"/>
<circle cx="405.4" cy="187.7" r="4" fill="#dc2626" opacity="0.8"/>
<circle cx="405.4" cy="187.7" r="4" fill="#dc2626" opacity="0.8"/>
<circle cx="420.0" cy="180.8" r="4" fill="#dc2626" opacity="0.8"/>
<circle cx="420.0" cy="180.8" r="4" fill="#16a34a" opacity="0.8"/>
<circle cx="420.0" cy="180.8" r="4" fill="#dc2626" opacity="0.8"/>
<circle cx="420.0" cy="180.8" r="4" fill="#16a34a" opacity="0.8"/>
<circle cx="420.0" cy="180.8" r="4" fill="#16a34a" opacity="0.8"/>
<circle cx="420.0" cy="180.8" r="4" fill="#16a34a" opacity="0.8"/>
<circle cx="420.0" cy="180.8" r="4" fill="#16a34a" opacity="0.8"/>
<circle cx="420.0" cy="180.8" r="4" fill="#16a34a" opacity="0.8"/>
<circle cx="420.0" cy="180.8" r="4" fill="#dc2626" opacity="0.8"/>
<circle cx="434.6" cy="181.5" r="4" fill="#16a34a" opacity="0.8"/>
<circle cx="434.6" cy="181.5" r="4" fill="#dc2626" opacity="0.8"/>
<circle cx="434.6" cy="181.5" r="4" fill="#dc2626" opacity="0.8"/>
<circle cx="434.6" cy="181.5" r="4" fill="#16a34a" opacity="0.8"/>
<circle cx="434.6" cy="181.5" r="4" fill="#16a34a" opacity="0.8"/>
<circle cx="434.6" cy="181.5" r="4" fill="#16a34a" opacity="0.8"/>
<circle cx="434.6" cy="181.5" r="4" fill="#dc2626" opacity="0.8"/>
<circle cx="449.2" cy="178.7" r="4" fill="#dc2626" opacity="0.8"/>
<circle cx="449.2" cy="178.7" r="4" fill="#dc2626" opacity="0.8"/>
<circle cx="449.2" cy="178.7" r="4" fill="#dc2626" opacity="0.8"/>
<circle cx="449.2" cy="178.7" r="4" fill="#16a34a" opacity="0.8"/>
<circle cx="449.2" cy="178.7" r="4" fill="#16a34a" opacity="0.8"/>
<circle cx="449.2" cy="178.7" r="4" fill="#dc2626" opacity="0.8"/>
<circle cx="463.8" cy="176.9" r="4" fill="#dc2626" opacity="0.8"/>
<circle cx="463.8" cy="176.9" r="4" fill="#dc2626" opacity="0.8"/>
<circle cx="463.8" cy="176.9" r="4" fill="#dc2626" opacity="0.8"/>
<circle cx="463.8" cy="176.9" r="4" fill="#dc2626" opacity="0.8"/>
<circle cx="463.8" cy="176.9" r="4" fill="#16a34a" opacity="0.8"/>
<circle cx="463.8" cy="176.9" r="4" fill="#dc2626" opacity="0.8"/>
<circle cx="463.8" cy="176.9" r="4" fill="#dc2626" opacity="0.8"/>
<circle cx="463.8" cy="176.9" r="4" fill="#dc2626" opacity="0.8"/>
<circle cx="463.8" cy="176.9" r="4" fill="#dc2626" opacity="0.8"/>
<circle cx="478.3" cy="154.3" r="4" fill="#dc2626" opacity="0.8"/>
<circle cx="478.3" cy="154.3" r="4" fill="#16a34a" opacity="0.8"/>
<circle cx="478.3" cy="154.3" r="4" fill="#dc2626" opacity="0.8"/>
<circle cx="478.3" cy="154.3" r="4" fill="#16a34a" opacity="0.8"/>
<circle cx="478.3" cy="154.3" r="4" fill="#dc2626" opacity="0.8"/>
<circle cx="478.3" cy="154.3" r="4" fill="#dc2626" opacity="0.8"/>
<circle cx="492.9" cy="180.3" r="4" fill="#dc2626" opacity="0.8"/>
<circle cx="492.9" cy="180.3" r="4" fill="#16a34a" opacity="0.8"/>
<circle cx="492.9" cy="180.3" r="4" fill="#dc2626" opacity="0.8"/>
<circle cx="492.9" cy="180.3" r="4" fill="#dc2626" opacity="0.8"/>
<circle cx="492.9" cy="180.3" r="4" fill="#dc2626" opacity="0.8"/>
<circle cx="492.9" cy="180.3" r="4" fill="#16a34a" opacity="0.8"/>
<circle cx="492.9" cy="180.3" r="4" fill="#dc2626" opacity="0.8"/>
<circle cx="492.9" cy="180.3" r="4" fill="#dc2626" opacity="0.8"/>
<circle cx="507.5" cy="148.8" r="4" fill="#dc2626" opacity="0.8"/>
<circle cx="507.5" cy="148.8" r="4" fill="#dc2626" opacity="0.8"/>
<circle cx="507.5" cy="148.8" r="4" fill="#16a34a" opacity="0.8"/>
<circle cx="507.5" cy="148.8" r="4" fill="#16a34a" opacity="0.8"/>
<circle cx="507.5" cy="148.8" r="4" fill="#dc2626" opacity="0.8"/>
<circle cx="522.1" cy="141.7" r="4" fill="#16a34a" opacity="0.8"/>
<circle cx="522.1" cy="141.7" r="4" fill="#dc2626" opacity="0.8"/>
<circle cx="522.1" cy="141.7" r="4" fill="#dc2626" opacity="0.8"/>
<circle cx="522.1" cy="141.7" r="4" fill="#dc2626" opacity="0.8"/>
<circle cx="522.1" cy="141.7" r="4" fill="#dc2626" opacity="0.8"/>
<circle cx="522.1" cy="141.7" r="4" fill="#16a34a" opacity="0.8"/>
<circle cx="522.1" cy="141.7" r="4" fill="#dc2626" opacity="0.8"/>
<circle cx="522.1" cy="141.7" r="4" fill="#dc2626" opacity="0.8"/>
<circle cx="536.7" cy="133.7" r="4" fill="#dc2626" opacity="0.8"/>
<circle cx="536.7" cy="133.7" r="4" fill="#dc2626" opacity="0.8"/>
<circle cx="536.7" cy="133.7" r="4" fill="#dc2626" opacity="0.8"/>
<circle cx="536.7" cy="133.7" r="4" fill="#dc2626" opacity="0.8"/>
<circle cx="536.7" cy="133.7" r="4" fill="#dc2626" opacity="0.8"/>
<circle cx="536.7" cy="133.7" r="4" fill="#dc2626" opacity="0.8"/>
<circle cx="536.7" cy="133.7" r="4" fill="#16a34a" opacity="0.8"/>
<circle cx="536.7" cy="133.7" r="4" fill="#16a34a" opacity="0.8"/>
<circle cx="536.7" cy="133.7" r="4" fill="#16a34a" opacity="0.8"/>
<circle cx="551.2" cy="135.2" r="4" fill="#16a34a" opacity="0.8"/>
<circle cx="551.2" cy="135.2" r="4" fill="#dc2626" opacity="0.8"/>
<circle cx="551.2" cy="135.2" r="4" fill="#16a34a" opacity="0.8"/>
<circle cx="551.2" cy="135.2" r="4" fill="#16a34a" opacity="0.8"/>
<circle cx="551.2" cy="135.2" r="4" fill="#16a34a" opacity="0.8"/>
<circle cx="551.2" cy="135.2" r="4" fill="#dc2626" opacity="0.8"/>
<circle cx="551.2" cy="135.2" r="4" fill="#16a34a" opacity="0.8"/>
<circle cx="551.2" cy="135.2" r="4" fill="#dc2626" opacity="0.8"/>
<circle cx="565.8" cy="113.9" r="4" fill="#dc2626" opacity="0.8"/>
<circle cx="565.8" cy="113.9" r="4" fill="#16a34a" opacity="0.8"/>
<circle cx="565.8" cy="113.9" r="4" fill="#16a34a" opacity="0.8"/>
<circle cx="565.8" cy="113.9" r="4" fill="#16a34a" opacity="0.8"/>
<circle cx="565.8" cy="113.9" r="4" fill="#16a34a" opacity="0.8"/>
<circle cx="565.8" cy="113.9" r="4" fill="#16a34a" opacity="0.8"/>


  <!-- Y-axis labels -->
  <text x="62" y="320.0" fill="#c9d1d9" font-size="10" text-anchor="end" dominant-baseline="middle">$8,078</text><text x="62" y="268.0" fill="#c9d1d9" font-size="10" text-anchor="end" dominant-baseline="middle">$8,777</text><text x="62" y="216.0" fill="#c9d1d9" font-size="10" text-anchor="end" dominant-baseline="middle">$9,477</text><text x="62" y="164.0" fill="#c9d1d9" font-size="10" text-anchor="end" dominant-baseline="middle">$10,176</text><text x="62" y="112.0" fill="#c9d1d9" font-size="10" text-anchor="end" dominant-baseline="middle">$10,875</text><text x="62" y="60.0" fill="#c9d1d9" font-size="10" text-anchor="end" dominant-baseline="middle">$11,574</text>

  <!-- X-axis labels -->
  <text x="70.0" y="340" fill="#c9d1d9" font-size="10" text-anchor="middle">2026-05-13</text><text x="420.0" y="340" fill="#c9d1d9" font-size="10" text-anchor="middle">2026-06-16</text><text x="770.0" y="340" fill="#c9d1d9" font-size="10" text-anchor="middle">2026-07-20</text>

  <!-- Legend -->
  <circle cx="650" cy="380" r="4" fill="#16a34a"/>
  <text x="658" y="384" fill="#c9d1d9" font-size="9">Win</text>
  <circle cx="690" cy="380" r="4" fill="#dc2626"/>
  <text x="698" y="384" fill="#c9d1d9" font-size="9">Loss</text>
  <line x1="730" y1="380" x2="745" y2="380" stroke="#c9d1d9" stroke-width="0.5" stroke-dasharray="4,4" opacity="0.5"/>
  <text x="750" y="384" fill="#c9d1d9" font-size="9">$10K baseline</text>
</svg>