<svg xmlns="http://www.w3.org/2000/svg" viewBox="0 0 800 400" width="800" height="400">
  <rect width="800" height="400" fill="#0d1117" rx="8"/>

  <!-- Title -->
  <text x="70" y="30" fill="#c9d1d9" font-family="system-ui, -apple-system, sans-serif" font-size="16" font-weight="bold">Claude's Paper Trading — Equity Curve</text>
  <text x="70" y="48" fill="#58a6ff" font-family="system-ui, sans-serif" font-size="12">
    $8,307.94 (-16.92%) | Win Rate: 59/141 (42%) | Realized: $+214.43
  </text>

  <!-- Grid lines -->
  <line x1="70" y1="320.0" x2="770" y2="320.0" stroke="#21262d" stroke-width="0.5"/><line x1="70" y1="268.0" x2="770" y2="268.0" stroke="#21262d" stroke-width="0.5"/><line x1="70" y1="216.0" x2="770" y2="216.0" stroke="#21262d" stroke-width="0.5"/><line x1="70" y1="164.0" x2="770" y2="164.0" stroke="#21262d" stroke-width="0.5"/><line x1="70" y1="112.0" x2="770" y2="112.0" stroke="#21262d" stroke-width="0.5"/><line x1="70" y1="60.0" x2="770" y2="60.0" stroke="#21262d" stroke-width="0.5"/>

  <!-- Baseline (starting capital) -->
  <line x1="70" y1="171.2" x2="770" y2="171.2" stroke="#c9d1d9" stroke-width="0.5" stroke-dasharray="4,4" opacity="0.5"/>
  <text x="775" y="171.2" fill="#c9d1d9" font-size="9" opacity="0.6" dominant-baseline="middle">$10K</text>

  <!-- Fill under curve -->
  <path d="M 70.0 180.2 L 84.3 165.0 L 98.6 175.3 L 112.9 228.1 L 127.1 233.4 L 141.4 200.8 L 155.7 191.9 L 170.0 179.8 L 184.3 178.2 L 198.6 185.8 L 212.9 177.7 L 227.1 162.1 L 241.4 163.3 L 255.7 187.5 L 270.0 171.2 L 284.3 171.2 L 298.6 171.2 L 312.9 171.2 L 327.1 167.0 L 341.4 153.5 L 355.7 164.2 L 370.0 139.6 L 384.3 133.4 L 398.6 181.3 L 412.9 174.7 L 427.1 175.4 L 441.4 172.7 L 455.7 171.0 L 470.0 149.6 L 484.3 174.2 L 498.6 144.4 L 512.9 137.6 L 527.1 130.0 L 541.4 131.4 L 555.7 111.2 L 570.0 98.9 L 584.3 129.8 L 598.6 125.5 L 612.9 105.8 L 627.1 163.3 L 641.4 210.4 L 655.7 252.8 L 670.0 256.4 L 684.3 256.3 L 698.6 250.6 L 712.9 270.7 L 727.1 262.0 L 741.4 271.2 L 755.7 276.9 L 770.0 290.7 L 770.0 320.0 L 70.0 320.0 Z" fill="#dc2626" opacity="0.1"/>

  <!-- Equity line -->
  <path d="M 70.0 180.2 L 84.3 165.0 L 98.6 175.3 L 112.9 228.1 L 127.1 233.4 L 141.4 200.8 L 155.7 191.9 L 170.0 179.8 L 184.3 178.2 L 198.6 185.8 L 212.9 177.7 L 227.1 162.1 L 241.4 163.3 L 255.7 187.5 L 270.0 171.2 L 284.3 171.2 L 298.6 171.2 L 312.9 171.2 L 327.1 167.0 L 341.4 153.5 L 355.7 164.2 L 370.0 139.6 L 384.3 133.4 L 398.6 181.3 L 412.9 174.7 L 427.1 175.4 L 441.4 172.7 L 455.7 171.0 L 470.0 149.6 L 484.3 174.2 L 498.6 144.4 L 512.9 137.6 L 527.1 130.0 L 541.4 131.4 L 555.7 111.2 L 570.0 98.9 L 584.3 129.8 L 598.6 125.5 L 612.9 105.8 L 627.1 163.3 L 641.4 210.4 L 655.7 252.8 L 670.0 256.4 L 684.3 256.3 L 698.6 250.6 L 712.9 270.7 L 727.1 262.0 L 741.4 271.2 L 755.7 276.9 L 770.0 290.7" fill="none" stroke="#dc2626" stroke-width="2.5" stroke-linecap="round" stroke-linejoin="round"/>

  <!-- Data points -->
  <circle cx="70.0" cy="180.2" r="3" fill="#dc2626"/><circle cx="84.3" cy="165.0" r="3" fill="#dc2626"/><circle cx="98.6" cy="175.3" r="3" fill="#dc2626"/><circle cx="112.9" cy="228.1" r="3" fill="#dc2626"/><circle cx="127.1" cy="233.4" r="3" fill="#dc2626"/><circle cx="141.4" cy="200.8" r="3" fill="#dc2626"/><circle cx="155.7" cy="191.9" r="3" fill="#dc2626"/><circle cx="170.0" cy="179.8" r="3" fill="#dc2626"/><circle cx="184.3" cy="178.2" r="3" fill="#dc2626"/><circle cx="198.6" cy="185.8" r="3" fill="#dc2626"/><circle cx="212.9" cy="177.7" r="3" fill="#dc2626"/><circle cx="227.1" cy="162.1" r="3" fill="#dc2626"/><circle cx="241.4" cy="163.3" r="3" fill="#dc2626"/><circle cx="255.7" cy="187.5" r="3" fill="#dc2626"/><circle cx="270.0" cy="171.2" r="3" fill="#dc2626"/><circle cx="284.3" cy="171.2" r="3" fill="#dc2626"/><circle cx="298.6" cy="171.2" r="3" fill="#dc2626"/><circle cx="312.9" cy="171.2" r="3" fill="#dc2626"/><circle cx="327.1" cy="167.0" r="3" fill="#dc2626"/><circle cx="341.4" cy="153.5" r="3" fill="#dc2626"/><circle cx="355.7" cy="164.2" r="3" fill="#dc2626"/><circle cx="370.0" cy="139.6" r="3" fill="#dc2626"/><circle cx="384.3" cy="133.4" r="3" fill="#dc2626"/><circle cx="398.6" cy="181.3" r="3" fill="#dc2626"/><circle cx="412.9" cy="174.7" r="3" fill="#dc2626"/><circle cx="427.1" cy="175.4" r="3" fill="#dc2626"/><circle cx="441.4" cy="172.7" r="3" fill="#dc2626"/><circle cx="455.7" cy="171.0" r="3" fill="#dc2626"/><circle cx="470.0" cy="149.6" r="3" fill="#dc2626"/><circle cx="484.3" cy="174.2" r="3" fill="#dc2626"/><circle cx="498.6" cy="144.4" r="3" fill="#dc2626"/><circle cx="512.9" cy="137.6" r="3" fill="#dc2626"/><circle cx="527.1" cy="130.0" r="3" fill="#dc2626"/><circle cx="541.4" cy="131.4" r="3" fill="#dc2626"/><circle cx="555.7" cy="111.2" r="3" fill="#dc2626"/><circle cx="570.0" cy="98.9" r="3" fill="#dc2626"/><circle cx="584.3" cy="129.8" r="3" fill="#dc2626"/><circle cx="598.6" cy="125.5" r="3" fill="#dc2626"/><circle cx="612.9" cy="105.8" r="3" fill="#dc2626"/><circle cx="627.1" cy="163.3" r="3" fill="#dc2626"/><circle cx="641.4" cy="210.4" r="3" fill="#dc2626"/><circle cx="655.7" cy="252.8" r="3" fill="#dc2626"/><circle cx="670.0" cy="256.4" r="3" fill="#dc2626"/><circle cx="684.3" cy="256.3" r="3" fill="#dc2626"/><circle cx="698.6" cy="250.6" r="3" fill="#dc2626"/><circle cx="712.9" cy="270.7" r="3" fill="#dc2626"/><circle cx="727.1" cy="262.0" r="3" fill="#dc2626"/><circle cx="741.4" cy="271.2" r="3" fill="#dc2626"/><circle cx="755.7" cy="276.9" r="3" fill="#dc2626"/><circle cx="770.0" cy="290.7" r="3" fill="#dc2626"/>

  <!-- Trade markers -->
  <circle cx="127.1" cy="233.4" r="4" fill="#dc2626" opacity="0.8"/>
<circle cx="141.4" cy="200.8" r="4" fill="#dc2626" opacity="0.8"/>
<circle cx="141.4" cy="200.8" r="4" fill="#dc2626" opacity="0.8"/>
<circle cx="141.4" cy="200.8" r="4" fill="#dc2626" opacity="0.8"/>
<circle cx="170.0" cy="179.8" r="4" fill="#dc2626" opacity="0.8"/>
<circle cx="170.0" cy="179.8" r="4" fill="#16a34a" opacity="0.8"/>
<circle cx="170.0" cy="179.8" r="4" fill="#dc2626" opacity="0.8"/>
<circle cx="170.0" cy="179.8" r="4" fill="#dc2626" opacity="0.8"/>
<circle cx="170.0" cy="179.8" r="4" fill="#16a34a" opacity="0.8"/>
<circle cx="184.3" cy="178.2" r="4" fill="#16a34a" opacity="0.8"/>
<circle cx="184.3" cy="178.2" r="4" fill="#dc2626" opacity="0.8"/>
<circle cx="184.3" cy="178.2" r="4" fill="#dc2626" opacity="0.8"/>
<circle cx="184.3" cy="178.2" r="4" fill="#dc2626" opacity="0.8"/>
<circle cx="198.6" cy="185.8" r="4" fill="#dc2626" opacity="0.8"/>
<circle cx="198.6" cy="185.8" r="4" fill="#16a34a" opacity="0.8"/>
<circle cx="198.6" cy="185.8" r="4" fill="#dc2626" opacity="0.8"/>
<circle cx="198.6" cy="185.8" r="4" fill="#dc2626" opacity="0.8"/>
<circle cx="198.6" cy="185.8" r="4" fill="#dc2626" opacity="0.8"/>
<circle cx="212.9" cy="177.7" r="4" fill="#16a34a" opacity="0.8"/>
<circle cx="212.9" cy="177.7" r="4" fill="#dc2626" opacity="0.8"/>
<circle cx="212.9" cy="177.7" r="4" fill="#16a34a" opacity="0.8"/>
<circle cx="212.9" cy="177.7" r="4" fill="#dc2626" opacity="0.8"/>
<circle cx="212.9" cy="177.7" r="4" fill="#dc2626" opacity="0.8"/>
<circle cx="227.1" cy="162.1" r="4" fill="#16a34a" opacity="0.8"/>
<circle cx="227.1" cy="162.1" r="4" fill="#16a34a" opacity="0.8"/>
<circle cx="227.1" cy="162.1" r="4" fill="#16a34a" opacity="0.8"/>
<circle cx="341.4" cy="153.5" r="4" fill="#dc2626" opacity="0.8"/>
<circle cx="341.4" cy="153.5" r="4" fill="#dc2626" opacity="0.8"/>
<circle cx="341.4" cy="153.5" r="4" fill="#16a34a" opacity="0.8"/>
<circle cx="341.4" cy="153.5" r="4" fill="#16a34a" opacity="0.8"/>
<circle cx="341.4" cy="153.5" r="4" fill="#16a34a" opacity="0.8"/>
<circle cx="355.7" cy="164.2" r="4" fill="#16a34a" opacity="0.8"/>
<circle cx="355.7" cy="164.2" r="4" fill="#16a34a" opacity="0.8"/>
<circle cx="355.7" cy="164.2" r="4" fill="#dc2626" opacity="0.8"/>
<circle cx="355.7" cy="164.2" r="4" fill="#16a34a" opacity="0.8"/>
<circle cx="355.7" cy="164.2" r="4" fill="#dc2626" opacity="0.8"/>
<circle cx="355.7" cy="164.2" r="4" fill="#dc2626" opacity="0.8"/>
<circle cx="355.7" cy="164.2" r="4" fill="#dc2626" opacity="0.8"/>
<circle cx="370.0" cy="139.6" r="4" fill="#dc2626" opacity="0.8"/>
<circle cx="370.0" cy="139.6" r="4" fill="#16a34a" opacity="0.8"/>
<circle cx="370.0" cy="139.6" r="4" fill="#16a34a" opacity="0.8"/>
<circle cx="370.0" cy="139.6" r="4" fill="#dc2626" opacity="0.8"/>
<circle cx="370.0" cy="139.6" r="4" fill="#16a34a" opacity="0.8"/>
<circle cx="370.0" cy="139.6" r="4" fill="#16a34a" opacity="0.8"/>
<circle cx="384.3" cy="133.4" r="4" fill="#dc2626" opacity="0.8"/>
<circle cx="384.3" cy="133.4" r="4" fill="#16a34a" opacity="0.8"/>
<circle cx="384.3" cy="133.4" r="4" fill="#16a34a" opacity="0.8"/>
<circle cx="384.3" cy="133.4" r="4" fill="#16a34a" opacity="0.8"/>
<circle cx="384.3" cy="133.4" r="4" fill="#dc2626" opacity="0.8"/>
<circle cx="384.3" cy="133.4" r="4" fill="#dc2626" opacity="0.8"/>
<circle cx="384.3" cy="133.4" r="4" fill="#16a34a" opacity="0.8"/>
<circle cx="398.6" cy="181.3" r="4" fill="#16a34a" opacity="0.8"/>
<circle cx="398.6" cy="181.3" r="4" fill="#dc2626" opacity="0.8"/>
<circle cx="398.6" cy="181.3" r="4" fill="#dc2626" opacity="0.8"/>
<circle cx="398.6" cy="181.3" r="4" fill="#16a34a" opacity="0.8"/>
<circle cx="398.6" cy="181.3" r="4" fill="#dc2626" opacity="0.8"/>
<circle cx="398.6" cy="181.3" r="4" fill="#dc2626" opacity="0.8"/>
<circle cx="398.6" cy="181.3" r="4" fill="#dc2626" opacity="0.8"/>
<circle cx="398.6" cy="181.3" r="4" fill="#dc2626" opacity="0.8"/>
<circle cx="398.6" cy="181.3" r="4" fill="#dc2626" opacity="0.8"/>
<circle cx="412.9" cy="174.7" r="4" fill="#dc2626" opacity="0.8"/>
<circle cx="412.9" cy="174.7" r="4" fill="#16a34a" opacity="0.8"/>
<circle cx="412.9" cy="174.7" r="4" fill="#dc2626" opacity="0.8"/>
<circle cx="412.9" cy="174.7" r="4" fill="#16a34a" opacity="0.8"/>
<circle cx="412.9" cy="174.7" r="4" fill="#16a34a" opacity="0.8"/>
<circle cx="412.9" cy="174.7" r="4" fill="#16a34a" opacity="0.8"/>
<circle cx="412.9" cy="174.7" r="4" fill="#16a34a" opacity="0.8"/>
<circle cx="412.9" cy="174.7" r="4" fill="#16a34a" opacity="0.8"/>
<circle cx="412.9" cy="174.7" r="4" fill="#dc2626" opacity="0.8"/>
<circle cx="427.1" cy="175.4" r="4" fill="#16a34a" opacity="0.8"/>
<circle cx="427.1" cy="175.4" r="4" fill="#dc2626" opacity="0.8"/>
<circle cx="427.1" cy="175.4" r="4" fill="#dc2626" opacity="0.8"/>
<circle cx="427.1" cy="175.4" r="4" fill="#16a34a" opacity="0.8"/>
<circle cx="427.1" cy="175.4" r="4" fill="#16a34a" opacity="0.8"/>
<circle cx="427.1" cy="175.4" r="4" fill="#16a34a" opacity="0.8"/>
<circle cx="427.1" cy="175.4" r="4" fill="#dc2626" opacity="0.8"/>
<circle cx="441.4" cy="172.7" r="4" fill="#dc2626" opacity="0.8"/>
<circle cx="441.4" cy="172.7" r="4" fill="#dc2626" opacity="0.8"/>
<circle cx="441.4" cy="172.7" r="4" fill="#dc2626" opacity="0.8"/>
<circle cx="441.4" cy="172.7" r="4" fill="#16a34a" opacity="0.8"/>
<circle cx="441.4" cy="172.7" r="4" fill="#16a34a" opacity="0.8"/>
<circle cx="441.4" cy="172.7" r="4" fill="#dc2626" opacity="0.8"/>
<circle cx="455.7" cy="171.0" r="4" fill="#dc2626" opacity="0.8"/>
<circle cx="455.7" cy="171.0" r="4" fill="#dc2626" opacity="0.8"/>
<circle cx="455.7" cy="171.0" r="4" fill="#dc2626" opacity="0.8"/>
<circle cx="455.7" cy="171.0" r="4" fill="#dc2626" opacity="0.8"/>
<circle cx="455.7" cy="171.0" r="4" fill="#16a34a" opacity="0.8"/>
<circle cx="455.7" cy="171.0" r="4" fill="#dc2626" opacity="0.8"/>
<circle cx="455.7" cy="171.0" r="4" fill="#dc2626" opacity="0.8"/>
<circle cx="455.7" cy="171.0" r="4" fill="#dc2626" opacity="0.8"/>
<circle cx="455.7" cy="171.0" r="4" fill="#dc2626" opacity="0.8"/>
<circle cx="470.0" cy="149.6" r="4" fill="#dc2626" opacity="0.8"/>
<circle cx="470.0" cy="149.6" r="4" fill="#16a34a" opacity="0.8"/>
<circle cx="470.0" cy="149.6" r="4" fill="#dc2626" opacity="0.8"/>
<circle cx="470.0" cy="149.6" r="4" fill="#16a34a" opacity="0.8"/>
<circle cx="470.0" cy="149.6" r="4" fill="#dc2626" opacity="0.8"/>
<circle cx="470.0" cy="149.6" r="4" fill="#dc2626" opacity="0.8"/>
<circle cx="484.3" cy="174.2" r="4" fill="#dc2626" opacity="0.8"/>
<circle cx="484.3" cy="174.2" r="4" fill="#16a34a" opacity="0.8"/>
<circle cx="484.3" cy="174.2" r="4" fill="#dc2626" opacity="0.8"/>
<circle cx="484.3" cy="174.2" r="4" fill="#dc2626" opacity="0.8"/>
<circle cx="484.3" cy="174.2" r="4" fill="#dc2626" opacity="0.8"/>
<circle cx="484.3" cy="174.2" r="4" fill="#16a34a" opacity="0.8"/>
<circle cx="484.3" cy="174.2" r="4" fill="#dc2626" opacity="0.8"/>
<circle cx="484.3" cy="174.2" r="4" fill="#dc2626" opacity="0.8"/>
<circle cx="498.6" cy="144.4" r="4" fill="#dc2626" opacity="0.8"/>
<circle cx="498.6" cy="144.4" r="4" fill="#dc2626" opacity="0.8"/>
<circle cx="498.6" cy="144.4" r="4" fill="#16a34a" opacity="0.8"/>
<circle cx="498.6" cy="144.4" r="4" fill="#16a34a" opacity="0.8"/>
<circle cx="498.6" cy="144.4" r="4" fill="#dc2626" opacity="0.8"/>
<circle cx="512.9" cy="137.6" r="4" fill="#16a34a" opacity="0.8"/>
<circle cx="512.9" cy="137.6" r="4" fill="#dc2626" opacity="0.8"/>
<circle cx="512.9" cy="137.6" r="4" fill="#dc2626" opacity="0.8"/>
<circle cx="512.9" cy="137.6" r="4" fill="#dc2626" opacity="0.8"/>
<circle cx="512.9" cy="137.6" r="4" fill="#dc2626" opacity="0.8"/>
<circle cx="512.9" cy="137.6" r="4" fill="#16a34a" opacity="0.8"/>
<circle cx="512.9" cy="137.6" r="4" fill="#dc2626" opacity="0.8"/>
<circle cx="512.9" cy="137.6" r="4" fill="#dc2626" opacity="0.8"/>
<circle cx="527.1" cy="130.0" r="4" fill="#dc2626" opacity="0.8"/>
<circle cx="527.1" cy="130.0" r="4" fill="#dc2626" opacity="0.8"/>
<circle cx="527.1" cy="130.0" r="4" fill="#dc2626" opacity="0.8"/>
<circle cx="527.1" cy="130.0" r="4" fill="#dc2626" opacity="0.8"/>
<circle cx="527.1" cy="130.0" r="4" fill="#dc2626" opacity="0.8"/>
<circle cx="527.1" cy="130.0" r="4" fill="#dc2626" opacity="0.8"/>
<circle cx="527.1" cy="130.0" r="4" fill="#16a34a" opacity="0.8"/>
<circle cx="527.1" cy="130.0" r="4" fill="#16a34a" opacity="0.8"/>
<circle cx="527.1" cy="130.0" r="4" fill="#16a34a" opacity="0.8"/>
<circle cx="541.4" cy="131.4" r="4" fill="#16a34a" opacity="0.8"/>
<circle cx="541.4" cy="131.4" r="4" fill="#dc2626" opacity="0.8"/>
<circle cx="541.4" cy="131.4" r="4" fill="#16a34a" opacity="0.8"/>
<circle cx="541.4" cy="131.4" r="4" fill="#16a34a" opacity="0.8"/>
<circle cx="541.4" cy="131.4" r="4" fill="#16a34a" opacity="0.8"/>
<circle cx="541.4" cy="131.4" r="4" fill="#dc2626" opacity="0.8"/>
<circle cx="541.4" cy="131.4" r="4" fill="#16a34a" opacity="0.8"/>
<circle cx="541.4" cy="131.4" r="4" fill="#dc2626" opacity="0.8"/>
<circle cx="555.7" cy="111.2" r="4" fill="#dc2626" opacity="0.8"/>
<circle cx="555.7" cy="111.2" r="4" fill="#16a34a" opacity="0.8"/>
<circle cx="555.7" cy="111.2" r="4" fill="#16a34a" opacity="0.8"/>
<circle cx="555.7" cy="111.2" r="4" fill="#16a34a" opacity="0.8"/>
<circle cx="555.7" cy="111.2" r="4" fill="#16a34a" opacity="0.8"/>
<circle cx="555.7" cy="111.2" r="4" fill="#16a34a" opacity="0.8"/>


  <!-- Y-axis labels -->
  <text x="62" y="320.0" fill="#c9d1d9" font-size="10" text-anchor="end" dominant-baseline="middle">$7,893</text><text x="62" y="268.0" fill="#c9d1d9" font-size="10" text-anchor="end" dominant-baseline="middle">$8,629</text><text x="62" y="216.0" fill="#c9d1d9" font-size="10" text-anchor="end" dominant-baseline="middle">$9,365</text><text x="62" y="164.0" fill="#c9d1d9" font-size="10" text-anchor="end" dominant-baseline="middle">$10,101</text><text x="62" y="112.0" fill="#c9d1d9" font-size="10" text-anchor="end" dominant-baseline="middle">$10,838</text><text x="62" y="60.0" fill="#c9d1d9" font-size="10" text-anchor="end" dominant-baseline="middle">$11,574</text>

  <!-- X-axis labels -->
  <text x="70.0" y="340" fill="#c9d1d9" font-size="10" text-anchor="middle">2026-05-13</text><text x="427.1" y="340" fill="#c9d1d9" font-size="10" text-anchor="middle">2026-06-17</text><text x="770.0" y="340" fill="#c9d1d9" font-size="10" text-anchor="middle">2026-07-21</text>

  <!-- Legend -->
  <circle cx="650" cy="380" r="4" fill="#16a34a"/>
  <text x="658" y="384" fill="#c9d1d9" font-size="9">Win</text>
  <circle cx="690" cy="380" r="4" fill="#dc2626"/>
  <text x="698" y="384" fill="#c9d1d9" font-size="9">Loss</text>
  <line x1="730" y1="380" x2="745" y2="380" stroke="#c9d1d9" stroke-width="0.5" stroke-dasharray="4,4" opacity="0.5"/>
  <text x="750" y="384" fill="#c9d1d9" font-size="9">$10K baseline</text>
</svg>