<svg xmlns="http://www.w3.org/2000/svg" width="800" height="350" style="font-family:-apple-system,Arial,sans-serif;">
<rect width="800" height="350" fill="#ffffff"/>
<line x1="70" y1="40.0" x2="770" y2="40.0" stroke="#f0f0f0" stroke-width="1"/>
<text x="62" y="44.0" text-anchor="end" fill="#666" font-size="11">+15.2%</text>
<line x1="70" y1="92.0" x2="770" y2="92.0" stroke="#f0f0f0" stroke-width="1"/>
<text x="62" y="96.0" text-anchor="end" fill="#666" font-size="11">+3.2%</text>
<line x1="70" y1="144.0" x2="770" y2="144.0" stroke="#f0f0f0" stroke-width="1"/>
<text x="62" y="148.0" text-anchor="end" fill="#666" font-size="11">-8.7%</text>
<line x1="70" y1="196.0" x2="770" y2="196.0" stroke="#f0f0f0" stroke-width="1"/>
<text x="62" y="200.0" text-anchor="end" fill="#666" font-size="11">-20.7%</text>
<line x1="70" y1="248.0" x2="770" y2="248.0" stroke="#f0f0f0" stroke-width="1"/>
<text x="62" y="252.0" text-anchor="end" fill="#666" font-size="11">-32.7%</text>
<line x1="70" y1="300.0" x2="770" y2="300.0" stroke="#f0f0f0" stroke-width="1"/>
<text x="62" y="304.0" text-anchor="end" fill="#666" font-size="11">-44.6%</text>
<line x1="70" y1="106.10696652107123" x2="770" y2="106.10696652107123" stroke="#ddd" stroke-width="1.5" stroke-dasharray="4,4"/>
<text x="70.0" y="335" text-anchor="middle" fill="#666" font-size="11">05-13</text>
<text x="184.1304347826087" y="335" text-anchor="middle" fill="#666" font-size="11">06-03</text>
<text x="298.2608695652174" y="335" text-anchor="middle" fill="#666" font-size="11">06-24</text>
<text x="412.39130434782606" y="335" text-anchor="middle" fill="#666" font-size="11">07-15</text>
<text x="526.5217391304348" y="335" text-anchor="middle" fill="#666" font-size="11">08-05</text>
<text x="640.6521739130435" y="335" text-anchor="middle" fill="#666" font-size="11">08-28</text>
<text x="754.7826086956521" y="335" text-anchor="middle" fill="#666" font-size="11">09-23</text>
<path d="M 70.0,111.65831063836046 L 77.6086956521739,102.33234799047543 L 85.21739130434783,108.66929246500158 L 92.82608695652173,141.1274488176554 L 100.43478260869566,144.38021666847155 L 108.04347826086956,124.33219958741282 L 115.65217391304347,118.87905551477817 L 123.26086956521739,111.41498309408351 L 130.8695652173913,110.46991629265085 L 138.47826086956522,115.11138919973317 L 146.08695652173913,110.13664445968587 L 153.69565217391306,100.5256409742193 L 161.30434782608694,101.29299176563543 L 168.91304347826087,116.17116755775356 L 176.52173913043478,106.10696652107123 L 184.1304347826087,106.10696652107123 L 191.73913043478262,106.10696652107123 L 199.34782608695653,106.10696652107123 L 206.95652173913044,103.56593173726512 L 214.56521739130434,95.27193858519738 L 222.17391304347825,101.83613360553929 L 229.7826086956522,86.68334529916586 L 237.3913043478261,82.9065542012105 L 245.0,112.33702068150424 L 252.6086956521739,108.30647371594586 L 260.2173913043478,108.69405973290131 L 267.82608695652175,107.08331829248235 L 275.4347826086956,106.01267709766392 L 283.04347826086956,92.82128260355125 L 290.6521739130435,107.98363020630703 L 298.2608695652174,89.61457318075898 L 305.8695652173913,85.47452882027588 L 313.47826086956525,80.78178332350666 L 321.0869565217391,81.649506726937 L 328.69565217391306,69.21068956619516 L 336.30434782608694,61.666666666666686 L 343.9130434782609,80.63709033735628 L 351.5217391304348,77.99046877987283 L 359.1304347826087,65.89665531583782 L 366.7391304347826,101.28951565786008 L 374.3478260869565,130.24158280556662 L 381.95652173913044,156.34889025259272 L 389.5652173913044,158.52102309873618 L 397.17391304347825,158.4866965344542 L 404.7826086956522,154.99842238185585 L 412.39130434782606,167.3316527689204 L 420.0,161.9723636062212 L 427.60869565217394,167.63059803760348 L 435.2173913043478,171.13234210783156 L 442.82608695652175,176.29175507344615 L 450.4347826086956,174.2100010294627 L 458.04347826086956,174.82005794404267 L 465.6521739130435,184.10821791987036 L 473.2608695652174,169.3269386319911 L 480.8695652173913,150.08581306829345 L 488.47826086956525,127.95734548366701 L 496.0869565217391,134.48156526459198 L 503.69565217391306,185.2892255365573 L 511.30434782608694,158.08694414028506 L 518.9130434782609,160.2925345237666 L 526.5217391304348,170.93420396463463 L 534.1304347826087,198.00395875197034 L 541.7391304347826,184.56532609233344 L 549.3478260869565,171.28746341730806 L 556.9565217391305,182.36538438398696 L 564.5652173913044,191.22424504955458 L 572.1739130434783,194.63474129067882 L 579.7826086956522,187.13981841347766 L 587.3913043478261,185.47736986989997 L 595.0,162.6215267332742 L 602.6086956521739,183.51858313847077 L 610.2173913043479,179.36724142771772 L 617.8260869565217,188.97389977846495 L 625.4347826086956,211.37133120221188 L 633.0434782608696,209.99261995579997 L 640.6521739130435,231.7856431401018 L 648.2608695652174,240.08441594036069 L 655.8695652173913,243.2589713662307 L 663.4782608695652,244.48429935705371 L 671.0869565217391,251.59598135201873 L 678.695652173913,248.80944645657604 L 686.304347826087,257.59574337233255 L 693.9130434782609,254.07618424975564 L 701.5217391304348,270.73934138453376 L 709.1304347826087,271.3168097887195 L 716.7391304347826,271.71134802122566 L 724.3478260869565,272.0202870997629 L 731.9565217391305,278.3333333333333 L 739.5652173913044,249.45513347585373 L 747.1739130434783,230.86099847184954 L 754.7826086956521,232.65206300311647 L 762.3913043478261,238.930348158933 L 770.0,243.36064751866067" fill="none" stroke="#3b82f6" stroke-width="2.5" stroke-linecap="round"/>
<path d="M 191.73913043478262,123.29805752423582 L 199.34782608695653,126.257094268032 L 206.95652173913044,125.18167342502238 L 214.56521739130434,129.79881357767698 L 222.17391304347825,133.1810664431262" fill="none" stroke="#f97316" stroke-width="2.5" stroke-linecap="round"/>
<rect x="80" y="45" width="12" height="3" fill="#3b82f6"/>
<text x="96" y="49" fill="#333" font-size="12">Strategy A (Claude)</text>
<rect x="80" y="61" width="12" height="3" fill="#f97316"/>
<text x="96" y="65" fill="#333" font-size="12">Strategy B (TradingAgents)</text>
<text x="400.0" y="20" text-anchor="middle" fill="#1a1a1a" font-size="14" font-weight="600">AI Trading Strategies — $10K Each</text>
<text x="765" y="55" text-anchor="end" fill="#f97316" font-size="11" font-weight="600">$9,377 (-6.2%)</text>
<text x="765" y="70" text-anchor="end" fill="#3b82f6" font-size="11" font-weight="600">$6,841 (-31.6%)</text>
</svg>