<svg xmlns="http://www.w3.org/2000/svg" width="800" height="350" style="font-family:-apple-system,Arial,sans-serif;">
<rect width="800" height="350" fill="#ffffff"/>
<line x1="70" y1="40.0" x2="770" y2="40.0" stroke="#f0f0f0" stroke-width="1"/>
<text x="62" y="44.0" text-anchor="end" fill="#666" font-size="11">+12.4%</text>
<line x1="70" y1="92.0" x2="770" y2="92.0" stroke="#f0f0f0" stroke-width="1"/>
<text x="62" y="96.0" text-anchor="end" fill="#666" font-size="11">+7.2%</text>
<line x1="70" y1="144.0" x2="770" y2="144.0" stroke="#f0f0f0" stroke-width="1"/>
<text x="62" y="148.0" text-anchor="end" fill="#666" font-size="11">+1.9%</text>
<line x1="70" y1="196.0" x2="770" y2="196.0" stroke="#f0f0f0" stroke-width="1"/>
<text x="62" y="200.0" text-anchor="end" fill="#666" font-size="11">-3.3%</text>
<line x1="70" y1="248.0" x2="770" y2="248.0" stroke="#f0f0f0" stroke-width="1"/>
<text x="62" y="252.0" text-anchor="end" fill="#666" font-size="11">-8.5%</text>
<line x1="70" y1="300.0" x2="770" y2="300.0" stroke="#f0f0f0" stroke-width="1"/>
<text x="62" y="304.0" text-anchor="end" fill="#666" font-size="11">-13.7%</text>
<line x1="70" y1="163.36190860807204" x2="770" y2="163.36190860807204" stroke="#ddd" stroke-width="1.5" stroke-dasharray="4,4"/>
<text x="70.0" y="335" text-anchor="middle" fill="#666" font-size="11">05-13</text>
<text x="186.66666666666669" y="335" text-anchor="middle" fill="#666" font-size="11">05-22</text>
<text x="303.33333333333337" y="335" text-anchor="middle" fill="#666" font-size="11">06-02</text>
<text x="420.0" y="335" text-anchor="middle" fill="#666" font-size="11">06-11</text>
<text x="536.6666666666667" y="335" text-anchor="middle" fill="#666" font-size="11">06-22</text>
<text x="653.3333333333334" y="335" text-anchor="middle" fill="#666" font-size="11">07-01</text>
<text x="770.0" y="335" text-anchor="middle" fill="#666" font-size="11">07-10</text>
<path d="M 70.0,176.06536211665076 L 86.66666666666667,154.7242363609662 L 103.33333333333334,169.22542342805386 L 120.0,243.50125131556393 L 136.66666666666669,250.94474325085048 L 153.33333333333334,205.06773625082607 L 170.0,192.588999437061 L 186.66666666666669,175.508541987909 L 203.33333333333334,173.34589238074255 L 220.0,183.9672363364906 L 236.66666666666669,172.5832476686981 L 253.33333333333334,150.58984690505903 L 270.0,152.34581895391233 L 286.6666666666667,186.39238686149258 L 303.33333333333337,163.36190860807204 L 320.0,163.36190860807204 L 336.6666666666667,163.36190860807204 L 353.33333333333337,163.36190860807204 L 370.0,157.54711554935508 L 386.6666666666667,138.56750373253047 L 403.33333333333337,153.5887210269965 L 420.0,118.9137418312651 L 436.6666666666667,110.27109797586701 L 453.33333333333337,177.61849254717663 L 470.0,168.39516484323377 L 486.6666666666667,169.28209976258665 L 503.33333333333337,165.5961493746481 L 520.0,163.1461408081846 L 536.6666666666667,132.95952957877472 L 553.3333333333334,167.6563838509925 L 570.0,125.62143573928583 L 586.6666666666667,116.147538977409 L 603.3333333333334,105.40886506596175 L 620.0,107.39452541792096 L 636.6666666666667,78.93007930097664 L 653.3333333333334,61.666666666666686 L 670.0,105.0777559536921 L 686.6666666666667,99.0213427319676 L 703.3333333333334,71.34638801184624 L 720.0,152.3378643806446 L 736.6666666666667,218.59051080598186 L 753.3333333333334,278.3333333333333 L 770.0,260.76366962821544" fill="none" stroke="#3b82f6" stroke-width="2.5" stroke-linecap="round"/>
<path d="M 336.6666666666667,202.7012507036737 L 353.33333333333337,209.4725811978363 L 370.0,207.01163509312963 L 386.6666666666667,217.57729703600359 L 403.33333333333337,225.31709682551335" fill="none" stroke="#f97316" stroke-width="2.5" stroke-linecap="round"/>
<rect x="80" y="45" width="12" height="3" fill="#3b82f6"/>
<text x="96" y="49" fill="#333" font-size="12">Strategy A (Claude)</text>
<rect x="80" y="61" width="12" height="3" fill="#f97316"/>
<text x="96" y="65" fill="#333" font-size="12">Strategy B (TradingAgents)</text>
<text x="400.0" y="20" text-anchor="middle" fill="#1a1a1a" font-size="14" font-weight="600">AI Trading Strategies — $10K Each</text>
<text x="765" y="55" text-anchor="end" fill="#f97316" font-size="11" font-weight="600">$9,377 (-6.2%)</text>
<text x="765" y="70" text-anchor="end" fill="#3b82f6" font-size="11" font-weight="600">$9,020 (-9.8%)</text>
</svg>