<svg xmlns="http://www.w3.org/2000/svg" viewBox="0 0 800 400" width="800" height="400">
  <rect width="800" height="400" fill="#0d1117" rx="8"/>

  <!-- Title -->
  <text x="70" y="30" fill="#c9d1d9" font-family="system-ui, -apple-system, sans-serif" font-size="16" font-weight="bold">Claude's Paper Trading — Equity Curve</text>
  <text x="70" y="48" fill="#58a6ff" font-family="system-ui, sans-serif" font-size="12">
    $10,649.08 (+6.49%) | Win Rate: 22/48 (46%) | Realized: $-31.55
  </text>

  <!-- Grid lines -->
  <line x1="70" y1="320.0" x2="770" y2="320.0" stroke="#21262d" stroke-width="0.5"/><line x1="70" y1="268.0" x2="770" y2="268.0" stroke="#21262d" stroke-width="0.5"/><line x1="70" y1="216.0" x2="770" y2="216.0" stroke="#21262d" stroke-width="0.5"/><line x1="70" y1="164.0" x2="770" y2="164.0" stroke="#21262d" stroke-width="0.5"/><line x1="70" y1="112.0" x2="770" y2="112.0" stroke="#21262d" stroke-width="0.5"/><line x1="70" y1="60.0" x2="770" y2="60.0" stroke="#21262d" stroke-width="0.5"/>

  <!-- Baseline (starting capital) -->
  <line x1="70" y1="182.0" x2="770" y2="182.0" stroke="#c9d1d9" stroke-width="0.5" stroke-dasharray="4,4" opacity="0.5"/>
  <text x="775" y="182.0" fill="#c9d1d9" font-size="9" opacity="0.6" dominant-baseline="middle">$10K</text>

  <!-- Fill under curve -->
  <path d="M 70.0 195.2 L 101.8 173.0 L 133.6 188.1 L 165.5 265.2 L 197.3 272.9 L 229.1 225.3 L 260.9 212.3 L 292.7 194.6 L 324.5 192.4 L 356.4 203.4 L 388.2 191.6 L 420.0 168.7 L 451.8 170.5 L 483.6 205.9 L 515.5 182.0 L 547.3 182.0 L 579.1 182.0 L 610.9 182.0 L 642.7 175.9 L 674.5 156.2 L 706.4 171.8 L 738.2 135.8 L 770.0 115.0 L 770.0 320.0 L 70.0 320.0 Z" fill="#16a34a" opacity="0.1"/>

  <!-- Equity line -->
  <path d="M 70.0 195.2 L 101.8 173.0 L 133.6 188.1 L 165.5 265.2 L 197.3 272.9 L 229.1 225.3 L 260.9 212.3 L 292.7 194.6 L 324.5 192.4 L 356.4 203.4 L 388.2 191.6 L 420.0 168.7 L 451.8 170.5 L 483.6 205.9 L 515.5 182.0 L 547.3 182.0 L 579.1 182.0 L 610.9 182.0 L 642.7 175.9 L 674.5 156.2 L 706.4 171.8 L 738.2 135.8 L 770.0 115.0" fill="none" stroke="#16a34a" stroke-width="2.5" stroke-linecap="round" stroke-linejoin="round"/>

  <!-- Data points -->
  <circle cx="70.0" cy="195.2" r="3" fill="#16a34a"/><circle cx="101.8" cy="173.0" r="3" fill="#16a34a"/><circle cx="133.6" cy="188.1" r="3" fill="#16a34a"/><circle cx="165.5" cy="265.2" r="3" fill="#16a34a"/><circle cx="197.3" cy="272.9" r="3" fill="#16a34a"/><circle cx="229.1" cy="225.3" r="3" fill="#16a34a"/><circle cx="260.9" cy="212.3" r="3" fill="#16a34a"/><circle cx="292.7" cy="194.6" r="3" fill="#16a34a"/><circle cx="324.5" cy="192.4" r="3" fill="#16a34a"/><circle cx="356.4" cy="203.4" r="3" fill="#16a34a"/><circle cx="388.2" cy="191.6" r="3" fill="#16a34a"/><circle cx="420.0" cy="168.7" r="3" fill="#16a34a"/><circle cx="451.8" cy="170.5" r="3" fill="#16a34a"/><circle cx="483.6" cy="205.9" r="3" fill="#16a34a"/><circle cx="515.5" cy="182.0" r="3" fill="#16a34a"/><circle cx="547.3" cy="182.0" r="3" fill="#16a34a"/><circle cx="579.1" cy="182.0" r="3" fill="#16a34a"/><circle cx="610.9" cy="182.0" r="3" fill="#16a34a"/><circle cx="642.7" cy="175.9" r="3" fill="#16a34a"/><circle cx="674.5" cy="156.2" r="3" fill="#16a34a"/><circle cx="706.4" cy="171.8" r="3" fill="#16a34a"/><circle cx="738.2" cy="135.8" r="3" fill="#16a34a"/><circle cx="770.0" cy="115.0" r="3" fill="#16a34a"/>

  <!-- Trade markers -->
  <circle cx="197.3" cy="272.9" r="4" fill="#dc2626" opacity="0.8"/>
<circle cx="229.1" cy="225.3" r="4" fill="#dc2626" opacity="0.8"/>
<circle cx="229.1" cy="225.3" r="4" fill="#dc2626" opacity="0.8"/>
<circle cx="229.1" cy="225.3" r="4" fill="#dc2626" opacity="0.8"/>
<circle cx="292.7" cy="194.6" r="4" fill="#dc2626" opacity="0.8"/>
<circle cx="292.7" cy="194.6" r="4" fill="#16a34a" opacity="0.8"/>
<circle cx="292.7" cy="194.6" r="4" fill="#dc2626" opacity="0.8"/>
<circle cx="292.7" cy="194.6" r="4" fill="#dc2626" opacity="0.8"/>
<circle cx="292.7" cy="194.6" r="4" fill="#16a34a" opacity="0.8"/>
<circle cx="324.5" cy="192.4" r="4" fill="#16a34a" opacity="0.8"/>
<circle cx="324.5" cy="192.4" r="4" fill="#dc2626" opacity="0.8"/>
<circle cx="324.5" cy="192.4" r="4" fill="#dc2626" opacity="0.8"/>
<circle cx="324.5" cy="192.4" r="4" fill="#dc2626" opacity="0.8"/>
<circle cx="356.4" cy="203.4" r="4" fill="#dc2626" opacity="0.8"/>
<circle cx="356.4" cy="203.4" r="4" fill="#16a34a" opacity="0.8"/>
<circle cx="356.4" cy="203.4" r="4" fill="#dc2626" opacity="0.8"/>
<circle cx="356.4" cy="203.4" r="4" fill="#dc2626" opacity="0.8"/>
<circle cx="356.4" cy="203.4" r="4" fill="#dc2626" opacity="0.8"/>
<circle cx="388.2" cy="191.6" r="4" fill="#16a34a" opacity="0.8"/>
<circle cx="388.2" cy="191.6" r="4" fill="#dc2626" opacity="0.8"/>
<circle cx="388.2" cy="191.6" r="4" fill="#16a34a" opacity="0.8"/>
<circle cx="388.2" cy="191.6" r="4" fill="#dc2626" opacity="0.8"/>
<circle cx="388.2" cy="191.6" r="4" fill="#dc2626" opacity="0.8"/>
<circle cx="420.0" cy="168.7" r="4" fill="#16a34a" opacity="0.8"/>
<circle cx="420.0" cy="168.7" r="4" fill="#16a34a" opacity="0.8"/>
<circle cx="420.0" cy="168.7" r="4" fill="#16a34a" opacity="0.8"/>
<circle cx="674.5" cy="156.2" r="4" fill="#dc2626" opacity="0.8"/>
<circle cx="674.5" cy="156.2" r="4" fill="#dc2626" opacity="0.8"/>
<circle cx="674.5" cy="156.2" r="4" fill="#16a34a" opacity="0.8"/>
<circle cx="674.5" cy="156.2" r="4" fill="#16a34a" opacity="0.8"/>
<circle cx="674.5" cy="156.2" r="4" fill="#16a34a" opacity="0.8"/>
<circle cx="706.4" cy="171.8" r="4" fill="#16a34a" opacity="0.8"/>
<circle cx="706.4" cy="171.8" r="4" fill="#16a34a" opacity="0.8"/>
<circle cx="706.4" cy="171.8" r="4" fill="#dc2626" opacity="0.8"/>
<circle cx="706.4" cy="171.8" r="4" fill="#16a34a" opacity="0.8"/>
<circle cx="706.4" cy="171.8" r="4" fill="#dc2626" opacity="0.8"/>
<circle cx="706.4" cy="171.8" r="4" fill="#dc2626" opacity="0.8"/>
<circle cx="706.4" cy="171.8" r="4" fill="#dc2626" opacity="0.8"/>
<circle cx="738.2" cy="135.8" r="4" fill="#dc2626" opacity="0.8"/>
<circle cx="738.2" cy="135.8" r="4" fill="#16a34a" opacity="0.8"/>
<circle cx="738.2" cy="135.8" r="4" fill="#16a34a" opacity="0.8"/>
<circle cx="738.2" cy="135.8" r="4" fill="#dc2626" opacity="0.8"/>
<circle cx="738.2" cy="135.8" r="4" fill="#16a34a" opacity="0.8"/>
<circle cx="738.2" cy="135.8" r="4" fill="#16a34a" opacity="0.8"/>
<circle cx="770.0" cy="115.0" r="4" fill="#dc2626" opacity="0.8"/>
<circle cx="770.0" cy="115.0" r="4" fill="#16a34a" opacity="0.8"/>
<circle cx="770.0" cy="115.0" r="4" fill="#16a34a" opacity="0.8"/>
<circle cx="770.0" cy="115.0" r="4" fill="#16a34a" opacity="0.8"/>


  <!-- Y-axis labels -->
  <text x="62" y="320.0" fill="#c9d1d9" font-size="10" text-anchor="end" dominant-baseline="middle">$8,663</text><text x="62" y="268.0" fill="#c9d1d9" font-size="10" text-anchor="end" dominant-baseline="middle">$9,167</text><text x="62" y="216.0" fill="#c9d1d9" font-size="10" text-anchor="end" dominant-baseline="middle">$9,671</text><text x="62" y="164.0" fill="#c9d1d9" font-size="10" text-anchor="end" dominant-baseline="middle">$10,174</text><text x="62" y="112.0" fill="#c9d1d9" font-size="10" text-anchor="end" dominant-baseline="middle">$10,678</text><text x="62" y="60.0" fill="#c9d1d9" font-size="10" text-anchor="end" dominant-baseline="middle">$11,182</text>

  <!-- X-axis labels -->
  <text x="70.0" y="340" fill="#c9d1d9" font-size="10" text-anchor="middle">2026-05-13</text><text x="420.0" y="340" fill="#c9d1d9" font-size="10" text-anchor="middle">2026-05-28</text><text x="770.0" y="340" fill="#c9d1d9" font-size="10" text-anchor="middle">2026-06-12</text>

  <!-- Legend -->
  <circle cx="650" cy="380" r="4" fill="#16a34a"/>
  <text x="658" y="384" fill="#c9d1d9" font-size="9">Win</text>
  <circle cx="690" cy="380" r="4" fill="#dc2626"/>
  <text x="698" y="384" fill="#c9d1d9" font-size="9">Loss</text>
  <line x1="730" y1="380" x2="745" y2="380" stroke="#c9d1d9" stroke-width="0.5" stroke-dasharray="4,4" opacity="0.5"/>
  <text x="750" y="384" fill="#c9d1d9" font-size="9">$10K baseline</text>
</svg>