<svg xmlns="http://www.w3.org/2000/svg" viewBox="0 0 800 400" width="800" height="400">
  <rect width="800" height="400" fill="#0d1117" rx="8"/>

  <!-- Title -->
  <text x="70" y="30" fill="#c9d1d9" font-family="system-ui, -apple-system, sans-serif" font-size="16" font-weight="bold">Claude's Paper Trading — Equity Curve</text>
  <text x="70" y="48" fill="#58a6ff" font-family="system-ui, sans-serif" font-size="12">
    $11,285.53 (+12.86%) | Win Rate: 59/141 (42%) | Realized: $+214.43
  </text>

  <!-- Grid lines -->
  <line x1="70" y1="320.0" x2="770" y2="320.0" stroke="#21262d" stroke-width="0.5"/><line x1="70" y1="268.0" x2="770" y2="268.0" stroke="#21262d" stroke-width="0.5"/><line x1="70" y1="216.0" x2="770" y2="216.0" stroke="#21262d" stroke-width="0.5"/><line x1="70" y1="164.0" x2="770" y2="164.0" stroke="#21262d" stroke-width="0.5"/><line x1="70" y1="112.0" x2="770" y2="112.0" stroke="#21262d" stroke-width="0.5"/><line x1="70" y1="60.0" x2="770" y2="60.0" stroke="#21262d" stroke-width="0.5"/>

  <!-- Baseline (starting capital) -->
  <line x1="70" y1="210.9" x2="770" y2="210.9" stroke="#c9d1d9" stroke-width="0.5" stroke-dasharray="4,4" opacity="0.5"/>
  <text x="775" y="210.9" fill="#c9d1d9" font-size="9" opacity="0.6" dominant-baseline="middle">$10K</text>

  <!-- Fill under curve -->
  <path d="M 70.0 221.4 L 89.4 203.8 L 108.9 215.7 L 128.3 276.7 L 147.8 282.8 L 167.2 245.2 L 186.7 234.9 L 206.1 220.9 L 225.6 219.1 L 245.0 227.8 L 264.4 218.5 L 283.9 200.4 L 303.3 201.9 L 322.8 229.8 L 342.2 210.9 L 361.7 210.9 L 381.1 210.9 L 400.6 210.9 L 420.0 206.2 L 439.4 190.6 L 458.9 202.9 L 478.3 174.5 L 497.8 167.4 L 517.2 222.6 L 536.7 215.1 L 556.1 215.8 L 575.6 212.8 L 595.0 210.8 L 614.4 186.0 L 633.9 214.5 L 653.3 180.0 L 672.8 172.2 L 692.2 163.4 L 711.7 165.0 L 731.1 141.6 L 750.6 127.5 L 770.0 106.0 L 770.0 320.0 L 70.0 320.0 Z" fill="#16a34a" opacity="0.1"/>

  <!-- Equity line -->
  <path d="M 70.0 221.4 L 89.4 203.8 L 108.9 215.7 L 128.3 276.7 L 147.8 282.8 L 167.2 245.2 L 186.7 234.9 L 206.1 220.9 L 225.6 219.1 L 245.0 227.8 L 264.4 218.5 L 283.9 200.4 L 303.3 201.9 L 322.8 229.8 L 342.2 210.9 L 361.7 210.9 L 381.1 210.9 L 400.6 210.9 L 420.0 206.2 L 439.4 190.6 L 458.9 202.9 L 478.3 174.5 L 497.8 167.4 L 517.2 222.6 L 536.7 215.1 L 556.1 215.8 L 575.6 212.8 L 595.0 210.8 L 614.4 186.0 L 633.9 214.5 L 653.3 180.0 L 672.8 172.2 L 692.2 163.4 L 711.7 165.0 L 731.1 141.6 L 750.6 127.5 L 770.0 106.0" fill="none" stroke="#16a34a" stroke-width="2.5" stroke-linecap="round" stroke-linejoin="round"/>

  <!-- Data points -->
  <circle cx="70.0" cy="221.4" r="3" fill="#16a34a"/><circle cx="89.4" cy="203.8" r="3" fill="#16a34a"/><circle cx="108.9" cy="215.7" r="3" fill="#16a34a"/><circle cx="128.3" cy="276.7" r="3" fill="#16a34a"/><circle cx="147.8" cy="282.8" r="3" fill="#16a34a"/><circle cx="167.2" cy="245.2" r="3" fill="#16a34a"/><circle cx="186.7" cy="234.9" r="3" fill="#16a34a"/><circle cx="206.1" cy="220.9" r="3" fill="#16a34a"/><circle cx="225.6" cy="219.1" r="3" fill="#16a34a"/><circle cx="245.0" cy="227.8" r="3" fill="#16a34a"/><circle cx="264.4" cy="218.5" r="3" fill="#16a34a"/><circle cx="283.9" cy="200.4" r="3" fill="#16a34a"/><circle cx="303.3" cy="201.9" r="3" fill="#16a34a"/><circle cx="322.8" cy="229.8" r="3" fill="#16a34a"/><circle cx="342.2" cy="210.9" r="3" fill="#16a34a"/><circle cx="361.7" cy="210.9" r="3" fill="#16a34a"/><circle cx="381.1" cy="210.9" r="3" fill="#16a34a"/><circle cx="400.6" cy="210.9" r="3" fill="#16a34a"/><circle cx="420.0" cy="206.2" r="3" fill="#16a34a"/><circle cx="439.4" cy="190.6" r="3" fill="#16a34a"/><circle cx="458.9" cy="202.9" r="3" fill="#16a34a"/><circle cx="478.3" cy="174.5" r="3" fill="#16a34a"/><circle cx="497.8" cy="167.4" r="3" fill="#16a34a"/><circle cx="517.2" cy="222.6" r="3" fill="#16a34a"/><circle cx="536.7" cy="215.1" r="3" fill="#16a34a"/><circle cx="556.1" cy="215.8" r="3" fill="#16a34a"/><circle cx="575.6" cy="212.8" r="3" fill="#16a34a"/><circle cx="595.0" cy="210.8" r="3" fill="#16a34a"/><circle cx="614.4" cy="186.0" r="3" fill="#16a34a"/><circle cx="633.9" cy="214.5" r="3" fill="#16a34a"/><circle cx="653.3" cy="180.0" r="3" fill="#16a34a"/><circle cx="672.8" cy="172.2" r="3" fill="#16a34a"/><circle cx="692.2" cy="163.4" r="3" fill="#16a34a"/><circle cx="711.7" cy="165.0" r="3" fill="#16a34a"/><circle cx="731.1" cy="141.6" r="3" fill="#16a34a"/><circle cx="750.6" cy="127.5" r="3" fill="#16a34a"/><circle cx="770.0" cy="106.0" r="3" fill="#16a34a"/>

  <!-- Trade markers -->
  <circle cx="147.8" cy="282.8" r="4" fill="#dc2626" opacity="0.8"/>
<circle cx="167.2" cy="245.2" r="4" fill="#dc2626" opacity="0.8"/>
<circle cx="167.2" cy="245.2" r="4" fill="#dc2626" opacity="0.8"/>
<circle cx="167.2" cy="245.2" r="4" fill="#dc2626" opacity="0.8"/>
<circle cx="206.1" cy="220.9" r="4" fill="#dc2626" opacity="0.8"/>
<circle cx="206.1" cy="220.9" r="4" fill="#16a34a" opacity="0.8"/>
<circle cx="206.1" cy="220.9" r="4" fill="#dc2626" opacity="0.8"/>
<circle cx="206.1" cy="220.9" r="4" fill="#dc2626" opacity="0.8"/>
<circle cx="206.1" cy="220.9" r="4" fill="#16a34a" opacity="0.8"/>
<circle cx="225.6" cy="219.1" r="4" fill="#16a34a" opacity="0.8"/>
<circle cx="225.6" cy="219.1" r="4" fill="#dc2626" opacity="0.8"/>
<circle cx="225.6" cy="219.1" r="4" fill="#dc2626" opacity="0.8"/>
<circle cx="225.6" cy="219.1" r="4" fill="#dc2626" opacity="0.8"/>
<circle cx="245.0" cy="227.8" r="4" fill="#dc2626" opacity="0.8"/>
<circle cx="245.0" cy="227.8" r="4" fill="#16a34a" opacity="0.8"/>
<circle cx="245.0" cy="227.8" r="4" fill="#dc2626" opacity="0.8"/>
<circle cx="245.0" cy="227.8" r="4" fill="#dc2626" opacity="0.8"/>
<circle cx="245.0" cy="227.8" r="4" fill="#dc2626" opacity="0.8"/>
<circle cx="264.4" cy="218.5" r="4" fill="#16a34a" opacity="0.8"/>
<circle cx="264.4" cy="218.5" r="4" fill="#dc2626" opacity="0.8"/>
<circle cx="264.4" cy="218.5" r="4" fill="#16a34a" opacity="0.8"/>
<circle cx="264.4" cy="218.5" r="4" fill="#dc2626" opacity="0.8"/>
<circle cx="264.4" cy="218.5" r="4" fill="#dc2626" opacity="0.8"/>
<circle cx="283.9" cy="200.4" r="4" fill="#16a34a" opacity="0.8"/>
<circle cx="283.9" cy="200.4" r="4" fill="#16a34a" opacity="0.8"/>
<circle cx="283.9" cy="200.4" r="4" fill="#16a34a" opacity="0.8"/>
<circle cx="439.4" cy="190.6" r="4" fill="#dc2626" opacity="0.8"/>
<circle cx="439.4" cy="190.6" r="4" fill="#dc2626" opacity="0.8"/>
<circle cx="439.4" cy="190.6" r="4" fill="#16a34a" opacity="0.8"/>
<circle cx="439.4" cy="190.6" r="4" fill="#16a34a" opacity="0.8"/>
<circle cx="439.4" cy="190.6" r="4" fill="#16a34a" opacity="0.8"/>
<circle cx="458.9" cy="202.9" r="4" fill="#16a34a" opacity="0.8"/>
<circle cx="458.9" cy="202.9" r="4" fill="#16a34a" opacity="0.8"/>
<circle cx="458.9" cy="202.9" r="4" fill="#dc2626" opacity="0.8"/>
<circle cx="458.9" cy="202.9" r="4" fill="#16a34a" opacity="0.8"/>
<circle cx="458.9" cy="202.9" r="4" fill="#dc2626" opacity="0.8"/>
<circle cx="458.9" cy="202.9" r="4" fill="#dc2626" opacity="0.8"/>
<circle cx="458.9" cy="202.9" r="4" fill="#dc2626" opacity="0.8"/>
<circle cx="478.3" cy="174.5" r="4" fill="#dc2626" opacity="0.8"/>
<circle cx="478.3" cy="174.5" r="4" fill="#16a34a" opacity="0.8"/>
<circle cx="478.3" cy="174.5" r="4" fill="#16a34a" opacity="0.8"/>
<circle cx="478.3" cy="174.5" r="4" fill="#dc2626" opacity="0.8"/>
<circle cx="478.3" cy="174.5" r="4" fill="#16a34a" opacity="0.8"/>
<circle cx="478.3" cy="174.5" r="4" fill="#16a34a" opacity="0.8"/>
<circle cx="497.8" cy="167.4" r="4" fill="#dc2626" opacity="0.8"/>
<circle cx="497.8" cy="167.4" r="4" fill="#16a34a" opacity="0.8"/>
<circle cx="497.8" cy="167.4" r="4" fill="#16a34a" opacity="0.8"/>
<circle cx="497.8" cy="167.4" r="4" fill="#16a34a" opacity="0.8"/>
<circle cx="497.8" cy="167.4" r="4" fill="#dc2626" opacity="0.8"/>
<circle cx="497.8" cy="167.4" r="4" fill="#dc2626" opacity="0.8"/>
<circle cx="497.8" cy="167.4" r="4" fill="#16a34a" opacity="0.8"/>
<circle cx="517.2" cy="222.6" r="4" fill="#16a34a" opacity="0.8"/>
<circle cx="517.2" cy="222.6" r="4" fill="#dc2626" opacity="0.8"/>
<circle cx="517.2" cy="222.6" r="4" fill="#dc2626" opacity="0.8"/>
<circle cx="517.2" cy="222.6" r="4" fill="#16a34a" opacity="0.8"/>
<circle cx="517.2" cy="222.6" r="4" fill="#dc2626" opacity="0.8"/>
<circle cx="517.2" cy="222.6" r="4" fill="#dc2626" opacity="0.8"/>
<circle cx="517.2" cy="222.6" r="4" fill="#dc2626" opacity="0.8"/>
<circle cx="517.2" cy="222.6" r="4" fill="#dc2626" opacity="0.8"/>
<circle cx="517.2" cy="222.6" r="4" fill="#dc2626" opacity="0.8"/>
<circle cx="536.7" cy="215.1" r="4" fill="#dc2626" opacity="0.8"/>
<circle cx="536.7" cy="215.1" r="4" fill="#16a34a" opacity="0.8"/>
<circle cx="536.7" cy="215.1" r="4" fill="#dc2626" opacity="0.8"/>
<circle cx="536.7" cy="215.1" r="4" fill="#16a34a" opacity="0.8"/>
<circle cx="536.7" cy="215.1" r="4" fill="#16a34a" opacity="0.8"/>
<circle cx="536.7" cy="215.1" r="4" fill="#16a34a" opacity="0.8"/>
<circle cx="536.7" cy="215.1" r="4" fill="#16a34a" opacity="0.8"/>
<circle cx="536.7" cy="215.1" r="4" fill="#16a34a" opacity="0.8"/>
<circle cx="536.7" cy="215.1" r="4" fill="#dc2626" opacity="0.8"/>
<circle cx="556.1" cy="215.8" r="4" fill="#16a34a" opacity="0.8"/>
<circle cx="556.1" cy="215.8" r="4" fill="#dc2626" opacity="0.8"/>
<circle cx="556.1" cy="215.8" r="4" fill="#dc2626" opacity="0.8"/>
<circle cx="556.1" cy="215.8" r="4" fill="#16a34a" opacity="0.8"/>
<circle cx="556.1" cy="215.8" r="4" fill="#16a34a" opacity="0.8"/>
<circle cx="556.1" cy="215.8" r="4" fill="#16a34a" opacity="0.8"/>
<circle cx="556.1" cy="215.8" r="4" fill="#dc2626" opacity="0.8"/>
<circle cx="575.6" cy="212.8" r="4" fill="#dc2626" opacity="0.8"/>
<circle cx="575.6" cy="212.8" r="4" fill="#dc2626" opacity="0.8"/>
<circle cx="575.6" cy="212.8" r="4" fill="#dc2626" opacity="0.8"/>
<circle cx="575.6" cy="212.8" r="4" fill="#16a34a" opacity="0.8"/>
<circle cx="575.6" cy="212.8" r="4" fill="#16a34a" opacity="0.8"/>
<circle cx="575.6" cy="212.8" r="4" fill="#dc2626" opacity="0.8"/>
<circle cx="595.0" cy="210.8" r="4" fill="#dc2626" opacity="0.8"/>
<circle cx="595.0" cy="210.8" r="4" fill="#dc2626" opacity="0.8"/>
<circle cx="595.0" cy="210.8" r="4" fill="#dc2626" opacity="0.8"/>
<circle cx="595.0" cy="210.8" r="4" fill="#dc2626" opacity="0.8"/>
<circle cx="595.0" cy="210.8" r="4" fill="#16a34a" opacity="0.8"/>
<circle cx="595.0" cy="210.8" r="4" fill="#dc2626" opacity="0.8"/>
<circle cx="595.0" cy="210.8" r="4" fill="#dc2626" opacity="0.8"/>
<circle cx="595.0" cy="210.8" r="4" fill="#dc2626" opacity="0.8"/>
<circle cx="595.0" cy="210.8" r="4" fill="#dc2626" opacity="0.8"/>
<circle cx="614.4" cy="186.0" r="4" fill="#dc2626" opacity="0.8"/>
<circle cx="614.4" cy="186.0" r="4" fill="#16a34a" opacity="0.8"/>
<circle cx="614.4" cy="186.0" r="4" fill="#dc2626" opacity="0.8"/>
<circle cx="614.4" cy="186.0" r="4" fill="#16a34a" opacity="0.8"/>
<circle cx="614.4" cy="186.0" r="4" fill="#dc2626" opacity="0.8"/>
<circle cx="614.4" cy="186.0" r="4" fill="#dc2626" opacity="0.8"/>
<circle cx="633.9" cy="214.5" r="4" fill="#dc2626" opacity="0.8"/>
<circle cx="633.9" cy="214.5" r="4" fill="#16a34a" opacity="0.8"/>
<circle cx="633.9" cy="214.5" r="4" fill="#dc2626" opacity="0.8"/>
<circle cx="633.9" cy="214.5" r="4" fill="#dc2626" opacity="0.8"/>
<circle cx="633.9" cy="214.5" r="4" fill="#dc2626" opacity="0.8"/>
<circle cx="633.9" cy="214.5" r="4" fill="#16a34a" opacity="0.8"/>
<circle cx="633.9" cy="214.5" r="4" fill="#dc2626" opacity="0.8"/>
<circle cx="633.9" cy="214.5" r="4" fill="#dc2626" opacity="0.8"/>
<circle cx="653.3" cy="180.0" r="4" fill="#dc2626" opacity="0.8"/>
<circle cx="653.3" cy="180.0" r="4" fill="#dc2626" opacity="0.8"/>
<circle cx="653.3" cy="180.0" r="4" fill="#16a34a" opacity="0.8"/>
<circle cx="653.3" cy="180.0" r="4" fill="#16a34a" opacity="0.8"/>
<circle cx="653.3" cy="180.0" r="4" fill="#dc2626" opacity="0.8"/>
<circle cx="672.8" cy="172.2" r="4" fill="#16a34a" opacity="0.8"/>
<circle cx="672.8" cy="172.2" r="4" fill="#dc2626" opacity="0.8"/>
<circle cx="672.8" cy="172.2" r="4" fill="#dc2626" opacity="0.8"/>
<circle cx="672.8" cy="172.2" r="4" fill="#dc2626" opacity="0.8"/>
<circle cx="672.8" cy="172.2" r="4" fill="#dc2626" opacity="0.8"/>
<circle cx="672.8" cy="172.2" r="4" fill="#16a34a" opacity="0.8"/>
<circle cx="672.8" cy="172.2" r="4" fill="#dc2626" opacity="0.8"/>
<circle cx="672.8" cy="172.2" r="4" fill="#dc2626" opacity="0.8"/>
<circle cx="692.2" cy="163.4" r="4" fill="#dc2626" opacity="0.8"/>
<circle cx="692.2" cy="163.4" r="4" fill="#dc2626" opacity="0.8"/>
<circle cx="692.2" cy="163.4" r="4" fill="#dc2626" opacity="0.8"/>
<circle cx="692.2" cy="163.4" r="4" fill="#dc2626" opacity="0.8"/>
<circle cx="692.2" cy="163.4" r="4" fill="#dc2626" opacity="0.8"/>
<circle cx="692.2" cy="163.4" r="4" fill="#dc2626" opacity="0.8"/>
<circle cx="692.2" cy="163.4" r="4" fill="#16a34a" opacity="0.8"/>
<circle cx="692.2" cy="163.4" r="4" fill="#16a34a" opacity="0.8"/>
<circle cx="692.2" cy="163.4" r="4" fill="#16a34a" opacity="0.8"/>
<circle cx="711.7" cy="165.0" r="4" fill="#16a34a" opacity="0.8"/>
<circle cx="711.7" cy="165.0" r="4" fill="#dc2626" opacity="0.8"/>
<circle cx="711.7" cy="165.0" r="4" fill="#16a34a" opacity="0.8"/>
<circle cx="711.7" cy="165.0" r="4" fill="#16a34a" opacity="0.8"/>
<circle cx="711.7" cy="165.0" r="4" fill="#16a34a" opacity="0.8"/>
<circle cx="711.7" cy="165.0" r="4" fill="#dc2626" opacity="0.8"/>
<circle cx="711.7" cy="165.0" r="4" fill="#16a34a" opacity="0.8"/>
<circle cx="711.7" cy="165.0" r="4" fill="#dc2626" opacity="0.8"/>
<circle cx="731.1" cy="141.6" r="4" fill="#dc2626" opacity="0.8"/>
<circle cx="731.1" cy="141.6" r="4" fill="#16a34a" opacity="0.8"/>
<circle cx="731.1" cy="141.6" r="4" fill="#16a34a" opacity="0.8"/>
<circle cx="731.1" cy="141.6" r="4" fill="#16a34a" opacity="0.8"/>
<circle cx="731.1" cy="141.6" r="4" fill="#16a34a" opacity="0.8"/>
<circle cx="731.1" cy="141.6" r="4" fill="#16a34a" opacity="0.8"/>


  <!-- Y-axis labels -->
  <text x="62" y="320.0" fill="#c9d1d9" font-size="10" text-anchor="end" dominant-baseline="middle">$8,663</text><text x="62" y="268.0" fill="#c9d1d9" font-size="10" text-anchor="end" dominant-baseline="middle">$9,301</text><text x="62" y="216.0" fill="#c9d1d9" font-size="10" text-anchor="end" dominant-baseline="middle">$9,938</text><text x="62" y="164.0" fill="#c9d1d9" font-size="10" text-anchor="end" dominant-baseline="middle">$10,575</text><text x="62" y="112.0" fill="#c9d1d9" font-size="10" text-anchor="end" dominant-baseline="middle">$11,212</text><text x="62" y="60.0" fill="#c9d1d9" font-size="10" text-anchor="end" dominant-baseline="middle">$11,850</text>

  <!-- X-axis labels -->
  <text x="70.0" y="340" fill="#c9d1d9" font-size="10" text-anchor="middle">2026-05-13</text><text x="420.0" y="340" fill="#c9d1d9" font-size="10" text-anchor="middle">2026-06-08</text><text x="770.0" y="340" fill="#c9d1d9" font-size="10" text-anchor="middle">2026-07-02</text>

  <!-- Legend -->
  <circle cx="650" cy="380" r="4" fill="#16a34a"/>
  <text x="658" y="384" fill="#c9d1d9" font-size="9">Win</text>
  <circle cx="690" cy="380" r="4" fill="#dc2626"/>
  <text x="698" y="384" fill="#c9d1d9" font-size="9">Loss</text>
  <line x1="730" y1="380" x2="745" y2="380" stroke="#c9d1d9" stroke-width="0.5" stroke-dasharray="4,4" opacity="0.5"/>
  <text x="750" y="384" fill="#c9d1d9" font-size="9">$10K baseline</text>
</svg>