<svg xmlns="http://www.w3.org/2000/svg" viewBox="0 0 800 400" width="800" height="400">
  <rect width="800" height="400" fill="#0d1117" rx="8"/>

  <!-- Title -->
  <text x="70" y="30" fill="#c9d1d9" font-family="system-ui, -apple-system, sans-serif" font-size="16" font-weight="bold">Claude's Paper Trading — Equity Curve</text>
  <text x="70" y="48" fill="#58a6ff" font-family="system-ui, sans-serif" font-size="12">
    $10,647.08 (+6.47%) | Win Rate: 59/141 (42%) | Realized: $+214.43
  </text>

  <!-- Grid lines -->
  <line x1="70" y1="320.0" x2="770" y2="320.0" stroke="#21262d" stroke-width="0.5"/><line x1="70" y1="268.0" x2="770" y2="268.0" stroke="#21262d" stroke-width="0.5"/><line x1="70" y1="216.0" x2="770" y2="216.0" stroke="#21262d" stroke-width="0.5"/><line x1="70" y1="164.0" x2="770" y2="164.0" stroke="#21262d" stroke-width="0.5"/><line x1="70" y1="112.0" x2="770" y2="112.0" stroke="#21262d" stroke-width="0.5"/><line x1="70" y1="60.0" x2="770" y2="60.0" stroke="#21262d" stroke-width="0.5"/>

  <!-- Baseline (starting capital) -->
  <line x1="70" y1="200.6" x2="770" y2="200.6" stroke="#c9d1d9" stroke-width="0.5" stroke-dasharray="4,4" opacity="0.5"/>
  <text x="775" y="200.6" fill="#c9d1d9" font-size="9" opacity="0.6" dominant-baseline="middle">$10K</text>

  <!-- Fill under curve -->
  <path d="M 70.0 212.0 L 88.9 192.8 L 107.8 205.9 L 126.8 272.6 L 145.7 279.3 L 164.6 238.1 L 183.5 226.8 L 202.4 211.5 L 221.4 209.6 L 240.3 219.1 L 259.2 208.9 L 278.1 189.1 L 297.0 190.7 L 315.9 221.3 L 334.9 200.6 L 353.8 200.6 L 372.7 200.6 L 391.6 200.6 L 410.5 195.4 L 429.5 178.3 L 448.4 191.8 L 467.3 160.7 L 486.2 152.9 L 505.1 213.4 L 524.1 205.1 L 543.0 205.9 L 561.9 202.6 L 580.8 200.4 L 599.7 173.3 L 618.6 204.4 L 637.6 166.7 L 656.5 158.2 L 675.4 148.5 L 694.3 150.3 L 713.2 124.7 L 732.2 109.2 L 751.1 148.2 L 770.0 142.8 L 770.0 320.0 L 70.0 320.0 Z" fill="#16a34a" opacity="0.1"/>

  <!-- Equity line -->
  <path d="M 70.0 212.0 L 88.9 192.8 L 107.8 205.9 L 126.8 272.6 L 145.7 279.3 L 164.6 238.1 L 183.5 226.8 L 202.4 211.5 L 221.4 209.6 L 240.3 219.1 L 259.2 208.9 L 278.1 189.1 L 297.0 190.7 L 315.9 221.3 L 334.9 200.6 L 353.8 200.6 L 372.7 200.6 L 391.6 200.6 L 410.5 195.4 L 429.5 178.3 L 448.4 191.8 L 467.3 160.7 L 486.2 152.9 L 505.1 213.4 L 524.1 205.1 L 543.0 205.9 L 561.9 202.6 L 580.8 200.4 L 599.7 173.3 L 618.6 204.4 L 637.6 166.7 L 656.5 158.2 L 675.4 148.5 L 694.3 150.3 L 713.2 124.7 L 732.2 109.2 L 751.1 148.2 L 770.0 142.8" fill="none" stroke="#16a34a" stroke-width="2.5" stroke-linecap="round" stroke-linejoin="round"/>

  <!-- Data points -->
  <circle cx="70.0" cy="212.0" r="3" fill="#16a34a"/><circle cx="88.9" cy="192.8" r="3" fill="#16a34a"/><circle cx="107.8" cy="205.9" r="3" fill="#16a34a"/><circle cx="126.8" cy="272.6" r="3" fill="#16a34a"/><circle cx="145.7" cy="279.3" r="3" fill="#16a34a"/><circle cx="164.6" cy="238.1" r="3" fill="#16a34a"/><circle cx="183.5" cy="226.8" r="3" fill="#16a34a"/><circle cx="202.4" cy="211.5" r="3" fill="#16a34a"/><circle cx="221.4" cy="209.6" r="3" fill="#16a34a"/><circle cx="240.3" cy="219.1" r="3" fill="#16a34a"/><circle cx="259.2" cy="208.9" r="3" fill="#16a34a"/><circle cx="278.1" cy="189.1" r="3" fill="#16a34a"/><circle cx="297.0" cy="190.7" r="3" fill="#16a34a"/><circle cx="315.9" cy="221.3" r="3" fill="#16a34a"/><circle cx="334.9" cy="200.6" r="3" fill="#16a34a"/><circle cx="353.8" cy="200.6" r="3" fill="#16a34a"/><circle cx="372.7" cy="200.6" r="3" fill="#16a34a"/><circle cx="391.6" cy="200.6" r="3" fill="#16a34a"/><circle cx="410.5" cy="195.4" r="3" fill="#16a34a"/><circle cx="429.5" cy="178.3" r="3" fill="#16a34a"/><circle cx="448.4" cy="191.8" r="3" fill="#16a34a"/><circle cx="467.3" cy="160.7" r="3" fill="#16a34a"/><circle cx="486.2" cy="152.9" r="3" fill="#16a34a"/><circle cx="505.1" cy="213.4" r="3" fill="#16a34a"/><circle cx="524.1" cy="205.1" r="3" fill="#16a34a"/><circle cx="543.0" cy="205.9" r="3" fill="#16a34a"/><circle cx="561.9" cy="202.6" r="3" fill="#16a34a"/><circle cx="580.8" cy="200.4" r="3" fill="#16a34a"/><circle cx="599.7" cy="173.3" r="3" fill="#16a34a"/><circle cx="618.6" cy="204.4" r="3" fill="#16a34a"/><circle cx="637.6" cy="166.7" r="3" fill="#16a34a"/><circle cx="656.5" cy="158.2" r="3" fill="#16a34a"/><circle cx="675.4" cy="148.5" r="3" fill="#16a34a"/><circle cx="694.3" cy="150.3" r="3" fill="#16a34a"/><circle cx="713.2" cy="124.7" r="3" fill="#16a34a"/><circle cx="732.2" cy="109.2" r="3" fill="#16a34a"/><circle cx="751.1" cy="148.2" r="3" fill="#16a34a"/><circle cx="770.0" cy="142.8" r="3" fill="#16a34a"/>

  <!-- Trade markers -->
  <circle cx="145.7" cy="279.3" r="4" fill="#dc2626" opacity="0.8"/>
<circle cx="164.6" cy="238.1" r="4" fill="#dc2626" opacity="0.8"/>
<circle cx="164.6" cy="238.1" r="4" fill="#dc2626" opacity="0.8"/>
<circle cx="164.6" cy="238.1" r="4" fill="#dc2626" opacity="0.8"/>
<circle cx="202.4" cy="211.5" r="4" fill="#dc2626" opacity="0.8"/>
<circle cx="202.4" cy="211.5" r="4" fill="#16a34a" opacity="0.8"/>
<circle cx="202.4" cy="211.5" r="4" fill="#dc2626" opacity="0.8"/>
<circle cx="202.4" cy="211.5" r="4" fill="#dc2626" opacity="0.8"/>
<circle cx="202.4" cy="211.5" r="4" fill="#16a34a" opacity="0.8"/>
<circle cx="221.4" cy="209.6" r="4" fill="#16a34a" opacity="0.8"/>
<circle cx="221.4" cy="209.6" r="4" fill="#dc2626" opacity="0.8"/>
<circle cx="221.4" cy="209.6" r="4" fill="#dc2626" opacity="0.8"/>
<circle cx="221.4" cy="209.6" r="4" fill="#dc2626" opacity="0.8"/>
<circle cx="240.3" cy="219.1" r="4" fill="#dc2626" opacity="0.8"/>
<circle cx="240.3" cy="219.1" r="4" fill="#16a34a" opacity="0.8"/>
<circle cx="240.3" cy="219.1" r="4" fill="#dc2626" opacity="0.8"/>
<circle cx="240.3" cy="219.1" r="4" fill="#dc2626" opacity="0.8"/>
<circle cx="240.3" cy="219.1" r="4" fill="#dc2626" opacity="0.8"/>
<circle cx="259.2" cy="208.9" r="4" fill="#16a34a" opacity="0.8"/>
<circle cx="259.2" cy="208.9" r="4" fill="#dc2626" opacity="0.8"/>
<circle cx="259.2" cy="208.9" r="4" fill="#16a34a" opacity="0.8"/>
<circle cx="259.2" cy="208.9" r="4" fill="#dc2626" opacity="0.8"/>
<circle cx="259.2" cy="208.9" r="4" fill="#dc2626" opacity="0.8"/>
<circle cx="278.1" cy="189.1" r="4" fill="#16a34a" opacity="0.8"/>
<circle cx="278.1" cy="189.1" r="4" fill="#16a34a" opacity="0.8"/>
<circle cx="278.1" cy="189.1" r="4" fill="#16a34a" opacity="0.8"/>
<circle cx="429.5" cy="178.3" r="4" fill="#dc2626" opacity="0.8"/>
<circle cx="429.5" cy="178.3" r="4" fill="#dc2626" opacity="0.8"/>
<circle cx="429.5" cy="178.3" r="4" fill="#16a34a" opacity="0.8"/>
<circle cx="429.5" cy="178.3" r="4" fill="#16a34a" opacity="0.8"/>
<circle cx="429.5" cy="178.3" r="4" fill="#16a34a" opacity="0.8"/>
<circle cx="448.4" cy="191.8" r="4" fill="#16a34a" opacity="0.8"/>
<circle cx="448.4" cy="191.8" r="4" fill="#16a34a" opacity="0.8"/>
<circle cx="448.4" cy="191.8" r="4" fill="#dc2626" opacity="0.8"/>
<circle cx="448.4" cy="191.8" r="4" fill="#16a34a" opacity="0.8"/>
<circle cx="448.4" cy="191.8" r="4" fill="#dc2626" opacity="0.8"/>
<circle cx="448.4" cy="191.8" r="4" fill="#dc2626" opacity="0.8"/>
<circle cx="448.4" cy="191.8" r="4" fill="#dc2626" opacity="0.8"/>
<circle cx="467.3" cy="160.7" r="4" fill="#dc2626" opacity="0.8"/>
<circle cx="467.3" cy="160.7" r="4" fill="#16a34a" opacity="0.8"/>
<circle cx="467.3" cy="160.7" r="4" fill="#16a34a" opacity="0.8"/>
<circle cx="467.3" cy="160.7" r="4" fill="#dc2626" opacity="0.8"/>
<circle cx="467.3" cy="160.7" r="4" fill="#16a34a" opacity="0.8"/>
<circle cx="467.3" cy="160.7" r="4" fill="#16a34a" opacity="0.8"/>
<circle cx="486.2" cy="152.9" r="4" fill="#dc2626" opacity="0.8"/>
<circle cx="486.2" cy="152.9" r="4" fill="#16a34a" opacity="0.8"/>
<circle cx="486.2" cy="152.9" r="4" fill="#16a34a" opacity="0.8"/>
<circle cx="486.2" cy="152.9" r="4" fill="#16a34a" opacity="0.8"/>
<circle cx="486.2" cy="152.9" r="4" fill="#dc2626" opacity="0.8"/>
<circle cx="486.2" cy="152.9" r="4" fill="#dc2626" opacity="0.8"/>
<circle cx="486.2" cy="152.9" r="4" fill="#16a34a" opacity="0.8"/>
<circle cx="505.1" cy="213.4" r="4" fill="#16a34a" opacity="0.8"/>
<circle cx="505.1" cy="213.4" r="4" fill="#dc2626" opacity="0.8"/>
<circle cx="505.1" cy="213.4" r="4" fill="#dc2626" opacity="0.8"/>
<circle cx="505.1" cy="213.4" r="4" fill="#16a34a" opacity="0.8"/>
<circle cx="505.1" cy="213.4" r="4" fill="#dc2626" opacity="0.8"/>
<circle cx="505.1" cy="213.4" r="4" fill="#dc2626" opacity="0.8"/>
<circle cx="505.1" cy="213.4" r="4" fill="#dc2626" opacity="0.8"/>
<circle cx="505.1" cy="213.4" r="4" fill="#dc2626" opacity="0.8"/>
<circle cx="505.1" cy="213.4" r="4" fill="#dc2626" opacity="0.8"/>
<circle cx="524.1" cy="205.1" r="4" fill="#dc2626" opacity="0.8"/>
<circle cx="524.1" cy="205.1" r="4" fill="#16a34a" opacity="0.8"/>
<circle cx="524.1" cy="205.1" r="4" fill="#dc2626" opacity="0.8"/>
<circle cx="524.1" cy="205.1" r="4" fill="#16a34a" opacity="0.8"/>
<circle cx="524.1" cy="205.1" r="4" fill="#16a34a" opacity="0.8"/>
<circle cx="524.1" cy="205.1" r="4" fill="#16a34a" opacity="0.8"/>
<circle cx="524.1" cy="205.1" r="4" fill="#16a34a" opacity="0.8"/>
<circle cx="524.1" cy="205.1" r="4" fill="#16a34a" opacity="0.8"/>
<circle cx="524.1" cy="205.1" r="4" fill="#dc2626" opacity="0.8"/>
<circle cx="543.0" cy="205.9" r="4" fill="#16a34a" opacity="0.8"/>
<circle cx="543.0" cy="205.9" r="4" fill="#dc2626" opacity="0.8"/>
<circle cx="543.0" cy="205.9" r="4" fill="#dc2626" opacity="0.8"/>
<circle cx="543.0" cy="205.9" r="4" fill="#16a34a" opacity="0.8"/>
<circle cx="543.0" cy="205.9" r="4" fill="#16a34a" opacity="0.8"/>
<circle cx="543.0" cy="205.9" r="4" fill="#16a34a" opacity="0.8"/>
<circle cx="543.0" cy="205.9" r="4" fill="#dc2626" opacity="0.8"/>
<circle cx="561.9" cy="202.6" r="4" fill="#dc2626" opacity="0.8"/>
<circle cx="561.9" cy="202.6" r="4" fill="#dc2626" opacity="0.8"/>
<circle cx="561.9" cy="202.6" r="4" fill="#dc2626" opacity="0.8"/>
<circle cx="561.9" cy="202.6" r="4" fill="#16a34a" opacity="0.8"/>
<circle cx="561.9" cy="202.6" r="4" fill="#16a34a" opacity="0.8"/>
<circle cx="561.9" cy="202.6" r="4" fill="#dc2626" opacity="0.8"/>
<circle cx="580.8" cy="200.4" r="4" fill="#dc2626" opacity="0.8"/>
<circle cx="580.8" cy="200.4" r="4" fill="#dc2626" opacity="0.8"/>
<circle cx="580.8" cy="200.4" r="4" fill="#dc2626" opacity="0.8"/>
<circle cx="580.8" cy="200.4" r="4" fill="#dc2626" opacity="0.8"/>
<circle cx="580.8" cy="200.4" r="4" fill="#16a34a" opacity="0.8"/>
<circle cx="580.8" cy="200.4" r="4" fill="#dc2626" opacity="0.8"/>
<circle cx="580.8" cy="200.4" r="4" fill="#dc2626" opacity="0.8"/>
<circle cx="580.8" cy="200.4" r="4" fill="#dc2626" opacity="0.8"/>
<circle cx="580.8" cy="200.4" r="4" fill="#dc2626" opacity="0.8"/>
<circle cx="599.7" cy="173.3" r="4" fill="#dc2626" opacity="0.8"/>
<circle cx="599.7" cy="173.3" r="4" fill="#16a34a" opacity="0.8"/>
<circle cx="599.7" cy="173.3" r="4" fill="#dc2626" opacity="0.8"/>
<circle cx="599.7" cy="173.3" r="4" fill="#16a34a" opacity="0.8"/>
<circle cx="599.7" cy="173.3" r="4" fill="#dc2626" opacity="0.8"/>
<circle cx="599.7" cy="173.3" r="4" fill="#dc2626" opacity="0.8"/>
<circle cx="618.6" cy="204.4" r="4" fill="#dc2626" opacity="0.8"/>
<circle cx="618.6" cy="204.4" r="4" fill="#16a34a" opacity="0.8"/>
<circle cx="618.6" cy="204.4" r="4" fill="#dc2626" opacity="0.8"/>
<circle cx="618.6" cy="204.4" r="4" fill="#dc2626" opacity="0.8"/>
<circle cx="618.6" cy="204.4" r="4" fill="#dc2626" opacity="0.8"/>
<circle cx="618.6" cy="204.4" r="4" fill="#16a34a" opacity="0.8"/>
<circle cx="618.6" cy="204.4" r="4" fill="#dc2626" opacity="0.8"/>
<circle cx="618.6" cy="204.4" r="4" fill="#dc2626" opacity="0.8"/>
<circle cx="637.6" cy="166.7" r="4" fill="#dc2626" opacity="0.8"/>
<circle cx="637.6" cy="166.7" r="4" fill="#dc2626" opacity="0.8"/>
<circle cx="637.6" cy="166.7" r="4" fill="#16a34a" opacity="0.8"/>
<circle cx="637.6" cy="166.7" r="4" fill="#16a34a" opacity="0.8"/>
<circle cx="637.6" cy="166.7" r="4" fill="#dc2626" opacity="0.8"/>
<circle cx="656.5" cy="158.2" r="4" fill="#16a34a" opacity="0.8"/>
<circle cx="656.5" cy="158.2" r="4" fill="#dc2626" opacity="0.8"/>
<circle cx="656.5" cy="158.2" r="4" fill="#dc2626" opacity="0.8"/>
<circle cx="656.5" cy="158.2" r="4" fill="#dc2626" opacity="0.8"/>
<circle cx="656.5" cy="158.2" r="4" fill="#dc2626" opacity="0.8"/>
<circle cx="656.5" cy="158.2" r="4" fill="#16a34a" opacity="0.8"/>
<circle cx="656.5" cy="158.2" r="4" fill="#dc2626" opacity="0.8"/>
<circle cx="656.5" cy="158.2" r="4" fill="#dc2626" opacity="0.8"/>
<circle cx="675.4" cy="148.5" r="4" fill="#dc2626" opacity="0.8"/>
<circle cx="675.4" cy="148.5" r="4" fill="#dc2626" opacity="0.8"/>
<circle cx="675.4" cy="148.5" r="4" fill="#dc2626" opacity="0.8"/>
<circle cx="675.4" cy="148.5" r="4" fill="#dc2626" opacity="0.8"/>
<circle cx="675.4" cy="148.5" r="4" fill="#dc2626" opacity="0.8"/>
<circle cx="675.4" cy="148.5" r="4" fill="#dc2626" opacity="0.8"/>
<circle cx="675.4" cy="148.5" r="4" fill="#16a34a" opacity="0.8"/>
<circle cx="675.4" cy="148.5" r="4" fill="#16a34a" opacity="0.8"/>
<circle cx="675.4" cy="148.5" r="4" fill="#16a34a" opacity="0.8"/>
<circle cx="694.3" cy="150.3" r="4" fill="#16a34a" opacity="0.8"/>
<circle cx="694.3" cy="150.3" r="4" fill="#dc2626" opacity="0.8"/>
<circle cx="694.3" cy="150.3" r="4" fill="#16a34a" opacity="0.8"/>
<circle cx="694.3" cy="150.3" r="4" fill="#16a34a" opacity="0.8"/>
<circle cx="694.3" cy="150.3" r="4" fill="#16a34a" opacity="0.8"/>
<circle cx="694.3" cy="150.3" r="4" fill="#dc2626" opacity="0.8"/>
<circle cx="694.3" cy="150.3" r="4" fill="#16a34a" opacity="0.8"/>
<circle cx="694.3" cy="150.3" r="4" fill="#dc2626" opacity="0.8"/>
<circle cx="713.2" cy="124.7" r="4" fill="#dc2626" opacity="0.8"/>
<circle cx="713.2" cy="124.7" r="4" fill="#16a34a" opacity="0.8"/>
<circle cx="713.2" cy="124.7" r="4" fill="#16a34a" opacity="0.8"/>
<circle cx="713.2" cy="124.7" r="4" fill="#16a34a" opacity="0.8"/>
<circle cx="713.2" cy="124.7" r="4" fill="#16a34a" opacity="0.8"/>
<circle cx="713.2" cy="124.7" r="4" fill="#16a34a" opacity="0.8"/>


  <!-- Y-axis labels -->
  <text x="62" y="320.0" fill="#c9d1d9" font-size="10" text-anchor="end" dominant-baseline="middle">$8,663</text><text x="62" y="268.0" fill="#c9d1d9" font-size="10" text-anchor="end" dominant-baseline="middle">$9,245</text><text x="62" y="216.0" fill="#c9d1d9" font-size="10" text-anchor="end" dominant-baseline="middle">$9,827</text><text x="62" y="164.0" fill="#c9d1d9" font-size="10" text-anchor="end" dominant-baseline="middle">$10,410</text><text x="62" y="112.0" fill="#c9d1d9" font-size="10" text-anchor="end" dominant-baseline="middle">$10,992</text><text x="62" y="60.0" fill="#c9d1d9" font-size="10" text-anchor="end" dominant-baseline="middle">$11,574</text>

  <!-- X-axis labels -->
  <text x="70.0" y="340" fill="#c9d1d9" font-size="10" text-anchor="middle">2026-05-13</text><text x="429.5" y="340" fill="#c9d1d9" font-size="10" text-anchor="middle">2026-06-09</text><text x="770.0" y="340" fill="#c9d1d9" font-size="10" text-anchor="middle">2026-07-03</text>

  <!-- Legend -->
  <circle cx="650" cy="380" r="4" fill="#16a34a"/>
  <text x="658" y="384" fill="#c9d1d9" font-size="9">Win</text>
  <circle cx="690" cy="380" r="4" fill="#dc2626"/>
  <text x="698" y="384" fill="#c9d1d9" font-size="9">Loss</text>
  <line x1="730" y1="380" x2="745" y2="380" stroke="#c9d1d9" stroke-width="0.5" stroke-dasharray="4,4" opacity="0.5"/>
  <text x="750" y="384" fill="#c9d1d9" font-size="9">$10K baseline</text>
</svg>