<svg xmlns="http://www.w3.org/2000/svg" viewBox="0 0 800 400" width="800" height="400">
  <rect width="800" height="400" fill="#0d1117" rx="8"/>

  <!-- Title -->
  <text x="70" y="30" fill="#c9d1d9" font-family="system-ui, -apple-system, sans-serif" font-size="16" font-weight="bold">Claude's Paper Trading — Equity Curve</text>
  <text x="70" y="48" fill="#58a6ff" font-family="system-ui, sans-serif" font-size="12">
    $10,122.65 (+1.23%) | Win Rate: 41/102 (40%) | Realized: $-532.51
  </text>

  <!-- Grid lines -->
  <line x1="70" y1="320.0" x2="770" y2="320.0" stroke="#21262d" stroke-width="0.5"/><line x1="70" y1="268.0" x2="770" y2="268.0" stroke="#21262d" stroke-width="0.5"/><line x1="70" y1="216.0" x2="770" y2="216.0" stroke="#21262d" stroke-width="0.5"/><line x1="70" y1="164.0" x2="770" y2="164.0" stroke="#21262d" stroke-width="0.5"/><line x1="70" y1="112.0" x2="770" y2="112.0" stroke="#21262d" stroke-width="0.5"/><line x1="70" y1="60.0" x2="770" y2="60.0" stroke="#21262d" stroke-width="0.5"/>

  <!-- Baseline (starting capital) -->
  <line x1="70" y1="175.0" x2="770" y2="175.0" stroke="#c9d1d9" stroke-width="0.5" stroke-dasharray="4,4" opacity="0.5"/>
  <text x="775" y="175.0" fill="#c9d1d9" font-size="9" opacity="0.6" dominant-baseline="middle">$10K</text>

  <!-- Fill under curve -->
  <path d="M 70.0 188.9 L 94.1 165.6 L 118.3 181.4 L 142.4 262.4 L 166.6 270.6 L 190.7 220.5 L 214.8 206.9 L 239.0 188.3 L 263.1 185.9 L 287.2 197.5 L 311.4 185.1 L 335.5 161.1 L 359.7 163.0 L 383.8 200.1 L 407.9 175.0 L 432.1 175.0 L 456.2 175.0 L 480.3 175.0 L 504.5 168.7 L 528.6 148.0 L 552.8 164.4 L 576.9 126.5 L 601.0 117.1 L 625.2 190.6 L 649.3 180.5 L 673.4 181.5 L 697.6 177.5 L 721.7 174.8 L 745.9 141.9 L 770.0 161.7 L 770.0 320.0 L 70.0 320.0 Z" fill="#16a34a" opacity="0.1"/>

  <!-- Equity line -->
  <path d="M 70.0 188.9 L 94.1 165.6 L 118.3 181.4 L 142.4 262.4 L 166.6 270.6 L 190.7 220.5 L 214.8 206.9 L 239.0 188.3 L 263.1 185.9 L 287.2 197.5 L 311.4 185.1 L 335.5 161.1 L 359.7 163.0 L 383.8 200.1 L 407.9 175.0 L 432.1 175.0 L 456.2 175.0 L 480.3 175.0 L 504.5 168.7 L 528.6 148.0 L 552.8 164.4 L 576.9 126.5 L 601.0 117.1 L 625.2 190.6 L 649.3 180.5 L 673.4 181.5 L 697.6 177.5 L 721.7 174.8 L 745.9 141.9 L 770.0 161.7" fill="none" stroke="#16a34a" stroke-width="2.5" stroke-linecap="round" stroke-linejoin="round"/>

  <!-- Data points -->
  <circle cx="70.0" cy="188.9" r="3" fill="#16a34a"/><circle cx="94.1" cy="165.6" r="3" fill="#16a34a"/><circle cx="118.3" cy="181.4" r="3" fill="#16a34a"/><circle cx="142.4" cy="262.4" r="3" fill="#16a34a"/><circle cx="166.6" cy="270.6" r="3" fill="#16a34a"/><circle cx="190.7" cy="220.5" r="3" fill="#16a34a"/><circle cx="214.8" cy="206.9" r="3" fill="#16a34a"/><circle cx="239.0" cy="188.3" r="3" fill="#16a34a"/><circle cx="263.1" cy="185.9" r="3" fill="#16a34a"/><circle cx="287.2" cy="197.5" r="3" fill="#16a34a"/><circle cx="311.4" cy="185.1" r="3" fill="#16a34a"/><circle cx="335.5" cy="161.1" r="3" fill="#16a34a"/><circle cx="359.7" cy="163.0" r="3" fill="#16a34a"/><circle cx="383.8" cy="200.1" r="3" fill="#16a34a"/><circle cx="407.9" cy="175.0" r="3" fill="#16a34a"/><circle cx="432.1" cy="175.0" r="3" fill="#16a34a"/><circle cx="456.2" cy="175.0" r="3" fill="#16a34a"/><circle cx="480.3" cy="175.0" r="3" fill="#16a34a"/><circle cx="504.5" cy="168.7" r="3" fill="#16a34a"/><circle cx="528.6" cy="148.0" r="3" fill="#16a34a"/><circle cx="552.8" cy="164.4" r="3" fill="#16a34a"/><circle cx="576.9" cy="126.5" r="3" fill="#16a34a"/><circle cx="601.0" cy="117.1" r="3" fill="#16a34a"/><circle cx="625.2" cy="190.6" r="3" fill="#16a34a"/><circle cx="649.3" cy="180.5" r="3" fill="#16a34a"/><circle cx="673.4" cy="181.5" r="3" fill="#16a34a"/><circle cx="697.6" cy="177.5" r="3" fill="#16a34a"/><circle cx="721.7" cy="174.8" r="3" fill="#16a34a"/><circle cx="745.9" cy="141.9" r="3" fill="#16a34a"/><circle cx="770.0" cy="161.7" r="3" fill="#16a34a"/>

  <!-- Trade markers -->
  <circle cx="166.6" cy="270.6" r="4" fill="#dc2626" opacity="0.8"/>
<circle cx="190.7" cy="220.5" r="4" fill="#dc2626" opacity="0.8"/>
<circle cx="190.7" cy="220.5" r="4" fill="#dc2626" opacity="0.8"/>
<circle cx="190.7" cy="220.5" r="4" fill="#dc2626" opacity="0.8"/>
<circle cx="239.0" cy="188.3" r="4" fill="#dc2626" opacity="0.8"/>
<circle cx="239.0" cy="188.3" r="4" fill="#16a34a" opacity="0.8"/>
<circle cx="239.0" cy="188.3" r="4" fill="#dc2626" opacity="0.8"/>
<circle cx="239.0" cy="188.3" r="4" fill="#dc2626" opacity="0.8"/>
<circle cx="239.0" cy="188.3" r="4" fill="#16a34a" opacity="0.8"/>
<circle cx="263.1" cy="185.9" r="4" fill="#16a34a" opacity="0.8"/>
<circle cx="263.1" cy="185.9" r="4" fill="#dc2626" opacity="0.8"/>
<circle cx="263.1" cy="185.9" r="4" fill="#dc2626" opacity="0.8"/>
<circle cx="263.1" cy="185.9" r="4" fill="#dc2626" opacity="0.8"/>
<circle cx="287.2" cy="197.5" r="4" fill="#dc2626" opacity="0.8"/>
<circle cx="287.2" cy="197.5" r="4" fill="#16a34a" opacity="0.8"/>
<circle cx="287.2" cy="197.5" r="4" fill="#dc2626" opacity="0.8"/>
<circle cx="287.2" cy="197.5" r="4" fill="#dc2626" opacity="0.8"/>
<circle cx="287.2" cy="197.5" r="4" fill="#dc2626" opacity="0.8"/>
<circle cx="311.4" cy="185.1" r="4" fill="#16a34a" opacity="0.8"/>
<circle cx="311.4" cy="185.1" r="4" fill="#dc2626" opacity="0.8"/>
<circle cx="311.4" cy="185.1" r="4" fill="#16a34a" opacity="0.8"/>
<circle cx="311.4" cy="185.1" r="4" fill="#dc2626" opacity="0.8"/>
<circle cx="311.4" cy="185.1" r="4" fill="#dc2626" opacity="0.8"/>
<circle cx="335.5" cy="161.1" r="4" fill="#16a34a" opacity="0.8"/>
<circle cx="335.5" cy="161.1" r="4" fill="#16a34a" opacity="0.8"/>
<circle cx="335.5" cy="161.1" r="4" fill="#16a34a" opacity="0.8"/>
<circle cx="528.6" cy="148.0" r="4" fill="#dc2626" opacity="0.8"/>
<circle cx="528.6" cy="148.0" r="4" fill="#dc2626" opacity="0.8"/>
<circle cx="528.6" cy="148.0" r="4" fill="#16a34a" opacity="0.8"/>
<circle cx="528.6" cy="148.0" r="4" fill="#16a34a" opacity="0.8"/>
<circle cx="528.6" cy="148.0" r="4" fill="#16a34a" opacity="0.8"/>
<circle cx="552.8" cy="164.4" r="4" fill="#16a34a" opacity="0.8"/>
<circle cx="552.8" cy="164.4" r="4" fill="#16a34a" opacity="0.8"/>
<circle cx="552.8" cy="164.4" r="4" fill="#dc2626" opacity="0.8"/>
<circle cx="552.8" cy="164.4" r="4" fill="#16a34a" opacity="0.8"/>
<circle cx="552.8" cy="164.4" r="4" fill="#dc2626" opacity="0.8"/>
<circle cx="552.8" cy="164.4" r="4" fill="#dc2626" opacity="0.8"/>
<circle cx="552.8" cy="164.4" r="4" fill="#dc2626" opacity="0.8"/>
<circle cx="576.9" cy="126.5" r="4" fill="#dc2626" opacity="0.8"/>
<circle cx="576.9" cy="126.5" r="4" fill="#16a34a" opacity="0.8"/>
<circle cx="576.9" cy="126.5" r="4" fill="#16a34a" opacity="0.8"/>
<circle cx="576.9" cy="126.5" r="4" fill="#dc2626" opacity="0.8"/>
<circle cx="576.9" cy="126.5" r="4" fill="#16a34a" opacity="0.8"/>
<circle cx="576.9" cy="126.5" r="4" fill="#16a34a" opacity="0.8"/>
<circle cx="601.0" cy="117.1" r="4" fill="#dc2626" opacity="0.8"/>
<circle cx="601.0" cy="117.1" r="4" fill="#16a34a" opacity="0.8"/>
<circle cx="601.0" cy="117.1" r="4" fill="#16a34a" opacity="0.8"/>
<circle cx="601.0" cy="117.1" r="4" fill="#16a34a" opacity="0.8"/>
<circle cx="601.0" cy="117.1" r="4" fill="#dc2626" opacity="0.8"/>
<circle cx="601.0" cy="117.1" r="4" fill="#dc2626" opacity="0.8"/>
<circle cx="601.0" cy="117.1" r="4" fill="#16a34a" opacity="0.8"/>
<circle cx="625.2" cy="190.6" r="4" fill="#16a34a" opacity="0.8"/>
<circle cx="625.2" cy="190.6" r="4" fill="#dc2626" opacity="0.8"/>
<circle cx="625.2" cy="190.6" r="4" fill="#dc2626" opacity="0.8"/>
<circle cx="625.2" cy="190.6" r="4" fill="#16a34a" opacity="0.8"/>
<circle cx="625.2" cy="190.6" r="4" fill="#dc2626" opacity="0.8"/>
<circle cx="625.2" cy="190.6" r="4" fill="#dc2626" opacity="0.8"/>
<circle cx="625.2" cy="190.6" r="4" fill="#dc2626" opacity="0.8"/>
<circle cx="625.2" cy="190.6" r="4" fill="#dc2626" opacity="0.8"/>
<circle cx="625.2" cy="190.6" r="4" fill="#dc2626" opacity="0.8"/>
<circle cx="649.3" cy="180.5" r="4" fill="#dc2626" opacity="0.8"/>
<circle cx="649.3" cy="180.5" r="4" fill="#16a34a" opacity="0.8"/>
<circle cx="649.3" cy="180.5" r="4" fill="#dc2626" opacity="0.8"/>
<circle cx="649.3" cy="180.5" r="4" fill="#16a34a" opacity="0.8"/>
<circle cx="649.3" cy="180.5" r="4" fill="#16a34a" opacity="0.8"/>
<circle cx="649.3" cy="180.5" r="4" fill="#16a34a" opacity="0.8"/>
<circle cx="649.3" cy="180.5" r="4" fill="#16a34a" opacity="0.8"/>
<circle cx="649.3" cy="180.5" r="4" fill="#16a34a" opacity="0.8"/>
<circle cx="649.3" cy="180.5" r="4" fill="#dc2626" opacity="0.8"/>
<circle cx="673.4" cy="181.5" r="4" fill="#16a34a" opacity="0.8"/>
<circle cx="673.4" cy="181.5" r="4" fill="#dc2626" opacity="0.8"/>
<circle cx="673.4" cy="181.5" r="4" fill="#dc2626" opacity="0.8"/>
<circle cx="673.4" cy="181.5" r="4" fill="#16a34a" opacity="0.8"/>
<circle cx="673.4" cy="181.5" r="4" fill="#16a34a" opacity="0.8"/>
<circle cx="673.4" cy="181.5" r="4" fill="#16a34a" opacity="0.8"/>
<circle cx="673.4" cy="181.5" r="4" fill="#dc2626" opacity="0.8"/>
<circle cx="697.6" cy="177.5" r="4" fill="#dc2626" opacity="0.8"/>
<circle cx="697.6" cy="177.5" r="4" fill="#dc2626" opacity="0.8"/>
<circle cx="697.6" cy="177.5" r="4" fill="#dc2626" opacity="0.8"/>
<circle cx="697.6" cy="177.5" r="4" fill="#16a34a" opacity="0.8"/>
<circle cx="697.6" cy="177.5" r="4" fill="#16a34a" opacity="0.8"/>
<circle cx="697.6" cy="177.5" r="4" fill="#dc2626" opacity="0.8"/>
<circle cx="721.7" cy="174.8" r="4" fill="#dc2626" opacity="0.8"/>
<circle cx="721.7" cy="174.8" r="4" fill="#dc2626" opacity="0.8"/>
<circle cx="721.7" cy="174.8" r="4" fill="#dc2626" opacity="0.8"/>
<circle cx="721.7" cy="174.8" r="4" fill="#dc2626" opacity="0.8"/>
<circle cx="721.7" cy="174.8" r="4" fill="#16a34a" opacity="0.8"/>
<circle cx="721.7" cy="174.8" r="4" fill="#dc2626" opacity="0.8"/>
<circle cx="721.7" cy="174.8" r="4" fill="#dc2626" opacity="0.8"/>
<circle cx="721.7" cy="174.8" r="4" fill="#dc2626" opacity="0.8"/>
<circle cx="721.7" cy="174.8" r="4" fill="#dc2626" opacity="0.8"/>
<circle cx="745.9" cy="141.9" r="4" fill="#dc2626" opacity="0.8"/>
<circle cx="745.9" cy="141.9" r="4" fill="#16a34a" opacity="0.8"/>
<circle cx="745.9" cy="141.9" r="4" fill="#dc2626" opacity="0.8"/>
<circle cx="745.9" cy="141.9" r="4" fill="#16a34a" opacity="0.8"/>
<circle cx="745.9" cy="141.9" r="4" fill="#dc2626" opacity="0.8"/>
<circle cx="745.9" cy="141.9" r="4" fill="#dc2626" opacity="0.8"/>
<circle cx="770.0" cy="161.7" r="4" fill="#dc2626" opacity="0.8"/>
<circle cx="770.0" cy="161.7" r="4" fill="#16a34a" opacity="0.8"/>
<circle cx="770.0" cy="161.7" r="4" fill="#dc2626" opacity="0.8"/>
<circle cx="770.0" cy="161.7" r="4" fill="#dc2626" opacity="0.8"/>
<circle cx="770.0" cy="161.7" r="4" fill="#dc2626" opacity="0.8"/>


  <!-- Y-axis labels -->
  <text x="62" y="320.0" fill="#c9d1d9" font-size="10" text-anchor="end" dominant-baseline="middle">$8,663</text><text x="62" y="268.0" fill="#c9d1d9" font-size="10" text-anchor="end" dominant-baseline="middle">$9,143</text><text x="62" y="216.0" fill="#c9d1d9" font-size="10" text-anchor="end" dominant-baseline="middle">$9,622</text><text x="62" y="164.0" fill="#c9d1d9" font-size="10" text-anchor="end" dominant-baseline="middle">$10,102</text><text x="62" y="112.0" fill="#c9d1d9" font-size="10" text-anchor="end" dominant-baseline="middle">$10,581</text><text x="62" y="60.0" fill="#c9d1d9" font-size="10" text-anchor="end" dominant-baseline="middle">$11,061</text>

  <!-- X-axis labels -->
  <text x="70.0" y="340" fill="#c9d1d9" font-size="10" text-anchor="middle">2026-05-13</text><text x="432.1" y="340" fill="#c9d1d9" font-size="10" text-anchor="middle">2026-06-03</text><text x="770.0" y="340" fill="#c9d1d9" font-size="10" text-anchor="middle">2026-06-23</text>

  <!-- Legend -->
  <circle cx="650" cy="380" r="4" fill="#16a34a"/>
  <text x="658" y="384" fill="#c9d1d9" font-size="9">Win</text>
  <circle cx="690" cy="380" r="4" fill="#dc2626"/>
  <text x="698" y="384" fill="#c9d1d9" font-size="9">Loss</text>
  <line x1="730" y1="380" x2="745" y2="380" stroke="#c9d1d9" stroke-width="0.5" stroke-dasharray="4,4" opacity="0.5"/>
  <text x="750" y="384" fill="#c9d1d9" font-size="9">$10K baseline</text>
</svg>