<svg xmlns="http://www.w3.org/2000/svg" viewBox="0 0 800 400" width="800" height="400">
  <rect width="800" height="400" fill="#0d1117" rx="8"/>

  <!-- Title -->
  <text x="70" y="30" fill="#c9d1d9" font-family="system-ui, -apple-system, sans-serif" font-size="16" font-weight="bold">Claude's Paper Trading — Equity Curve</text>
  <text x="70" y="48" fill="#58a6ff" font-family="system-ui, sans-serif" font-size="12">
    $10,425.97 (+4.26%) | Win Rate: 25/56 (45%) | Realized: $-166.26
  </text>

  <!-- Grid lines -->
  <line x1="70" y1="320.0" x2="770" y2="320.0" stroke="#21262d" stroke-width="0.5"/><line x1="70" y1="268.0" x2="770" y2="268.0" stroke="#21262d" stroke-width="0.5"/><line x1="70" y1="216.0" x2="770" y2="216.0" stroke="#21262d" stroke-width="0.5"/><line x1="70" y1="164.0" x2="770" y2="164.0" stroke="#21262d" stroke-width="0.5"/><line x1="70" y1="112.0" x2="770" y2="112.0" stroke="#21262d" stroke-width="0.5"/><line x1="70" y1="60.0" x2="770" y2="60.0" stroke="#21262d" stroke-width="0.5"/>

  <!-- Baseline (starting capital) -->
  <line x1="70" y1="175.0" x2="770" y2="175.0" stroke="#c9d1d9" stroke-width="0.5" stroke-dasharray="4,4" opacity="0.5"/>
  <text x="775" y="175.0" fill="#c9d1d9" font-size="9" opacity="0.6" dominant-baseline="middle">$10K</text>

  <!-- Fill under curve -->
  <path d="M 70.0 188.9 L 100.4 165.6 L 130.9 181.4 L 161.3 262.4 L 191.7 270.6 L 222.2 220.5 L 252.6 206.9 L 283.0 188.3 L 313.5 185.9 L 343.9 197.5 L 374.3 185.1 L 404.8 161.1 L 435.2 163.0 L 465.7 200.1 L 496.1 175.0 L 526.5 175.0 L 557.0 175.0 L 587.4 175.0 L 617.8 168.7 L 648.3 148.0 L 678.7 164.4 L 709.1 126.5 L 739.6 117.1 L 770.0 128.8 L 770.0 320.0 L 70.0 320.0 Z" fill="#16a34a" opacity="0.1"/>

  <!-- Equity line -->
  <path d="M 70.0 188.9 L 100.4 165.6 L 130.9 181.4 L 161.3 262.4 L 191.7 270.6 L 222.2 220.5 L 252.6 206.9 L 283.0 188.3 L 313.5 185.9 L 343.9 197.5 L 374.3 185.1 L 404.8 161.1 L 435.2 163.0 L 465.7 200.1 L 496.1 175.0 L 526.5 175.0 L 557.0 175.0 L 587.4 175.0 L 617.8 168.7 L 648.3 148.0 L 678.7 164.4 L 709.1 126.5 L 739.6 117.1 L 770.0 128.8" fill="none" stroke="#16a34a" stroke-width="2.5" stroke-linecap="round" stroke-linejoin="round"/>

  <!-- Data points -->
  <circle cx="70.0" cy="188.9" r="3" fill="#16a34a"/><circle cx="100.4" cy="165.6" r="3" fill="#16a34a"/><circle cx="130.9" cy="181.4" r="3" fill="#16a34a"/><circle cx="161.3" cy="262.4" r="3" fill="#16a34a"/><circle cx="191.7" cy="270.6" r="3" fill="#16a34a"/><circle cx="222.2" cy="220.5" r="3" fill="#16a34a"/><circle cx="252.6" cy="206.9" r="3" fill="#16a34a"/><circle cx="283.0" cy="188.3" r="3" fill="#16a34a"/><circle cx="313.5" cy="185.9" r="3" fill="#16a34a"/><circle cx="343.9" cy="197.5" r="3" fill="#16a34a"/><circle cx="374.3" cy="185.1" r="3" fill="#16a34a"/><circle cx="404.8" cy="161.1" r="3" fill="#16a34a"/><circle cx="435.2" cy="163.0" r="3" fill="#16a34a"/><circle cx="465.7" cy="200.1" r="3" fill="#16a34a"/><circle cx="496.1" cy="175.0" r="3" fill="#16a34a"/><circle cx="526.5" cy="175.0" r="3" fill="#16a34a"/><circle cx="557.0" cy="175.0" r="3" fill="#16a34a"/><circle cx="587.4" cy="175.0" r="3" fill="#16a34a"/><circle cx="617.8" cy="168.7" r="3" fill="#16a34a"/><circle cx="648.3" cy="148.0" r="3" fill="#16a34a"/><circle cx="678.7" cy="164.4" r="3" fill="#16a34a"/><circle cx="709.1" cy="126.5" r="3" fill="#16a34a"/><circle cx="739.6" cy="117.1" r="3" fill="#16a34a"/><circle cx="770.0" cy="128.8" r="3" fill="#16a34a"/>

  <!-- Trade markers -->
  <circle cx="191.7" cy="270.6" r="4" fill="#dc2626" opacity="0.8"/>
<circle cx="222.2" cy="220.5" r="4" fill="#dc2626" opacity="0.8"/>
<circle cx="222.2" cy="220.5" r="4" fill="#dc2626" opacity="0.8"/>
<circle cx="222.2" cy="220.5" r="4" fill="#dc2626" opacity="0.8"/>
<circle cx="283.0" cy="188.3" r="4" fill="#dc2626" opacity="0.8"/>
<circle cx="283.0" cy="188.3" r="4" fill="#16a34a" opacity="0.8"/>
<circle cx="283.0" cy="188.3" r="4" fill="#dc2626" opacity="0.8"/>
<circle cx="283.0" cy="188.3" r="4" fill="#dc2626" opacity="0.8"/>
<circle cx="283.0" cy="188.3" r="4" fill="#16a34a" opacity="0.8"/>
<circle cx="313.5" cy="185.9" r="4" fill="#16a34a" opacity="0.8"/>
<circle cx="313.5" cy="185.9" r="4" fill="#dc2626" opacity="0.8"/>
<circle cx="313.5" cy="185.9" r="4" fill="#dc2626" opacity="0.8"/>
<circle cx="313.5" cy="185.9" r="4" fill="#dc2626" opacity="0.8"/>
<circle cx="343.9" cy="197.5" r="4" fill="#dc2626" opacity="0.8"/>
<circle cx="343.9" cy="197.5" r="4" fill="#16a34a" opacity="0.8"/>
<circle cx="343.9" cy="197.5" r="4" fill="#dc2626" opacity="0.8"/>
<circle cx="343.9" cy="197.5" r="4" fill="#dc2626" opacity="0.8"/>
<circle cx="343.9" cy="197.5" r="4" fill="#dc2626" opacity="0.8"/>
<circle cx="374.3" cy="185.1" r="4" fill="#16a34a" opacity="0.8"/>
<circle cx="374.3" cy="185.1" r="4" fill="#dc2626" opacity="0.8"/>
<circle cx="374.3" cy="185.1" r="4" fill="#16a34a" opacity="0.8"/>
<circle cx="374.3" cy="185.1" r="4" fill="#dc2626" opacity="0.8"/>
<circle cx="374.3" cy="185.1" r="4" fill="#dc2626" opacity="0.8"/>
<circle cx="404.8" cy="161.1" r="4" fill="#16a34a" opacity="0.8"/>
<circle cx="404.8" cy="161.1" r="4" fill="#16a34a" opacity="0.8"/>
<circle cx="404.8" cy="161.1" r="4" fill="#16a34a" opacity="0.8"/>
<circle cx="648.3" cy="148.0" r="4" fill="#dc2626" opacity="0.8"/>
<circle cx="648.3" cy="148.0" r="4" fill="#dc2626" opacity="0.8"/>
<circle cx="648.3" cy="148.0" r="4" fill="#16a34a" opacity="0.8"/>
<circle cx="648.3" cy="148.0" r="4" fill="#16a34a" opacity="0.8"/>
<circle cx="648.3" cy="148.0" r="4" fill="#16a34a" opacity="0.8"/>
<circle cx="678.7" cy="164.4" r="4" fill="#16a34a" opacity="0.8"/>
<circle cx="678.7" cy="164.4" r="4" fill="#16a34a" opacity="0.8"/>
<circle cx="678.7" cy="164.4" r="4" fill="#dc2626" opacity="0.8"/>
<circle cx="678.7" cy="164.4" r="4" fill="#16a34a" opacity="0.8"/>
<circle cx="678.7" cy="164.4" r="4" fill="#dc2626" opacity="0.8"/>
<circle cx="678.7" cy="164.4" r="4" fill="#dc2626" opacity="0.8"/>
<circle cx="678.7" cy="164.4" r="4" fill="#dc2626" opacity="0.8"/>
<circle cx="709.1" cy="126.5" r="4" fill="#dc2626" opacity="0.8"/>
<circle cx="709.1" cy="126.5" r="4" fill="#16a34a" opacity="0.8"/>
<circle cx="709.1" cy="126.5" r="4" fill="#16a34a" opacity="0.8"/>
<circle cx="709.1" cy="126.5" r="4" fill="#dc2626" opacity="0.8"/>
<circle cx="709.1" cy="126.5" r="4" fill="#16a34a" opacity="0.8"/>
<circle cx="709.1" cy="126.5" r="4" fill="#16a34a" opacity="0.8"/>
<circle cx="739.6" cy="117.1" r="4" fill="#dc2626" opacity="0.8"/>
<circle cx="739.6" cy="117.1" r="4" fill="#16a34a" opacity="0.8"/>
<circle cx="739.6" cy="117.1" r="4" fill="#16a34a" opacity="0.8"/>
<circle cx="739.6" cy="117.1" r="4" fill="#16a34a" opacity="0.8"/>
<circle cx="739.6" cy="117.1" r="4" fill="#dc2626" opacity="0.8"/>
<circle cx="739.6" cy="117.1" r="4" fill="#dc2626" opacity="0.8"/>
<circle cx="739.6" cy="117.1" r="4" fill="#16a34a" opacity="0.8"/>
<circle cx="770.0" cy="128.8" r="4" fill="#16a34a" opacity="0.8"/>
<circle cx="770.0" cy="128.8" r="4" fill="#dc2626" opacity="0.8"/>
<circle cx="770.0" cy="128.8" r="4" fill="#dc2626" opacity="0.8"/>
<circle cx="770.0" cy="128.8" r="4" fill="#16a34a" opacity="0.8"/>
<circle cx="770.0" cy="128.8" r="4" fill="#dc2626" opacity="0.8"/>


  <!-- Y-axis labels -->
  <text x="62" y="320.0" fill="#c9d1d9" font-size="10" text-anchor="end" dominant-baseline="middle">$8,663</text><text x="62" y="268.0" fill="#c9d1d9" font-size="10" text-anchor="end" dominant-baseline="middle">$9,143</text><text x="62" y="216.0" fill="#c9d1d9" font-size="10" text-anchor="end" dominant-baseline="middle">$9,622</text><text x="62" y="164.0" fill="#c9d1d9" font-size="10" text-anchor="end" dominant-baseline="middle">$10,102</text><text x="62" y="112.0" fill="#c9d1d9" font-size="10" text-anchor="end" dominant-baseline="middle">$10,581</text><text x="62" y="60.0" fill="#c9d1d9" font-size="10" text-anchor="end" dominant-baseline="middle">$11,061</text>

  <!-- X-axis labels -->
  <text x="70.0" y="340" fill="#c9d1d9" font-size="10" text-anchor="middle">2026-05-13</text><text x="435.2" y="340" fill="#c9d1d9" font-size="10" text-anchor="middle">2026-05-29</text><text x="770.0" y="340" fill="#c9d1d9" font-size="10" text-anchor="middle">2026-06-15</text>

  <!-- Legend -->
  <circle cx="650" cy="380" r="4" fill="#16a34a"/>
  <text x="658" y="384" fill="#c9d1d9" font-size="9">Win</text>
  <circle cx="690" cy="380" r="4" fill="#dc2626"/>
  <text x="698" y="384" fill="#c9d1d9" font-size="9">Loss</text>
  <line x1="730" y1="380" x2="745" y2="380" stroke="#c9d1d9" stroke-width="0.5" stroke-dasharray="4,4" opacity="0.5"/>
  <text x="750" y="384" fill="#c9d1d9" font-size="9">$10K baseline</text>
</svg>