<svg xmlns="http://www.w3.org/2000/svg" viewBox="0 0 800 400" width="800" height="400">
  <rect width="800" height="400" fill="#0d1117" rx="8"/>

  <!-- Title -->
  <text x="70" y="30" fill="#c9d1d9" font-family="system-ui, -apple-system, sans-serif" font-size="16" font-weight="bold">Claude's Paper Trading — Equity Curve</text>
  <text x="70" y="48" fill="#58a6ff" font-family="system-ui, sans-serif" font-size="12">
    $11,446.56 (+14.47%) | Win Rate: 59/141 (42%) | Realized: $+214.43
  </text>

  <!-- Grid lines -->
  <line x1="70" y1="320.0" x2="770" y2="320.0" stroke="#21262d" stroke-width="0.5"/><line x1="70" y1="268.0" x2="770" y2="268.0" stroke="#21262d" stroke-width="0.5"/><line x1="70" y1="216.0" x2="770" y2="216.0" stroke="#21262d" stroke-width="0.5"/><line x1="70" y1="164.0" x2="770" y2="164.0" stroke="#21262d" stroke-width="0.5"/><line x1="70" y1="112.0" x2="770" y2="112.0" stroke="#21262d" stroke-width="0.5"/><line x1="70" y1="60.0" x2="770" y2="60.0" stroke="#21262d" stroke-width="0.5"/>

  <!-- Baseline (starting capital) -->
  <line x1="70" y1="216.4" x2="770" y2="216.4" stroke="#c9d1d9" stroke-width="0.5" stroke-dasharray="4,4" opacity="0.5"/>
  <text x="775" y="216.4" fill="#c9d1d9" font-size="9" opacity="0.6" dominant-baseline="middle">$10K</text>

  <!-- Fill under curve -->
  <path d="M 70.0 226.3 L 90.0 209.7 L 110.0 221.0 L 130.0 278.9 L 150.0 284.7 L 170.0 248.9 L 190.0 239.2 L 210.0 225.9 L 230.0 224.2 L 250.0 232.5 L 270.0 223.6 L 290.0 206.5 L 310.0 207.8 L 330.0 234.4 L 350.0 216.4 L 370.0 216.4 L 390.0 216.4 L 410.0 216.4 L 430.0 211.9 L 450.0 197.1 L 470.0 208.8 L 490.0 181.8 L 510.0 175.1 L 530.0 227.5 L 550.0 220.3 L 570.0 221.0 L 590.0 218.2 L 610.0 216.3 L 630.0 192.7 L 650.0 219.8 L 670.0 187.0 L 690.0 179.6 L 710.0 171.3 L 730.0 172.8 L 750.0 150.6 L 770.0 104.3 L 770.0 320.0 L 70.0 320.0 Z" fill="#16a34a" opacity="0.1"/>

  <!-- Equity line -->
  <path d="M 70.0 226.3 L 90.0 209.7 L 110.0 221.0 L 130.0 278.9 L 150.0 284.7 L 170.0 248.9 L 190.0 239.2 L 210.0 225.9 L 230.0 224.2 L 250.0 232.5 L 270.0 223.6 L 290.0 206.5 L 310.0 207.8 L 330.0 234.4 L 350.0 216.4 L 370.0 216.4 L 390.0 216.4 L 410.0 216.4 L 430.0 211.9 L 450.0 197.1 L 470.0 208.8 L 490.0 181.8 L 510.0 175.1 L 530.0 227.5 L 550.0 220.3 L 570.0 221.0 L 590.0 218.2 L 610.0 216.3 L 630.0 192.7 L 650.0 219.8 L 670.0 187.0 L 690.0 179.6 L 710.0 171.3 L 730.0 172.8 L 750.0 150.6 L 770.0 104.3" fill="none" stroke="#16a34a" stroke-width="2.5" stroke-linecap="round" stroke-linejoin="round"/>

  <!-- Data points -->
  <circle cx="70.0" cy="226.3" r="3" fill="#16a34a"/><circle cx="90.0" cy="209.7" r="3" fill="#16a34a"/><circle cx="110.0" cy="221.0" r="3" fill="#16a34a"/><circle cx="130.0" cy="278.9" r="3" fill="#16a34a"/><circle cx="150.0" cy="284.7" r="3" fill="#16a34a"/><circle cx="170.0" cy="248.9" r="3" fill="#16a34a"/><circle cx="190.0" cy="239.2" r="3" fill="#16a34a"/><circle cx="210.0" cy="225.9" r="3" fill="#16a34a"/><circle cx="230.0" cy="224.2" r="3" fill="#16a34a"/><circle cx="250.0" cy="232.5" r="3" fill="#16a34a"/><circle cx="270.0" cy="223.6" r="3" fill="#16a34a"/><circle cx="290.0" cy="206.5" r="3" fill="#16a34a"/><circle cx="310.0" cy="207.8" r="3" fill="#16a34a"/><circle cx="330.0" cy="234.4" r="3" fill="#16a34a"/><circle cx="350.0" cy="216.4" r="3" fill="#16a34a"/><circle cx="370.0" cy="216.4" r="3" fill="#16a34a"/><circle cx="390.0" cy="216.4" r="3" fill="#16a34a"/><circle cx="410.0" cy="216.4" r="3" fill="#16a34a"/><circle cx="430.0" cy="211.9" r="3" fill="#16a34a"/><circle cx="450.0" cy="197.1" r="3" fill="#16a34a"/><circle cx="470.0" cy="208.8" r="3" fill="#16a34a"/><circle cx="490.0" cy="181.8" r="3" fill="#16a34a"/><circle cx="510.0" cy="175.1" r="3" fill="#16a34a"/><circle cx="530.0" cy="227.5" r="3" fill="#16a34a"/><circle cx="550.0" cy="220.3" r="3" fill="#16a34a"/><circle cx="570.0" cy="221.0" r="3" fill="#16a34a"/><circle cx="590.0" cy="218.2" r="3" fill="#16a34a"/><circle cx="610.0" cy="216.3" r="3" fill="#16a34a"/><circle cx="630.0" cy="192.7" r="3" fill="#16a34a"/><circle cx="650.0" cy="219.8" r="3" fill="#16a34a"/><circle cx="670.0" cy="187.0" r="3" fill="#16a34a"/><circle cx="690.0" cy="179.6" r="3" fill="#16a34a"/><circle cx="710.0" cy="171.3" r="3" fill="#16a34a"/><circle cx="730.0" cy="172.8" r="3" fill="#16a34a"/><circle cx="750.0" cy="150.6" r="3" fill="#16a34a"/><circle cx="770.0" cy="104.3" r="3" fill="#16a34a"/>

  <!-- Trade markers -->
  <circle cx="150.0" cy="284.7" r="4" fill="#dc2626" opacity="0.8"/>
<circle cx="170.0" cy="248.9" r="4" fill="#dc2626" opacity="0.8"/>
<circle cx="170.0" cy="248.9" r="4" fill="#dc2626" opacity="0.8"/>
<circle cx="170.0" cy="248.9" r="4" fill="#dc2626" opacity="0.8"/>
<circle cx="210.0" cy="225.9" r="4" fill="#dc2626" opacity="0.8"/>
<circle cx="210.0" cy="225.9" r="4" fill="#16a34a" opacity="0.8"/>
<circle cx="210.0" cy="225.9" r="4" fill="#dc2626" opacity="0.8"/>
<circle cx="210.0" cy="225.9" r="4" fill="#dc2626" opacity="0.8"/>
<circle cx="210.0" cy="225.9" r="4" fill="#16a34a" opacity="0.8"/>
<circle cx="230.0" cy="224.2" r="4" fill="#16a34a" opacity="0.8"/>
<circle cx="230.0" cy="224.2" r="4" fill="#dc2626" opacity="0.8"/>
<circle cx="230.0" cy="224.2" r="4" fill="#dc2626" opacity="0.8"/>
<circle cx="230.0" cy="224.2" r="4" fill="#dc2626" opacity="0.8"/>
<circle cx="250.0" cy="232.5" r="4" fill="#dc2626" opacity="0.8"/>
<circle cx="250.0" cy="232.5" r="4" fill="#16a34a" opacity="0.8"/>
<circle cx="250.0" cy="232.5" r="4" fill="#dc2626" opacity="0.8"/>
<circle cx="250.0" cy="232.5" r="4" fill="#dc2626" opacity="0.8"/>
<circle cx="250.0" cy="232.5" r="4" fill="#dc2626" opacity="0.8"/>
<circle cx="270.0" cy="223.6" r="4" fill="#16a34a" opacity="0.8"/>
<circle cx="270.0" cy="223.6" r="4" fill="#dc2626" opacity="0.8"/>
<circle cx="270.0" cy="223.6" r="4" fill="#16a34a" opacity="0.8"/>
<circle cx="270.0" cy="223.6" r="4" fill="#dc2626" opacity="0.8"/>
<circle cx="270.0" cy="223.6" r="4" fill="#dc2626" opacity="0.8"/>
<circle cx="290.0" cy="206.5" r="4" fill="#16a34a" opacity="0.8"/>
<circle cx="290.0" cy="206.5" r="4" fill="#16a34a" opacity="0.8"/>
<circle cx="290.0" cy="206.5" r="4" fill="#16a34a" opacity="0.8"/>
<circle cx="450.0" cy="197.1" r="4" fill="#dc2626" opacity="0.8"/>
<circle cx="450.0" cy="197.1" r="4" fill="#dc2626" opacity="0.8"/>
<circle cx="450.0" cy="197.1" r="4" fill="#16a34a" opacity="0.8"/>
<circle cx="450.0" cy="197.1" r="4" fill="#16a34a" opacity="0.8"/>
<circle cx="450.0" cy="197.1" r="4" fill="#16a34a" opacity="0.8"/>
<circle cx="470.0" cy="208.8" r="4" fill="#16a34a" opacity="0.8"/>
<circle cx="470.0" cy="208.8" r="4" fill="#16a34a" opacity="0.8"/>
<circle cx="470.0" cy="208.8" r="4" fill="#dc2626" opacity="0.8"/>
<circle cx="470.0" cy="208.8" r="4" fill="#16a34a" opacity="0.8"/>
<circle cx="470.0" cy="208.8" r="4" fill="#dc2626" opacity="0.8"/>
<circle cx="470.0" cy="208.8" r="4" fill="#dc2626" opacity="0.8"/>
<circle cx="470.0" cy="208.8" r="4" fill="#dc2626" opacity="0.8"/>
<circle cx="490.0" cy="181.8" r="4" fill="#dc2626" opacity="0.8"/>
<circle cx="490.0" cy="181.8" r="4" fill="#16a34a" opacity="0.8"/>
<circle cx="490.0" cy="181.8" r="4" fill="#16a34a" opacity="0.8"/>
<circle cx="490.0" cy="181.8" r="4" fill="#dc2626" opacity="0.8"/>
<circle cx="490.0" cy="181.8" r="4" fill="#16a34a" opacity="0.8"/>
<circle cx="490.0" cy="181.8" r="4" fill="#16a34a" opacity="0.8"/>
<circle cx="510.0" cy="175.1" r="4" fill="#dc2626" opacity="0.8"/>
<circle cx="510.0" cy="175.1" r="4" fill="#16a34a" opacity="0.8"/>
<circle cx="510.0" cy="175.1" r="4" fill="#16a34a" opacity="0.8"/>
<circle cx="510.0" cy="175.1" r="4" fill="#16a34a" opacity="0.8"/>
<circle cx="510.0" cy="175.1" r="4" fill="#dc2626" opacity="0.8"/>
<circle cx="510.0" cy="175.1" r="4" fill="#dc2626" opacity="0.8"/>
<circle cx="510.0" cy="175.1" r="4" fill="#16a34a" opacity="0.8"/>
<circle cx="530.0" cy="227.5" r="4" fill="#16a34a" opacity="0.8"/>
<circle cx="530.0" cy="227.5" r="4" fill="#dc2626" opacity="0.8"/>
<circle cx="530.0" cy="227.5" r="4" fill="#dc2626" opacity="0.8"/>
<circle cx="530.0" cy="227.5" r="4" fill="#16a34a" opacity="0.8"/>
<circle cx="530.0" cy="227.5" r="4" fill="#dc2626" opacity="0.8"/>
<circle cx="530.0" cy="227.5" r="4" fill="#dc2626" opacity="0.8"/>
<circle cx="530.0" cy="227.5" r="4" fill="#dc2626" opacity="0.8"/>
<circle cx="530.0" cy="227.5" r="4" fill="#dc2626" opacity="0.8"/>
<circle cx="530.0" cy="227.5" r="4" fill="#dc2626" opacity="0.8"/>
<circle cx="550.0" cy="220.3" r="4" fill="#dc2626" opacity="0.8"/>
<circle cx="550.0" cy="220.3" r="4" fill="#16a34a" opacity="0.8"/>
<circle cx="550.0" cy="220.3" r="4" fill="#dc2626" opacity="0.8"/>
<circle cx="550.0" cy="220.3" r="4" fill="#16a34a" opacity="0.8"/>
<circle cx="550.0" cy="220.3" r="4" fill="#16a34a" opacity="0.8"/>
<circle cx="550.0" cy="220.3" r="4" fill="#16a34a" opacity="0.8"/>
<circle cx="550.0" cy="220.3" r="4" fill="#16a34a" opacity="0.8"/>
<circle cx="550.0" cy="220.3" r="4" fill="#16a34a" opacity="0.8"/>
<circle cx="550.0" cy="220.3" r="4" fill="#dc2626" opacity="0.8"/>
<circle cx="570.0" cy="221.0" r="4" fill="#16a34a" opacity="0.8"/>
<circle cx="570.0" cy="221.0" r="4" fill="#dc2626" opacity="0.8"/>
<circle cx="570.0" cy="221.0" r="4" fill="#dc2626" opacity="0.8"/>
<circle cx="570.0" cy="221.0" r="4" fill="#16a34a" opacity="0.8"/>
<circle cx="570.0" cy="221.0" r="4" fill="#16a34a" opacity="0.8"/>
<circle cx="570.0" cy="221.0" r="4" fill="#16a34a" opacity="0.8"/>
<circle cx="570.0" cy="221.0" r="4" fill="#dc2626" opacity="0.8"/>
<circle cx="590.0" cy="218.2" r="4" fill="#dc2626" opacity="0.8"/>
<circle cx="590.0" cy="218.2" r="4" fill="#dc2626" opacity="0.8"/>
<circle cx="590.0" cy="218.2" r="4" fill="#dc2626" opacity="0.8"/>
<circle cx="590.0" cy="218.2" r="4" fill="#16a34a" opacity="0.8"/>
<circle cx="590.0" cy="218.2" r="4" fill="#16a34a" opacity="0.8"/>
<circle cx="590.0" cy="218.2" r="4" fill="#dc2626" opacity="0.8"/>
<circle cx="610.0" cy="216.3" r="4" fill="#dc2626" opacity="0.8"/>
<circle cx="610.0" cy="216.3" r="4" fill="#dc2626" opacity="0.8"/>
<circle cx="610.0" cy="216.3" r="4" fill="#dc2626" opacity="0.8"/>
<circle cx="610.0" cy="216.3" r="4" fill="#dc2626" opacity="0.8"/>
<circle cx="610.0" cy="216.3" r="4" fill="#16a34a" opacity="0.8"/>
<circle cx="610.0" cy="216.3" r="4" fill="#dc2626" opacity="0.8"/>
<circle cx="610.0" cy="216.3" r="4" fill="#dc2626" opacity="0.8"/>
<circle cx="610.0" cy="216.3" r="4" fill="#dc2626" opacity="0.8"/>
<circle cx="610.0" cy="216.3" r="4" fill="#dc2626" opacity="0.8"/>
<circle cx="630.0" cy="192.7" r="4" fill="#dc2626" opacity="0.8"/>
<circle cx="630.0" cy="192.7" r="4" fill="#16a34a" opacity="0.8"/>
<circle cx="630.0" cy="192.7" r="4" fill="#dc2626" opacity="0.8"/>
<circle cx="630.0" cy="192.7" r="4" fill="#16a34a" opacity="0.8"/>
<circle cx="630.0" cy="192.7" r="4" fill="#dc2626" opacity="0.8"/>
<circle cx="630.0" cy="192.7" r="4" fill="#dc2626" opacity="0.8"/>
<circle cx="650.0" cy="219.8" r="4" fill="#dc2626" opacity="0.8"/>
<circle cx="650.0" cy="219.8" r="4" fill="#16a34a" opacity="0.8"/>
<circle cx="650.0" cy="219.8" r="4" fill="#dc2626" opacity="0.8"/>
<circle cx="650.0" cy="219.8" r="4" fill="#dc2626" opacity="0.8"/>
<circle cx="650.0" cy="219.8" r="4" fill="#dc2626" opacity="0.8"/>
<circle cx="650.0" cy="219.8" r="4" fill="#16a34a" opacity="0.8"/>
<circle cx="650.0" cy="219.8" r="4" fill="#dc2626" opacity="0.8"/>
<circle cx="650.0" cy="219.8" r="4" fill="#dc2626" opacity="0.8"/>
<circle cx="670.0" cy="187.0" r="4" fill="#dc2626" opacity="0.8"/>
<circle cx="670.0" cy="187.0" r="4" fill="#dc2626" opacity="0.8"/>
<circle cx="670.0" cy="187.0" r="4" fill="#16a34a" opacity="0.8"/>
<circle cx="670.0" cy="187.0" r="4" fill="#16a34a" opacity="0.8"/>
<circle cx="670.0" cy="187.0" r="4" fill="#dc2626" opacity="0.8"/>
<circle cx="690.0" cy="179.6" r="4" fill="#16a34a" opacity="0.8"/>
<circle cx="690.0" cy="179.6" r="4" fill="#dc2626" opacity="0.8"/>
<circle cx="690.0" cy="179.6" r="4" fill="#dc2626" opacity="0.8"/>
<circle cx="690.0" cy="179.6" r="4" fill="#dc2626" opacity="0.8"/>
<circle cx="690.0" cy="179.6" r="4" fill="#dc2626" opacity="0.8"/>
<circle cx="690.0" cy="179.6" r="4" fill="#16a34a" opacity="0.8"/>
<circle cx="690.0" cy="179.6" r="4" fill="#dc2626" opacity="0.8"/>
<circle cx="690.0" cy="179.6" r="4" fill="#dc2626" opacity="0.8"/>
<circle cx="710.0" cy="171.3" r="4" fill="#dc2626" opacity="0.8"/>
<circle cx="710.0" cy="171.3" r="4" fill="#dc2626" opacity="0.8"/>
<circle cx="710.0" cy="171.3" r="4" fill="#dc2626" opacity="0.8"/>
<circle cx="710.0" cy="171.3" r="4" fill="#dc2626" opacity="0.8"/>
<circle cx="710.0" cy="171.3" r="4" fill="#dc2626" opacity="0.8"/>
<circle cx="710.0" cy="171.3" r="4" fill="#dc2626" opacity="0.8"/>
<circle cx="710.0" cy="171.3" r="4" fill="#16a34a" opacity="0.8"/>
<circle cx="710.0" cy="171.3" r="4" fill="#16a34a" opacity="0.8"/>
<circle cx="710.0" cy="171.3" r="4" fill="#16a34a" opacity="0.8"/>
<circle cx="730.0" cy="172.8" r="4" fill="#16a34a" opacity="0.8"/>
<circle cx="730.0" cy="172.8" r="4" fill="#dc2626" opacity="0.8"/>
<circle cx="730.0" cy="172.8" r="4" fill="#16a34a" opacity="0.8"/>
<circle cx="730.0" cy="172.8" r="4" fill="#16a34a" opacity="0.8"/>
<circle cx="730.0" cy="172.8" r="4" fill="#16a34a" opacity="0.8"/>
<circle cx="730.0" cy="172.8" r="4" fill="#dc2626" opacity="0.8"/>
<circle cx="730.0" cy="172.8" r="4" fill="#16a34a" opacity="0.8"/>
<circle cx="730.0" cy="172.8" r="4" fill="#dc2626" opacity="0.8"/>
<circle cx="750.0" cy="150.6" r="4" fill="#dc2626" opacity="0.8"/>
<circle cx="750.0" cy="150.6" r="4" fill="#16a34a" opacity="0.8"/>
<circle cx="750.0" cy="150.6" r="4" fill="#16a34a" opacity="0.8"/>
<circle cx="750.0" cy="150.6" r="4" fill="#16a34a" opacity="0.8"/>
<circle cx="750.0" cy="150.6" r="4" fill="#16a34a" opacity="0.8"/>
<circle cx="750.0" cy="150.6" r="4" fill="#16a34a" opacity="0.8"/>


  <!-- Y-axis labels -->
  <text x="62" y="320.0" fill="#c9d1d9" font-size="10" text-anchor="end" dominant-baseline="middle">$8,663</text><text x="62" y="268.0" fill="#c9d1d9" font-size="10" text-anchor="end" dominant-baseline="middle">$9,334</text><text x="62" y="216.0" fill="#c9d1d9" font-size="10" text-anchor="end" dominant-baseline="middle">$10,005</text><text x="62" y="164.0" fill="#c9d1d9" font-size="10" text-anchor="end" dominant-baseline="middle">$10,677</text><text x="62" y="112.0" fill="#c9d1d9" font-size="10" text-anchor="end" dominant-baseline="middle">$11,348</text><text x="62" y="60.0" fill="#c9d1d9" font-size="10" text-anchor="end" dominant-baseline="middle">$12,019</text>

  <!-- X-axis labels -->
  <text x="70.0" y="340" fill="#c9d1d9" font-size="10" text-anchor="middle">2026-05-13</text><text x="430.0" y="340" fill="#c9d1d9" font-size="10" text-anchor="middle">2026-06-08</text><text x="770.0" y="340" fill="#c9d1d9" font-size="10" text-anchor="middle">2026-07-01</text>

  <!-- Legend -->
  <circle cx="650" cy="380" r="4" fill="#16a34a"/>
  <text x="658" y="384" fill="#c9d1d9" font-size="9">Win</text>
  <circle cx="690" cy="380" r="4" fill="#dc2626"/>
  <text x="698" y="384" fill="#c9d1d9" font-size="9">Loss</text>
  <line x1="730" y1="380" x2="745" y2="380" stroke="#c9d1d9" stroke-width="0.5" stroke-dasharray="4,4" opacity="0.5"/>
  <text x="750" y="384" fill="#c9d1d9" font-size="9">$10K baseline</text>
</svg>