<svg xmlns="http://www.w3.org/2000/svg" viewBox="0 0 800 400" width="800" height="400">
  <rect width="800" height="400" fill="#0d1117" rx="8"/>

  <!-- Title -->
  <text x="70" y="30" fill="#c9d1d9" font-family="system-ui, -apple-system, sans-serif" font-size="16" font-weight="bold">Claude's Paper Trading — Equity Curve</text>
  <text x="70" y="48" fill="#58a6ff" font-family="system-ui, sans-serif" font-size="12">
    $8,666.63 (-13.33%) | Win Rate: 59/141 (42%) | Realized: $+214.43
  </text>

  <!-- Grid lines -->
  <line x1="70" y1="320.0" x2="770" y2="320.0" stroke="#21262d" stroke-width="0.5"/><line x1="70" y1="268.0" x2="770" y2="268.0" stroke="#21262d" stroke-width="0.5"/><line x1="70" y1="216.0" x2="770" y2="216.0" stroke="#21262d" stroke-width="0.5"/><line x1="70" y1="164.0" x2="770" y2="164.0" stroke="#21262d" stroke-width="0.5"/><line x1="70" y1="112.0" x2="770" y2="112.0" stroke="#21262d" stroke-width="0.5"/><line x1="70" y1="60.0" x2="770" y2="60.0" stroke="#21262d" stroke-width="0.5"/>

  <!-- Baseline (starting capital) -->
  <line x1="70" y1="173.4" x2="770" y2="173.4" stroke="#c9d1d9" stroke-width="0.5" stroke-dasharray="4,4" opacity="0.5"/>
  <text x="775" y="173.4" fill="#c9d1d9" font-size="9" opacity="0.6" dominant-baseline="middle">$10K</text>

  <!-- Fill under curve -->
  <path d="M 70.0 182.6 L 83.7 167.1 L 97.5 177.7 L 111.2 231.5 L 124.9 236.9 L 138.6 203.6 L 152.4 194.6 L 166.1 182.2 L 179.8 180.6 L 193.5 188.3 L 207.3 180.1 L 221.0 164.2 L 234.7 165.4 L 248.4 190.1 L 262.2 173.4 L 275.9 173.4 L 289.6 173.4 L 303.3 173.4 L 317.1 169.2 L 330.8 155.4 L 344.5 166.3 L 358.2 141.2 L 372.0 134.9 L 385.7 183.7 L 399.4 177.1 L 413.1 177.7 L 426.9 175.0 L 440.6 173.2 L 454.3 151.4 L 468.0 176.5 L 481.8 146.1 L 495.5 139.2 L 509.2 131.4 L 522.9 132.8 L 536.7 112.2 L 550.4 99.7 L 564.1 131.2 L 577.8 126.8 L 591.6 106.7 L 605.3 165.4 L 619.0 213.4 L 632.7 256.7 L 646.5 260.3 L 660.2 260.3 L 673.9 254.5 L 687.6 274.9 L 701.4 266.0 L 715.1 275.4 L 728.8 281.2 L 742.5 289.8 L 756.3 286.3 L 770.0 269.5 L 770.0 320.0 L 70.0 320.0 Z" fill="#dc2626" opacity="0.1"/>

  <!-- Equity line -->
  <path d="M 70.0 182.6 L 83.7 167.1 L 97.5 177.7 L 111.2 231.5 L 124.9 236.9 L 138.6 203.6 L 152.4 194.6 L 166.1 182.2 L 179.8 180.6 L 193.5 188.3 L 207.3 180.1 L 221.0 164.2 L 234.7 165.4 L 248.4 190.1 L 262.2 173.4 L 275.9 173.4 L 289.6 173.4 L 303.3 173.4 L 317.1 169.2 L 330.8 155.4 L 344.5 166.3 L 358.2 141.2 L 372.0 134.9 L 385.7 183.7 L 399.4 177.1 L 413.1 177.7 L 426.9 175.0 L 440.6 173.2 L 454.3 151.4 L 468.0 176.5 L 481.8 146.1 L 495.5 139.2 L 509.2 131.4 L 522.9 132.8 L 536.7 112.2 L 550.4 99.7 L 564.1 131.2 L 577.8 126.8 L 591.6 106.7 L 605.3 165.4 L 619.0 213.4 L 632.7 256.7 L 646.5 260.3 L 660.2 260.3 L 673.9 254.5 L 687.6 274.9 L 701.4 266.0 L 715.1 275.4 L 728.8 281.2 L 742.5 289.8 L 756.3 286.3 L 770.0 269.5" fill="none" stroke="#dc2626" stroke-width="2.5" stroke-linecap="round" stroke-linejoin="round"/>

  <!-- Data points -->
  <circle cx="70.0" cy="182.6" r="3" fill="#dc2626"/><circle cx="83.7" cy="167.1" r="3" fill="#dc2626"/><circle cx="97.5" cy="177.7" r="3" fill="#dc2626"/><circle cx="111.2" cy="231.5" r="3" fill="#dc2626"/><circle cx="124.9" cy="236.9" r="3" fill="#dc2626"/><circle cx="138.6" cy="203.6" r="3" fill="#dc2626"/><circle cx="152.4" cy="194.6" r="3" fill="#dc2626"/><circle cx="166.1" cy="182.2" r="3" fill="#dc2626"/><circle cx="179.8" cy="180.6" r="3" fill="#dc2626"/><circle cx="193.5" cy="188.3" r="3" fill="#dc2626"/><circle cx="207.3" cy="180.1" r="3" fill="#dc2626"/><circle cx="221.0" cy="164.2" r="3" fill="#dc2626"/><circle cx="234.7" cy="165.4" r="3" fill="#dc2626"/><circle cx="248.4" cy="190.1" r="3" fill="#dc2626"/><circle cx="262.2" cy="173.4" r="3" fill="#dc2626"/><circle cx="275.9" cy="173.4" r="3" fill="#dc2626"/><circle cx="289.6" cy="173.4" r="3" fill="#dc2626"/><circle cx="303.3" cy="173.4" r="3" fill="#dc2626"/><circle cx="317.1" cy="169.2" r="3" fill="#dc2626"/><circle cx="330.8" cy="155.4" r="3" fill="#dc2626"/><circle cx="344.5" cy="166.3" r="3" fill="#dc2626"/><circle cx="358.2" cy="141.2" r="3" fill="#dc2626"/><circle cx="372.0" cy="134.9" r="3" fill="#dc2626"/><circle cx="385.7" cy="183.7" r="3" fill="#dc2626"/><circle cx="399.4" cy="177.1" r="3" fill="#dc2626"/><circle cx="413.1" cy="177.7" r="3" fill="#dc2626"/><circle cx="426.9" cy="175.0" r="3" fill="#dc2626"/><circle cx="440.6" cy="173.2" r="3" fill="#dc2626"/><circle cx="454.3" cy="151.4" r="3" fill="#dc2626"/><circle cx="468.0" cy="176.5" r="3" fill="#dc2626"/><circle cx="481.8" cy="146.1" r="3" fill="#dc2626"/><circle cx="495.5" cy="139.2" r="3" fill="#dc2626"/><circle cx="509.2" cy="131.4" r="3" fill="#dc2626"/><circle cx="522.9" cy="132.8" r="3" fill="#dc2626"/><circle cx="536.7" cy="112.2" r="3" fill="#dc2626"/><circle cx="550.4" cy="99.7" r="3" fill="#dc2626"/><circle cx="564.1" cy="131.2" r="3" fill="#dc2626"/><circle cx="577.8" cy="126.8" r="3" fill="#dc2626"/><circle cx="591.6" cy="106.7" r="3" fill="#dc2626"/><circle cx="605.3" cy="165.4" r="3" fill="#dc2626"/><circle cx="619.0" cy="213.4" r="3" fill="#dc2626"/><circle cx="632.7" cy="256.7" r="3" fill="#dc2626"/><circle cx="646.5" cy="260.3" r="3" fill="#dc2626"/><circle cx="660.2" cy="260.3" r="3" fill="#dc2626"/><circle cx="673.9" cy="254.5" r="3" fill="#dc2626"/><circle cx="687.6" cy="274.9" r="3" fill="#dc2626"/><circle cx="701.4" cy="266.0" r="3" fill="#dc2626"/><circle cx="715.1" cy="275.4" r="3" fill="#dc2626"/><circle cx="728.8" cy="281.2" r="3" fill="#dc2626"/><circle cx="742.5" cy="289.8" r="3" fill="#dc2626"/><circle cx="756.3" cy="286.3" r="3" fill="#dc2626"/><circle cx="770.0" cy="269.5" r="3" fill="#dc2626"/>

  <!-- Trade markers -->
  <circle cx="124.9" cy="236.9" r="4" fill="#dc2626" opacity="0.8"/>
<circle cx="138.6" cy="203.6" r="4" fill="#dc2626" opacity="0.8"/>
<circle cx="138.6" cy="203.6" r="4" fill="#dc2626" opacity="0.8"/>
<circle cx="138.6" cy="203.6" r="4" fill="#dc2626" opacity="0.8"/>
<circle cx="166.1" cy="182.2" r="4" fill="#dc2626" opacity="0.8"/>
<circle cx="166.1" cy="182.2" r="4" fill="#16a34a" opacity="0.8"/>
<circle cx="166.1" cy="182.2" r="4" fill="#dc2626" opacity="0.8"/>
<circle cx="166.1" cy="182.2" r="4" fill="#dc2626" opacity="0.8"/>
<circle cx="166.1" cy="182.2" r="4" fill="#16a34a" opacity="0.8"/>
<circle cx="179.8" cy="180.6" r="4" fill="#16a34a" opacity="0.8"/>
<circle cx="179.8" cy="180.6" r="4" fill="#dc2626" opacity="0.8"/>
<circle cx="179.8" cy="180.6" r="4" fill="#dc2626" opacity="0.8"/>
<circle cx="179.8" cy="180.6" r="4" fill="#dc2626" opacity="0.8"/>
<circle cx="193.5" cy="188.3" r="4" fill="#dc2626" opacity="0.8"/>
<circle cx="193.5" cy="188.3" r="4" fill="#16a34a" opacity="0.8"/>
<circle cx="193.5" cy="188.3" r="4" fill="#dc2626" opacity="0.8"/>
<circle cx="193.5" cy="188.3" r="4" fill="#dc2626" opacity="0.8"/>
<circle cx="193.5" cy="188.3" r="4" fill="#dc2626" opacity="0.8"/>
<circle cx="207.3" cy="180.1" r="4" fill="#16a34a" opacity="0.8"/>
<circle cx="207.3" cy="180.1" r="4" fill="#dc2626" opacity="0.8"/>
<circle cx="207.3" cy="180.1" r="4" fill="#16a34a" opacity="0.8"/>
<circle cx="207.3" cy="180.1" r="4" fill="#dc2626" opacity="0.8"/>
<circle cx="207.3" cy="180.1" r="4" fill="#dc2626" opacity="0.8"/>
<circle cx="221.0" cy="164.2" r="4" fill="#16a34a" opacity="0.8"/>
<circle cx="221.0" cy="164.2" r="4" fill="#16a34a" opacity="0.8"/>
<circle cx="221.0" cy="164.2" r="4" fill="#16a34a" opacity="0.8"/>
<circle cx="330.8" cy="155.4" r="4" fill="#dc2626" opacity="0.8"/>
<circle cx="330.8" cy="155.4" r="4" fill="#dc2626" opacity="0.8"/>
<circle cx="330.8" cy="155.4" r="4" fill="#16a34a" opacity="0.8"/>
<circle cx="330.8" cy="155.4" r="4" fill="#16a34a" opacity="0.8"/>
<circle cx="330.8" cy="155.4" r="4" fill="#16a34a" opacity="0.8"/>
<circle cx="344.5" cy="166.3" r="4" fill="#16a34a" opacity="0.8"/>
<circle cx="344.5" cy="166.3" r="4" fill="#16a34a" opacity="0.8"/>
<circle cx="344.5" cy="166.3" r="4" fill="#dc2626" opacity="0.8"/>
<circle cx="344.5" cy="166.3" r="4" fill="#16a34a" opacity="0.8"/>
<circle cx="344.5" cy="166.3" r="4" fill="#dc2626" opacity="0.8"/>
<circle cx="344.5" cy="166.3" r="4" fill="#dc2626" opacity="0.8"/>
<circle cx="344.5" cy="166.3" r="4" fill="#dc2626" opacity="0.8"/>
<circle cx="358.2" cy="141.2" r="4" fill="#dc2626" opacity="0.8"/>
<circle cx="358.2" cy="141.2" r="4" fill="#16a34a" opacity="0.8"/>
<circle cx="358.2" cy="141.2" r="4" fill="#16a34a" opacity="0.8"/>
<circle cx="358.2" cy="141.2" r="4" fill="#dc2626" opacity="0.8"/>
<circle cx="358.2" cy="141.2" r="4" fill="#16a34a" opacity="0.8"/>
<circle cx="358.2" cy="141.2" r="4" fill="#16a34a" opacity="0.8"/>
<circle cx="372.0" cy="134.9" r="4" fill="#dc2626" opacity="0.8"/>
<circle cx="372.0" cy="134.9" r="4" fill="#16a34a" opacity="0.8"/>
<circle cx="372.0" cy="134.9" r="4" fill="#16a34a" opacity="0.8"/>
<circle cx="372.0" cy="134.9" r="4" fill="#16a34a" opacity="0.8"/>
<circle cx="372.0" cy="134.9" r="4" fill="#dc2626" opacity="0.8"/>
<circle cx="372.0" cy="134.9" r="4" fill="#dc2626" opacity="0.8"/>
<circle cx="372.0" cy="134.9" r="4" fill="#16a34a" opacity="0.8"/>
<circle cx="385.7" cy="183.7" r="4" fill="#16a34a" opacity="0.8"/>
<circle cx="385.7" cy="183.7" r="4" fill="#dc2626" opacity="0.8"/>
<circle cx="385.7" cy="183.7" r="4" fill="#dc2626" opacity="0.8"/>
<circle cx="385.7" cy="183.7" r="4" fill="#16a34a" opacity="0.8"/>
<circle cx="385.7" cy="183.7" r="4" fill="#dc2626" opacity="0.8"/>
<circle cx="385.7" cy="183.7" r="4" fill="#dc2626" opacity="0.8"/>
<circle cx="385.7" cy="183.7" r="4" fill="#dc2626" opacity="0.8"/>
<circle cx="385.7" cy="183.7" r="4" fill="#dc2626" opacity="0.8"/>
<circle cx="385.7" cy="183.7" r="4" fill="#dc2626" opacity="0.8"/>
<circle cx="399.4" cy="177.1" r="4" fill="#dc2626" opacity="0.8"/>
<circle cx="399.4" cy="177.1" r="4" fill="#16a34a" opacity="0.8"/>
<circle cx="399.4" cy="177.1" r="4" fill="#dc2626" opacity="0.8"/>
<circle cx="399.4" cy="177.1" r="4" fill="#16a34a" opacity="0.8"/>
<circle cx="399.4" cy="177.1" r="4" fill="#16a34a" opacity="0.8"/>
<circle cx="399.4" cy="177.1" r="4" fill="#16a34a" opacity="0.8"/>
<circle cx="399.4" cy="177.1" r="4" fill="#16a34a" opacity="0.8"/>
<circle cx="399.4" cy="177.1" r="4" fill="#16a34a" opacity="0.8"/>
<circle cx="399.4" cy="177.1" r="4" fill="#dc2626" opacity="0.8"/>
<circle cx="413.1" cy="177.7" r="4" fill="#16a34a" opacity="0.8"/>
<circle cx="413.1" cy="177.7" r="4" fill="#dc2626" opacity="0.8"/>
<circle cx="413.1" cy="177.7" r="4" fill="#dc2626" opacity="0.8"/>
<circle cx="413.1" cy="177.7" r="4" fill="#16a34a" opacity="0.8"/>
<circle cx="413.1" cy="177.7" r="4" fill="#16a34a" opacity="0.8"/>
<circle cx="413.1" cy="177.7" r="4" fill="#16a34a" opacity="0.8"/>
<circle cx="413.1" cy="177.7" r="4" fill="#dc2626" opacity="0.8"/>
<circle cx="426.9" cy="175.0" r="4" fill="#dc2626" opacity="0.8"/>
<circle cx="426.9" cy="175.0" r="4" fill="#dc2626" opacity="0.8"/>
<circle cx="426.9" cy="175.0" r="4" fill="#dc2626" opacity="0.8"/>
<circle cx="426.9" cy="175.0" r="4" fill="#16a34a" opacity="0.8"/>
<circle cx="426.9" cy="175.0" r="4" fill="#16a34a" opacity="0.8"/>
<circle cx="426.9" cy="175.0" r="4" fill="#dc2626" opacity="0.8"/>
<circle cx="440.6" cy="173.2" r="4" fill="#dc2626" opacity="0.8"/>
<circle cx="440.6" cy="173.2" r="4" fill="#dc2626" opacity="0.8"/>
<circle cx="440.6" cy="173.2" r="4" fill="#dc2626" opacity="0.8"/>
<circle cx="440.6" cy="173.2" r="4" fill="#dc2626" opacity="0.8"/>
<circle cx="440.6" cy="173.2" r="4" fill="#16a34a" opacity="0.8"/>
<circle cx="440.6" cy="173.2" r="4" fill="#dc2626" opacity="0.8"/>
<circle cx="440.6" cy="173.2" r="4" fill="#dc2626" opacity="0.8"/>
<circle cx="440.6" cy="173.2" r="4" fill="#dc2626" opacity="0.8"/>
<circle cx="440.6" cy="173.2" r="4" fill="#dc2626" opacity="0.8"/>
<circle cx="454.3" cy="151.4" r="4" fill="#dc2626" opacity="0.8"/>
<circle cx="454.3" cy="151.4" r="4" fill="#16a34a" opacity="0.8"/>
<circle cx="454.3" cy="151.4" r="4" fill="#dc2626" opacity="0.8"/>
<circle cx="454.3" cy="151.4" r="4" fill="#16a34a" opacity="0.8"/>
<circle cx="454.3" cy="151.4" r="4" fill="#dc2626" opacity="0.8"/>
<circle cx="454.3" cy="151.4" r="4" fill="#dc2626" opacity="0.8"/>
<circle cx="468.0" cy="176.5" r="4" fill="#dc2626" opacity="0.8"/>
<circle cx="468.0" cy="176.5" r="4" fill="#16a34a" opacity="0.8"/>
<circle cx="468.0" cy="176.5" r="4" fill="#dc2626" opacity="0.8"/>
<circle cx="468.0" cy="176.5" r="4" fill="#dc2626" opacity="0.8"/>
<circle cx="468.0" cy="176.5" r="4" fill="#dc2626" opacity="0.8"/>
<circle cx="468.0" cy="176.5" r="4" fill="#16a34a" opacity="0.8"/>
<circle cx="468.0" cy="176.5" r="4" fill="#dc2626" opacity="0.8"/>
<circle cx="468.0" cy="176.5" r="4" fill="#dc2626" opacity="0.8"/>
<circle cx="481.8" cy="146.1" r="4" fill="#dc2626" opacity="0.8"/>
<circle cx="481.8" cy="146.1" r="4" fill="#dc2626" opacity="0.8"/>
<circle cx="481.8" cy="146.1" r="4" fill="#16a34a" opacity="0.8"/>
<circle cx="481.8" cy="146.1" r="4" fill="#16a34a" opacity="0.8"/>
<circle cx="481.8" cy="146.1" r="4" fill="#dc2626" opacity="0.8"/>
<circle cx="495.5" cy="139.2" r="4" fill="#16a34a" opacity="0.8"/>
<circle cx="495.5" cy="139.2" r="4" fill="#dc2626" opacity="0.8"/>
<circle cx="495.5" cy="139.2" r="4" fill="#dc2626" opacity="0.8"/>
<circle cx="495.5" cy="139.2" r="4" fill="#dc2626" opacity="0.8"/>
<circle cx="495.5" cy="139.2" r="4" fill="#dc2626" opacity="0.8"/>
<circle cx="495.5" cy="139.2" r="4" fill="#16a34a" opacity="0.8"/>
<circle cx="495.5" cy="139.2" r="4" fill="#dc2626" opacity="0.8"/>
<circle cx="495.5" cy="139.2" r="4" fill="#dc2626" opacity="0.8"/>
<circle cx="509.2" cy="131.4" r="4" fill="#dc2626" opacity="0.8"/>
<circle cx="509.2" cy="131.4" r="4" fill="#dc2626" opacity="0.8"/>
<circle cx="509.2" cy="131.4" r="4" fill="#dc2626" opacity="0.8"/>
<circle cx="509.2" cy="131.4" r="4" fill="#dc2626" opacity="0.8"/>
<circle cx="509.2" cy="131.4" r="4" fill="#dc2626" opacity="0.8"/>
<circle cx="509.2" cy="131.4" r="4" fill="#dc2626" opacity="0.8"/>
<circle cx="509.2" cy="131.4" r="4" fill="#16a34a" opacity="0.8"/>
<circle cx="509.2" cy="131.4" r="4" fill="#16a34a" opacity="0.8"/>
<circle cx="509.2" cy="131.4" r="4" fill="#16a34a" opacity="0.8"/>
<circle cx="522.9" cy="132.8" r="4" fill="#16a34a" opacity="0.8"/>
<circle cx="522.9" cy="132.8" r="4" fill="#dc2626" opacity="0.8"/>
<circle cx="522.9" cy="132.8" r="4" fill="#16a34a" opacity="0.8"/>
<circle cx="522.9" cy="132.8" r="4" fill="#16a34a" opacity="0.8"/>
<circle cx="522.9" cy="132.8" r="4" fill="#16a34a" opacity="0.8"/>
<circle cx="522.9" cy="132.8" r="4" fill="#dc2626" opacity="0.8"/>
<circle cx="522.9" cy="132.8" r="4" fill="#16a34a" opacity="0.8"/>
<circle cx="522.9" cy="132.8" r="4" fill="#dc2626" opacity="0.8"/>
<circle cx="536.7" cy="112.2" r="4" fill="#dc2626" opacity="0.8"/>
<circle cx="536.7" cy="112.2" r="4" fill="#16a34a" opacity="0.8"/>
<circle cx="536.7" cy="112.2" r="4" fill="#16a34a" opacity="0.8"/>
<circle cx="536.7" cy="112.2" r="4" fill="#16a34a" opacity="0.8"/>
<circle cx="536.7" cy="112.2" r="4" fill="#16a34a" opacity="0.8"/>
<circle cx="536.7" cy="112.2" r="4" fill="#16a34a" opacity="0.8"/>


  <!-- Y-axis labels -->
  <text x="62" y="320.0" fill="#c9d1d9" font-size="10" text-anchor="end" dominant-baseline="middle">$7,966</text><text x="62" y="268.0" fill="#c9d1d9" font-size="10" text-anchor="end" dominant-baseline="middle">$8,687</text><text x="62" y="216.0" fill="#c9d1d9" font-size="10" text-anchor="end" dominant-baseline="middle">$9,409</text><text x="62" y="164.0" fill="#c9d1d9" font-size="10" text-anchor="end" dominant-baseline="middle">$10,131</text><text x="62" y="112.0" fill="#c9d1d9" font-size="10" text-anchor="end" dominant-baseline="middle">$10,852</text><text x="62" y="60.0" fill="#c9d1d9" font-size="10" text-anchor="end" dominant-baseline="middle">$11,574</text>

  <!-- X-axis labels -->
  <text x="70.0" y="340" fill="#c9d1d9" font-size="10" text-anchor="middle">2026-05-13</text><text x="426.9" y="340" fill="#c9d1d9" font-size="10" text-anchor="middle">2026-06-18</text><text x="770.0" y="340" fill="#c9d1d9" font-size="10" text-anchor="middle">2026-07-23</text>

  <!-- Legend -->
  <circle cx="650" cy="380" r="4" fill="#16a34a"/>
  <text x="658" y="384" fill="#c9d1d9" font-size="9">Win</text>
  <circle cx="690" cy="380" r="4" fill="#dc2626"/>
  <text x="698" y="384" fill="#c9d1d9" font-size="9">Loss</text>
  <line x1="730" y1="380" x2="745" y2="380" stroke="#c9d1d9" stroke-width="0.5" stroke-dasharray="4,4" opacity="0.5"/>
  <text x="750" y="384" fill="#c9d1d9" font-size="9">$10K baseline</text>
</svg>