<svg xmlns="http://www.w3.org/2000/svg" viewBox="0 0 800 400" width="800" height="400">
  <rect width="800" height="400" fill="#0d1117" rx="8"/>

  <!-- Title -->
  <text x="70" y="30" fill="#c9d1d9" font-family="system-ui, -apple-system, sans-serif" font-size="16" font-weight="bold">Claude's Paper Trading — Equity Curve</text>
  <text x="70" y="48" fill="#58a6ff" font-family="system-ui, sans-serif" font-size="12">
    $10,379.58 (+3.80%) | Win Rate: 17/42 (40%) | Realized: $-41.06
  </text>

  <!-- Grid lines -->
  <line x1="70" y1="320.0" x2="770" y2="320.0" stroke="#21262d" stroke-width="0.5"/><line x1="70" y1="268.0" x2="770" y2="268.0" stroke="#21262d" stroke-width="0.5"/><line x1="70" y1="216.0" x2="770" y2="216.0" stroke="#21262d" stroke-width="0.5"/><line x1="70" y1="164.0" x2="770" y2="164.0" stroke="#21262d" stroke-width="0.5"/><line x1="70" y1="112.0" x2="770" y2="112.0" stroke="#21262d" stroke-width="0.5"/><line x1="70" y1="60.0" x2="770" y2="60.0" stroke="#21262d" stroke-width="0.5"/>

  <!-- Baseline (starting capital) -->
  <line x1="70" y1="164.5" x2="770" y2="164.5" stroke="#c9d1d9" stroke-width="0.5" stroke-dasharray="4,4" opacity="0.5"/>
  <text x="775" y="164.5" fill="#c9d1d9" font-size="9" opacity="0.6" dominant-baseline="middle">$10K</text>

  <!-- Fill under curve -->
  <path d="M 70.0 179.4 L 103.3 154.4 L 136.7 171.4 L 170.0 258.3 L 203.3 267.0 L 236.7 213.3 L 270.0 198.7 L 303.3 178.7 L 336.7 176.2 L 370.0 188.6 L 403.3 175.3 L 436.7 149.6 L 470.0 151.6 L 503.3 191.5 L 536.7 164.5 L 570.0 164.5 L 603.3 164.5 L 636.7 164.5 L 670.0 157.7 L 703.3 135.5 L 736.7 153.1 L 770.0 120.4 L 770.0 320.0 L 70.0 320.0 Z" fill="#16a34a" opacity="0.1"/>

  <!-- Equity line -->
  <path d="M 70.0 179.4 L 103.3 154.4 L 136.7 171.4 L 170.0 258.3 L 203.3 267.0 L 236.7 213.3 L 270.0 198.7 L 303.3 178.7 L 336.7 176.2 L 370.0 188.6 L 403.3 175.3 L 436.7 149.6 L 470.0 151.6 L 503.3 191.5 L 536.7 164.5 L 570.0 164.5 L 603.3 164.5 L 636.7 164.5 L 670.0 157.7 L 703.3 135.5 L 736.7 153.1 L 770.0 120.4" fill="none" stroke="#16a34a" stroke-width="2.5" stroke-linecap="round" stroke-linejoin="round"/>

  <!-- Data points -->
  <circle cx="70.0" cy="179.4" r="3" fill="#16a34a"/><circle cx="103.3" cy="154.4" r="3" fill="#16a34a"/><circle cx="136.7" cy="171.4" r="3" fill="#16a34a"/><circle cx="170.0" cy="258.3" r="3" fill="#16a34a"/><circle cx="203.3" cy="267.0" r="3" fill="#16a34a"/><circle cx="236.7" cy="213.3" r="3" fill="#16a34a"/><circle cx="270.0" cy="198.7" r="3" fill="#16a34a"/><circle cx="303.3" cy="178.7" r="3" fill="#16a34a"/><circle cx="336.7" cy="176.2" r="3" fill="#16a34a"/><circle cx="370.0" cy="188.6" r="3" fill="#16a34a"/><circle cx="403.3" cy="175.3" r="3" fill="#16a34a"/><circle cx="436.7" cy="149.6" r="3" fill="#16a34a"/><circle cx="470.0" cy="151.6" r="3" fill="#16a34a"/><circle cx="503.3" cy="191.5" r="3" fill="#16a34a"/><circle cx="536.7" cy="164.5" r="3" fill="#16a34a"/><circle cx="570.0" cy="164.5" r="3" fill="#16a34a"/><circle cx="603.3" cy="164.5" r="3" fill="#16a34a"/><circle cx="636.7" cy="164.5" r="3" fill="#16a34a"/><circle cx="670.0" cy="157.7" r="3" fill="#16a34a"/><circle cx="703.3" cy="135.5" r="3" fill="#16a34a"/><circle cx="736.7" cy="153.1" r="3" fill="#16a34a"/><circle cx="770.0" cy="120.4" r="3" fill="#16a34a"/>

  <!-- Trade markers -->
  <circle cx="203.3" cy="267.0" r="4" fill="#dc2626" opacity="0.8"/>
<circle cx="236.7" cy="213.3" r="4" fill="#dc2626" opacity="0.8"/>
<circle cx="236.7" cy="213.3" r="4" fill="#dc2626" opacity="0.8"/>
<circle cx="236.7" cy="213.3" r="4" fill="#dc2626" opacity="0.8"/>
<circle cx="303.3" cy="178.7" r="4" fill="#dc2626" opacity="0.8"/>
<circle cx="303.3" cy="178.7" r="4" fill="#16a34a" opacity="0.8"/>
<circle cx="303.3" cy="178.7" r="4" fill="#dc2626" opacity="0.8"/>
<circle cx="303.3" cy="178.7" r="4" fill="#dc2626" opacity="0.8"/>
<circle cx="303.3" cy="178.7" r="4" fill="#16a34a" opacity="0.8"/>
<circle cx="336.7" cy="176.2" r="4" fill="#16a34a" opacity="0.8"/>
<circle cx="336.7" cy="176.2" r="4" fill="#dc2626" opacity="0.8"/>
<circle cx="336.7" cy="176.2" r="4" fill="#dc2626" opacity="0.8"/>
<circle cx="336.7" cy="176.2" r="4" fill="#dc2626" opacity="0.8"/>
<circle cx="370.0" cy="188.6" r="4" fill="#dc2626" opacity="0.8"/>
<circle cx="370.0" cy="188.6" r="4" fill="#16a34a" opacity="0.8"/>
<circle cx="370.0" cy="188.6" r="4" fill="#dc2626" opacity="0.8"/>
<circle cx="370.0" cy="188.6" r="4" fill="#dc2626" opacity="0.8"/>
<circle cx="370.0" cy="188.6" r="4" fill="#dc2626" opacity="0.8"/>
<circle cx="403.3" cy="175.3" r="4" fill="#16a34a" opacity="0.8"/>
<circle cx="403.3" cy="175.3" r="4" fill="#dc2626" opacity="0.8"/>
<circle cx="403.3" cy="175.3" r="4" fill="#16a34a" opacity="0.8"/>
<circle cx="403.3" cy="175.3" r="4" fill="#dc2626" opacity="0.8"/>
<circle cx="403.3" cy="175.3" r="4" fill="#dc2626" opacity="0.8"/>
<circle cx="436.7" cy="149.6" r="4" fill="#16a34a" opacity="0.8"/>
<circle cx="436.7" cy="149.6" r="4" fill="#16a34a" opacity="0.8"/>
<circle cx="436.7" cy="149.6" r="4" fill="#16a34a" opacity="0.8"/>
<circle cx="703.3" cy="135.5" r="4" fill="#dc2626" opacity="0.8"/>
<circle cx="703.3" cy="135.5" r="4" fill="#dc2626" opacity="0.8"/>
<circle cx="703.3" cy="135.5" r="4" fill="#16a34a" opacity="0.8"/>
<circle cx="703.3" cy="135.5" r="4" fill="#16a34a" opacity="0.8"/>
<circle cx="703.3" cy="135.5" r="4" fill="#16a34a" opacity="0.8"/>
<circle cx="736.7" cy="153.1" r="4" fill="#16a34a" opacity="0.8"/>
<circle cx="736.7" cy="153.1" r="4" fill="#16a34a" opacity="0.8"/>
<circle cx="736.7" cy="153.1" r="4" fill="#dc2626" opacity="0.8"/>
<circle cx="736.7" cy="153.1" r="4" fill="#16a34a" opacity="0.8"/>
<circle cx="736.7" cy="153.1" r="4" fill="#dc2626" opacity="0.8"/>
<circle cx="736.7" cy="153.1" r="4" fill="#dc2626" opacity="0.8"/>
<circle cx="736.7" cy="153.1" r="4" fill="#dc2626" opacity="0.8"/>
<circle cx="770.0" cy="120.4" r="4" fill="#dc2626" opacity="0.8"/>
<circle cx="770.0" cy="120.4" r="4" fill="#16a34a" opacity="0.8"/>
<circle cx="770.0" cy="120.4" r="4" fill="#16a34a" opacity="0.8"/>
<circle cx="770.0" cy="120.4" r="4" fill="#dc2626" opacity="0.8"/>


  <!-- Y-axis labels -->
  <text x="62" y="320.0" fill="#c9d1d9" font-size="10" text-anchor="end" dominant-baseline="middle">$8,663</text><text x="62" y="268.0" fill="#c9d1d9" font-size="10" text-anchor="end" dominant-baseline="middle">$9,110</text><text x="62" y="216.0" fill="#c9d1d9" font-size="10" text-anchor="end" dominant-baseline="middle">$9,557</text><text x="62" y="164.0" fill="#c9d1d9" font-size="10" text-anchor="end" dominant-baseline="middle">$10,004</text><text x="62" y="112.0" fill="#c9d1d9" font-size="10" text-anchor="end" dominant-baseline="middle">$10,451</text><text x="62" y="60.0" fill="#c9d1d9" font-size="10" text-anchor="end" dominant-baseline="middle">$10,899</text>

  <!-- X-axis labels -->
  <text x="70.0" y="340" fill="#c9d1d9" font-size="10" text-anchor="middle">2026-05-13</text><text x="436.7" y="340" fill="#c9d1d9" font-size="10" text-anchor="middle">2026-05-28</text><text x="770.0" y="340" fill="#c9d1d9" font-size="10" text-anchor="middle">2026-06-11</text>

  <!-- Legend -->
  <circle cx="650" cy="380" r="4" fill="#16a34a"/>
  <text x="658" y="384" fill="#c9d1d9" font-size="9">Win</text>
  <circle cx="690" cy="380" r="4" fill="#dc2626"/>
  <text x="698" y="384" fill="#c9d1d9" font-size="9">Loss</text>
  <line x1="730" y1="380" x2="745" y2="380" stroke="#c9d1d9" stroke-width="0.5" stroke-dasharray="4,4" opacity="0.5"/>
  <text x="750" y="384" fill="#c9d1d9" font-size="9">$10K baseline</text>
</svg>