<svg xmlns="http://www.w3.org/2000/svg" viewBox="0 0 800 400" width="800" height="400">
  <rect width="800" height="400" fill="#0d1117" rx="8"/>

  <!-- Title -->
  <text x="70" y="30" fill="#c9d1d9" font-family="system-ui, -apple-system, sans-serif" font-size="16" font-weight="bold">Claude's Paper Trading — Equity Curve</text>
  <text x="70" y="48" fill="#58a6ff" font-family="system-ui, sans-serif" font-size="12">
    $8,721.80 (-12.78%) | Win Rate: 59/141 (42%) | Realized: $+214.43
  </text>

  <!-- Grid lines -->
  <line x1="70" y1="320.0" x2="770" y2="320.0" stroke="#21262d" stroke-width="0.5"/><line x1="70" y1="268.0" x2="770" y2="268.0" stroke="#21262d" stroke-width="0.5"/><line x1="70" y1="216.0" x2="770" y2="216.0" stroke="#21262d" stroke-width="0.5"/><line x1="70" y1="164.0" x2="770" y2="164.0" stroke="#21262d" stroke-width="0.5"/><line x1="70" y1="112.0" x2="770" y2="112.0" stroke="#21262d" stroke-width="0.5"/><line x1="70" y1="60.0" x2="770" y2="60.0" stroke="#21262d" stroke-width="0.5"/>

  <!-- Baseline (starting capital) -->
  <line x1="70" y1="179.9" x2="770" y2="179.9" stroke="#c9d1d9" stroke-width="0.5" stroke-dasharray="4,4" opacity="0.5"/>
  <text x="775" y="179.9" fill="#c9d1d9" font-size="9" opacity="0.6" dominant-baseline="middle">$10K</text>

  <!-- Fill under curve -->
  <path d="M 70.0 189.7 L 84.9 173.3 L 99.8 184.4 L 114.7 241.3 L 129.6 247.0 L 144.5 211.9 L 159.4 202.3 L 174.3 189.2 L 189.1 187.6 L 204.0 195.7 L 218.9 187.0 L 233.8 170.1 L 248.7 171.5 L 263.6 197.6 L 278.5 179.9 L 293.4 179.9 L 308.3 179.9 L 323.2 179.9 L 338.1 175.5 L 353.0 160.9 L 367.9 172.4 L 382.8 145.9 L 397.7 139.2 L 412.6 190.8 L 427.4 183.8 L 442.3 184.5 L 457.2 181.6 L 472.1 179.8 L 487.0 156.6 L 501.9 183.2 L 516.8 151.0 L 531.7 143.7 L 546.6 135.5 L 561.5 137.0 L 576.4 115.2 L 591.3 102.0 L 606.2 135.3 L 621.1 130.6 L 636.0 109.4 L 650.9 171.5 L 665.7 222.2 L 680.6 268.0 L 695.5 271.8 L 710.4 271.8 L 725.3 265.6 L 740.2 287.3 L 755.1 277.9 L 770.0 277.3 L 770.0 320.0 L 70.0 320.0 Z" fill="#dc2626" opacity="0.1"/>

  <!-- Equity line -->
  <path d="M 70.0 189.7 L 84.9 173.3 L 99.8 184.4 L 114.7 241.3 L 129.6 247.0 L 144.5 211.9 L 159.4 202.3 L 174.3 189.2 L 189.1 187.6 L 204.0 195.7 L 218.9 187.0 L 233.8 170.1 L 248.7 171.5 L 263.6 197.6 L 278.5 179.9 L 293.4 179.9 L 308.3 179.9 L 323.2 179.9 L 338.1 175.5 L 353.0 160.9 L 367.9 172.4 L 382.8 145.9 L 397.7 139.2 L 412.6 190.8 L 427.4 183.8 L 442.3 184.5 L 457.2 181.6 L 472.1 179.8 L 487.0 156.6 L 501.9 183.2 L 516.8 151.0 L 531.7 143.7 L 546.6 135.5 L 561.5 137.0 L 576.4 115.2 L 591.3 102.0 L 606.2 135.3 L 621.1 130.6 L 636.0 109.4 L 650.9 171.5 L 665.7 222.2 L 680.6 268.0 L 695.5 271.8 L 710.4 271.8 L 725.3 265.6 L 740.2 287.3 L 755.1 277.9 L 770.0 277.3" fill="none" stroke="#dc2626" stroke-width="2.5" stroke-linecap="round" stroke-linejoin="round"/>

  <!-- Data points -->
  <circle cx="70.0" cy="189.7" r="3" fill="#dc2626"/><circle cx="84.9" cy="173.3" r="3" fill="#dc2626"/><circle cx="99.8" cy="184.4" r="3" fill="#dc2626"/><circle cx="114.7" cy="241.3" r="3" fill="#dc2626"/><circle cx="129.6" cy="247.0" r="3" fill="#dc2626"/><circle cx="144.5" cy="211.9" r="3" fill="#dc2626"/><circle cx="159.4" cy="202.3" r="3" fill="#dc2626"/><circle cx="174.3" cy="189.2" r="3" fill="#dc2626"/><circle cx="189.1" cy="187.6" r="3" fill="#dc2626"/><circle cx="204.0" cy="195.7" r="3" fill="#dc2626"/><circle cx="218.9" cy="187.0" r="3" fill="#dc2626"/><circle cx="233.8" cy="170.1" r="3" fill="#dc2626"/><circle cx="248.7" cy="171.5" r="3" fill="#dc2626"/><circle cx="263.6" cy="197.6" r="3" fill="#dc2626"/><circle cx="278.5" cy="179.9" r="3" fill="#dc2626"/><circle cx="293.4" cy="179.9" r="3" fill="#dc2626"/><circle cx="308.3" cy="179.9" r="3" fill="#dc2626"/><circle cx="323.2" cy="179.9" r="3" fill="#dc2626"/><circle cx="338.1" cy="175.5" r="3" fill="#dc2626"/><circle cx="353.0" cy="160.9" r="3" fill="#dc2626"/><circle cx="367.9" cy="172.4" r="3" fill="#dc2626"/><circle cx="382.8" cy="145.9" r="3" fill="#dc2626"/><circle cx="397.7" cy="139.2" r="3" fill="#dc2626"/><circle cx="412.6" cy="190.8" r="3" fill="#dc2626"/><circle cx="427.4" cy="183.8" r="3" fill="#dc2626"/><circle cx="442.3" cy="184.5" r="3" fill="#dc2626"/><circle cx="457.2" cy="181.6" r="3" fill="#dc2626"/><circle cx="472.1" cy="179.8" r="3" fill="#dc2626"/><circle cx="487.0" cy="156.6" r="3" fill="#dc2626"/><circle cx="501.9" cy="183.2" r="3" fill="#dc2626"/><circle cx="516.8" cy="151.0" r="3" fill="#dc2626"/><circle cx="531.7" cy="143.7" r="3" fill="#dc2626"/><circle cx="546.6" cy="135.5" r="3" fill="#dc2626"/><circle cx="561.5" cy="137.0" r="3" fill="#dc2626"/><circle cx="576.4" cy="115.2" r="3" fill="#dc2626"/><circle cx="591.3" cy="102.0" r="3" fill="#dc2626"/><circle cx="606.2" cy="135.3" r="3" fill="#dc2626"/><circle cx="621.1" cy="130.6" r="3" fill="#dc2626"/><circle cx="636.0" cy="109.4" r="3" fill="#dc2626"/><circle cx="650.9" cy="171.5" r="3" fill="#dc2626"/><circle cx="665.7" cy="222.2" r="3" fill="#dc2626"/><circle cx="680.6" cy="268.0" r="3" fill="#dc2626"/><circle cx="695.5" cy="271.8" r="3" fill="#dc2626"/><circle cx="710.4" cy="271.8" r="3" fill="#dc2626"/><circle cx="725.3" cy="265.6" r="3" fill="#dc2626"/><circle cx="740.2" cy="287.3" r="3" fill="#dc2626"/><circle cx="755.1" cy="277.9" r="3" fill="#dc2626"/><circle cx="770.0" cy="277.3" r="3" fill="#dc2626"/>

  <!-- Trade markers -->
  <circle cx="129.6" cy="247.0" r="4" fill="#dc2626" opacity="0.8"/>
<circle cx="144.5" cy="211.9" r="4" fill="#dc2626" opacity="0.8"/>
<circle cx="144.5" cy="211.9" r="4" fill="#dc2626" opacity="0.8"/>
<circle cx="144.5" cy="211.9" r="4" fill="#dc2626" opacity="0.8"/>
<circle cx="174.3" cy="189.2" r="4" fill="#dc2626" opacity="0.8"/>
<circle cx="174.3" cy="189.2" r="4" fill="#16a34a" opacity="0.8"/>
<circle cx="174.3" cy="189.2" r="4" fill="#dc2626" opacity="0.8"/>
<circle cx="174.3" cy="189.2" r="4" fill="#dc2626" opacity="0.8"/>
<circle cx="174.3" cy="189.2" r="4" fill="#16a34a" opacity="0.8"/>
<circle cx="189.1" cy="187.6" r="4" fill="#16a34a" opacity="0.8"/>
<circle cx="189.1" cy="187.6" r="4" fill="#dc2626" opacity="0.8"/>
<circle cx="189.1" cy="187.6" r="4" fill="#dc2626" opacity="0.8"/>
<circle cx="189.1" cy="187.6" r="4" fill="#dc2626" opacity="0.8"/>
<circle cx="204.0" cy="195.7" r="4" fill="#dc2626" opacity="0.8"/>
<circle cx="204.0" cy="195.7" r="4" fill="#16a34a" opacity="0.8"/>
<circle cx="204.0" cy="195.7" r="4" fill="#dc2626" opacity="0.8"/>
<circle cx="204.0" cy="195.7" r="4" fill="#dc2626" opacity="0.8"/>
<circle cx="204.0" cy="195.7" r="4" fill="#dc2626" opacity="0.8"/>
<circle cx="218.9" cy="187.0" r="4" fill="#16a34a" opacity="0.8"/>
<circle cx="218.9" cy="187.0" r="4" fill="#dc2626" opacity="0.8"/>
<circle cx="218.9" cy="187.0" r="4" fill="#16a34a" opacity="0.8"/>
<circle cx="218.9" cy="187.0" r="4" fill="#dc2626" opacity="0.8"/>
<circle cx="218.9" cy="187.0" r="4" fill="#dc2626" opacity="0.8"/>
<circle cx="233.8" cy="170.1" r="4" fill="#16a34a" opacity="0.8"/>
<circle cx="233.8" cy="170.1" r="4" fill="#16a34a" opacity="0.8"/>
<circle cx="233.8" cy="170.1" r="4" fill="#16a34a" opacity="0.8"/>
<circle cx="353.0" cy="160.9" r="4" fill="#dc2626" opacity="0.8"/>
<circle cx="353.0" cy="160.9" r="4" fill="#dc2626" opacity="0.8"/>
<circle cx="353.0" cy="160.9" r="4" fill="#16a34a" opacity="0.8"/>
<circle cx="353.0" cy="160.9" r="4" fill="#16a34a" opacity="0.8"/>
<circle cx="353.0" cy="160.9" r="4" fill="#16a34a" opacity="0.8"/>
<circle cx="367.9" cy="172.4" r="4" fill="#16a34a" opacity="0.8"/>
<circle cx="367.9" cy="172.4" r="4" fill="#16a34a" opacity="0.8"/>
<circle cx="367.9" cy="172.4" r="4" fill="#dc2626" opacity="0.8"/>
<circle cx="367.9" cy="172.4" r="4" fill="#16a34a" opacity="0.8"/>
<circle cx="367.9" cy="172.4" r="4" fill="#dc2626" opacity="0.8"/>
<circle cx="367.9" cy="172.4" r="4" fill="#dc2626" opacity="0.8"/>
<circle cx="367.9" cy="172.4" r="4" fill="#dc2626" opacity="0.8"/>
<circle cx="382.8" cy="145.9" r="4" fill="#dc2626" opacity="0.8"/>
<circle cx="382.8" cy="145.9" r="4" fill="#16a34a" opacity="0.8"/>
<circle cx="382.8" cy="145.9" r="4" fill="#16a34a" opacity="0.8"/>
<circle cx="382.8" cy="145.9" r="4" fill="#dc2626" opacity="0.8"/>
<circle cx="382.8" cy="145.9" r="4" fill="#16a34a" opacity="0.8"/>
<circle cx="382.8" cy="145.9" r="4" fill="#16a34a" opacity="0.8"/>
<circle cx="397.7" cy="139.2" r="4" fill="#dc2626" opacity="0.8"/>
<circle cx="397.7" cy="139.2" r="4" fill="#16a34a" opacity="0.8"/>
<circle cx="397.7" cy="139.2" r="4" fill="#16a34a" opacity="0.8"/>
<circle cx="397.7" cy="139.2" r="4" fill="#16a34a" opacity="0.8"/>
<circle cx="397.7" cy="139.2" r="4" fill="#dc2626" opacity="0.8"/>
<circle cx="397.7" cy="139.2" r="4" fill="#dc2626" opacity="0.8"/>
<circle cx="397.7" cy="139.2" r="4" fill="#16a34a" opacity="0.8"/>
<circle cx="412.6" cy="190.8" r="4" fill="#16a34a" opacity="0.8"/>
<circle cx="412.6" cy="190.8" r="4" fill="#dc2626" opacity="0.8"/>
<circle cx="412.6" cy="190.8" r="4" fill="#dc2626" opacity="0.8"/>
<circle cx="412.6" cy="190.8" r="4" fill="#16a34a" opacity="0.8"/>
<circle cx="412.6" cy="190.8" r="4" fill="#dc2626" opacity="0.8"/>
<circle cx="412.6" cy="190.8" r="4" fill="#dc2626" opacity="0.8"/>
<circle cx="412.6" cy="190.8" r="4" fill="#dc2626" opacity="0.8"/>
<circle cx="412.6" cy="190.8" r="4" fill="#dc2626" opacity="0.8"/>
<circle cx="412.6" cy="190.8" r="4" fill="#dc2626" opacity="0.8"/>
<circle cx="427.4" cy="183.8" r="4" fill="#dc2626" opacity="0.8"/>
<circle cx="427.4" cy="183.8" r="4" fill="#16a34a" opacity="0.8"/>
<circle cx="427.4" cy="183.8" r="4" fill="#dc2626" opacity="0.8"/>
<circle cx="427.4" cy="183.8" r="4" fill="#16a34a" opacity="0.8"/>
<circle cx="427.4" cy="183.8" r="4" fill="#16a34a" opacity="0.8"/>
<circle cx="427.4" cy="183.8" r="4" fill="#16a34a" opacity="0.8"/>
<circle cx="427.4" cy="183.8" r="4" fill="#16a34a" opacity="0.8"/>
<circle cx="427.4" cy="183.8" r="4" fill="#16a34a" opacity="0.8"/>
<circle cx="427.4" cy="183.8" r="4" fill="#dc2626" opacity="0.8"/>
<circle cx="442.3" cy="184.5" r="4" fill="#16a34a" opacity="0.8"/>
<circle cx="442.3" cy="184.5" r="4" fill="#dc2626" opacity="0.8"/>
<circle cx="442.3" cy="184.5" r="4" fill="#dc2626" opacity="0.8"/>
<circle cx="442.3" cy="184.5" r="4" fill="#16a34a" opacity="0.8"/>
<circle cx="442.3" cy="184.5" r="4" fill="#16a34a" opacity="0.8"/>
<circle cx="442.3" cy="184.5" r="4" fill="#16a34a" opacity="0.8"/>
<circle cx="442.3" cy="184.5" r="4" fill="#dc2626" opacity="0.8"/>
<circle cx="457.2" cy="181.6" r="4" fill="#dc2626" opacity="0.8"/>
<circle cx="457.2" cy="181.6" r="4" fill="#dc2626" opacity="0.8"/>
<circle cx="457.2" cy="181.6" r="4" fill="#dc2626" opacity="0.8"/>
<circle cx="457.2" cy="181.6" r="4" fill="#16a34a" opacity="0.8"/>
<circle cx="457.2" cy="181.6" r="4" fill="#16a34a" opacity="0.8"/>
<circle cx="457.2" cy="181.6" r="4" fill="#dc2626" opacity="0.8"/>
<circle cx="472.1" cy="179.8" r="4" fill="#dc2626" opacity="0.8"/>
<circle cx="472.1" cy="179.8" r="4" fill="#dc2626" opacity="0.8"/>
<circle cx="472.1" cy="179.8" r="4" fill="#dc2626" opacity="0.8"/>
<circle cx="472.1" cy="179.8" r="4" fill="#dc2626" opacity="0.8"/>
<circle cx="472.1" cy="179.8" r="4" fill="#16a34a" opacity="0.8"/>
<circle cx="472.1" cy="179.8" r="4" fill="#dc2626" opacity="0.8"/>
<circle cx="472.1" cy="179.8" r="4" fill="#dc2626" opacity="0.8"/>
<circle cx="472.1" cy="179.8" r="4" fill="#dc2626" opacity="0.8"/>
<circle cx="472.1" cy="179.8" r="4" fill="#dc2626" opacity="0.8"/>
<circle cx="487.0" cy="156.6" r="4" fill="#dc2626" opacity="0.8"/>
<circle cx="487.0" cy="156.6" r="4" fill="#16a34a" opacity="0.8"/>
<circle cx="487.0" cy="156.6" r="4" fill="#dc2626" opacity="0.8"/>
<circle cx="487.0" cy="156.6" r="4" fill="#16a34a" opacity="0.8"/>
<circle cx="487.0" cy="156.6" r="4" fill="#dc2626" opacity="0.8"/>
<circle cx="487.0" cy="156.6" r="4" fill="#dc2626" opacity="0.8"/>
<circle cx="501.9" cy="183.2" r="4" fill="#dc2626" opacity="0.8"/>
<circle cx="501.9" cy="183.2" r="4" fill="#16a34a" opacity="0.8"/>
<circle cx="501.9" cy="183.2" r="4" fill="#dc2626" opacity="0.8"/>
<circle cx="501.9" cy="183.2" r="4" fill="#dc2626" opacity="0.8"/>
<circle cx="501.9" cy="183.2" r="4" fill="#dc2626" opacity="0.8"/>
<circle cx="501.9" cy="183.2" r="4" fill="#16a34a" opacity="0.8"/>
<circle cx="501.9" cy="183.2" r="4" fill="#dc2626" opacity="0.8"/>
<circle cx="501.9" cy="183.2" r="4" fill="#dc2626" opacity="0.8"/>
<circle cx="516.8" cy="151.0" r="4" fill="#dc2626" opacity="0.8"/>
<circle cx="516.8" cy="151.0" r="4" fill="#dc2626" opacity="0.8"/>
<circle cx="516.8" cy="151.0" r="4" fill="#16a34a" opacity="0.8"/>
<circle cx="516.8" cy="151.0" r="4" fill="#16a34a" opacity="0.8"/>
<circle cx="516.8" cy="151.0" r="4" fill="#dc2626" opacity="0.8"/>
<circle cx="531.7" cy="143.7" r="4" fill="#16a34a" opacity="0.8"/>
<circle cx="531.7" cy="143.7" r="4" fill="#dc2626" opacity="0.8"/>
<circle cx="531.7" cy="143.7" r="4" fill="#dc2626" opacity="0.8"/>
<circle cx="531.7" cy="143.7" r="4" fill="#dc2626" opacity="0.8"/>
<circle cx="531.7" cy="143.7" r="4" fill="#dc2626" opacity="0.8"/>
<circle cx="531.7" cy="143.7" r="4" fill="#16a34a" opacity="0.8"/>
<circle cx="531.7" cy="143.7" r="4" fill="#dc2626" opacity="0.8"/>
<circle cx="531.7" cy="143.7" r="4" fill="#dc2626" opacity="0.8"/>
<circle cx="546.6" cy="135.5" r="4" fill="#dc2626" opacity="0.8"/>
<circle cx="546.6" cy="135.5" r="4" fill="#dc2626" opacity="0.8"/>
<circle cx="546.6" cy="135.5" r="4" fill="#dc2626" opacity="0.8"/>
<circle cx="546.6" cy="135.5" r="4" fill="#dc2626" opacity="0.8"/>
<circle cx="546.6" cy="135.5" r="4" fill="#dc2626" opacity="0.8"/>
<circle cx="546.6" cy="135.5" r="4" fill="#dc2626" opacity="0.8"/>
<circle cx="546.6" cy="135.5" r="4" fill="#16a34a" opacity="0.8"/>
<circle cx="546.6" cy="135.5" r="4" fill="#16a34a" opacity="0.8"/>
<circle cx="546.6" cy="135.5" r="4" fill="#16a34a" opacity="0.8"/>
<circle cx="561.5" cy="137.0" r="4" fill="#16a34a" opacity="0.8"/>
<circle cx="561.5" cy="137.0" r="4" fill="#dc2626" opacity="0.8"/>
<circle cx="561.5" cy="137.0" r="4" fill="#16a34a" opacity="0.8"/>
<circle cx="561.5" cy="137.0" r="4" fill="#16a34a" opacity="0.8"/>
<circle cx="561.5" cy="137.0" r="4" fill="#16a34a" opacity="0.8"/>
<circle cx="561.5" cy="137.0" r="4" fill="#dc2626" opacity="0.8"/>
<circle cx="561.5" cy="137.0" r="4" fill="#16a34a" opacity="0.8"/>
<circle cx="561.5" cy="137.0" r="4" fill="#dc2626" opacity="0.8"/>
<circle cx="576.4" cy="115.2" r="4" fill="#dc2626" opacity="0.8"/>
<circle cx="576.4" cy="115.2" r="4" fill="#16a34a" opacity="0.8"/>
<circle cx="576.4" cy="115.2" r="4" fill="#16a34a" opacity="0.8"/>
<circle cx="576.4" cy="115.2" r="4" fill="#16a34a" opacity="0.8"/>
<circle cx="576.4" cy="115.2" r="4" fill="#16a34a" opacity="0.8"/>
<circle cx="576.4" cy="115.2" r="4" fill="#16a34a" opacity="0.8"/>


  <!-- Y-axis labels -->
  <text x="62" y="320.0" fill="#c9d1d9" font-size="10" text-anchor="end" dominant-baseline="middle">$8,161</text><text x="62" y="268.0" fill="#c9d1d9" font-size="10" text-anchor="end" dominant-baseline="middle">$8,844</text><text x="62" y="216.0" fill="#c9d1d9" font-size="10" text-anchor="end" dominant-baseline="middle">$9,526</text><text x="62" y="164.0" fill="#c9d1d9" font-size="10" text-anchor="end" dominant-baseline="middle">$10,209</text><text x="62" y="112.0" fill="#c9d1d9" font-size="10" text-anchor="end" dominant-baseline="middle">$10,891</text><text x="62" y="60.0" fill="#c9d1d9" font-size="10" text-anchor="end" dominant-baseline="middle">$11,574</text>

  <!-- X-axis labels -->
  <text x="70.0" y="340" fill="#c9d1d9" font-size="10" text-anchor="middle">2026-05-13</text><text x="427.4" y="340" fill="#c9d1d9" font-size="10" text-anchor="middle">2026-06-16</text><text x="770.0" y="340" fill="#c9d1d9" font-size="10" text-anchor="middle">2026-07-17</text>

  <!-- Legend -->
  <circle cx="650" cy="380" r="4" fill="#16a34a"/>
  <text x="658" y="384" fill="#c9d1d9" font-size="9">Win</text>
  <circle cx="690" cy="380" r="4" fill="#dc2626"/>
  <text x="698" y="384" fill="#c9d1d9" font-size="9">Loss</text>
  <line x1="730" y1="380" x2="745" y2="380" stroke="#c9d1d9" stroke-width="0.5" stroke-dasharray="4,4" opacity="0.5"/>
  <text x="750" y="384" fill="#c9d1d9" font-size="9">$10K baseline</text>
</svg>