<svg xmlns="http://www.w3.org/2000/svg" viewBox="0 0 800 400" width="800" height="400">
  <rect width="800" height="400" fill="#0d1117" rx="8"/>

  <!-- Title -->
  <text x="70" y="30" fill="#c9d1d9" font-family="system-ui, -apple-system, sans-serif" font-size="16" font-weight="bold">Claude's Paper Trading — Equity Curve</text>
  <text x="70" y="48" fill="#58a6ff" font-family="system-ui, sans-serif" font-size="12">
    $10,000.00 (+0.00%) | Win Rate: 9/26 (35%) | Realized: $+0.75
  </text>

  <!-- Grid lines -->
  <line x1="70" y1="320.0" x2="770" y2="320.0" stroke="#21262d" stroke-width="0.5"/><line x1="70" y1="268.0" x2="770" y2="268.0" stroke="#21262d" stroke-width="0.5"/><line x1="70" y1="216.0" x2="770" y2="216.0" stroke="#21262d" stroke-width="0.5"/><line x1="70" y1="164.0" x2="770" y2="164.0" stroke="#21262d" stroke-width="0.5"/><line x1="70" y1="112.0" x2="770" y2="112.0" stroke="#21262d" stroke-width="0.5"/><line x1="70" y1="60.0" x2="770" y2="60.0" stroke="#21262d" stroke-width="0.5"/>

  <!-- Baseline (starting capital) -->
  <line x1="70" y1="143.7" x2="770" y2="143.7" stroke="#c9d1d9" stroke-width="0.5" stroke-dasharray="4,4" opacity="0.5"/>
  <text x="775" y="143.7" fill="#c9d1d9" font-size="9" opacity="0.6" dominant-baseline="middle">$10K</text>

  <!-- Fill under curve -->
  <path d="M 70.0 160.6 L 116.7 132.3 L 163.3 151.5 L 210.0 250.0 L 256.7 259.9 L 303.3 199.0 L 350.0 182.5 L 396.7 159.8 L 443.3 157.0 L 490.0 171.0 L 536.7 155.9 L 583.3 126.8 L 630.0 129.1 L 676.7 174.3 L 723.3 143.7 L 770.0 143.7 L 770.0 320.0 L 70.0 320.0 Z" fill="#16a34a" opacity="0.1"/>

  <!-- Equity line -->
  <path d="M 70.0 160.6 L 116.7 132.3 L 163.3 151.5 L 210.0 250.0 L 256.7 259.9 L 303.3 199.0 L 350.0 182.5 L 396.7 159.8 L 443.3 157.0 L 490.0 171.0 L 536.7 155.9 L 583.3 126.8 L 630.0 129.1 L 676.7 174.3 L 723.3 143.7 L 770.0 143.7" fill="none" stroke="#16a34a" stroke-width="2.5" stroke-linecap="round" stroke-linejoin="round"/>

  <!-- Data points -->
  <circle cx="70.0" cy="160.6" r="3" fill="#16a34a"/><circle cx="116.7" cy="132.3" r="3" fill="#16a34a"/><circle cx="163.3" cy="151.5" r="3" fill="#16a34a"/><circle cx="210.0" cy="250.0" r="3" fill="#16a34a"/><circle cx="256.7" cy="259.9" r="3" fill="#16a34a"/><circle cx="303.3" cy="199.0" r="3" fill="#16a34a"/><circle cx="350.0" cy="182.5" r="3" fill="#16a34a"/><circle cx="396.7" cy="159.8" r="3" fill="#16a34a"/><circle cx="443.3" cy="157.0" r="3" fill="#16a34a"/><circle cx="490.0" cy="171.0" r="3" fill="#16a34a"/><circle cx="536.7" cy="155.9" r="3" fill="#16a34a"/><circle cx="583.3" cy="126.8" r="3" fill="#16a34a"/><circle cx="630.0" cy="129.1" r="3" fill="#16a34a"/><circle cx="676.7" cy="174.3" r="3" fill="#16a34a"/><circle cx="723.3" cy="143.7" r="3" fill="#16a34a"/><circle cx="770.0" cy="143.7" r="3" fill="#16a34a"/>

  <!-- Trade markers -->
  <circle cx="256.7" cy="259.9" r="4" fill="#dc2626" opacity="0.8"/>
<circle cx="303.3" cy="199.0" r="4" fill="#dc2626" opacity="0.8"/>
<circle cx="303.3" cy="199.0" r="4" fill="#dc2626" opacity="0.8"/>
<circle cx="303.3" cy="199.0" r="4" fill="#dc2626" opacity="0.8"/>
<circle cx="396.7" cy="159.8" r="4" fill="#dc2626" opacity="0.8"/>
<circle cx="396.7" cy="159.8" r="4" fill="#16a34a" opacity="0.8"/>
<circle cx="396.7" cy="159.8" r="4" fill="#dc2626" opacity="0.8"/>
<circle cx="396.7" cy="159.8" r="4" fill="#dc2626" opacity="0.8"/>
<circle cx="396.7" cy="159.8" r="4" fill="#16a34a" opacity="0.8"/>
<circle cx="443.3" cy="157.0" r="4" fill="#16a34a" opacity="0.8"/>
<circle cx="443.3" cy="157.0" r="4" fill="#dc2626" opacity="0.8"/>
<circle cx="443.3" cy="157.0" r="4" fill="#dc2626" opacity="0.8"/>
<circle cx="443.3" cy="157.0" r="4" fill="#dc2626" opacity="0.8"/>
<circle cx="490.0" cy="171.0" r="4" fill="#dc2626" opacity="0.8"/>
<circle cx="490.0" cy="171.0" r="4" fill="#16a34a" opacity="0.8"/>
<circle cx="490.0" cy="171.0" r="4" fill="#dc2626" opacity="0.8"/>
<circle cx="490.0" cy="171.0" r="4" fill="#dc2626" opacity="0.8"/>
<circle cx="490.0" cy="171.0" r="4" fill="#dc2626" opacity="0.8"/>
<circle cx="536.7" cy="155.9" r="4" fill="#16a34a" opacity="0.8"/>
<circle cx="536.7" cy="155.9" r="4" fill="#dc2626" opacity="0.8"/>
<circle cx="536.7" cy="155.9" r="4" fill="#16a34a" opacity="0.8"/>
<circle cx="536.7" cy="155.9" r="4" fill="#dc2626" opacity="0.8"/>
<circle cx="536.7" cy="155.9" r="4" fill="#dc2626" opacity="0.8"/>
<circle cx="583.3" cy="126.8" r="4" fill="#16a34a" opacity="0.8"/>
<circle cx="583.3" cy="126.8" r="4" fill="#16a34a" opacity="0.8"/>
<circle cx="583.3" cy="126.8" r="4" fill="#16a34a" opacity="0.8"/>


  <!-- Y-axis labels -->
  <text x="62" y="320.0" fill="#c9d1d9" font-size="10" text-anchor="end" dominant-baseline="middle">$8,663</text><text x="62" y="268.0" fill="#c9d1d9" font-size="10" text-anchor="end" dominant-baseline="middle">$9,058</text><text x="62" y="216.0" fill="#c9d1d9" font-size="10" text-anchor="end" dominant-baseline="middle">$9,452</text><text x="62" y="164.0" fill="#c9d1d9" font-size="10" text-anchor="end" dominant-baseline="middle">$9,846</text><text x="62" y="112.0" fill="#c9d1d9" font-size="10" text-anchor="end" dominant-baseline="middle">$10,241</text><text x="62" y="60.0" fill="#c9d1d9" font-size="10" text-anchor="end" dominant-baseline="middle">$10,635</text>

  <!-- X-axis labels -->
  <text x="70.0" y="340" fill="#c9d1d9" font-size="10" text-anchor="middle">2026-05-13</text><text x="443.3" y="340" fill="#c9d1d9" font-size="10" text-anchor="middle">2026-05-25</text><text x="770.0" y="340" fill="#c9d1d9" font-size="10" text-anchor="middle">2026-06-03</text>

  <!-- Legend -->
  <circle cx="650" cy="380" r="4" fill="#16a34a"/>
  <text x="658" y="384" fill="#c9d1d9" font-size="9">Win</text>
  <circle cx="690" cy="380" r="4" fill="#dc2626"/>
  <text x="698" y="384" fill="#c9d1d9" font-size="9">Loss</text>
  <line x1="730" y1="380" x2="745" y2="380" stroke="#c9d1d9" stroke-width="0.5" stroke-dasharray="4,4" opacity="0.5"/>
  <text x="750" y="384" fill="#c9d1d9" font-size="9">$10K baseline</text>
</svg>