<svg xmlns="http://www.w3.org/2000/svg" viewBox="0 0 800 400" width="800" height="400">
  <rect width="800" height="400" fill="#0d1117" rx="8"/>

  <!-- Title -->
  <text x="70" y="30" fill="#c9d1d9" font-family="system-ui, -apple-system, sans-serif" font-size="16" font-weight="bold">Claude's Paper Trading — Equity Curve</text>
  <text x="70" y="48" fill="#58a6ff" font-family="system-ui, sans-serif" font-size="12">
    $9,641.03 (-3.59%) | Win Rate: 59/141 (42%) | Realized: $+214.43
  </text>

  <!-- Grid lines -->
  <line x1="70" y1="320.0" x2="770" y2="320.0" stroke="#21262d" stroke-width="0.5"/><line x1="70" y1="268.0" x2="770" y2="268.0" stroke="#21262d" stroke-width="0.5"/><line x1="70" y1="216.0" x2="770" y2="216.0" stroke="#21262d" stroke-width="0.5"/><line x1="70" y1="164.0" x2="770" y2="164.0" stroke="#21262d" stroke-width="0.5"/><line x1="70" y1="112.0" x2="770" y2="112.0" stroke="#21262d" stroke-width="0.5"/><line x1="70" y1="60.0" x2="770" y2="60.0" stroke="#21262d" stroke-width="0.5"/>

  <!-- Baseline (starting capital) -->
  <line x1="70" y1="200.6" x2="770" y2="200.6" stroke="#c9d1d9" stroke-width="0.5" stroke-dasharray="4,4" opacity="0.5"/>
  <text x="775" y="200.6" fill="#c9d1d9" font-size="9" opacity="0.6" dominant-baseline="middle">$10K</text>

  <!-- Fill under curve -->
  <path d="M 70.0 212.0 L 87.5 192.8 L 105.0 205.9 L 122.5 272.6 L 140.0 279.3 L 157.5 238.1 L 175.0 226.8 L 192.5 211.5 L 210.0 209.6 L 227.5 219.1 L 245.0 208.9 L 262.5 189.1 L 280.0 190.7 L 297.5 221.3 L 315.0 200.6 L 332.5 200.6 L 350.0 200.6 L 367.5 200.6 L 385.0 195.4 L 402.5 178.3 L 420.0 191.8 L 437.5 160.7 L 455.0 152.9 L 472.5 213.4 L 490.0 205.1 L 507.5 205.9 L 525.0 202.6 L 542.5 200.4 L 560.0 173.3 L 577.5 204.4 L 595.0 166.7 L 612.5 158.2 L 630.0 148.5 L 647.5 150.3 L 665.0 124.7 L 682.5 109.2 L 700.0 148.2 L 717.5 142.8 L 735.0 117.9 L 752.5 190.7 L 770.0 232.7 L 770.0 320.0 L 70.0 320.0 Z" fill="#dc2626" opacity="0.1"/>

  <!-- Equity line -->
  <path d="M 70.0 212.0 L 87.5 192.8 L 105.0 205.9 L 122.5 272.6 L 140.0 279.3 L 157.5 238.1 L 175.0 226.8 L 192.5 211.5 L 210.0 209.6 L 227.5 219.1 L 245.0 208.9 L 262.5 189.1 L 280.0 190.7 L 297.5 221.3 L 315.0 200.6 L 332.5 200.6 L 350.0 200.6 L 367.5 200.6 L 385.0 195.4 L 402.5 178.3 L 420.0 191.8 L 437.5 160.7 L 455.0 152.9 L 472.5 213.4 L 490.0 205.1 L 507.5 205.9 L 525.0 202.6 L 542.5 200.4 L 560.0 173.3 L 577.5 204.4 L 595.0 166.7 L 612.5 158.2 L 630.0 148.5 L 647.5 150.3 L 665.0 124.7 L 682.5 109.2 L 700.0 148.2 L 717.5 142.8 L 735.0 117.9 L 752.5 190.7 L 770.0 232.7" fill="none" stroke="#dc2626" stroke-width="2.5" stroke-linecap="round" stroke-linejoin="round"/>

  <!-- Data points -->
  <circle cx="70.0" cy="212.0" r="3" fill="#dc2626"/><circle cx="87.5" cy="192.8" r="3" fill="#dc2626"/><circle cx="105.0" cy="205.9" r="3" fill="#dc2626"/><circle cx="122.5" cy="272.6" r="3" fill="#dc2626"/><circle cx="140.0" cy="279.3" r="3" fill="#dc2626"/><circle cx="157.5" cy="238.1" r="3" fill="#dc2626"/><circle cx="175.0" cy="226.8" r="3" fill="#dc2626"/><circle cx="192.5" cy="211.5" r="3" fill="#dc2626"/><circle cx="210.0" cy="209.6" r="3" fill="#dc2626"/><circle cx="227.5" cy="219.1" r="3" fill="#dc2626"/><circle cx="245.0" cy="208.9" r="3" fill="#dc2626"/><circle cx="262.5" cy="189.1" r="3" fill="#dc2626"/><circle cx="280.0" cy="190.7" r="3" fill="#dc2626"/><circle cx="297.5" cy="221.3" r="3" fill="#dc2626"/><circle cx="315.0" cy="200.6" r="3" fill="#dc2626"/><circle cx="332.5" cy="200.6" r="3" fill="#dc2626"/><circle cx="350.0" cy="200.6" r="3" fill="#dc2626"/><circle cx="367.5" cy="200.6" r="3" fill="#dc2626"/><circle cx="385.0" cy="195.4" r="3" fill="#dc2626"/><circle cx="402.5" cy="178.3" r="3" fill="#dc2626"/><circle cx="420.0" cy="191.8" r="3" fill="#dc2626"/><circle cx="437.5" cy="160.7" r="3" fill="#dc2626"/><circle cx="455.0" cy="152.9" r="3" fill="#dc2626"/><circle cx="472.5" cy="213.4" r="3" fill="#dc2626"/><circle cx="490.0" cy="205.1" r="3" fill="#dc2626"/><circle cx="507.5" cy="205.9" r="3" fill="#dc2626"/><circle cx="525.0" cy="202.6" r="3" fill="#dc2626"/><circle cx="542.5" cy="200.4" r="3" fill="#dc2626"/><circle cx="560.0" cy="173.3" r="3" fill="#dc2626"/><circle cx="577.5" cy="204.4" r="3" fill="#dc2626"/><circle cx="595.0" cy="166.7" r="3" fill="#dc2626"/><circle cx="612.5" cy="158.2" r="3" fill="#dc2626"/><circle cx="630.0" cy="148.5" r="3" fill="#dc2626"/><circle cx="647.5" cy="150.3" r="3" fill="#dc2626"/><circle cx="665.0" cy="124.7" r="3" fill="#dc2626"/><circle cx="682.5" cy="109.2" r="3" fill="#dc2626"/><circle cx="700.0" cy="148.2" r="3" fill="#dc2626"/><circle cx="717.5" cy="142.8" r="3" fill="#dc2626"/><circle cx="735.0" cy="117.9" r="3" fill="#dc2626"/><circle cx="752.5" cy="190.7" r="3" fill="#dc2626"/><circle cx="770.0" cy="232.7" r="3" fill="#dc2626"/>

  <!-- Trade markers -->
  <circle cx="140.0" cy="279.3" r="4" fill="#dc2626" opacity="0.8"/>
<circle cx="157.5" cy="238.1" r="4" fill="#dc2626" opacity="0.8"/>
<circle cx="157.5" cy="238.1" r="4" fill="#dc2626" opacity="0.8"/>
<circle cx="157.5" cy="238.1" r="4" fill="#dc2626" opacity="0.8"/>
<circle cx="192.5" cy="211.5" r="4" fill="#dc2626" opacity="0.8"/>
<circle cx="192.5" cy="211.5" r="4" fill="#16a34a" opacity="0.8"/>
<circle cx="192.5" cy="211.5" r="4" fill="#dc2626" opacity="0.8"/>
<circle cx="192.5" cy="211.5" r="4" fill="#dc2626" opacity="0.8"/>
<circle cx="192.5" cy="211.5" r="4" fill="#16a34a" opacity="0.8"/>
<circle cx="210.0" cy="209.6" r="4" fill="#16a34a" opacity="0.8"/>
<circle cx="210.0" cy="209.6" r="4" fill="#dc2626" opacity="0.8"/>
<circle cx="210.0" cy="209.6" r="4" fill="#dc2626" opacity="0.8"/>
<circle cx="210.0" cy="209.6" r="4" fill="#dc2626" opacity="0.8"/>
<circle cx="227.5" cy="219.1" r="4" fill="#dc2626" opacity="0.8"/>
<circle cx="227.5" cy="219.1" r="4" fill="#16a34a" opacity="0.8"/>
<circle cx="227.5" cy="219.1" r="4" fill="#dc2626" opacity="0.8"/>
<circle cx="227.5" cy="219.1" r="4" fill="#dc2626" opacity="0.8"/>
<circle cx="227.5" cy="219.1" r="4" fill="#dc2626" opacity="0.8"/>
<circle cx="245.0" cy="208.9" r="4" fill="#16a34a" opacity="0.8"/>
<circle cx="245.0" cy="208.9" r="4" fill="#dc2626" opacity="0.8"/>
<circle cx="245.0" cy="208.9" r="4" fill="#16a34a" opacity="0.8"/>
<circle cx="245.0" cy="208.9" r="4" fill="#dc2626" opacity="0.8"/>
<circle cx="245.0" cy="208.9" r="4" fill="#dc2626" opacity="0.8"/>
<circle cx="262.5" cy="189.1" r="4" fill="#16a34a" opacity="0.8"/>
<circle cx="262.5" cy="189.1" r="4" fill="#16a34a" opacity="0.8"/>
<circle cx="262.5" cy="189.1" r="4" fill="#16a34a" opacity="0.8"/>
<circle cx="402.5" cy="178.3" r="4" fill="#dc2626" opacity="0.8"/>
<circle cx="402.5" cy="178.3" r="4" fill="#dc2626" opacity="0.8"/>
<circle cx="402.5" cy="178.3" r="4" fill="#16a34a" opacity="0.8"/>
<circle cx="402.5" cy="178.3" r="4" fill="#16a34a" opacity="0.8"/>
<circle cx="402.5" cy="178.3" r="4" fill="#16a34a" opacity="0.8"/>
<circle cx="420.0" cy="191.8" r="4" fill="#16a34a" opacity="0.8"/>
<circle cx="420.0" cy="191.8" r="4" fill="#16a34a" opacity="0.8"/>
<circle cx="420.0" cy="191.8" r="4" fill="#dc2626" opacity="0.8"/>
<circle cx="420.0" cy="191.8" r="4" fill="#16a34a" opacity="0.8"/>
<circle cx="420.0" cy="191.8" r="4" fill="#dc2626" opacity="0.8"/>
<circle cx="420.0" cy="191.8" r="4" fill="#dc2626" opacity="0.8"/>
<circle cx="420.0" cy="191.8" r="4" fill="#dc2626" opacity="0.8"/>
<circle cx="437.5" cy="160.7" r="4" fill="#dc2626" opacity="0.8"/>
<circle cx="437.5" cy="160.7" r="4" fill="#16a34a" opacity="0.8"/>
<circle cx="437.5" cy="160.7" r="4" fill="#16a34a" opacity="0.8"/>
<circle cx="437.5" cy="160.7" r="4" fill="#dc2626" opacity="0.8"/>
<circle cx="437.5" cy="160.7" r="4" fill="#16a34a" opacity="0.8"/>
<circle cx="437.5" cy="160.7" r="4" fill="#16a34a" opacity="0.8"/>
<circle cx="455.0" cy="152.9" r="4" fill="#dc2626" opacity="0.8"/>
<circle cx="455.0" cy="152.9" r="4" fill="#16a34a" opacity="0.8"/>
<circle cx="455.0" cy="152.9" r="4" fill="#16a34a" opacity="0.8"/>
<circle cx="455.0" cy="152.9" r="4" fill="#16a34a" opacity="0.8"/>
<circle cx="455.0" cy="152.9" r="4" fill="#dc2626" opacity="0.8"/>
<circle cx="455.0" cy="152.9" r="4" fill="#dc2626" opacity="0.8"/>
<circle cx="455.0" cy="152.9" r="4" fill="#16a34a" opacity="0.8"/>
<circle cx="472.5" cy="213.4" r="4" fill="#16a34a" opacity="0.8"/>
<circle cx="472.5" cy="213.4" r="4" fill="#dc2626" opacity="0.8"/>
<circle cx="472.5" cy="213.4" r="4" fill="#dc2626" opacity="0.8"/>
<circle cx="472.5" cy="213.4" r="4" fill="#16a34a" opacity="0.8"/>
<circle cx="472.5" cy="213.4" r="4" fill="#dc2626" opacity="0.8"/>
<circle cx="472.5" cy="213.4" r="4" fill="#dc2626" opacity="0.8"/>
<circle cx="472.5" cy="213.4" r="4" fill="#dc2626" opacity="0.8"/>
<circle cx="472.5" cy="213.4" r="4" fill="#dc2626" opacity="0.8"/>
<circle cx="472.5" cy="213.4" r="4" fill="#dc2626" opacity="0.8"/>
<circle cx="490.0" cy="205.1" r="4" fill="#dc2626" opacity="0.8"/>
<circle cx="490.0" cy="205.1" r="4" fill="#16a34a" opacity="0.8"/>
<circle cx="490.0" cy="205.1" r="4" fill="#dc2626" opacity="0.8"/>
<circle cx="490.0" cy="205.1" r="4" fill="#16a34a" opacity="0.8"/>
<circle cx="490.0" cy="205.1" r="4" fill="#16a34a" opacity="0.8"/>
<circle cx="490.0" cy="205.1" r="4" fill="#16a34a" opacity="0.8"/>
<circle cx="490.0" cy="205.1" r="4" fill="#16a34a" opacity="0.8"/>
<circle cx="490.0" cy="205.1" r="4" fill="#16a34a" opacity="0.8"/>
<circle cx="490.0" cy="205.1" r="4" fill="#dc2626" opacity="0.8"/>
<circle cx="507.5" cy="205.9" r="4" fill="#16a34a" opacity="0.8"/>
<circle cx="507.5" cy="205.9" r="4" fill="#dc2626" opacity="0.8"/>
<circle cx="507.5" cy="205.9" r="4" fill="#dc2626" opacity="0.8"/>
<circle cx="507.5" cy="205.9" r="4" fill="#16a34a" opacity="0.8"/>
<circle cx="507.5" cy="205.9" r="4" fill="#16a34a" opacity="0.8"/>
<circle cx="507.5" cy="205.9" r="4" fill="#16a34a" opacity="0.8"/>
<circle cx="507.5" cy="205.9" r="4" fill="#dc2626" opacity="0.8"/>
<circle cx="525.0" cy="202.6" r="4" fill="#dc2626" opacity="0.8"/>
<circle cx="525.0" cy="202.6" r="4" fill="#dc2626" opacity="0.8"/>
<circle cx="525.0" cy="202.6" r="4" fill="#dc2626" opacity="0.8"/>
<circle cx="525.0" cy="202.6" r="4" fill="#16a34a" opacity="0.8"/>
<circle cx="525.0" cy="202.6" r="4" fill="#16a34a" opacity="0.8"/>
<circle cx="525.0" cy="202.6" r="4" fill="#dc2626" opacity="0.8"/>
<circle cx="542.5" cy="200.4" r="4" fill="#dc2626" opacity="0.8"/>
<circle cx="542.5" cy="200.4" r="4" fill="#dc2626" opacity="0.8"/>
<circle cx="542.5" cy="200.4" r="4" fill="#dc2626" opacity="0.8"/>
<circle cx="542.5" cy="200.4" r="4" fill="#dc2626" opacity="0.8"/>
<circle cx="542.5" cy="200.4" r="4" fill="#16a34a" opacity="0.8"/>
<circle cx="542.5" cy="200.4" r="4" fill="#dc2626" opacity="0.8"/>
<circle cx="542.5" cy="200.4" r="4" fill="#dc2626" opacity="0.8"/>
<circle cx="542.5" cy="200.4" r="4" fill="#dc2626" opacity="0.8"/>
<circle cx="542.5" cy="200.4" r="4" fill="#dc2626" opacity="0.8"/>
<circle cx="560.0" cy="173.3" r="4" fill="#dc2626" opacity="0.8"/>
<circle cx="560.0" cy="173.3" r="4" fill="#16a34a" opacity="0.8"/>
<circle cx="560.0" cy="173.3" r="4" fill="#dc2626" opacity="0.8"/>
<circle cx="560.0" cy="173.3" r="4" fill="#16a34a" opacity="0.8"/>
<circle cx="560.0" cy="173.3" r="4" fill="#dc2626" opacity="0.8"/>
<circle cx="560.0" cy="173.3" r="4" fill="#dc2626" opacity="0.8"/>
<circle cx="577.5" cy="204.4" r="4" fill="#dc2626" opacity="0.8"/>
<circle cx="577.5" cy="204.4" r="4" fill="#16a34a" opacity="0.8"/>
<circle cx="577.5" cy="204.4" r="4" fill="#dc2626" opacity="0.8"/>
<circle cx="577.5" cy="204.4" r="4" fill="#dc2626" opacity="0.8"/>
<circle cx="577.5" cy="204.4" r="4" fill="#dc2626" opacity="0.8"/>
<circle cx="577.5" cy="204.4" r="4" fill="#16a34a" opacity="0.8"/>
<circle cx="577.5" cy="204.4" r="4" fill="#dc2626" opacity="0.8"/>
<circle cx="577.5" cy="204.4" r="4" fill="#dc2626" opacity="0.8"/>
<circle cx="595.0" cy="166.7" r="4" fill="#dc2626" opacity="0.8"/>
<circle cx="595.0" cy="166.7" r="4" fill="#dc2626" opacity="0.8"/>
<circle cx="595.0" cy="166.7" r="4" fill="#16a34a" opacity="0.8"/>
<circle cx="595.0" cy="166.7" r="4" fill="#16a34a" opacity="0.8"/>
<circle cx="595.0" cy="166.7" r="4" fill="#dc2626" opacity="0.8"/>
<circle cx="612.5" cy="158.2" r="4" fill="#16a34a" opacity="0.8"/>
<circle cx="612.5" cy="158.2" r="4" fill="#dc2626" opacity="0.8"/>
<circle cx="612.5" cy="158.2" r="4" fill="#dc2626" opacity="0.8"/>
<circle cx="612.5" cy="158.2" r="4" fill="#dc2626" opacity="0.8"/>
<circle cx="612.5" cy="158.2" r="4" fill="#dc2626" opacity="0.8"/>
<circle cx="612.5" cy="158.2" r="4" fill="#16a34a" opacity="0.8"/>
<circle cx="612.5" cy="158.2" r="4" fill="#dc2626" opacity="0.8"/>
<circle cx="612.5" cy="158.2" r="4" fill="#dc2626" opacity="0.8"/>
<circle cx="630.0" cy="148.5" r="4" fill="#dc2626" opacity="0.8"/>
<circle cx="630.0" cy="148.5" r="4" fill="#dc2626" opacity="0.8"/>
<circle cx="630.0" cy="148.5" r="4" fill="#dc2626" opacity="0.8"/>
<circle cx="630.0" cy="148.5" r="4" fill="#dc2626" opacity="0.8"/>
<circle cx="630.0" cy="148.5" r="4" fill="#dc2626" opacity="0.8"/>
<circle cx="630.0" cy="148.5" r="4" fill="#dc2626" opacity="0.8"/>
<circle cx="630.0" cy="148.5" r="4" fill="#16a34a" opacity="0.8"/>
<circle cx="630.0" cy="148.5" r="4" fill="#16a34a" opacity="0.8"/>
<circle cx="630.0" cy="148.5" r="4" fill="#16a34a" opacity="0.8"/>
<circle cx="647.5" cy="150.3" r="4" fill="#16a34a" opacity="0.8"/>
<circle cx="647.5" cy="150.3" r="4" fill="#dc2626" opacity="0.8"/>
<circle cx="647.5" cy="150.3" r="4" fill="#16a34a" opacity="0.8"/>
<circle cx="647.5" cy="150.3" r="4" fill="#16a34a" opacity="0.8"/>
<circle cx="647.5" cy="150.3" r="4" fill="#16a34a" opacity="0.8"/>
<circle cx="647.5" cy="150.3" r="4" fill="#dc2626" opacity="0.8"/>
<circle cx="647.5" cy="150.3" r="4" fill="#16a34a" opacity="0.8"/>
<circle cx="647.5" cy="150.3" r="4" fill="#dc2626" opacity="0.8"/>
<circle cx="665.0" cy="124.7" r="4" fill="#dc2626" opacity="0.8"/>
<circle cx="665.0" cy="124.7" r="4" fill="#16a34a" opacity="0.8"/>
<circle cx="665.0" cy="124.7" r="4" fill="#16a34a" opacity="0.8"/>
<circle cx="665.0" cy="124.7" r="4" fill="#16a34a" opacity="0.8"/>
<circle cx="665.0" cy="124.7" r="4" fill="#16a34a" opacity="0.8"/>
<circle cx="665.0" cy="124.7" r="4" fill="#16a34a" opacity="0.8"/>


  <!-- Y-axis labels -->
  <text x="62" y="320.0" fill="#c9d1d9" font-size="10" text-anchor="end" dominant-baseline="middle">$8,663</text><text x="62" y="268.0" fill="#c9d1d9" font-size="10" text-anchor="end" dominant-baseline="middle">$9,245</text><text x="62" y="216.0" fill="#c9d1d9" font-size="10" text-anchor="end" dominant-baseline="middle">$9,827</text><text x="62" y="164.0" fill="#c9d1d9" font-size="10" text-anchor="end" dominant-baseline="middle">$10,410</text><text x="62" y="112.0" fill="#c9d1d9" font-size="10" text-anchor="end" dominant-baseline="middle">$10,992</text><text x="62" y="60.0" fill="#c9d1d9" font-size="10" text-anchor="end" dominant-baseline="middle">$11,574</text>

  <!-- X-axis labels -->
  <text x="70.0" y="340" fill="#c9d1d9" font-size="10" text-anchor="middle">2026-05-13</text><text x="420.0" y="340" fill="#c9d1d9" font-size="10" text-anchor="middle">2026-06-10</text><text x="770.0" y="340" fill="#c9d1d9" font-size="10" text-anchor="middle">2026-07-08</text>

  <!-- Legend -->
  <circle cx="650" cy="380" r="4" fill="#16a34a"/>
  <text x="658" y="384" fill="#c9d1d9" font-size="9">Win</text>
  <circle cx="690" cy="380" r="4" fill="#dc2626"/>
  <text x="698" y="384" fill="#c9d1d9" font-size="9">Loss</text>
  <line x1="730" y1="380" x2="745" y2="380" stroke="#c9d1d9" stroke-width="0.5" stroke-dasharray="4,4" opacity="0.5"/>
  <text x="750" y="384" fill="#c9d1d9" font-size="9">$10K baseline</text>
</svg>