<svg xmlns="http://www.w3.org/2000/svg" width="800" height="350" style="font-family:-apple-system,Arial,sans-serif;">
<rect width="800" height="350" fill="#ffffff"/>
<line x1="70" y1="40.0" x2="770" y2="40.0" stroke="#f0f0f0" stroke-width="1"/>
<text x="62" y="44.0" text-anchor="end" fill="#666" font-size="11">+12.1%</text>
<line x1="70" y1="92.0" x2="770" y2="92.0" stroke="#f0f0f0" stroke-width="1"/>
<text x="62" y="96.0" text-anchor="end" fill="#666" font-size="11">+7.6%</text>
<line x1="70" y1="144.0" x2="770" y2="144.0" stroke="#f0f0f0" stroke-width="1"/>
<text x="62" y="148.0" text-anchor="end" fill="#666" font-size="11">+3.0%</text>
<line x1="70" y1="196.0" x2="770" y2="196.0" stroke="#f0f0f0" stroke-width="1"/>
<text x="62" y="200.0" text-anchor="end" fill="#666" font-size="11">-1.6%</text>
<line x1="70" y1="248.0" x2="770" y2="248.0" stroke="#f0f0f0" stroke-width="1"/>
<text x="62" y="252.0" text-anchor="end" fill="#666" font-size="11">-6.1%</text>
<line x1="70" y1="300.0" x2="770" y2="300.0" stroke="#f0f0f0" stroke-width="1"/>
<text x="62" y="304.0" text-anchor="end" fill="#666" font-size="11">-10.7%</text>
<line x1="70" y1="178.07723827084615" x2="770" y2="178.07723827084615" stroke="#ddd" stroke-width="1.5" stroke-dasharray="4,4"/>
<text x="70.0" y="335" text-anchor="middle" fill="#666" font-size="11">05-13</text>
<text x="175.0" y="335" text-anchor="middle" fill="#666" font-size="11">05-21</text>
<text x="280.0" y="335" text-anchor="middle" fill="#666" font-size="11">05-29</text>
<text x="385.0" y="335" text-anchor="middle" fill="#666" font-size="11">06-08</text>
<text x="490.0" y="335" text-anchor="middle" fill="#666" font-size="11">06-16</text>
<text x="595.0" y="335" text-anchor="middle" fill="#666" font-size="11">06-24</text>
<text x="700.0" y="335" text-anchor="middle" fill="#666" font-size="11">07-02</text>
<path d="M 70.0,192.61888501900796 L 87.5,168.1896924582849 L 105.0,184.78920530856604 L 122.5,269.81276605431486 L 140.0,278.3333333333333 L 157.5,225.81791071957028 L 175.0,211.5334972341734 L 192.5,191.98149286348428 L 210.0,189.50590725944136 L 227.5,201.66416262605566 L 245.0,188.6329076464295 L 262.5,163.45705570352155 L 280.0,165.4671173939766 L 297.5,204.44023310341697 L 315.0,178.07723827084615 L 332.5,178.07723827084615 L 350.0,178.07723827084615 L 367.5,178.07723827084615 L 385.0,171.42104304673455 L 402.5,149.69507614559853 L 420.0,166.88986774112766 L 437.5,127.19740945616789 L 455.0,117.3041726422181 L 472.5,194.39675385280788 L 490.0,183.8388080766693 L 507.5,184.85408272439628 L 525.0,180.6347742948849 L 542.5,177.8302488105807 L 560.0,143.27562657925287 L 577.5,182.99312527032265 L 595.0,134.87570852967298 L 612.5,124.03093628354847 L 630.0,111.73837328416309 L 647.5,114.0113592387716 L 665.0,81.42809988845647 L 682.5,61.666666666666686 L 700.0,111.35935259168204 L 717.5,104.42657470008427 L 735.0,72.74704637027938 L 752.5,165.4580117917548 L 770.0,218.93521364019205" fill="none" stroke="#3b82f6" stroke-width="2.5" stroke-linecap="round"/>
<path d="M 350.0,223.10899405859448 L 367.5,230.86013794987366 L 385.0,228.0430922625145 L 402.5,240.13760841357646 L 420.0,248.9973593753557" fill="none" stroke="#f97316" stroke-width="2.5" stroke-linecap="round"/>
<rect x="80" y="45" width="12" height="3" fill="#3b82f6"/>
<text x="96" y="49" fill="#333" font-size="12">Strategy A (Claude)</text>
<rect x="80" y="61" width="12" height="3" fill="#f97316"/>
<text x="96" y="65" fill="#333" font-size="12">Strategy B (TradingAgents)</text>
<text x="400.0" y="20" text-anchor="middle" fill="#1a1a1a" font-size="14" font-weight="600">AI Trading Strategies — $10K Each</text>
<text x="765" y="55" text-anchor="end" fill="#f97316" font-size="11" font-weight="600">$9,377 (-6.2%)</text>
<text x="765" y="70" text-anchor="end" fill="#3b82f6" font-size="11" font-weight="600">$9,641 (-3.6%)</text>
</svg>