<svg xmlns="http://www.w3.org/2000/svg" width="800" height="350" style="font-family:-apple-system,Arial,sans-serif;">
<rect width="800" height="350" fill="#ffffff"/>
<line x1="70" y1="40.0" x2="770" y2="40.0" stroke="#f0f0f0" stroke-width="1"/>
<text x="62" y="44.0" text-anchor="end" fill="#666" font-size="11">+6.8%</text>
<line x1="70" y1="92.0" x2="770" y2="92.0" stroke="#f0f0f0" stroke-width="1"/>
<text x="62" y="96.0" text-anchor="end" fill="#666" font-size="11">+3.4%</text>
<line x1="70" y1="144.0" x2="770" y2="144.0" stroke="#f0f0f0" stroke-width="1"/>
<text x="62" y="148.0" text-anchor="end" fill="#666" font-size="11">-0.0%</text>
<line x1="70" y1="196.0" x2="770" y2="196.0" stroke="#f0f0f0" stroke-width="1"/>
<text x="62" y="200.0" text-anchor="end" fill="#666" font-size="11">-3.4%</text>
<line x1="70" y1="248.0" x2="770" y2="248.0" stroke="#f0f0f0" stroke-width="1"/>
<text x="62" y="252.0" text-anchor="end" fill="#666" font-size="11">-6.8%</text>
<line x1="70" y1="300.0" x2="770" y2="300.0" stroke="#f0f0f0" stroke-width="1"/>
<text x="62" y="304.0" text-anchor="end" fill="#666" font-size="11">-10.2%</text>
<line x1="70" y1="143.43755522099005" x2="770" y2="143.43755522099005" stroke="#ddd" stroke-width="1.5" stroke-dasharray="4,4"/>
<text x="70.0" y="335" text-anchor="middle" fill="#666" font-size="11">05-13</text>
<text x="182.0" y="335" text-anchor="middle" fill="#666" font-size="11">05-19</text>
<text x="294.0" y="335" text-anchor="middle" fill="#666" font-size="11">05-25</text>
<text x="406.0" y="335" text-anchor="middle" fill="#666" font-size="11">05-29</text>
<text x="518.0" y="335" text-anchor="middle" fill="#666" font-size="11">06-04</text>
<text x="630.0" y="335" text-anchor="middle" fill="#666" font-size="11">06-10</text>
<text x="742.0" y="335" text-anchor="middle" fill="#666" font-size="11">06-16</text>
<path d="M 70.0,163.00351529459448 L 98.0,130.13374376518203 L 126.0,152.46858735577743 L 154.0,266.868807886323 L 182.0,278.3333333333333 L 210.0,207.67320247578533 L 238.0,188.45335284180481 L 266.0,162.1458965061459 L 294.0,158.8149663902967 L 322.0,175.1740447799524 L 350.0,157.64033494254664 L 378.0,123.76592426095166 L 406.0,126.47048636880899 L 434.0,178.9092808960704 L 462.0,143.43755522099005 L 490.0,143.43755522099005 L 518.0,143.43755522099005 L 546.0,143.43755522099005 L 574.0,134.48156473019182 L 602.0,105.24901574107449 L 630.0,128.3848140215959 L 658.0,74.9781354330857 L 686.0,61.666666666666686 L 714.0,165.39565912951687 L 742.0,151.18981648371604 L 770.0,137.11721104254872" fill="none" stroke="#3b82f6" stroke-width="2.5" stroke-linecap="round"/>
<path d="M 518.0,204.0283226248789 L 546.0,214.45757967726203 L 574.0,210.66721092474396 L 602.0,226.94052743555494 L 630.0,238.86142859498958" fill="none" stroke="#f97316" stroke-width="2.5" stroke-linecap="round"/>
<rect x="80" y="45" width="12" height="3" fill="#3b82f6"/>
<text x="96" y="49" fill="#333" font-size="12">Strategy A (Claude)</text>
<rect x="80" y="61" width="12" height="3" fill="#f97316"/>
<text x="96" y="65" fill="#333" font-size="12">Strategy B (TradingAgents)</text>
<text x="400.0" y="20" text-anchor="middle" fill="#1a1a1a" font-size="14" font-weight="600">AI Trading Strategies — $10K Each</text>
<text x="765" y="55" text-anchor="end" fill="#f97316" font-size="11" font-weight="600">$9,377 (-6.2%)</text>
<text x="765" y="70" text-anchor="end" fill="#3b82f6" font-size="11" font-weight="600">$10,041 (+0.4%)</text>
</svg>