<svg xmlns="http://www.w3.org/2000/svg" width="800" height="350" style="font-family:-apple-system,Arial,sans-serif;">
<rect width="800" height="350" fill="#ffffff"/>
<line x1="70" y1="40.0" x2="770" y2="40.0" stroke="#f0f0f0" stroke-width="1"/>
<text x="62" y="44.0" text-anchor="end" fill="#666" font-size="11">+1.8%</text>
<line x1="70" y1="92.0" x2="770" y2="92.0" stroke="#f0f0f0" stroke-width="1"/>
<text x="62" y="96.0" text-anchor="end" fill="#666" font-size="11">-0.5%</text>
<line x1="70" y1="144.0" x2="770" y2="144.0" stroke="#f0f0f0" stroke-width="1"/>
<text x="62" y="148.0" text-anchor="end" fill="#666" font-size="11">-2.8%</text>
<line x1="70" y1="196.0" x2="770" y2="196.0" stroke="#f0f0f0" stroke-width="1"/>
<text x="62" y="200.0" text-anchor="end" fill="#666" font-size="11">-5.1%</text>
<line x1="70" y1="248.0" x2="770" y2="248.0" stroke="#f0f0f0" stroke-width="1"/>
<text x="62" y="252.0" text-anchor="end" fill="#666" font-size="11">-7.5%</text>
<line x1="70" y1="300.0" x2="770" y2="300.0" stroke="#f0f0f0" stroke-width="1"/>
<text x="62" y="304.0" text-anchor="end" fill="#666" font-size="11">-9.8%</text>
<line x1="70" y1="81.11673728083787" x2="770" y2="81.11673728083787" stroke="#ddd" stroke-width="1.5" stroke-dasharray="4,4"/>
<text x="70.0" y="335" text-anchor="middle" fill="#666" font-size="11">05-13</text>
<text x="186.66666666666669" y="335" text-anchor="middle" fill="#666" font-size="11">05-15</text>
<text x="303.33333333333337" y="335" text-anchor="middle" fill="#666" font-size="11">05-19</text>
<text x="420.0" y="335" text-anchor="middle" fill="#666" font-size="11">05-21</text>
<text x="536.6666666666667" y="335" text-anchor="middle" fill="#666" font-size="11">05-25</text>
<text x="653.3333333333334" y="335" text-anchor="middle" fill="#666" font-size="11">05-27</text>
<text x="770.0" y="335" text-anchor="middle" fill="#666" font-size="11">06-01</text>
<path d="M 70.0,109.72202128758931 L 128.33333333333334,61.666666666666686 L 186.66666666666669,94.32003720161205 L 245.0,261.57228479900783 L 303.33333333333337,278.3333333333333 L 361.6666666666667,175.02876235748016 L 420.0,146.929489166753 L 478.33333333333337,108.46818917708669 L 536.6666666666667,103.59839481933119 L 595.0,127.51524232716753 L 653.3333333333334,101.88109262512498 L 711.6666666666667,92.65199269746154" fill="none" stroke="#3b82f6" stroke-width="2.5" stroke-linecap="round"/>
<path d="M 420.0,81.11673728083787 L 420.0,84.36998381040985 L 478.33333333333337,87.6254693258931 L 536.6666666666667,90.87871585546509 L 595.0,94.13196238503664 L 653.3333333333334,97.38520891460863 L 711.6666666666667,100.64069443009228 L 770.0,103.89394095966384" fill="none" stroke="#f97316" stroke-width="2.5" stroke-linecap="round"/>
<rect x="80" y="45" width="12" height="3" fill="#3b82f6"/>
<text x="96" y="49" fill="#333" font-size="12">Strategy A (Claude)</text>
<rect x="80" y="61" width="12" height="3" fill="#f97316"/>
<text x="96" y="65" fill="#333" font-size="12">Strategy B (TradingAgents)</text>
<text x="400.0" y="20" text-anchor="middle" fill="#1a1a1a" font-size="14" font-weight="600">AI Trading Strategies — $10K Each</text>
<text x="765" y="55" text-anchor="end" fill="#f97316" font-size="11" font-weight="600">$9,898 (-1.0%)</text>
<text x="765" y="70" text-anchor="end" fill="#3b82f6" font-size="11" font-weight="600">$9,948 (-0.5%)</text>
</svg>